STARTFONT 2.1
COMMENT
COMMENT Converted from OpenType font "secrcode.ttf" by "otf2bdf 3.0".
COMMENT
FONT -FreeType-Secret Code-Medium-R-Normal--39-280-100-100-P-135-ISO10646-1
SIZE 28 100 100
FONTBOUNDINGBOX 17 27 0 0
STARTPROPERTIES 19
FOUNDRY "FreeType"
FAMILY_NAME "Secret Code"
WEIGHT_NAME "Medium"
SLANT "R"
SETWIDTH_NAME "Normal"
ADD_STYLE_NAME ""
PIXEL_SIZE 39
POINT_SIZE 280
RESOLUTION_X 100
RESOLUTION_Y 100
SPACING "P"
AVERAGE_WIDTH 135
CHARSET_REGISTRY "ISO10646"
CHARSET_ENCODING "1"
FONT_ASCENT 29
FONT_DESCENT 9
COPYRIGHT "Copyright © 1998 by Matthew Welch. All Rights Reserved."
_OTF_FONTFILE "secrcode.ttf"
_OTF_PSNAME "SecretCode"
ENDPROPERTIES
CHARS 10
STARTCHAR 0030
ENCODING 48
SWIDTH 540 0
DWIDTH 21 0
BBX 14 27 3 0
BITMAP
0780
1860
2020
2010
4010
4008
4008
4008
8004
8004
8004
8004
8004
8004
8004
8004
8004
8004
8004
4008
4008
4008
4010
2010
2030
1860
0780
ENDCHAR
STARTCHAR 0031
ENCODING 49
SWIDTH 540 0
DWIDTH 21 0
BBX 5 27 8 0
BITMAP
08
18
68
C8
08
08
08
08
08
08
08
08
08
08
08
08
08
08
08
08
08
08
08
08
08
08
08
ENDCHAR
STARTCHAR 0032
ENCODING 50
SWIDTH 540 0
DWIDTH 21 0
BBX 14 27 3 0
BITMAP
0FC0
1020
2010
4008
8004
8004
8004
0004
0004
0008
0008
0010
0030
0020
0040
0080
0100
0100
0200
0400
0800
0800
1000
2000
4000
C000
FFFC
ENDCHAR
STARTCHAR 0033
ENCODING 51
SWIDTH 540 0
DWIDTH 21 0
BBX 14 27 3 0
BITMAP
0FC0
1020
2010
4008
8004
8004
8004
0004
0004
000C
0008
0010
0060
01C0
0060
0010
0008
000C
0004
0004
8004
8004
8004
4008
2010
1020
0FC0
ENDCHAR
STARTCHAR 0034
ENCODING 52
SWIDTH 540 0
DWIDTH 21 0
BBX 13 27 4 0
BITMAP
0040
0040
0040
0040
0840
0840
0840
0840
0840
0840
1040
1040
1040
1040
2040
2040
4040
8040
FFF8
0040
0040
0040
0040
0040
0040
0040
0040
ENDCHAR
STARTCHAR 0035
ENCODING 53
SWIDTH 540 0
DWIDTH 21 0
BBX 14 27 3 0
BITMAP
3FF0
2000
2000
2000
2000
2000
6000
4000
4000
4780
5860
6010
4010
0008
0008
0004
0004
0004
0004
0004
8004
8008
8008
4010
2010
1060
0F80
ENDCHAR
STARTCHAR 0036
ENCODING 54
SWIDTH 540 0
DWIDTH 21 0
BBX 14 27 3 0
BITMAP
07C0
0830
1008
2000
4000
4000
4000
8000
8000
8F80
9860
A010
E010
C008
C008
8004
8004
8004
8004
8004
8004
4008
4008
6010
2010
1860
0780
ENDCHAR
STARTCHAR 0037
ENCODING 55
SWIDTH 540 0
DWIDTH 21 0
BBX 14 27 3 0
BITMAP
FFFC
0004
0008
0008
0010
0010
0020
0020
0040
0040
0080
0080
0100
0100
0200
0200
0400
0400
0800
0800
1000
1000
1000
2000
2000
4000
4000
ENDCHAR
STARTCHAR 0038
ENCODING 56
SWIDTH 540 0
DWIDTH 21 0
BBX 14 27 3 0
BITMAP
0FC0
1020
2010
4008
8004
8004
8004
8004
8004
C00C
4008
2010
3860
0FC0
1860
2010
4008
C00C
8004
8004
8004
8004
8004
4008
2010
1020
0FC0
ENDCHAR
STARTCHAR 0039
ENCODING 57
SWIDTH 540 0
DWIDTH 21 0
BBX 14 27 3 0
BITMAP
0780
1860
2010
6010
4008
4008
8004
8004
8004
8004
8004
8004
400C
400C
201C
2014
1864
07C4
0008
0008
0008
0008
0010
0010
4020
3040
0F80
ENDCHAR
ENDFONT
