STARTFONT 2.1
COMMENT
COMMENT Converted from OpenType font "ariali.ttf" by "otf2bdf 3.0".
COMMENT
FONT -FreeType-Arial-Medium-I-Normal--17-120-100-100-P-90-ISO10646-1
SIZE 12 100 100
FONTBOUNDINGBOX 32 24 -9 -6
STARTPROPERTIES 19
FOUNDRY "FreeType"
FAMILY_NAME "Arial"
WEIGHT_NAME "Medium"
SLANT "I"
SETWIDTH_NAME "Normal"
ADD_STYLE_NAME ""
PIXEL_SIZE 17
POINT_SIZE 120
RESOLUTION_X 100
RESOLUTION_Y 100
SPACING "P"
AVERAGE_WIDTH 90
CHARSET_REGISTRY "ISO10646"
CHARSET_ENCODING "1"
FONT_ASCENT 15
FONT_DESCENT 3
COPYRIGHT "© 2017 The Monotype Corporation. All Rights Reserved.     Hebrew OpenType Layout logic copyright © 2003 & 2007, Ralph Hancock & John Hudson. This layout logic for Biblical Hebrew is open source software under the MIT License; see embedded license description for details."
_OTF_FONTFILE "ariali.ttf"
_OTF_PSNAME "Arial-ItalicMT"
ENDPROPERTIES
CHARS 2666
STARTCHAR 0020
ENCODING 32
SWIDTH 300 0
DWIDTH 5 0
BBX 0 0 0 0
BITMAP
ENDCHAR
STARTCHAR 0021
ENCODING 33
SWIDTH 300 0
DWIDTH 5 0
BBX 3 12 1 0
BITMAP
20
20
20
40
40
40
40
40
40
00
00
80
ENDCHAR
STARTCHAR 0022
ENCODING 34
SWIDTH 360 0
DWIDTH 6 0
BBX 5 4 2 8
BITMAP
48
48
90
90
ENDCHAR
STARTCHAR 0023
ENCODING 35
SWIDTH 540 0
DWIDTH 9 0
BBX 9 12 1 0
BITMAP
1100
1100
1100
2100
FF80
2200
2200
2200
FF80
4400
4400
4400
ENDCHAR
STARTCHAR 0024
ENCODING 36
SWIDTH 540 0
DWIDTH 9 0
BBX 8 14 1 -1
BITMAP
04
1E
29
28
28
28
18
0C
12
12
92
D4
78
20
ENDCHAR
STARTCHAR 0025
ENCODING 37
SWIDTH 900 0
DWIDTH 15 0
BBX 13 12 1 0
BITMAP
7010
4820
8840
8880
9100
7200
0270
0448
0888
1088
2090
4070
ENDCHAR
STARTCHAR 0026
ENCODING 38
SWIDTH 660 0
DWIDTH 11 0
BBX 9 12 1 0
BITMAP
1E00
3200
2200
2400
3800
3000
4800
8880
8500
8200
C700
3D80
ENDCHAR
STARTCHAR 0027
ENCODING 39
SWIDTH 180 0
DWIDTH 3 0
BBX 2 4 2 8
BITMAP
40
40
80
80
ENDCHAR
STARTCHAR 0028
ENCODING 40
SWIDTH 360 0
DWIDTH 6 0
BBX 5 15 1 -3
BITMAP
08
10
20
20
40
40
80
80
80
80
80
80
80
40
40
ENDCHAR
STARTCHAR 0029
ENCODING 41
SWIDTH 360 0
DWIDTH 6 0
BBX 5 15 0 -3
BITMAP
10
10
08
08
08
08
08
08
08
10
10
20
20
40
80
ENDCHAR
STARTCHAR 002A
ENCODING 42
SWIDTH 420 0
DWIDTH 7 0
BBX 5 5 2 7
BITMAP
20
F8
20
50
50
ENDCHAR
STARTCHAR 002B
ENCODING 43
SWIDTH 600 0
DWIDTH 10 0
BBX 7 7 2 2
BITMAP
10
10
10
FE
10
10
10
ENDCHAR
STARTCHAR 002C
ENCODING 44
SWIDTH 300 0
DWIDTH 5 0
BBX 2 4 0 -3
BITMAP
40
40
40
80
ENDCHAR
STARTCHAR 002D
ENCODING 45
SWIDTH 360 0
DWIDTH 6 0
BBX 5 1 1 4
BITMAP
F8
ENDCHAR
STARTCHAR 002E
ENCODING 46
SWIDTH 300 0
DWIDTH 5 0
BBX 1 1 1 0
BITMAP
80
ENDCHAR
STARTCHAR 002F
ENCODING 47
SWIDTH 300 0
DWIDTH 5 0
BBX 8 12 -1 0
BITMAP
01
02
02
04
08
08
10
10
20
40
40
80
ENDCHAR
STARTCHAR 0030
ENCODING 48
SWIDTH 540 0
DWIDTH 9 0
BBX 8 12 1 0
BITMAP
1C
22
41
41
41
81
81
82
82
82
44
38
ENDCHAR
STARTCHAR 0031
ENCODING 49
SWIDTH 540 0
DWIDTH 9 0
BBX 5 12 3 0
BITMAP
08
10
70
90
10
20
20
20
20
20
40
40
ENDCHAR
STARTCHAR 0032
ENCODING 50
SWIDTH 540 0
DWIDTH 9 0
BBX 8 12 1 0
BITMAP
1E
23
41
01
01
02
04
08
10
20
40
FE
ENDCHAR
STARTCHAR 0033
ENCODING 51
SWIDTH 540 0
DWIDTH 9 0
BBX 8 12 1 0
BITMAP
1E
21
41
01
02
1C
02
02
02
82
84
78
ENDCHAR
STARTCHAR 0034
ENCODING 52
SWIDTH 540 0
DWIDTH 9 0
BBX 8 12 1 0
BITMAP
01
03
05
0A
12
22
42
84
FF
04
08
08
ENDCHAR
STARTCHAR 0035
ENCODING 53
SWIDTH 540 0
DWIDTH 9 0
BBX 8 12 1 0
BITMAP
1F
20
20
3E
22
41
01
01
81
82
44
38
ENDCHAR
STARTCHAR 0036
ENCODING 54
SWIDTH 540 0
DWIDTH 9 0
BBX 8 12 1 0
BITMAP
1E
21
41
40
BC
C2
82
82
82
82
44
38
ENDCHAR
STARTCHAR 0037
ENCODING 55
SWIDTH 540 0
DWIDTH 9 0
BBX 8 12 2 0
BITMAP
FF
02
0C
08
10
20
20
40
40
40
80
80
ENDCHAR
STARTCHAR 0038
ENCODING 56
SWIDTH 540 0
DWIDTH 9 0
BBX 8 12 1 0
BITMAP
1E
21
41
41
41
3E
41
81
81
81
82
7C
ENDCHAR
STARTCHAR 0039
ENCODING 57
SWIDTH 540 0
DWIDTH 9 0
BBX 8 12 1 0
BITMAP
1C
22
41
41
41
41
43
3D
02
82
84
78
ENDCHAR
STARTCHAR 003A
ENCODING 58
SWIDTH 300 0
DWIDTH 5 0
BBX 2 9 1 0
BITMAP
40
00
00
00
00
00
00
00
80
ENDCHAR
STARTCHAR 003B
ENCODING 59
SWIDTH 300 0
DWIDTH 5 0
BBX 3 12 0 -3
BITMAP
20
00
00
00
00
00
00
00
40
40
40
80
ENDCHAR
STARTCHAR 003C
ENCODING 60
SWIDTH 600 0
DWIDTH 10 0
BBX 8 9 2 2
BITMAP
01
06
18
60
80
60
18
06
01
ENDCHAR
STARTCHAR 003D
ENCODING 61
SWIDTH 600 0
DWIDTH 10 0
BBX 8 5 2 3
BITMAP
FF
00
00
00
FF
ENDCHAR
STARTCHAR 003E
ENCODING 62
SWIDTH 600 0
DWIDTH 10 0
BBX 8 9 2 2
BITMAP
80
60
18
06
01
06
18
60
80
ENDCHAR
STARTCHAR 003F
ENCODING 63
SWIDTH 540 0
DWIDTH 9 0
BBX 6 12 2 0
BITMAP
78
44
84
04
08
10
10
20
20
00
00
20
ENDCHAR
STARTCHAR 0040
ENCODING 64
SWIDTH 1020 0
DWIDTH 17 0
BBX 15 15 1 -3
BITMAP
07E0
1818
200C
4744
48C2
88C2
9042
9082
9086
9084
C998
4EF0
2002
180C
07F0
ENDCHAR
STARTCHAR 0041
ENCODING 65
SWIDTH 660 0
DWIDTH 11 0
BBX 9 12 1 0
BITMAP
0200
0500
0500
0900
0900
1100
1100
3F80
4080
4080
8080
8080
ENDCHAR
STARTCHAR 0042
ENCODING 66
SWIDTH 660 0
DWIDTH 11 0
BBX 9 12 1 0
BITMAP
1F00
1080
2080
2080
2080
3F00
4080
4080
4080
4080
8100
FE00
ENDCHAR
STARTCHAR 0043
ENCODING 67
SWIDTH 720 0
DWIDTH 12 0
BBX 10 12 2 0
BITMAP
0F00
3080
4040
4040
8000
8000
8000
8000
8080
8100
4300
3C00
ENDCHAR
STARTCHAR 0044
ENCODING 68
SWIDTH 720 0
DWIDTH 12 0
BBX 11 12 1 0
BITMAP
1F80
1040
2020
2020
2020
2020
4020
4020
4040
4040
8180
FE00
ENDCHAR
STARTCHAR 0045
ENCODING 69
SWIDTH 660 0
DWIDTH 11 0
BBX 11 12 1 0
BITMAP
1FE0
1000
2000
2000
2000
3FC0
4000
4000
4000
4000
8000
FF80
ENDCHAR
STARTCHAR 0046
ENCODING 70
SWIDTH 600 0
DWIDTH 10 0
BBX 11 12 1 0
BITMAP
1FE0
1000
2000
2000
2000
2000
7F80
4000
4000
4000
8000
8000
ENDCHAR
STARTCHAR 0047
ENCODING 71
SWIDTH 780 0
DWIDTH 13 0
BBX 11 12 2 0
BITMAP
0F80
3040
4040
4020
8000
8000
87C0
8040
8040
8080
4080
3F00
ENDCHAR
STARTCHAR 0048
ENCODING 72
SWIDTH 720 0
DWIDTH 12 0
BBX 11 12 1 0
BITMAP
1020
1020
2040
2040
2040
3FC0
4080
4080
4080
4080
8100
8100
ENDCHAR
STARTCHAR 0049
ENCODING 73
SWIDTH 300 0
DWIDTH 5 0
BBX 4 12 1 0
BITMAP
10
10
20
20
20
20
40
40
40
40
80
80
ENDCHAR
STARTCHAR 004A
ENCODING 74
SWIDTH 540 0
DWIDTH 9 0
BBX 8 12 1 0
BITMAP
01
01
02
02
02
02
04
04
04
84
88
70
ENDCHAR
STARTCHAR 004B
ENCODING 75
SWIDTH 660 0
DWIDTH 11 0
BBX 10 12 1 0
BITMAP
1040
1080
2100
2200
2400
2800
5400
6400
4200
4100
8100
8080
ENDCHAR
STARTCHAR 004C
ENCODING 76
SWIDTH 540 0
DWIDTH 9 0
BBX 8 12 1 0
BITMAP
10
10
20
20
20
20
40
40
40
40
80
FF
ENDCHAR
STARTCHAR 004D
ENCODING 77
SWIDTH 840 0
DWIDTH 14 0
BBX 13 12 1 0
BITMAP
1818
1830
2830
2850
2850
2890
48A0
4520
4520
4620
8640
8440
ENDCHAR
STARTCHAR 004E
ENCODING 78
SWIDTH 720 0
DWIDTH 12 0
BBX 11 12 1 0
BITMAP
1820
1420
2440
2440
2440
2440
4280
4280
4280
4280
8300
8100
ENDCHAR
STARTCHAR 004F
ENCODING 79
SWIDTH 780 0
DWIDTH 13 0
BBX 10 12 2 0
BITMAP
1F00
2080
4080
4040
8040
8040
8040
8040
8080
4080
4100
3E00
ENDCHAR
STARTCHAR 0050
ENCODING 80
SWIDTH 660 0
DWIDTH 11 0
BBX 10 12 1 0
BITMAP
1F80
1040
2040
2040
2040
2080
7F00
4000
4000
4000
8000
8000
ENDCHAR
STARTCHAR 0051
ENCODING 81
SWIDTH 780 0
DWIDTH 13 0
BBX 10 13 2 -1
BITMAP
1F00
2080
4080
8040
8040
8040
8040
8040
8040
4480
4300
3F00
0080
ENDCHAR
STARTCHAR 0052
ENCODING 82
SWIDTH 720 0
DWIDTH 12 0
BBX 11 12 1 0
BITMAP
1FC0
1020
2020
2020
2020
2040
7F80
4100
4080
4080
8040
8040
ENDCHAR
STARTCHAR 0053
ENCODING 83
SWIDTH 660 0
DWIDTH 11 0
BBX 9 12 2 0
BITMAP
1E00
6180
4080
4000
4000
3000
0E00
0300
8100
8100
4200
3C00
ENDCHAR
STARTCHAR 0054
ENCODING 84
SWIDTH 600 0
DWIDTH 10 0
BBX 9 12 2 0
BITMAP
FF80
0800
0800
0800
1000
1000
1000
1000
1000
2000
2000
2000
ENDCHAR
STARTCHAR 0055
ENCODING 85
SWIDTH 720 0
DWIDTH 12 0
BBX 10 12 2 0
BITMAP
2040
2040
4040
4080
4080
4080
8080
8080
8080
8100
4200
3C00
ENDCHAR
STARTCHAR 0056
ENCODING 86
SWIDTH 660 0
DWIDTH 11 0
BBX 9 12 3 0
BITMAP
8080
8080
8100
8100
8200
4400
4400
4800
4800
5000
5000
2000
ENDCHAR
STARTCHAR 0057
ENCODING 87
SWIDTH 1020 0
DWIDTH 17 0
BBX 16 12 2 0
BITMAP
8081
8181
8182
8282
8684
4448
4848
5850
5050
6060
6060
4040
ENDCHAR
STARTCHAR 0058
ENCODING 88
SWIDTH 660 0
DWIDTH 11 0
BBX 13 12 0 0
BITMAP
2008
1010
0820
0840
0480
0300
0600
0900
1100
2080
4040
8040
ENDCHAR
STARTCHAR 0059
ENCODING 89
SWIDTH 660 0
DWIDTH 11 0
BBX 9 12 3 0
BITMAP
8080
8100
4200
4200
2400
2800
1800
1000
1000
1000
2000
2000
ENDCHAR
STARTCHAR 005A
ENCODING 90
SWIDTH 600 0
DWIDTH 10 0
BBX 10 12 0 0
BITMAP
3FC0
0040
0080
0100
0200
0400
0800
1000
2000
4000
8000
FF80
ENDCHAR
STARTCHAR 005B
ENCODING 91
SWIDTH 300 0
DWIDTH 5 0
BBX 6 15 0 -3
BITMAP
1C
10
20
20
20
20
20
40
40
40
40
40
80
80
E0
ENDCHAR
STARTCHAR 005C
ENCODING 92
SWIDTH 300 0
DWIDTH 5 0
BBX 3 12 1 0
BITMAP
80
80
80
40
40
40
40
40
40
20
20
20
ENDCHAR
STARTCHAR 005D
ENCODING 93
SWIDTH 300 0
DWIDTH 5 0
BBX 6 15 -1 -3
BITMAP
1C
04
04
08
08
08
08
10
10
10
10
10
20
20
E0
ENDCHAR
STARTCHAR 005E
ENCODING 94
SWIDTH 480 0
DWIDTH 8 0
BBX 7 7 1 5
BITMAP
10
28
28
44
44
44
82
ENDCHAR
STARTCHAR 005F
ENCODING 95
SWIDTH 540 0
DWIDTH 9 0
BBX 10 1 -2 -3
BITMAP
FFC0
ENDCHAR
STARTCHAR 0060
ENCODING 96
SWIDTH 360 0
DWIDTH 6 0
BBX 3 3 2 9
BITMAP
80
40
20
ENDCHAR
STARTCHAR 0061
ENCODING 97
SWIDTH 540 0
DWIDTH 9 0
BBX 8 9 1 0
BITMAP
1E
21
41
01
7F
82
82
86
7A
ENDCHAR
STARTCHAR 0062
ENCODING 98
SWIDTH 540 0
DWIDTH 9 0
BBX 8 12 1 0
BITMAP
10
10
20
2E
31
21
41
41
41
42
A2
9C
ENDCHAR
STARTCHAR 0063
ENCODING 99
SWIDTH 540 0
DWIDTH 9 0
BBX 8 9 1 0
BITMAP
1E
61
41
80
80
80
82
84
78
ENDCHAR
STARTCHAR 0064
ENCODING 100
SWIDTH 540 0
DWIDTH 9 0
BBX 8 12 1 0
BITMAP
01
01
01
3A
46
42
82
82
82
84
8C
74
ENDCHAR
STARTCHAR 0065
ENCODING 101
SWIDTH 540 0
DWIDTH 9 0
BBX 8 9 1 0
BITMAP
1C
62
41
81
FF
80
82
42
3C
ENDCHAR
STARTCHAR 0066
ENCODING 102
SWIDTH 300 0
DWIDTH 5 0
BBX 5 12 1 0
BITMAP
38
20
20
F8
40
40
40
40
40
80
80
80
ENDCHAR
STARTCHAR 0067
ENCODING 103
SWIDTH 480 0
DWIDTH 8 0
BBX 7 12 1 -3
BITMAP
3A
46
82
82
82
82
84
8C
74
04
88
70
ENDCHAR
STARTCHAR 0068
ENCODING 104
SWIDTH 540 0
DWIDTH 9 0
BBX 8 12 1 0
BITMAP
10
10
20
2E
31
21
41
42
42
42
84
84
ENDCHAR
STARTCHAR 0069
ENCODING 105
SWIDTH 240 0
DWIDTH 4 0
BBX 4 12 1 0
BITMAP
10
00
00
20
20
20
40
40
40
40
80
80
ENDCHAR
STARTCHAR 006A
ENCODING 106
SWIDTH 240 0
DWIDTH 4 0
BBX 7 15 -2 -3
BITMAP
02
00
00
04
04
04
08
08
08
08
10
10
10
10
E0
ENDCHAR
STARTCHAR 006B
ENCODING 107
SWIDTH 540 0
DWIDTH 9 0
BBX 8 12 1 0
BITMAP
10
10
20
21
22
24
68
78
44
44
82
82
ENDCHAR
STARTCHAR 006C
ENCODING 108
SWIDTH 240 0
DWIDTH 4 0
BBX 4 12 1 0
BITMAP
10
10
20
20
20
20
40
40
40
40
80
80
ENDCHAR
STARTCHAR 006D
ENCODING 109
SWIDTH 840 0
DWIDTH 14 0
BBX 13 9 1 0
BITMAP
2E70
3188
2108
4210
4210
4210
4210
8420
8420
ENDCHAR
STARTCHAR 006E
ENCODING 110
SWIDTH 540 0
DWIDTH 9 0
BBX 8 9 1 0
BITMAP
2E
31
21
42
42
42
42
84
84
ENDCHAR
STARTCHAR 006F
ENCODING 111
SWIDTH 540 0
DWIDTH 9 0
BBX 8 9 1 0
BITMAP
1C
62
41
81
81
81
82
46
38
ENDCHAR
STARTCHAR 0070
ENCODING 112
SWIDTH 540 0
DWIDTH 9 0
BBX 9 12 0 -3
BITMAP
1700
1880
1080
2080
2080
2080
2100
6300
5C00
8000
8000
8000
ENDCHAR
STARTCHAR 0071
ENCODING 113
SWIDTH 540 0
DWIDTH 9 0
BBX 8 12 1 -3
BITMAP
3D
43
42
82
82
82
84
8C
74
04
08
08
ENDCHAR
STARTCHAR 0072
ENCODING 114
SWIDTH 360 0
DWIDTH 6 0
BBX 6 9 1 0
BITMAP
2C
30
20
40
40
40
40
80
80
ENDCHAR
STARTCHAR 0073
ENCODING 115
SWIDTH 540 0
DWIDTH 9 0
BBX 8 9 1 0
BITMAP
3E
41
41
40
3C
02
82
82
7C
ENDCHAR
STARTCHAR 0074
ENCODING 116
SWIDTH 300 0
DWIDTH 5 0
BBX 4 12 2 0
BITMAP
20
40
40
F0
40
40
40
80
80
80
80
C0
ENDCHAR
STARTCHAR 0075
ENCODING 117
SWIDTH 540 0
DWIDTH 9 0
BBX 8 9 1 0
BITMAP
21
21
21
42
42
42
84
8C
74
ENDCHAR
STARTCHAR 0076
ENCODING 118
SWIDTH 480 0
DWIDTH 8 0
BBX 7 9 2 0
BITMAP
82
84
84
88
88
50
50
60
40
ENDCHAR
STARTCHAR 0077
ENCODING 119
SWIDTH 720 0
DWIDTH 12 0
BBX 11 9 1 0
BITMAP
8420
8620
8A20
8A40
C940
5140
6180
6180
4100
ENDCHAR
STARTCHAR 0078
ENCODING 120
SWIDTH 540 0
DWIDTH 9 0
BBX 9 9 0 0
BITMAP
2080
1100
1200
0C00
0800
1400
2200
4200
8100
ENDCHAR
STARTCHAR 0079
ENCODING 121
SWIDTH 540 0
DWIDTH 9 0
BBX 9 12 0 -3
BITMAP
2080
2100
2100
2200
1400
1400
1800
1800
1000
1000
2000
C000
ENDCHAR
STARTCHAR 007A
ENCODING 122
SWIDTH 480 0
DWIDTH 8 0
BBX 8 9 0 0
BITMAP
7F
02
04
08
08
10
20
40
FE
ENDCHAR
STARTCHAR 007B
ENCODING 123
SWIDTH 360 0
DWIDTH 6 0
BBX 6 15 1 -3
BITMAP
0C
10
10
10
20
20
40
80
40
40
40
40
80
80
E0
ENDCHAR
STARTCHAR 007C
ENCODING 124
SWIDTH 240 0
DWIDTH 4 0
BBX 1 15 2 -3
BITMAP
80
80
80
80
80
80
80
80
80
80
80
80
80
80
80
ENDCHAR
STARTCHAR 007D
ENCODING 125
SWIDTH 360 0
DWIDTH 6 0
BBX 6 15 -1 -3
BITMAP
0C
04
04
04
08
08
08
04
08
10
10
10
20
20
C0
ENDCHAR
STARTCHAR 007E
ENCODING 126
SWIDTH 600 0
DWIDTH 10 0
BBX 8 3 1 4
BITMAP
60
99
06
ENDCHAR
STARTCHAR 00A0
ENCODING 160
SWIDTH 300 0
DWIDTH 5 0
BBX 0 0 0 0
BITMAP
ENDCHAR
STARTCHAR 00A1
ENCODING 161
SWIDTH 360 0
DWIDTH 6 0
BBX 3 12 1 -3
BITMAP
20
00
40
40
40
40
40
40
80
80
80
80
ENDCHAR
STARTCHAR 00A2
ENCODING 162
SWIDTH 540 0
DWIDTH 9 0
BBX 8 15 1 -3
BITMAP
01
02
02
1E
27
49
88
88
90
92
E4
78
40
40
80
ENDCHAR
STARTCHAR 00A3
ENCODING 163
SWIDTH 540 0
DWIDTH 9 0
BBX 9 12 1 0
BITMAP
0F00
1080
2080
2000
2000
1000
7C00
1000
1000
2000
F900
8E00
ENDCHAR
STARTCHAR 00A4
ENCODING 164
SWIDTH 600 0
DWIDTH 10 0
BBX 9 9 2 1
BITMAP
4100
DD80
2200
4100
4100
4100
2200
DD80
4100
ENDCHAR
STARTCHAR 00A5
ENCODING 165
SWIDTH 540 0
DWIDTH 9 0
BBX 9 12 1 0
BITMAP
4080
2100
2100
3200
1400
1400
FF00
1000
FF00
1000
2000
2000
ENDCHAR
STARTCHAR 00A6
ENCODING 166
SWIDTH 240 0
DWIDTH 4 0
BBX 1 15 2 -3
BITMAP
80
80
80
80
80
80
80
00
80
80
80
80
80
80
80
ENDCHAR
STARTCHAR 00A7
ENCODING 167
SWIDTH 540 0
DWIDTH 9 0
BBX 9 15 0 -3
BITMAP
0F00
1980
1080
1000
1800
2E00
4300
4180
6080
3980
0F00
0600
8200
4200
3C00
ENDCHAR
STARTCHAR 00A8
ENCODING 168
SWIDTH 360 0
DWIDTH 6 0
BBX 4 1 2 11
BITMAP
90
ENDCHAR
STARTCHAR 00A9
ENCODING 169
SWIDTH 780 0
DWIDTH 13 0
BBX 13 12 1 0
BITMAP
0F80
3060
4010
4F10
9088
9008
9008
9088
4F10
4010
3060
0F80
ENDCHAR
STARTCHAR 00AA
ENCODING 170
SWIDTH 360 0
DWIDTH 6 0
BBX 4 6 2 6
BITMAP
60
90
10
F0
90
F0
ENDCHAR
STARTCHAR 00AB
ENCODING 171
SWIDTH 540 0
DWIDTH 9 0
BBX 7 8 1 1
BITMAP
12
24
48
90
90
90
48
48
ENDCHAR
STARTCHAR 00AC
ENCODING 172
SWIDTH 600 0
DWIDTH 10 0
BBX 8 5 2 4
BITMAP
FF
01
01
01
01
ENDCHAR
STARTCHAR 00AD
ENCODING 173
SWIDTH 360 0
DWIDTH 6 0
BBX 5 1 1 4
BITMAP
F8
ENDCHAR
STARTCHAR 00AE
ENCODING 174
SWIDTH 780 0
DWIDTH 13 0
BBX 13 12 1 0
BITMAP
0F80
3060
4010
4F10
8888
8888
8F08
8908
4890
4010
3060
0F80
ENDCHAR
STARTCHAR 00AF
ENCODING 175
SWIDTH 540 0
DWIDTH 9 0
BBX 9 1 2 13
BITMAP
FF80
ENDCHAR
STARTCHAR 00B0
ENCODING 176
SWIDTH 420 0
DWIDTH 7 0
BBX 5 5 2 7
BITMAP
70
88
88
88
70
ENDCHAR
STARTCHAR 00B1
ENCODING 177
SWIDTH 540 0
DWIDTH 9 0
BBX 7 9 1 0
BITMAP
10
10
10
FE
10
10
10
00
FE
ENDCHAR
STARTCHAR 00B2
ENCODING 178
SWIDTH 360 0
DWIDTH 6 0
BBX 6 6 1 6
BITMAP
38
44
0C
30
40
FC
ENDCHAR
STARTCHAR 00B3
ENCODING 179
SWIDTH 300 0
DWIDTH 5 0
BBX 5 6 1 6
BITMAP
38
48
10
08
88
70
ENDCHAR
STARTCHAR 00B4
ENCODING 180
SWIDTH 360 0
DWIDTH 6 0
BBX 3 3 4 9
BITMAP
20
40
80
ENDCHAR
STARTCHAR 00B5
ENCODING 181
SWIDTH 660 0
DWIDTH 11 0
BBX 10 12 0 -3
BITMAP
1040
1040
1040
2080
2080
2080
2180
6100
5F00
4000
4000
8000
ENDCHAR
STARTCHAR 00B6
ENCODING 182
SWIDTH 540 0
DWIDTH 9 0
BBX 10 16 0 -4
BITMAP
3FC0
7880
F880
F880
F880
7880
3880
0880
0880
0880
0880
0880
0880
0880
0880
0880
ENDCHAR
STARTCHAR 00B7
ENCODING 183
SWIDTH 360 0
DWIDTH 6 0
BBX 1 1 3 5
BITMAP
80
ENDCHAR
STARTCHAR 00B8
ENCODING 184
SWIDTH 360 0
DWIDTH 6 0
BBX 4 3 1 -3
BITMAP
20
10
F0
ENDCHAR
STARTCHAR 00B9
ENCODING 185
SWIDTH 360 0
DWIDTH 6 0
BBX 3 6 3 6
BITMAP
20
60
A0
20
40
40
ENDCHAR
STARTCHAR 00BA
ENCODING 186
SWIDTH 360 0
DWIDTH 6 0
BBX 6 6 1 6
BITMAP
38
44
84
84
88
70
ENDCHAR
STARTCHAR 00BB
ENCODING 187
SWIDTH 540 0
DWIDTH 9 0
BBX 7 8 1 1
BITMAP
24
24
12
12
12
24
48
90
ENDCHAR
STARTCHAR 00BC
ENCODING 188
SWIDTH 840 0
DWIDTH 14 0
BBX 12 13 2 -1
BITMAP
1010
3020
5040
1080
2100
2200
0420
0460
08A0
1120
21E0
4040
8000
ENDCHAR
STARTCHAR 00BD
ENCODING 189
SWIDTH 840 0
DWIDTH 14 0
BBX 12 13 2 -1
BITMAP
1010
7020
1040
1080
2100
2200
0470
0490
0810
1060
2080
41F0
8000
ENDCHAR
STARTCHAR 00BE
ENCODING 190
SWIDTH 840 0
DWIDTH 14 0
BBX 12 13 1 -1
BITMAP
7810
0820
1040
0840
8880
7100
0220
0460
08A0
1120
11E0
2040
4000
ENDCHAR
STARTCHAR 00BF
ENCODING 191
SWIDTH 600 0
DWIDTH 10 0
BBX 6 12 2 -3
BITMAP
08
00
00
08
08
10
20
40
80
84
88
78
ENDCHAR
STARTCHAR 00C0
ENCODING 192
SWIDTH 660 0
DWIDTH 11 0
BBX 9 16 1 0
BITMAP
0400
0200
0100
0000
0200
0500
0500
0900
0900
1100
1100
3F80
4080
4080
8080
8080
ENDCHAR
STARTCHAR 00C1
ENCODING 193
SWIDTH 660 0
DWIDTH 11 0
BBX 9 16 1 0
BITMAP
0100
0200
0400
0000
0200
0500
0500
0900
0900
1100
1100
3F80
4080
4080
8080
8080
ENDCHAR
STARTCHAR 00C2
ENCODING 194
SWIDTH 660 0
DWIDTH 11 0
BBX 9 16 1 0
BITMAP
0100
0280
0480
0000
0200
0500
0500
0900
0900
1100
1100
3F80
4080
4080
8080
8080
ENDCHAR
STARTCHAR 00C3
ENCODING 195
SWIDTH 660 0
DWIDTH 11 0
BBX 10 15 1 0
BITMAP
0640
0980
0000
0200
0500
0500
0900
0900
1100
1100
3F80
4080
4080
8080
8080
ENDCHAR
STARTCHAR 00C4
ENCODING 196
SWIDTH 660 0
DWIDTH 11 0
BBX 10 14 1 0
BITMAP
0240
0000
0200
0500
0500
0900
0900
1100
1100
3F80
4080
4080
8080
8080
ENDCHAR
STARTCHAR 00C5
ENCODING 197
SWIDTH 660 0
DWIDTH 11 0
BBX 9 15 1 0
BITMAP
0300
0480
0480
0300
0500
0500
0900
0900
1100
1100
3F80
4080
4080
8080
8080
ENDCHAR
STARTCHAR 00C6
ENCODING 198
SWIDTH 1020 0
DWIDTH 17 0
BBX 18 12 -1 0
BITMAP
01FFC0
012000
024000
044000
044000
087F80
088000
1F8000
208000
208000
410000
81FF80
ENDCHAR
STARTCHAR 00C7
ENCODING 199
SWIDTH 720 0
DWIDTH 12 0
BBX 10 15 2 -3
BITMAP
0F00
3080
4040
4040
8000
8000
8000
8000
8080
8100
4300
3C00
1000
0800
7800
ENDCHAR
STARTCHAR 00C8
ENCODING 200
SWIDTH 660 0
DWIDTH 11 0
BBX 11 16 1 0
BITMAP
0200
0100
0080
0000
1FE0
1000
2000
2000
2000
3FC0
4000
4000
4000
4000
8000
FF80
ENDCHAR
STARTCHAR 00C9
ENCODING 201
SWIDTH 660 0
DWIDTH 11 0
BBX 11 16 1 0
BITMAP
0080
0100
0200
0000
1FE0
1000
2000
2000
2000
3FC0
4000
4000
4000
4000
8000
FF80
ENDCHAR
STARTCHAR 00CA
ENCODING 202
SWIDTH 660 0
DWIDTH 11 0
BBX 11 16 1 0
BITMAP
0080
0140
0240
0000
1FE0
1000
2000
2000
2000
3FC0
4000
4000
4000
4000
8000
FF80
ENDCHAR
STARTCHAR 00CB
ENCODING 203
SWIDTH 660 0
DWIDTH 11 0
BBX 11 14 1 0
BITMAP
0240
0000
1FE0
1000
2000
2000
2000
3FC0
4000
4000
4000
4000
8000
FF80
ENDCHAR
STARTCHAR 00CC
ENCODING 204
SWIDTH 300 0
DWIDTH 5 0
BBX 5 16 1 0
BITMAP
20
10
08
00
10
10
20
20
20
20
40
40
40
40
80
80
ENDCHAR
STARTCHAR 00CD
ENCODING 205
SWIDTH 300 0
DWIDTH 5 0
BBX 5 16 1 0
BITMAP
08
10
20
00
10
10
20
20
20
20
40
40
40
40
80
80
ENDCHAR
STARTCHAR 00CE
ENCODING 206
SWIDTH 300 0
DWIDTH 5 0
BBX 6 16 1 0
BITMAP
08
14
24
00
10
10
20
20
20
20
40
40
40
40
80
80
ENDCHAR
STARTCHAR 00CF
ENCODING 207
SWIDTH 300 0
DWIDTH 5 0
BBX 7 14 1 0
BITMAP
12
00
10
10
20
20
20
20
40
40
40
40
80
80
ENDCHAR
STARTCHAR 00D0
ENCODING 208
SWIDTH 720 0
DWIDTH 12 0
BBX 11 12 1 0
BITMAP
1F80
1040
2020
2020
2020
2020
FC20
4020
4040
40C0
8180
FF00
ENDCHAR
STARTCHAR 00D1
ENCODING 209
SWIDTH 720 0
DWIDTH 12 0
BBX 12 15 1 0
BITMAP
0190
0260
0000
1820
1420
2440
2440
2440
2440
4280
4280
4280
4280
8300
8100
ENDCHAR
STARTCHAR 00D2
ENCODING 210
SWIDTH 780 0
DWIDTH 13 0
BBX 10 16 2 0
BITMAP
0800
0400
0200
0000
1F00
2080
4080
4040
8040
8040
8040
8040
8080
4080
4100
3E00
ENDCHAR
STARTCHAR 00D3
ENCODING 211
SWIDTH 780 0
DWIDTH 13 0
BBX 10 16 2 0
BITMAP
0200
0400
0800
0000
1F00
2080
4080
4040
8040
8040
8040
8040
8080
4080
4100
3E00
ENDCHAR
STARTCHAR 00D4
ENCODING 212
SWIDTH 780 0
DWIDTH 13 0
BBX 10 16 2 0
BITMAP
0200
0500
0900
0000
1F00
2080
4080
4040
8040
8040
8040
8040
8080
4080
4100
3E00
ENDCHAR
STARTCHAR 00D5
ENCODING 213
SWIDTH 780 0
DWIDTH 13 0
BBX 10 15 2 0
BITMAP
0C80
1300
0000
1F00
2080
4080
4040
8040
8040
8040
8040
8080
4080
4100
3E00
ENDCHAR
STARTCHAR 00D6
ENCODING 214
SWIDTH 780 0
DWIDTH 13 0
BBX 10 14 2 0
BITMAP
0480
0000
1F00
2080
4080
4040
8040
8040
8040
8040
8080
4080
4100
3E00
ENDCHAR
STARTCHAR 00D7
ENCODING 215
SWIDTH 600 0
DWIDTH 10 0
BBX 7 7 2 3
BITMAP
82
44
38
10
28
44
82
ENDCHAR
STARTCHAR 00D8
ENCODING 216
SWIDTH 780 0
DWIDTH 13 0
BBX 11 14 2 -1
BITMAP
0020
0FA0
30C0
60E0
4120
8220
8420
8420
8860
9040
E0C0
6180
BE00
8000
ENDCHAR
STARTCHAR 00D9
ENCODING 217
SWIDTH 720 0
DWIDTH 12 0
BBX 10 16 2 0
BITMAP
0800
0400
0200
0000
2040
2040
4040
4080
4080
4080
8080
8080
8080
8100
4200
3C00
ENDCHAR
STARTCHAR 00DA
ENCODING 218
SWIDTH 720 0
DWIDTH 12 0
BBX 10 16 2 0
BITMAP
0100
0200
0400
0000
2040
2040
4040
4080
4080
4080
8080
8080
8080
8100
4200
3C00
ENDCHAR
STARTCHAR 00DB
ENCODING 219
SWIDTH 720 0
DWIDTH 12 0
BBX 10 16 2 0
BITMAP
0200
0500
0900
0000
2040
2040
4040
4080
4080
4080
8080
8080
8080
8100
4200
3C00
ENDCHAR
STARTCHAR 00DC
ENCODING 220
SWIDTH 720 0
DWIDTH 12 0
BBX 10 14 2 0
BITMAP
0900
0000
2040
2040
4040
4080
4080
4080
8080
8080
8080
8100
4200
3C00
ENDCHAR
STARTCHAR 00DD
ENCODING 221
SWIDTH 660 0
DWIDTH 11 0
BBX 9 16 3 0
BITMAP
0400
0800
1000
0000
8080
8100
4200
4200
2400
2800
1800
1000
1000
1000
2000
2000
ENDCHAR
STARTCHAR 00DE
ENCODING 222
SWIDTH 660 0
DWIDTH 11 0
BBX 10 12 1 0
BITMAP
1000
1000
3F80
20C0
2040
2040
4040
4080
4180
7F00
8000
8000
ENDCHAR
STARTCHAR 00DF
ENCODING 223
SWIDTH 600 0
DWIDTH 10 0
BBX 9 12 1 0
BITMAP
0F00
1080
2080
2100
2300
2200
4300
4100
4080
4080
9980
8F00
ENDCHAR
STARTCHAR 00E0
ENCODING 224
SWIDTH 540 0
DWIDTH 9 0
BBX 8 13 1 0
BITMAP
08
04
02
00
1E
21
41
01
7F
82
82
86
7A
ENDCHAR
STARTCHAR 00E1
ENCODING 225
SWIDTH 540 0
DWIDTH 9 0
BBX 8 13 1 0
BITMAP
02
04
08
00
1E
21
41
01
7F
82
82
86
7A
ENDCHAR
STARTCHAR 00E2
ENCODING 226
SWIDTH 540 0
DWIDTH 9 0
BBX 8 13 1 0
BITMAP
04
0A
12
00
1E
21
41
01
7F
82
82
86
7A
ENDCHAR
STARTCHAR 00E3
ENCODING 227
SWIDTH 540 0
DWIDTH 9 0
BBX 9 12 1 0
BITMAP
0C80
1300
0000
1E00
2100
4100
0100
7F00
8200
8200
8600
7A00
ENDCHAR
STARTCHAR 00E4
ENCODING 228
SWIDTH 540 0
DWIDTH 9 0
BBX 8 11 1 0
BITMAP
09
00
1E
21
41
01
7F
82
82
86
7A
ENDCHAR
STARTCHAR 00E5
ENCODING 229
SWIDTH 540 0
DWIDTH 9 0
BBX 8 14 1 0
BITMAP
0C
12
12
0C
00
1E
21
41
01
7F
82
82
86
7A
ENDCHAR
STARTCHAR 00E6
ENCODING 230
SWIDTH 900 0
DWIDTH 15 0
BBX 14 9 1 0
BITMAP
1EF0
2308
4204
0204
7FFC
8200
8604
8A08
71F0
ENDCHAR
STARTCHAR 00E7
ENCODING 231
SWIDTH 540 0
DWIDTH 9 0
BBX 8 12 1 -3
BITMAP
1E
61
41
80
80
80
82
84
78
20
10
F0
ENDCHAR
STARTCHAR 00E8
ENCODING 232
SWIDTH 540 0
DWIDTH 9 0
BBX 8 13 1 0
BITMAP
08
04
02
00
1C
62
41
81
FF
80
82
42
3C
ENDCHAR
STARTCHAR 00E9
ENCODING 233
SWIDTH 540 0
DWIDTH 9 0
BBX 8 13 1 0
BITMAP
04
08
10
00
1C
62
41
81
FF
80
82
42
3C
ENDCHAR
STARTCHAR 00EA
ENCODING 234
SWIDTH 540 0
DWIDTH 9 0
BBX 8 13 1 0
BITMAP
04
0A
12
00
1C
62
41
81
FF
80
82
42
3C
ENDCHAR
STARTCHAR 00EB
ENCODING 235
SWIDTH 540 0
DWIDTH 9 0
BBX 8 11 1 0
BITMAP
12
00
1C
62
41
81
FF
80
82
42
3C
ENDCHAR
STARTCHAR 00EC
ENCODING 236
SWIDTH 240 0
DWIDTH 4 0
BBX 4 13 1 0
BITMAP
40
20
10
00
20
20
40
40
40
40
40
80
80
ENDCHAR
STARTCHAR 00ED
ENCODING 237
SWIDTH 240 0
DWIDTH 4 0
BBX 4 13 1 0
BITMAP
10
20
40
00
20
20
40
40
40
40
40
80
80
ENDCHAR
STARTCHAR 00EE
ENCODING 238
SWIDTH 240 0
DWIDTH 4 0
BBX 5 13 1 0
BITMAP
10
28
48
00
20
20
40
40
40
40
40
80
80
ENDCHAR
STARTCHAR 00EF
ENCODING 239
SWIDTH 240 0
DWIDTH 4 0
BBX 5 11 1 0
BITMAP
48
00
20
20
40
40
40
40
40
80
80
ENDCHAR
STARTCHAR 00F0
ENCODING 240
SWIDTH 540 0
DWIDTH 9 0
BBX 8 12 1 0
BITMAP
05
0E
01
1D
63
41
81
81
81
82
46
38
ENDCHAR
STARTCHAR 00F1
ENCODING 241
SWIDTH 540 0
DWIDTH 9 0
BBX 8 12 1 0
BITMAP
19
26
00
2E
31
21
42
42
42
42
84
84
ENDCHAR
STARTCHAR 00F2
ENCODING 242
SWIDTH 540 0
DWIDTH 9 0
BBX 8 13 1 0
BITMAP
10
08
04
00
1C
62
41
81
81
81
82
46
38
ENDCHAR
STARTCHAR 00F3
ENCODING 243
SWIDTH 540 0
DWIDTH 9 0
BBX 8 13 1 0
BITMAP
04
08
10
00
1C
62
41
81
81
81
82
46
38
ENDCHAR
STARTCHAR 00F4
ENCODING 244
SWIDTH 540 0
DWIDTH 9 0
BBX 8 13 1 0
BITMAP
04
0A
12
00
1C
62
41
81
81
81
82
46
38
ENDCHAR
STARTCHAR 00F5
ENCODING 245
SWIDTH 540 0
DWIDTH 9 0
BBX 8 12 1 0
BITMAP
19
26
00
1C
62
41
81
81
81
82
46
38
ENDCHAR
STARTCHAR 00F6
ENCODING 246
SWIDTH 540 0
DWIDTH 9 0
BBX 8 11 1 0
BITMAP
12
00
1C
62
41
81
81
81
82
46
38
ENDCHAR
STARTCHAR 00F7
ENCODING 247
SWIDTH 540 0
DWIDTH 9 0
BBX 7 5 1 3
BITMAP
10
00
FE
00
10
ENDCHAR
STARTCHAR 00F8
ENCODING 248
SWIDTH 600 0
DWIDTH 10 0
BBX 8 11 2 -1
BITMAP
01
1E
62
45
89
91
91
A2
C6
78
80
ENDCHAR
STARTCHAR 00F9
ENCODING 249
SWIDTH 540 0
DWIDTH 9 0
BBX 8 13 1 0
BITMAP
08
04
02
00
21
21
21
42
42
42
84
8C
74
ENDCHAR
STARTCHAR 00FA
ENCODING 250
SWIDTH 540 0
DWIDTH 9 0
BBX 8 13 1 0
BITMAP
02
04
08
00
21
21
21
42
42
42
84
8C
74
ENDCHAR
STARTCHAR 00FB
ENCODING 251
SWIDTH 540 0
DWIDTH 9 0
BBX 8 13 1 0
BITMAP
04
0A
12
00
21
21
21
42
42
42
84
8C
74
ENDCHAR
STARTCHAR 00FC
ENCODING 252
SWIDTH 540 0
DWIDTH 9 0
BBX 8 11 1 0
BITMAP
09
00
21
21
21
42
42
42
84
8C
74
ENDCHAR
STARTCHAR 00FD
ENCODING 253
SWIDTH 540 0
DWIDTH 9 0
BBX 9 16 0 -3
BITMAP
0200
0400
0800
0000
2080
2100
2100
2200
1400
1400
1800
1800
1000
1000
2000
C000
ENDCHAR
STARTCHAR 00FE
ENCODING 254
SWIDTH 540 0
DWIDTH 9 0
BBX 9 15 0 -3
BITMAP
1000
1000
2000
2F00
3180
2080
2080
4080
4080
4100
6300
5C00
8000
8000
8000
ENDCHAR
STARTCHAR 00FF
ENCODING 255
SWIDTH 540 0
DWIDTH 9 0
BBX 9 14 0 -3
BITMAP
0900
0000
2080
2100
2100
2200
1400
1400
1800
1800
1000
1000
2000
C000
ENDCHAR
STARTCHAR 0100
ENCODING 256
SWIDTH 660 0
DWIDTH 11 0
BBX 9 14 1 0
BITMAP
0F80
0000
0200
0500
0500
0900
0900
1100
1100
3F80
4080
4080
8080
8080
ENDCHAR
STARTCHAR 0101
ENCODING 257
SWIDTH 540 0
DWIDTH 9 0
BBX 8 11 1 0
BITMAP
1F
00
1E
21
41
01
7F
82
82
86
7A
ENDCHAR
STARTCHAR 0102
ENCODING 258
SWIDTH 660 0
DWIDTH 11 0
BBX 10 15 1 0
BITMAP
0440
0380
0000
0200
0500
0500
0900
0900
1100
1100
3F80
4080
4080
8080
8080
ENDCHAR
STARTCHAR 0103
ENCODING 259
SWIDTH 540 0
DWIDTH 9 0
BBX 8 12 1 0
BITMAP
11
0E
00
1E
21
41
01
7F
82
82
86
7A
ENDCHAR
STARTCHAR 0104
ENCODING 260
SWIDTH 660 0
DWIDTH 11 0
BBX 10 16 1 -4
BITMAP
0200
0500
0500
0900
0900
1100
1100
3F80
4080
4080
8080
8080
0040
0080
0080
00C0
ENDCHAR
STARTCHAR 0105
ENCODING 261
SWIDTH 540 0
DWIDTH 9 0
BBX 8 13 1 -4
BITMAP
1E
21
41
01
7F
82
82
86
7A
02
04
04
06
ENDCHAR
STARTCHAR 0106
ENCODING 262
SWIDTH 720 0
DWIDTH 12 0
BBX 10 16 2 0
BITMAP
0200
0400
0800
0000
0F00
3080
4040
4040
8000
8000
8000
8000
8080
8100
4300
3C00
ENDCHAR
STARTCHAR 0107
ENCODING 263
SWIDTH 540 0
DWIDTH 9 0
BBX 8 13 1 0
BITMAP
02
04
08
00
1E
61
41
80
80
80
82
84
78
ENDCHAR
STARTCHAR 0108
ENCODING 264
SWIDTH 720 0
DWIDTH 12 0
BBX 10 16 2 0
BITMAP
0200
0500
0900
0000
0F00
3080
4040
4040
8000
8000
8000
8000
8080
8100
4300
3C00
ENDCHAR
STARTCHAR 0109
ENCODING 265
SWIDTH 540 0
DWIDTH 9 0
BBX 8 13 1 0
BITMAP
04
0A
12
00
1E
61
41
80
80
80
82
84
78
ENDCHAR
STARTCHAR 010A
ENCODING 266
SWIDTH 720 0
DWIDTH 12 0
BBX 10 14 2 0
BITMAP
0200
0000
0F00
3080
4040
4040
8000
8000
8000
8000
8080
8100
4300
3C00
ENDCHAR
STARTCHAR 010B
ENCODING 267
SWIDTH 540 0
DWIDTH 9 0
BBX 8 11 1 0
BITMAP
04
00
1E
61
41
80
80
80
82
84
78
ENDCHAR
STARTCHAR 010C
ENCODING 268
SWIDTH 720 0
DWIDTH 12 0
BBX 10 16 2 0
BITMAP
0900
0A00
0400
0000
0F00
3080
4040
4040
8000
8000
8000
8000
8080
8100
4300
3C00
ENDCHAR
STARTCHAR 010D
ENCODING 269
SWIDTH 540 0
DWIDTH 9 0
BBX 8 13 1 0
BITMAP
12
14
08
00
1E
61
41
80
80
80
82
84
78
ENDCHAR
STARTCHAR 010E
ENCODING 270
SWIDTH 720 0
DWIDTH 12 0
BBX 11 16 1 0
BITMAP
0480
0500
0200
0000
1F80
1040
2020
2020
2020
2020
4020
4020
4040
4040
8180
FE00
ENDCHAR
STARTCHAR 010F
ENCODING 271
SWIDTH 660 0
DWIDTH 11 0
BBX 11 12 1 0
BITMAP
0120
0120
0140
3A00
6600
4200
8200
8200
8200
8400
CC00
7400
ENDCHAR
STARTCHAR 0110
ENCODING 272
SWIDTH 720 0
DWIDTH 12 0
BBX 11 12 1 0
BITMAP
1F80
1040
2020
2020
2020
2020
FC20
4020
4040
40C0
8180
FF00
ENDCHAR
STARTCHAR 0111
ENCODING 273
SWIDTH 540 0
DWIDTH 9 0
BBX 10 12 1 0
BITMAP
0100
0FC0
0100
3A00
6600
4200
8200
8200
8200
8400
CC00
7400
ENDCHAR
STARTCHAR 0112
ENCODING 274
SWIDTH 660 0
DWIDTH 11 0
BBX 11 14 1 0
BITMAP
07C0
0000
1FE0
1000
2000
2000
2000
3FC0
4000
4000
4000
4000
8000
FF80
ENDCHAR
STARTCHAR 0113
ENCODING 275
SWIDTH 540 0
DWIDTH 9 0
BBX 8 11 1 0
BITMAP
3E
00
1C
62
41
81
FF
80
82
42
3C
ENDCHAR
STARTCHAR 0114
ENCODING 276
SWIDTH 660 0
DWIDTH 11 0
BBX 11 15 1 0
BITMAP
0440
0380
0000
1FE0
1000
2000
2000
2000
3FC0
4000
4000
4000
4000
8000
FF80
ENDCHAR
STARTCHAR 0115
ENCODING 277
SWIDTH 540 0
DWIDTH 9 0
BBX 8 12 1 0
BITMAP
22
1C
00
1C
62
41
81
FF
80
82
42
3C
ENDCHAR
STARTCHAR 0116
ENCODING 278
SWIDTH 660 0
DWIDTH 11 0
BBX 11 14 1 0
BITMAP
0100
0000
1FE0
1000
2000
2000
2000
3FC0
4000
4000
4000
4000
8000
FF80
ENDCHAR
STARTCHAR 0117
ENCODING 279
SWIDTH 540 0
DWIDTH 9 0
BBX 8 11 1 0
BITMAP
04
00
1C
62
41
81
FF
80
82
42
3C
ENDCHAR
STARTCHAR 0118
ENCODING 280
SWIDTH 660 0
DWIDTH 11 0
BBX 11 16 1 -4
BITMAP
1FE0
1000
2000
2000
2000
3FC0
4000
4000
4000
4000
8000
FF80
0100
0200
0200
0300
ENDCHAR
STARTCHAR 0119
ENCODING 281
SWIDTH 540 0
DWIDTH 9 0
BBX 8 13 1 -4
BITMAP
1C
62
41
81
FF
80
82
42
3C
08
10
10
18
ENDCHAR
STARTCHAR 011A
ENCODING 282
SWIDTH 660 0
DWIDTH 11 0
BBX 11 16 1 0
BITMAP
0240
0280
0100
0000
1FE0
1000
2000
2000
2000
3FC0
4000
4000
4000
4000
8000
FF80
ENDCHAR
STARTCHAR 011B
ENCODING 283
SWIDTH 540 0
DWIDTH 9 0
BBX 8 13 1 0
BITMAP
09
0A
04
00
1C
62
41
81
FF
80
82
42
3C
ENDCHAR
STARTCHAR 011C
ENCODING 284
SWIDTH 780 0
DWIDTH 13 0
BBX 11 16 2 0
BITMAP
0200
0500
0900
0000
0F80
3040
4040
4020
8000
8000
87C0
8040
8040
8080
4080
3F00
ENDCHAR
STARTCHAR 011D
ENCODING 285
SWIDTH 480 0
DWIDTH 8 0
BBX 7 16 1 -3
BITMAP
08
14
24
00
3A
46
82
82
82
82
84
8C
74
04
88
70
ENDCHAR
STARTCHAR 011E
ENCODING 286
SWIDTH 780 0
DWIDTH 13 0
BBX 11 15 2 0
BITMAP
0440
0380
0000
0F80
3040
4040
4020
8000
8000
87C0
8040
8040
8080
4080
3F00
ENDCHAR
STARTCHAR 011F
ENCODING 287
SWIDTH 480 0
DWIDTH 8 0
BBX 7 15 1 -3
BITMAP
22
1C
00
3A
46
82
82
82
82
84
8C
74
04
88
70
ENDCHAR
STARTCHAR 0120
ENCODING 288
SWIDTH 780 0
DWIDTH 13 0
BBX 11 14 2 0
BITMAP
0200
0000
0F80
3040
4040
4020
8000
8000
87C0
8040
8040
8080
4080
3F00
ENDCHAR
STARTCHAR 0121
ENCODING 289
SWIDTH 480 0
DWIDTH 8 0
BBX 7 14 1 -3
BITMAP
08
00
3A
46
82
82
82
82
84
8C
74
04
88
70
ENDCHAR
STARTCHAR 0122
ENCODING 290
SWIDTH 780 0
DWIDTH 13 0
BBX 11 16 2 -5
BITMAP
0F80
3040
4040
4020
8000
8000
87C0
8040
8040
8080
4080
3F00
0000
0800
0800
0800
ENDCHAR
STARTCHAR 0123
ENCODING 291
SWIDTH 540 0
DWIDTH 9 0
BBX 8 16 1 -3
BITMAP
04
08
08
00
1D
63
41
82
82
82
82
84
7C
04
88
78
ENDCHAR
STARTCHAR 0124
ENCODING 292
SWIDTH 720 0
DWIDTH 12 0
BBX 11 16 1 0
BITMAP
0100
0280
0480
0000
1020
1020
2040
2040
2040
3FC0
4080
4080
4080
4080
8100
8100
ENDCHAR
STARTCHAR 0125
ENCODING 293
SWIDTH 540 0
DWIDTH 9 0
BBX 8 16 1 0
BITMAP
02
05
09
00
10
10
20
2E
31
21
41
42
42
42
84
84
ENDCHAR
STARTCHAR 0126
ENCODING 294
SWIDTH 720 0
DWIDTH 12 0
BBX 12 12 1 0
BITMAP
1020
1020
7FF0
2040
2040
3FC0
4080
4080
4080
4080
8100
8100
ENDCHAR
STARTCHAR 0127
ENCODING 295
SWIDTH 540 0
DWIDTH 9 0
BBX 8 12 1 0
BITMAP
10
7C
20
2E
33
21
42
42
42
42
84
84
ENDCHAR
STARTCHAR 0128
ENCODING 296
SWIDTH 300 0
DWIDTH 5 0
BBX 7 15 1 0
BITMAP
32
4C
00
10
10
20
20
20
20
40
40
40
40
80
80
ENDCHAR
STARTCHAR 0129
ENCODING 297
SWIDTH 240 0
DWIDTH 4 0
BBX 6 12 1 0
BITMAP
64
98
00
20
20
20
40
40
40
40
80
80
ENDCHAR
STARTCHAR 012A
ENCODING 298
SWIDTH 300 0
DWIDTH 5 0
BBX 6 14 1 0
BITMAP
7C
00
10
10
20
20
20
20
40
40
40
40
80
80
ENDCHAR
STARTCHAR 012B
ENCODING 299
SWIDTH 240 0
DWIDTH 4 0
BBX 5 11 1 0
BITMAP
F8
00
20
20
20
40
40
40
40
80
80
ENDCHAR
STARTCHAR 012C
ENCODING 300
SWIDTH 300 0
DWIDTH 5 0
BBX 6 15 1 0
BITMAP
44
38
00
10
10
20
20
20
20
40
40
40
40
80
80
ENDCHAR
STARTCHAR 012D
ENCODING 301
SWIDTH 240 0
DWIDTH 4 0
BBX 6 12 1 0
BITMAP
44
38
00
20
20
20
40
40
40
40
80
80
ENDCHAR
STARTCHAR 012E
ENCODING 302
SWIDTH 300 0
DWIDTH 5 0
BBX 5 16 0 -4
BITMAP
08
08
10
10
10
10
20
20
20
20
40
40
40
80
80
C0
ENDCHAR
STARTCHAR 012F
ENCODING 303
SWIDTH 240 0
DWIDTH 4 0
BBX 4 16 1 -4
BITMAP
10
00
00
20
20
20
40
40
40
40
80
80
40
80
80
C0
ENDCHAR
STARTCHAR 0130
ENCODING 304
SWIDTH 300 0
DWIDTH 5 0
BBX 5 14 1 0
BITMAP
08
00
10
10
20
20
20
20
40
40
40
40
80
80
ENDCHAR
STARTCHAR 0131
ENCODING 305
SWIDTH 240 0
DWIDTH 4 0
BBX 3 9 1 0
BITMAP
20
20
40
40
40
40
40
80
80
ENDCHAR
STARTCHAR 0132
ENCODING 306
SWIDTH 720 0
DWIDTH 12 0
BBX 12 12 1 0
BITMAP
1010
1010
2020
2020
2020
2020
4040
4040
4040
4840
8880
8700
ENDCHAR
STARTCHAR 0133
ENCODING 307
SWIDTH 480 0
DWIDTH 8 0
BBX 8 15 1 -3
BITMAP
11
00
00
22
22
22
44
44
44
44
88
88
08
08
70
ENDCHAR
STARTCHAR 0134
ENCODING 308
SWIDTH 540 0
DWIDTH 9 0
BBX 10 16 1 0
BITMAP
0080
0140
0240
0000
0100
0100
0200
0200
0200
0200
0400
0400
0400
8400
8800
7000
ENDCHAR
STARTCHAR 0135
ENCODING 309
SWIDTH 240 0
DWIDTH 4 0
BBX 7 16 -1 -3
BITMAP
04
0A
12
00
08
08
08
10
10
10
10
20
20
20
20
C0
ENDCHAR
STARTCHAR 0136
ENCODING 310
SWIDTH 660 0
DWIDTH 11 0
BBX 10 16 1 -5
BITMAP
1040
1080
2100
2200
2400
2800
5400
6400
4200
4100
8100
8080
0000
0800
0800
0800
ENDCHAR
STARTCHAR 0137
ENCODING 311
SWIDTH 540 0
DWIDTH 9 0
BBX 8 16 1 -5
BITMAP
10
10
20
21
22
24
68
78
44
44
82
82
00
10
10
10
ENDCHAR
STARTCHAR 0138
ENCODING 312
SWIDTH 540 0
DWIDTH 9 0
BBX 8 9 1 0
BITMAP
23
24
28
58
68
44
44
82
82
ENDCHAR
STARTCHAR 0139
ENCODING 313
SWIDTH 540 0
DWIDTH 9 0
BBX 8 16 1 0
BITMAP
04
08
10
00
10
10
20
20
20
20
40
40
40
40
80
FF
ENDCHAR
STARTCHAR 013A
ENCODING 314
SWIDTH 240 0
DWIDTH 4 0
BBX 6 16 1 0
BITMAP
04
08
10
00
10
10
20
20
20
20
40
40
40
40
80
80
ENDCHAR
STARTCHAR 013B
ENCODING 315
SWIDTH 540 0
DWIDTH 9 0
BBX 8 16 1 -5
BITMAP
10
10
20
20
20
20
40
40
40
40
80
FF
00
08
08
08
ENDCHAR
STARTCHAR 013C
ENCODING 316
SWIDTH 240 0
DWIDTH 4 0
BBX 4 16 1 -5
BITMAP
10
10
20
20
20
20
40
40
40
40
80
80
00
80
80
80
ENDCHAR
STARTCHAR 013D
ENCODING 317
SWIDTH 540 0
DWIDTH 9 0
BBX 8 12 1 0
BITMAP
11
11
22
20
20
20
40
40
40
40
80
FE
ENDCHAR
STARTCHAR 013E
ENCODING 318
SWIDTH 300 0
DWIDTH 5 0
BBX 7 12 1 0
BITMAP
12
12
24
20
20
20
40
40
40
40
80
80
ENDCHAR
STARTCHAR 013F
ENCODING 319
SWIDTH 540 0
DWIDTH 9 0
BBX 8 12 1 0
BITMAP
10
10
20
20
20
20
42
40
40
40
80
FF
ENDCHAR
STARTCHAR 0140
ENCODING 320
SWIDTH 420 0
DWIDTH 7 0
BBX 5 12 1 0
BITMAP
10
10
20
20
20
20
48
40
40
40
80
80
ENDCHAR
STARTCHAR 0141
ENCODING 321
SWIDTH 540 0
DWIDTH 9 0
BBX 8 12 0 0
BITMAP
08
08
10
14
18
30
60
A0
20
20
40
7F
ENDCHAR
STARTCHAR 0142
ENCODING 322
SWIDTH 240 0
DWIDTH 4 0
BBX 6 12 0 0
BITMAP
08
08
10
10
14
18
60
A0
20
20
40
40
ENDCHAR
STARTCHAR 0143
ENCODING 323
SWIDTH 720 0
DWIDTH 12 0
BBX 11 16 1 0
BITMAP
0080
0100
0200
0000
1820
1420
2440
2440
2440
2440
4280
4280
4280
4280
8300
8100
ENDCHAR
STARTCHAR 0144
ENCODING 324
SWIDTH 540 0
DWIDTH 9 0
BBX 8 13 1 0
BITMAP
04
08
10
00
2E
31
21
42
42
42
42
84
84
ENDCHAR
STARTCHAR 0145
ENCODING 325
SWIDTH 720 0
DWIDTH 12 0
BBX 11 16 1 -5
BITMAP
1820
1420
2440
2440
2440
2440
4280
4280
4280
4280
8300
8100
0000
0800
0800
0800
ENDCHAR
STARTCHAR 0146
ENCODING 326
SWIDTH 540 0
DWIDTH 9 0
BBX 8 13 1 -5
BITMAP
2E
31
21
42
42
42
42
84
84
00
10
10
10
ENDCHAR
STARTCHAR 0147
ENCODING 327
SWIDTH 720 0
DWIDTH 12 0
BBX 11 16 1 0
BITMAP
0120
0140
0080
0000
1820
1420
2440
2440
2440
2440
4280
4280
4280
4280
8300
8100
ENDCHAR
STARTCHAR 0148
ENCODING 328
SWIDTH 540 0
DWIDTH 9 0
BBX 8 13 1 0
BITMAP
09
0A
04
00
2E
31
21
42
42
42
42
84
84
ENDCHAR
STARTCHAR 0149
ENCODING 329
SWIDTH 600 0
DWIDTH 10 0
BBX 10 12 0 0
BITMAP
4000
4000
4000
8B80
0C40
0840
1080
1080
1080
1080
2100
2100
ENDCHAR
STARTCHAR 014A
ENCODING 330
SWIDTH 720 0
DWIDTH 12 0
BBX 11 12 1 0
BITMAP
1780
1840
2020
2020
2020
2020
4020
4020
4040
4040
8080
8F00
ENDCHAR
STARTCHAR 014B
ENCODING 331
SWIDTH 540 0
DWIDTH 9 0
BBX 8 12 1 -3
BITMAP
2E
31
21
42
42
42
42
84
84
04
04
38
ENDCHAR
STARTCHAR 014C
ENCODING 332
SWIDTH 780 0
DWIDTH 13 0
BBX 10 14 2 0
BITMAP
1F00
0000
1F00
2080
4080
4040
8040
8040
8040
8040
8080
4080
4100
3E00
ENDCHAR
STARTCHAR 014D
ENCODING 333
SWIDTH 540 0
DWIDTH 9 0
BBX 8 11 1 0
BITMAP
3E
00
1C
62
41
81
81
81
82
46
38
ENDCHAR
STARTCHAR 014E
ENCODING 334
SWIDTH 780 0
DWIDTH 13 0
BBX 10 15 2 0
BITMAP
0880
0700
0000
1F00
2080
4080
4040
8040
8040
8040
8040
8080
4080
4100
3E00
ENDCHAR
STARTCHAR 014F
ENCODING 335
SWIDTH 540 0
DWIDTH 9 0
BBX 8 12 1 0
BITMAP
22
1C
00
1C
62
41
81
81
81
82
46
38
ENDCHAR
STARTCHAR 0150
ENCODING 336
SWIDTH 780 0
DWIDTH 13 0
BBX 10 16 2 0
BITMAP
0280
0500
0A00
0000
1F00
2080
4080
4040
8040
8040
8040
8040
8080
4080
4100
3E00
ENDCHAR
STARTCHAR 0151
ENCODING 337
SWIDTH 540 0
DWIDTH 9 0
BBX 8 13 1 0
BITMAP
05
0A
14
00
1C
62
41
81
81
81
82
46
38
ENDCHAR
STARTCHAR 0152
ENCODING 338
SWIDTH 1020 0
DWIDTH 17 0
BBX 17 12 1 0
BITMAP
0FBF80
30E000
604000
404000
C04000
804000
80FF00
808000
808000
818000
430000
3FFE00
ENDCHAR
STARTCHAR 0153
ENCODING 339
SWIDTH 960 0
DWIDTH 16 0
BBX 15 9 1 0
BITMAP
1E78
6184
4102
8102
81FE
8100
8102
8304
7CF8
ENDCHAR
STARTCHAR 0154
ENCODING 340
SWIDTH 720 0
DWIDTH 12 0
BBX 11 16 1 0
BITMAP
0100
0200
0400
0000
1FC0
1020
2020
2020
2020
2040
7F80
4100
4080
4080
8040
8040
ENDCHAR
STARTCHAR 0155
ENCODING 341
SWIDTH 360 0
DWIDTH 6 0
BBX 6 13 1 0
BITMAP
08
10
20
00
2C
30
20
40
40
40
40
80
80
ENDCHAR
STARTCHAR 0156
ENCODING 342
SWIDTH 720 0
DWIDTH 12 0
BBX 11 16 1 -5
BITMAP
1FC0
1020
2020
2020
2020
2040
7F80
4100
4080
4080
8040
8040
0000
0400
0400
0400
ENDCHAR
STARTCHAR 0157
ENCODING 343
SWIDTH 360 0
DWIDTH 6 0
BBX 6 13 1 -5
BITMAP
2C
30
20
40
40
40
40
80
80
00
80
80
80
ENDCHAR
STARTCHAR 0158
ENCODING 344
SWIDTH 720 0
DWIDTH 12 0
BBX 11 16 1 0
BITMAP
0480
0500
0200
0000
1FC0
1020
2020
2020
2020
2040
7F80
4100
4080
4080
8040
8040
ENDCHAR
STARTCHAR 0159
ENCODING 345
SWIDTH 360 0
DWIDTH 6 0
BBX 6 13 1 0
BITMAP
24
28
10
00
2C
30
20
40
40
40
40
80
80
ENDCHAR
STARTCHAR 015A
ENCODING 346
SWIDTH 660 0
DWIDTH 11 0
BBX 9 16 2 0
BITMAP
0200
0400
0800
0000
1E00
6180
4080
4000
4000
3000
0E00
0300
8100
8100
4200
3C00
ENDCHAR
STARTCHAR 015B
ENCODING 347
SWIDTH 540 0
DWIDTH 9 0
BBX 8 13 1 0
BITMAP
04
08
10
00
3E
41
41
40
3C
02
82
82
7C
ENDCHAR
STARTCHAR 015C
ENCODING 348
SWIDTH 660 0
DWIDTH 11 0
BBX 9 16 2 0
BITMAP
0400
0A00
1200
0000
1E00
6180
4080
4000
4000
3000
0E00
0300
8100
8100
4200
3C00
ENDCHAR
STARTCHAR 015D
ENCODING 349
SWIDTH 540 0
DWIDTH 9 0
BBX 8 13 1 0
BITMAP
04
0A
12
00
3E
41
41
40
3C
02
82
82
7C
ENDCHAR
STARTCHAR 015E
ENCODING 350
SWIDTH 660 0
DWIDTH 11 0
BBX 9 15 2 -3
BITMAP
1E00
6180
4080
4000
4000
3000
0E00
0300
8100
8100
4200
3C00
1000
0800
7800
ENDCHAR
STARTCHAR 015F
ENCODING 351
SWIDTH 540 0
DWIDTH 9 0
BBX 8 12 1 -3
BITMAP
3E
41
41
40
3C
02
82
82
7C
10
08
78
ENDCHAR
STARTCHAR 0160
ENCODING 352
SWIDTH 660 0
DWIDTH 11 0
BBX 9 16 2 0
BITMAP
0900
0A00
0400
0000
1E00
6180
4080
4000
4000
3000
0E00
0300
8100
8100
4200
3C00
ENDCHAR
STARTCHAR 0161
ENCODING 353
SWIDTH 540 0
DWIDTH 9 0
BBX 8 13 1 0
BITMAP
12
14
08
00
3E
41
41
40
3C
02
82
82
7C
ENDCHAR
STARTCHAR 0162
ENCODING 354
SWIDTH 600 0
DWIDTH 10 0
BBX 9 15 2 -3
BITMAP
FF80
0800
0800
0800
1000
1000
1000
1000
1000
2000
2000
2000
2000
1000
F000
ENDCHAR
STARTCHAR 0163
ENCODING 355
SWIDTH 300 0
DWIDTH 5 0
BBX 5 15 1 -3
BITMAP
10
20
20
78
20
20
20
40
40
40
40
60
20
10
F0
ENDCHAR
STARTCHAR 0164
ENCODING 356
SWIDTH 600 0
DWIDTH 10 0
BBX 9 16 2 0
BITMAP
1200
1400
0800
0000
FF80
0800
0800
0800
1000
1000
1000
1000
1000
2000
2000
2000
ENDCHAR
STARTCHAR 0165
ENCODING 357
SWIDTH 360 0
DWIDTH 6 0
BBX 6 12 1 0
BITMAP
24
24
48
F0
40
40
40
80
80
80
80
C0
ENDCHAR
STARTCHAR 0166
ENCODING 358
SWIDTH 600 0
DWIDTH 10 0
BBX 9 12 3 0
BITMAP
FF80
0800
1000
1000
1000
1000
FE00
2000
2000
2000
4000
4000
ENDCHAR
STARTCHAR 0167
ENCODING 359
SWIDTH 300 0
DWIDTH 5 0
BBX 4 12 1 0
BITMAP
10
20
20
70
20
40
40
F0
40
80
80
E0
ENDCHAR
STARTCHAR 0168
ENCODING 360
SWIDTH 720 0
DWIDTH 12 0
BBX 10 15 2 0
BITMAP
0C80
1300
0000
2040
2040
4040
4080
4080
4080
8080
8080
8080
8100
4200
3C00
ENDCHAR
STARTCHAR 0169
ENCODING 361
SWIDTH 540 0
DWIDTH 9 0
BBX 8 12 1 0
BITMAP
19
26
00
21
21
21
42
42
42
84
8C
74
ENDCHAR
STARTCHAR 016A
ENCODING 362
SWIDTH 720 0
DWIDTH 12 0
BBX 10 14 2 0
BITMAP
0F80
0000
2040
2040
4040
4080
4080
4080
8080
8080
8080
8100
4200
3C00
ENDCHAR
STARTCHAR 016B
ENCODING 363
SWIDTH 540 0
DWIDTH 9 0
BBX 8 11 1 0
BITMAP
1F
00
21
21
21
42
42
42
84
8C
74
ENDCHAR
STARTCHAR 016C
ENCODING 364
SWIDTH 720 0
DWIDTH 12 0
BBX 10 15 2 0
BITMAP
0880
0700
0000
2040
2040
4040
4080
4080
4080
8080
8080
8080
8100
4200
3C00
ENDCHAR
STARTCHAR 016D
ENCODING 365
SWIDTH 540 0
DWIDTH 9 0
BBX 8 12 1 0
BITMAP
11
0E
00
21
21
21
42
42
42
84
8C
74
ENDCHAR
STARTCHAR 016E
ENCODING 366
SWIDTH 720 0
DWIDTH 12 0
BBX 10 16 2 0
BITMAP
0600
0900
0900
0600
2040
2040
4040
4080
4080
4080
8080
8080
8080
8100
4200
3C00
ENDCHAR
STARTCHAR 016F
ENCODING 367
SWIDTH 540 0
DWIDTH 9 0
BBX 8 14 1 0
BITMAP
0C
12
12
0C
00
21
21
21
42
42
42
84
8C
74
ENDCHAR
STARTCHAR 0170
ENCODING 368
SWIDTH 720 0
DWIDTH 12 0
BBX 10 16 2 0
BITMAP
0280
0500
0A00
0000
2040
2040
4040
4080
4080
4080
8080
8080
8080
8100
4200
3C00
ENDCHAR
STARTCHAR 0171
ENCODING 369
SWIDTH 540 0
DWIDTH 9 0
BBX 8 13 1 0
BITMAP
05
0A
14
00
21
21
21
42
42
42
84
8C
74
ENDCHAR
STARTCHAR 0172
ENCODING 370
SWIDTH 720 0
DWIDTH 12 0
BBX 10 16 2 -4
BITMAP
2040
2040
4040
4080
4080
4080
8080
8080
8080
8100
4200
3C00
0800
1000
1000
1800
ENDCHAR
STARTCHAR 0173
ENCODING 371
SWIDTH 540 0
DWIDTH 9 0
BBX 8 13 1 -4
BITMAP
21
21
21
42
42
42
84
8C
74
04
08
08
0C
ENDCHAR
STARTCHAR 0174
ENCODING 372
SWIDTH 1020 0
DWIDTH 17 0
BBX 16 16 2 0
BITMAP
0040
00A0
0120
0000
8081
8181
8182
8282
8684
4448
4848
5850
5050
6060
6060
4040
ENDCHAR
STARTCHAR 0175
ENCODING 373
SWIDTH 720 0
DWIDTH 12 0
BBX 11 13 1 0
BITMAP
0200
0500
0900
0000
8420
8620
8A20
8A40
C940
5140
6180
6180
4100
ENDCHAR
STARTCHAR 0176
ENCODING 374
SWIDTH 660 0
DWIDTH 11 0
BBX 9 16 3 0
BITMAP
0800
1400
2400
0000
8080
8100
4200
4200
2400
2800
1800
1000
1000
1000
2000
2000
ENDCHAR
STARTCHAR 0177
ENCODING 375
SWIDTH 540 0
DWIDTH 9 0
BBX 9 16 0 -3
BITMAP
0200
0500
0900
0000
2080
2100
2100
2200
1400
1400
1800
1800
1000
1000
2000
C000
ENDCHAR
STARTCHAR 0178
ENCODING 376
SWIDTH 660 0
DWIDTH 11 0
BBX 9 14 3 0
BITMAP
1200
0000
8080
8100
4200
4200
2400
2800
1800
1000
1000
1000
2000
2000
ENDCHAR
STARTCHAR 0179
ENCODING 377
SWIDTH 600 0
DWIDTH 10 0
BBX 10 16 0 0
BITMAP
0200
0400
0800
0000
3FC0
0040
0080
0100
0200
0400
0800
1000
2000
4000
8000
FF80
ENDCHAR
STARTCHAR 017A
ENCODING 378
SWIDTH 480 0
DWIDTH 8 0
BBX 8 13 0 0
BITMAP
04
08
10
00
7F
02
04
08
08
10
20
40
FE
ENDCHAR
STARTCHAR 017B
ENCODING 379
SWIDTH 600 0
DWIDTH 10 0
BBX 10 14 0 0
BITMAP
0400
0000
3FC0
0040
0080
0100
0200
0400
0800
1000
2000
4000
8000
FF80
ENDCHAR
STARTCHAR 017C
ENCODING 380
SWIDTH 480 0
DWIDTH 8 0
BBX 8 11 0 0
BITMAP
08
00
7F
02
04
08
08
10
20
40
FE
ENDCHAR
STARTCHAR 017D
ENCODING 381
SWIDTH 600 0
DWIDTH 10 0
BBX 10 16 0 0
BITMAP
0900
0A00
0400
0000
3FC0
0040
0080
0100
0200
0400
0800
1000
2000
4000
8000
FF80
ENDCHAR
STARTCHAR 017E
ENCODING 382
SWIDTH 480 0
DWIDTH 8 0
BBX 8 13 0 0
BITMAP
12
14
08
00
7F
02
04
08
08
10
20
40
FE
ENDCHAR
ENDFONT
