STARTFONT 2.1
COMMENT
COMMENT Converted from OpenType font "monoMMM_5.ttf" by "otf2bdf 3.0".
COMMENT
FONT -FreeType-monoMMM_5-Medium-R-Normal--125-900-100-100-P-695-ISO10646-1
SIZE 90 100 100
FONTBOUNDINGBOX 69 97 0 0
STARTPROPERTIES 19
FOUNDRY "FreeType"
FAMILY_NAME "monoMMM_5"
WEIGHT_NAME "Medium"
SLANT "R"
SETWIDTH_NAME "Normal"
ADD_STYLE_NAME ""
PIXEL_SIZE 125
POINT_SIZE 900
RESOLUTION_X 100
RESOLUTION_Y 100
SPACING "P"
AVERAGE_WIDTH 695
CHARSET_REGISTRY "ISO10646"
CHARSET_ENCODING "1"
FONT_ASCENT 126
FONT_DESCENT 27
COPYRIGHT "Marcelo Magalhães Macedo - 2009"
_OTF_FONTFILE "monoMMM_5.ttf"
_OTF_PSNAME "monoMMM5-Regular"
ENDPROPERTIES
CHARS 8
STARTCHAR 0041
ENCODING 65
SWIDTH 664 0
DWIDTH 83 0
BBX 69 97 0 0
BITMAP
000007FFFFFF000000
00003FFFFFFFE00000
0000FFFFFFFFFC0000
0003FFFFFFFFFE0000
000FFFFFFFFFFF8000
001FFFFFFFFFFFC000
003FFFFFFFFFFFF000
007FFFFFFFFFFFF800
00FFFFFFFFFFFFFC00
01FFFFFFFFFFFFFE00
03FFFFFFFFFFFFFE00
07FFFFFFFFFFFFFF00
0FFFFFFFFFFFFFFF80
0FFFFFFFFFFFFFFFC0
1FFFFE000003FFFFC0
1FFFF8000000FFFFE0
3FFFE00000003FFFE0
3FFFC00000001FFFF0
7FFF800000000FFFF0
7FFF8000000007FFF0
7FFF0000000003FFF8
7FFE0000000003FFF8
FFFE0000000001FFF8
FFFC0000000001FFF8
FFFC0000000001FFF8
FFFC0000000001FFF8
FFFC0000000001FFF8
FFFC0000000000FFF8
FFFC0000000000FFF8
FFFC0000000000FFF8
FFFC0000000000FFF8
FFFC0000000000FFF8
FFFC0000000000FFF8
FFFC0000000000FFF8
FFFC0000000000FFF8
FFFC0000000000FFF8
FFFC0000000000FFF8
FFFC0000000000FFF8
FFFC0000000000FFF8
FFFC0000000000FFF8
FFFC0000000000FFF8
FFFC0000000000FFF8
FFFC0000000000FFF8
FFFC0000000000FFF8
FFFC0000000000FFF8
FFFC0000000000FFF8
FFFC0000000000FFF8
FFFC0000000000FFF8
FFFC0000000000FFF8
FFFC0000000000FFF8
FFFC0000000000FFF8
FFFC0000000000FFF8
FFFC0000000000FFF8
FFFC0000000000FFF8
FFFC0000000000FFF8
FFFFFFFFFFFFFFFFF8
FFFFFFFFFFFFFFFFF8
FFFFFFFFFFFFFFFFF8
FFFFFFFFFFFFFFFFF8
FFFFFFFFFFFFFFFFF8
FFFFFFFFFFFFFFFFF8
FFFFFFFFFFFFFFFFF8
FFFFFFFFFFFFFFFFF8
FFFFFFFFFFFFFFFFF8
FFFFFFFFFFFFFFFFF8
FFFFFFFFFFFFFFFFF8
FFFFFFFFFFFFFFFFF8
FFFFFFFFFFFFFFFFF8
FFFFFFFFFFFFFFFFF8
FFFC0000000000FFF8
FFFC0000000000FFF8
FFFC0000000000FFF8
FFFC0000000000FFF8
FFFC0000000000FFF8
FFFC0000000000FFF8
FFFC0000000000FFF8
FFFC0000000000FFF8
FFFC0000000000FFF8
FFFC0000000000FFF8
FFFC0000000000FFF8
FFFC0000000000FFF8
FFFC0000000000FFF8
FFFC0000000000FFF8
FFFC0000000000FFF8
FFFC0000000000FFF8
FFFC0000000000FFF8
FFFC0000000000FFF8
FFFC0000000000FFF8
FFFC0000000000FFF8
FFFC0000000000FFF8
FFFC0000000000FFF8
FFFC0000000000FFF8
FFFC0000000000FFF8
FFFC0000000000FFF8
FFFC0000000000FFF8
FFFC0000000000FFF8
FFFC0000000000FFF8
ENDCHAR
STARTCHAR 0042
ENCODING 66
SWIDTH 664 0
DWIDTH 83 0
BBX 69 97 0 0
BITMAP
FFFFFFFFFFFE000000
FFFFFFFFFFFFE00000
FFFFFFFFFFFFF80000
FFFFFFFFFFFFFE0000
FFFFFFFFFFFFFF8000
FFFFFFFFFFFFFFC000
FFFFFFFFFFFFFFF000
FFFFFFFFFFFFFFF800
FFFFFFFFFFFFFFFC00
FFFFFFFFFFFFFFFE00
FFFFFFFFFFFFFFFE00
FFFFFFFFFFFFFFFF00
FFFFFFFFFFFFFFFF80
FFFFFFFFFFFFFFFFC0
FFFC00000007FFFFC0
FFFC00000000FFFFE0
FFFC000000003FFFE0
FFFC000000001FFFF0
FFFC000000000FFFF0
FFFC0000000007FFF0
FFFC0000000007FFF8
FFFC0000000003FFF8
FFFC0000000001FFF8
FFFC0000000001FFF8
FFFC0000000001FFF8
FFFC0000000001FFF8
FFFC0000000001FFF8
FFFC0000000000FFF8
FFFC0000000001FFF8
FFFC0000000001FFF8
FFFC0000000001FFF8
FFFC0000000001FFF8
FFFC0000000001FFF8
FFFC0000000003FFF8
FFFC0000000003FFF0
FFFC0000000007FFF0
FFFC000000000FFFF0
FFFC000000001FFFE0
FFFC000000003FFFE0
FFFC00000000FFFFC0
FFFC00000007FFFF80
FFFFFFFFFFFFFFFF80
FFFFFFFFFFFFFFFF00
FFFFFFFFFFFFFFFE00
FFFFFFFFFFFFFFFC00
FFFFFFFFFFFFFFF800
FFFFFFFFFFFFFFF000
FFFFFFFFFFFFFFC000
FFFFFFFFFFFFFFC000
FFFFFFFFFFFFFFF000
FFFFFFFFFFFFFFF800
FFFFFFFFFFFFFFFC00
FFFFFFFFFFFFFFFE00
FFFFFFFFFFFFFFFF00
FFFFFFFFFFFFFFFF00
FFFC00000007FFFF80
FFFC00000000FFFFC0
FFFC000000007FFFE0
FFFC000000001FFFE0
FFFC000000000FFFE0
FFFC0000000007FFF0
FFFC0000000007FFF0
FFFC0000000003FFF8
FFFC0000000003FFF8
FFFC0000000001FFF8
FFFC0000000001FFF8
FFFC0000000001FFF8
FFFC0000000001FFF8
FFFC0000000000FFF8
FFFC0000000000FFF8
FFFC0000000001FFF8
FFFC0000000001FFF8
FFFC0000000001FFF8
FFFC0000000001FFF8
FFFC0000000003FFF8
FFFC0000000003FFF8
FFFC0000000007FFF0
FFFC0000000007FFF0
FFFC000000000FFFF0
FFFC000000001FFFF0
FFFC000000003FFFE0
FFFC00000000FFFFE0
FFFC00000007FFFFC0
FFFFFFFFFFFFFFFFC0
FFFFFFFFFFFFFFFF80
FFFFFFFFFFFFFFFF00
FFFFFFFFFFFFFFFE00
FFFFFFFFFFFFFFFE00
FFFFFFFFFFFFFFFC00
FFFFFFFFFFFFFFF800
FFFFFFFFFFFFFFF000
FFFFFFFFFFFFFFC000
FFFFFFFFFFFFFF8000
FFFFFFFFFFFFFE0000
FFFFFFFFFFFFF80000
FFFFFFFFFFFFE00000
FFFFFFFFFFFE000000
ENDCHAR
STARTCHAR 0043
ENCODING 67
SWIDTH 664 0
DWIDTH 83 0
BBX 69 97 0 0
BITMAP
000003FFFFFE000000
00001FFFFFFFE00000
0000FFFFFFFFF80000
0003FFFFFFFFFE0000
0007FFFFFFFFFF8000
001FFFFFFFFFFFC000
003FFFFFFFFFFFE000
007FFFFFFFFFFFF000
00FFFFFFFFFFFFF800
01FFFFFFFFFFFFFC00
03FFFFFFFFFFFFFE00
07FFFFFFFFFFFFFF00
07FFFFFFFFFFFFFF80
0FFFFFFFFFFFFFFF80
1FFFFF000007FFFFC0
1FFFFC000000FFFFE0
3FFFF00000003FFFE0
3FFFE00000001FFFE0
7FFFC00000000FFFF0
7FFF8000000007FFF0
7FFF0000000007FFF0
7FFE0000000003FFF8
FFFE0000000003FFF8
FFFE0000000001FFF8
FFFC0000000001FFF8
FFFC0000000001FFF8
FFFC0000000001FFF8
FFFC0000000000FFF8
FFFC00000000000000
FFFC00000000000000
FFFC00000000000000
FFFC00000000000000
FFFC00000000000000
FFFC00000000000000
FFFC00000000000000
FFFC00000000000000
FFFC00000000000000
FFFC00000000000000
FFFC00000000000000
FFFC00000000000000
FFFC00000000000000
FFFC00000000000000
FFFC00000000000000
FFFC00000000000000
FFFC00000000000000
FFFC00000000000000
FFFC00000000000000
FFFC00000000000000
FFFC00000000000000
FFFC00000000000000
FFFC00000000000000
FFFC00000000000000
FFFC00000000000000
FFFC00000000000000
FFFC00000000000000
FFFC00000000000000
FFFC00000000000000
FFFC00000000000000
FFFC00000000000000
FFFC00000000000000
FFFC00000000000000
FFFC00000000000000
FFFC00000000000000
FFFC00000000000000
FFFC00000000000000
FFFC00000000000000
FFFC00000000000000
FFFC00000000000000
FFFC00000000000000
FFFC0000000000FFF8
FFFC0000000001FFF8
FFFC0000000001FFF8
FFFC0000000001FFF8
FFFE0000000001FFF8
FFFE0000000003FFF8
7FFE0000000003FFF8
7FFF0000000007FFF0
7FFF8000000007FFF0
7FFFC00000000FFFF0
3FFFE00000001FFFE0
3FFFF00000003FFFE0
1FFFF8000000FFFFE0
1FFFFF000007FFFFC0
0FFFFFFFFFFFFFFF80
07FFFFFFFFFFFFFF80
07FFFFFFFFFFFFFF00
03FFFFFFFFFFFFFE00
01FFFFFFFFFFFFFC00
00FFFFFFFFFFFFF800
007FFFFFFFFFFFF000
003FFFFFFFFFFFE000
001FFFFFFFFFFFC000
0007FFFFFFFFFF8000
0003FFFFFFFFFE0000
0000FFFFFFFFF80000
00003FFFFFFFE00000
000003FFFFFE000000
ENDCHAR
STARTCHAR 0044
ENCODING 68
SWIDTH 664 0
DWIDTH 83 0
BBX 69 97 0 0
BITMAP
FFFFFFFFFFFE000000
FFFFFFFFFFFFE00000
FFFFFFFFFFFFF80000
FFFFFFFFFFFFFE0000
FFFFFFFFFFFFFF8000
FFFFFFFFFFFFFFC000
FFFFFFFFFFFFFFE000
FFFFFFFFFFFFFFF800
FFFFFFFFFFFFFFFC00
FFFFFFFFFFFFFFFC00
FFFFFFFFFFFFFFFE00
FFFFFFFFFFFFFFFF00
FFFFFFFFFFFFFFFF80
FFFFFFFFFFFFFFFF80
FFFC00000007FFFFC0
FFFC00000000FFFFE0
FFFC000000003FFFE0
FFFC000000001FFFE0
FFFC000000000FFFF0
FFFC0000000007FFF0
FFFC0000000007FFF0
FFFC0000000003FFF8
FFFC0000000001FFF8
FFFC0000000001FFF8
FFFC0000000001FFF8
FFFC0000000001FFF8
FFFC0000000001FFF8
FFFC0000000000FFF8
FFFC0000000000FFF8
FFFC0000000000FFF8
FFFC0000000000FFF8
FFFC0000000000FFF8
FFFC0000000000FFF8
FFFC0000000000FFF8
FFFC0000000000FFF8
FFFC0000000000FFF8
FFFC0000000000FFF8
FFFC0000000000FFF8
FFFC0000000000FFF8
FFFC0000000000FFF8
FFFC0000000000FFF8
FFFC0000000000FFF8
FFFC0000000000FFF8
FFFC0000000000FFF8
FFFC0000000000FFF8
FFFC0000000000FFF8
FFFC0000000000FFF8
FFFC0000000000FFF8
FFFC0000000000FFF8
FFFC0000000000FFF8
FFFC0000000000FFF8
FFFC0000000000FFF8
FFFC0000000000FFF8
FFFC0000000000FFF8
FFFC0000000000FFF8
FFFC0000000000FFF8
FFFC0000000000FFF8
FFFC0000000000FFF8
FFFC0000000000FFF8
FFFC0000000000FFF8
FFFC0000000000FFF8
FFFC0000000000FFF8
FFFC0000000000FFF8
FFFC0000000000FFF8
FFFC0000000000FFF8
FFFC0000000000FFF8
FFFC0000000000FFF8
FFFC0000000000FFF8
FFFC0000000000FFF8
FFFC0000000000FFF8
FFFC0000000001FFF8
FFFC0000000001FFF8
FFFC0000000001FFF8
FFFC0000000001FFF8
FFFC0000000001FFF8
FFFC0000000003FFF8
FFFC0000000007FFF8
FFFC0000000007FFF0
FFFC000000000FFFF0
FFFC000000001FFFF0
FFFC000000003FFFE0
FFFC00000000FFFFE0
FFFC00000007FFFFC0
FFFFFFFFFFFFFFFFC0
FFFFFFFFFFFFFFFF80
FFFFFFFFFFFFFFFF00
FFFFFFFFFFFFFFFE00
FFFFFFFFFFFFFFFC00
FFFFFFFFFFFFFFFC00
FFFFFFFFFFFFFFF800
FFFFFFFFFFFFFFE000
FFFFFFFFFFFFFFC000
FFFFFFFFFFFFFF8000
FFFFFFFFFFFFFE0000
FFFFFFFFFFFFF80000
FFFFFFFFFFFFE00000
FFFFFFFFFFFE000000
ENDCHAR
STARTCHAR 0045
ENCODING 69
SWIDTH 664 0
DWIDTH 83 0
BBX 69 97 0 0
BITMAP
FFFFFFFFFFFFFFFFF8
FFFFFFFFFFFFFFFFF8
FFFFFFFFFFFFFFFFF8
FFFFFFFFFFFFFFFFF8
FFFFFFFFFFFFFFFFF8
FFFFFFFFFFFFFFFFF8
FFFFFFFFFFFFFFFFF8
FFFFFFFFFFFFFFFFF8
FFFFFFFFFFFFFFFFF8
FFFFFFFFFFFFFFFFF8
FFFFFFFFFFFFFFFFF8
FFFFFFFFFFFFFFFFF8
FFFFFFFFFFFFFFFFF8
FFFFFFFFFFFFFFFFF8
FFFC00000000000000
FFFC00000000000000
FFFC00000000000000
FFFC00000000000000
FFFC00000000000000
FFFC00000000000000
FFFC00000000000000
FFFC00000000000000
FFFC00000000000000
FFFC00000000000000
FFFC00000000000000
FFFC00000000000000
FFFC00000000000000
FFFC00000000000000
FFFC00000000000000
FFFC00000000000000
FFFC00000000000000
FFFC00000000000000
FFFC00000000000000
FFFC00000000000000
FFFC00000000000000
FFFC00000000000000
FFFC00000000000000
FFFC00000000000000
FFFC00000000000000
FFFC00000000000000
FFFC00000000000000
FFFFFFFFFFFFFF0000
FFFFFFFFFFFFFF0000
FFFFFFFFFFFFFF0000
FFFFFFFFFFFFFF0000
FFFFFFFFFFFFFF0000
FFFFFFFFFFFFFF0000
FFFFFFFFFFFFFF0000
FFFFFFFFFFFFFF0000
FFFFFFFFFFFFFF0000
FFFFFFFFFFFFFF0000
FFFFFFFFFFFFFF0000
FFFFFFFFFFFFFF0000
FFFFFFFFFFFFFF0000
FFFFFFFFFFFFFF0000
FFFC00000000000000
FFFC00000000000000
FFFC00000000000000
FFFC00000000000000
FFFC00000000000000
FFFC00000000000000
FFFC00000000000000
FFFC00000000000000
FFFC00000000000000
FFFC00000000000000
FFFC00000000000000
FFFC00000000000000
FFFC00000000000000
FFFC00000000000000
FFFC00000000000000
FFFC00000000000000
FFFC00000000000000
FFFC00000000000000
FFFC00000000000000
FFFC00000000000000
FFFC00000000000000
FFFC00000000000000
FFFC00000000000000
FFFC00000000000000
FFFC00000000000000
FFFC00000000000000
FFFC00000000000000
FFFC00000000000000
FFFFFFFFFFFFFFFFF8
FFFFFFFFFFFFFFFFF8
FFFFFFFFFFFFFFFFF8
FFFFFFFFFFFFFFFFF8
FFFFFFFFFFFFFFFFF8
FFFFFFFFFFFFFFFFF8
FFFFFFFFFFFFFFFFF8
FFFFFFFFFFFFFFFFF8
FFFFFFFFFFFFFFFFF8
FFFFFFFFFFFFFFFFF8
FFFFFFFFFFFFFFFFF8
FFFFFFFFFFFFFFFFF8
FFFFFFFFFFFFFFFFF8
FFFFFFFFFFFFFFFFF8
ENDCHAR
STARTCHAR 0046
ENCODING 70
SWIDTH 664 0
DWIDTH 83 0
BBX 69 97 0 0
BITMAP
FFFFFFFFFFFFFFFFF8
FFFFFFFFFFFFFFFFF8
FFFFFFFFFFFFFFFFF8
FFFFFFFFFFFFFFFFF8
FFFFFFFFFFFFFFFFF8
FFFFFFFFFFFFFFFFF8
FFFFFFFFFFFFFFFFF8
FFFFFFFFFFFFFFFFF8
FFFFFFFFFFFFFFFFF8
FFFFFFFFFFFFFFFFF8
FFFFFFFFFFFFFFFFF8
FFFFFFFFFFFFFFFFF8
FFFFFFFFFFFFFFFFF8
FFFFFFFFFFFFFFFFF8
FFFC00000000000000
FFFC00000000000000
FFFC00000000000000
FFFC00000000000000
FFFC00000000000000
FFFC00000000000000
FFFC00000000000000
FFFC00000000000000
FFFC00000000000000
FFFC00000000000000
FFFC00000000000000
FFFC00000000000000
FFFC00000000000000
FFFC00000000000000
FFFC00000000000000
FFFC00000000000000
FFFC00000000000000
FFFC00000000000000
FFFC00000000000000
FFFC00000000000000
FFFC00000000000000
FFFC00000000000000
FFFC00000000000000
FFFC00000000000000
FFFC00000000000000
FFFC00000000000000
FFFC00000000000000
FFFFFFFFFFFFFF0000
FFFFFFFFFFFFFF0000
FFFFFFFFFFFFFF0000
FFFFFFFFFFFFFF0000
FFFFFFFFFFFFFF0000
FFFFFFFFFFFFFF0000
FFFFFFFFFFFFFF0000
FFFFFFFFFFFFFF0000
FFFFFFFFFFFFFF0000
FFFFFFFFFFFFFF0000
FFFFFFFFFFFFFF0000
FFFFFFFFFFFFFF0000
FFFFFFFFFFFFFF0000
FFFFFFFFFFFFFF0000
FFFC00000000000000
FFFC00000000000000
FFFC00000000000000
FFFC00000000000000
FFFC00000000000000
FFFC00000000000000
FFFC00000000000000
FFFC00000000000000
FFFC00000000000000
FFFC00000000000000
FFFC00000000000000
FFFC00000000000000
FFFC00000000000000
FFFC00000000000000
FFFC00000000000000
FFFC00000000000000
FFFC00000000000000
FFFC00000000000000
FFFC00000000000000
FFFC00000000000000
FFFC00000000000000
FFFC00000000000000
FFFC00000000000000
FFFC00000000000000
FFFC00000000000000
FFFC00000000000000
FFFC00000000000000
FFFC00000000000000
FFFC00000000000000
FFFC00000000000000
FFFC00000000000000
FFFC00000000000000
FFFC00000000000000
FFFC00000000000000
FFFC00000000000000
FFFC00000000000000
FFFC00000000000000
FFFC00000000000000
FFFC00000000000000
FFFC00000000000000
FFFC00000000000000
FFFC00000000000000
ENDCHAR
STARTCHAR 0047
ENCODING 71
SWIDTH 664 0
DWIDTH 83 0
BBX 69 97 0 0
BITMAP
000003FFFFFE000000
00001FFFFFFFE00000
0000FFFFFFFFF80000
0003FFFFFFFFFE0000
0007FFFFFFFFFF8000
001FFFFFFFFFFFC000
003FFFFFFFFFFFE000
007FFFFFFFFFFFF000
00FFFFFFFFFFFFF800
01FFFFFFFFFFFFFC00
03FFFFFFFFFFFFFE00
07FFFFFFFFFFFFFF00
07FFFFFFFFFFFFFF80
0FFFFFFFFFFFFFFF80
1FFFFF000007FFFFC0
1FFFFC000000FFFFE0
3FFFF00000003FFFE0
3FFFE00000001FFFE0
7FFFC00000000FFFF0
7FFF8000000007FFF0
7FFF0000000007FFF0
7FFE0000000003FFF8
FFFE0000000003FFF8
FFFE0000000001FFF8
FFFC0000000001FFF8
FFFC0000000001FFF8
FFFC0000000001FFF8
FFFC0000000000FFF8
FFFC00000000000000
FFFC00000000000000
FFFC00000000000000
FFFC00000000000000
FFFC00000000000000
FFFC00000000000000
FFFC00000000000000
FFFC00000000000000
FFFC00000000000000
FFFC00000000000000
FFFC00000000000000
FFFC00000000000000
FFFC00000000000000
FFFC0000003FFFFFF8
FFFC0000003FFFFFF8
FFFC0000003FFFFFF8
FFFC0000003FFFFFF8
FFFC0000003FFFFFF8
FFFC0000003FFFFFF8
FFFC0000003FFFFFF8
FFFC0000003FFFFFF8
FFFC0000003FFFFFF8
FFFC0000003FFFFFF8
FFFC0000003FFFFFF8
FFFC0000003FFFFFF8
FFFC0000003FFFFFF8
FFFC0000003FFFFFF8
FFFC0000000000FFF8
FFFC0000000000FFF8
FFFC0000000000FFF8
FFFC0000000000FFF8
FFFC0000000000FFF8
FFFC0000000000FFF8
FFFC0000000000FFF8
FFFC0000000000FFF8
FFFC0000000000FFF8
FFFC0000000000FFF8
FFFC0000000000FFF8
FFFC0000000000FFF8
FFFC0000000000FFF8
FFFC0000000000FFF8
FFFC0000000000FFF8
FFFC0000000001FFF8
FFFC0000000001FFF8
FFFC0000000001FFF8
FFFE0000000001FFF8
FFFE0000000003FFF8
7FFE0000000003FFF8
7FFF0000000007FFF0
7FFF8000000007FFF0
7FFFC00000000FFFF0
3FFFE00000001FFFE0
3FFFF00000003FFFE0
1FFFF8000000FFFFE0
1FFFFF000007FFFFC0
0FFFFFFFFFFFFFFF80
07FFFFFFFFFFFFFF80
07FFFFFFFFFFFFFF00
03FFFFFFFFFFFFFE00
01FFFFFFFFFFFFFC00
00FFFFFFFFFFFFF800
007FFFFFFFFFFFF000
003FFFFFFFFFFFE000
001FFFFFFFFFFFC000
0007FFFFFFFFFF8000
0003FFFFFFFFFE0000
0000FFFFFFFFF80000
00003FFFFFFFE00000
000003FFFFFE000000
ENDCHAR
STARTCHAR 004D
ENCODING 77
SWIDTH 664 0
DWIDTH 83 0
BBX 69 97 0 0
BITMAP
FFFC0000000001FFF8
FFFE0000000001FFF8
FFFF0000000003FFF8
FFFF0000000007FFF8
FFFF8000000007FFF8
FFFF800000000FFFF8
FFFFC00000000FFFF8
FFFFE00000001FFFF8
FFFFE00000003FFFF8
FFFFF00000003FFFF8
FFFFF00000007FFFF8
FFFFF80000007FFFF8
FFFFFC000000FFFFF8
FFFFFC000001FFFFF8
FFFFFE000001FFFFF8
FFFFFE000003FFFFF8
FFFFFF000003FFFFF8
FFFFFF800007FFFFF8
FFFFFF80000FFFFFF8
FFFFFFC0000FFFFFF8
FFFFFFC0001FFFFFF8
FFFFFFE0001FFFFFF8
FFFFFFF0003FFFFFF8
FFFFFFF0007FFFFFF8
FFFFFFF8007FFFFFF8
FFFFFFF800FFFFFFF8
FFFFFFFC00FFFFFFF8
FFFFFFFE01FFFEFFF8
FFFDFFFE03FFFEFFF8
FFFCFFFF03FFFCFFF8
FFFCFFFF07FFF8FFF8
FFFC7FFF87FFF8FFF8
FFFC7FFFCFFFF0FFF8
FFFC3FFFDFFFF0FFF8
FFFC1FFFFFFFE0FFF8
FFFC1FFFFFFFC0FFF8
FFFC0FFFFFFFC0FFF8
FFFC0FFFFFFF80FFF8
FFFC07FFFFFF80FFF8
FFFC03FFFFFF00FFF8
FFFC03FFFFFE00FFF8
FFFC01FFFFFE00FFF8
FFFC01FFFFFC00FFF8
FFFC00FFFFFC00FFF8
FFFC007FFFF800FFF8
FFFC007FFFF000FFF8
FFFC003FFFF000FFF8
FFFC003FFFE000FFF8
FFFC001FFFE000FFF8
FFFC000FFFC000FFF8
FFFC000FFF8000FFF8
FFFC0007FF8000FFF8
FFFC0007FF0000FFF8
FFFC0003FF0000FFF8
FFFC0001FE0000FFF8
FFFC0001FC0000FFF8
FFFC0000FC0000FFF8
FFFC0000F80000FFF8
FFFC0000700000FFF8
FFFC0000300000FFF8
FFFC0000200000FFF8
FFFC0000000000FFF8
FFFC0000000000FFF8
FFFC0000000000FFF8
FFFC0000000000FFF8
FFFC0000000000FFF8
FFFC0000000000FFF8
FFFC0000000000FFF8
FFFC0000000000FFF8
FFFC0000000000FFF8
FFFC0000000000FFF8
FFFC0000000000FFF8
FFFC0000000000FFF8
FFFC0000000000FFF8
FFFC0000000000FFF8
FFFC0000000000FFF8
FFFC0000000000FFF8
FFFC0000000000FFF8
FFFC0000000000FFF8
FFFC0000000000FFF8
FFFC0000000000FFF8
FFFC0000000000FFF8
FFFC0000000000FFF8
FFFC0000000000FFF8
FFFC0000000000FFF8
FFFC0000000000FFF8
FFFC0000000000FFF8
FFFC0000000000FFF8
FFFC0000000000FFF8
FFFC0000000000FFF8
FFFC0000000000FFF8
FFFC0000000000FFF8
FFFC0000000000FFF8
FFFC0000000000FFF8
FFFC0000000000FFF8
FFFC0000000000FFF8
FFFC0000000000FFF8
ENDCHAR
ENDFONT
