<?xml version="1.0" encoding="utf-8"?>
<!-- Generator: Adobe Illustrator 22.1.0, SVG Export Plug-In . SVG Version: 6.00 Build 0)  -->
<svg version="1.1" id="Layer_1" xmlns="http://www.w3.org/2000/svg" xmlns:xlink="http://www.w3.org/1999/xlink" x="0px" y="0px"
	 viewBox="0 0 192 218" style="enable-background:new 0 0 192 218;" xml:space="preserve">
<style type="text/css">
	.st0{fill:none;stroke:#000000;stroke-miterlimit:10;}
</style>
<g>
	<path class="st0" d="M160.8,143c-2.2,2-5,2.2-5.9,2.5c-0.9,0.3-10.4,4.2-13.2,5.2c-2.8,1-10.5,3.5-12.7,6.2
		c-2.2,2.7-0.9,7.9-0.5,9.6c0.4,1.7,3.3,6.7,0.4,10.4c0,0-1.6-2.2-5.1-2.2c-3.5,0-8.6,4.9-9.2,7.5c0,0-2.2-4.3-8.8-4.3
		c-7.1,0-9.7,5.6-9.7,5.6s-3.7-5.4-9.8-5.4c-6.8,0-9.7,4.2-9.7,4.2s-1.7-3.6-4-5.9c-2.3-2.2-6.8-2.5-9.5,0.5c0,0-1.4-1.5-1.4-3.7
		c0-2.2,2.5-7.9,2.5-12.4c0-4.5-3.4-5.6-3.4-5.6s-4.1-2.4-8-3.7s-6.9-2.3-8.9-3.2c-2.1-0.9-4.9-2.4-7.1-2.8
		c-2.2-0.5-5.3-1.3-7.5-4.8s-1.6-6.5-1.2-8.2c0.4-1.7,1.5-9.3,3.4-9.1c1.9,0.2,4.4,1.9,7.6,2.1c0,0-1.2-2.5-2-3.9s-3.6-6.3-4.6-11.8
		c-1.1-5.5-1.7-11.4-1.7-21.1s1.8-16.8,3.2-19.9s17.3-34.2,61.9-34.2s58.9,28.2,60.7,31.4c1.8,3.2,4.6,9.8,4.6,21.3
		s-0.8,20.9-2.6,25.6c-1.8,4.6-5.3,11-5.7,12.5c0,0,2.8-0.2,5.9-1.8c2.2-1.2,3.1,0.5,3.3,1.1s2.4,9.2,2.4,10.6
		C164.4,136.8,163.5,140.5,160.8,143z M96,62.5c-21.5,0-39,17.5-39,39s17.5,39,39,39s39-17.5,39-39S117.5,62.5,96,62.5z"/>
</g>
</svg>
