STARTFONT 2.1
FONT -FontForge-Montserrat-Regular-R-Normal--78-720-78-78-P-505-ISO10646-1
SIZE 72 78 78
FONTBOUNDINGBOX 76 72 0 -16
COMMENT "Generated by fontforge, http://fontforge.sourceforge.net"
COMMENT "Copyright 2011 - 2016 The Montserrat Project Authors \(julieta.ulanovsky@gmail.com\)"
STARTPROPERTIES 37
FOUNDRY "FontForge"
FAMILY_NAME "Montserrat"
WEIGHT_NAME "Regular"
SLANT "R"
SETWIDTH_NAME "Normal"
ADD_STYLE_NAME ""
PIXEL_SIZE 78
POINT_SIZE 720
RESOLUTION_X 78
RESOLUTION_Y 78
SPACING "P"
AVERAGE_WIDTH 505
CHARSET_REGISTRY "ISO10646"
CHARSET_ENCODING "1"
FONTNAME_REGISTRY ""
CHARSET_COLLECTIONS "ISO8859-2 ISO8859-9 ISO8859-4 ISO10646-1"
FONT_NAME "Montserrat-Regular"
FACE_NAME "Montserrat Regular"
COPYRIGHT "Copyright 2011 - 2016 The Montserrat Project Authors \(julieta.ulanovsky@gmail.com\)"
FONT_VERSION "004.000"
FONT_ASCENT 62
FONT_DESCENT 16
UNDERLINE_POSITION -8
UNDERLINE_THICKNESS 4
RAW_ASCENT 800
RAW_DESCENT 200
RELATIVE_WEIGHT 40
RELATIVE_SETWIDTH 50
SUPERSCRIPT_X 0
SUPERSCRIPT_Y 27
SUPERSCRIPT_SIZE 46
SUBSCRIPT_X 0
SUBSCRIPT_Y 5
SUBSCRIPT_SIZE 46
FIGURE_WIDTH 48
AVG_LOWERCASE_WIDTH 600
AVG_UPPERCASE_WIDTH 610
ENDPROPERTIES
CHARS 17
STARTCHAR zero
ENCODING 48
SWIDTH 617 0
DWIDTH 48 0
BBX 41 57 4 -1
BITMAP
0001FF800000
000FFFF00000
003FFFFC0000
007FFFFF0000
01FFFFFF8000
03FFFFFFC000
07FFFFFFE000
07FF81FFE000
0FFE007FF000
0FFC003FF800
1FF8001FF800
1FF0000FFC00
3FE00007FC00
3FE00007FE00
7FE00003FE00
7FC00003FE00
7FC00003FE00
7FC00003FF00
FF800001FF00
FF800001FF00
FF800001FF00
FF800001FF00
FF800001FF00
FF800001FF00
FF800001FF80
FF800001FF80
FF800001FF80
FF800001FF80
FF800001FF80
FF800001FF80
FF800001FF80
FF800001FF80
FF800001FF80
FF800001FF00
FF800001FF00
FF800001FF00
FF800001FF00
FF800001FF00
FFC00001FF00
7FC00003FF00
7FC00003FE00
7FC00003FE00
7FE00003FE00
3FE00007FC00
3FF00007FC00
3FF0000FFC00
1FF8001FF800
1FFC003FF800
0FFE007FF000
07FF81FFE000
07FFFFFFE000
03FFFFFFC000
01FFFFFF8000
007FFFFF0000
003FFFFC0000
000FFFF00000
0001FF800000
ENDCHAR
STARTCHAR one
ENCODING 49
SWIDTH 617 0
DWIDTH 48 0
BBX 21 57 8 -1
BITMAP
FFFFF8
FFFFF8
FFFFF8
FFFFF8
FFFFF8
FFFFF8
FFFFF8
FFFFF8
000FF8
000FF8
000FF8
000FF8
000FF8
000FF8
000FF8
000FF8
000FF8
000FF8
000FF8
000FF8
000FF8
000FF8
000FF8
000FF8
000FF8
000FF8
000FF8
000FF8
000FF8
000FF8
000FF8
000FF8
000FF8
000FF8
000FF8
000FF8
000FF8
000FF8
000FF8
000FF8
000FF8
000FF8
000FF8
000FF8
000FF8
000FF8
000FF8
000FF8
000FF8
000FF8
000FF8
000FF8
000FF8
000FF8
000FF8
000FF8
000FF8
ENDCHAR
STARTCHAR two
ENCODING 50
SWIDTH 617 0
DWIDTH 48 0
BBX 41 57 3 -1
BITMAP
0001FFC00000
000FFFF80000
007FFFFF0000
01FFFFFF8000
07FFFFFFC000
1FFFFFFFE000
3FFFFFFFF000
7FFFFFFFF800
FFFF01FFF800
7FF8007FFC00
7FC0001FFC00
3F80000FFC00
3E00000FFC00
1C000007FC00
18000007FC00
00000007FC00
00000007FC00
00000007FC00
0000000FFC00
0000000FF800
0000001FF800
0000001FF000
0000003FF000
0000007FE000
0000007FE000
000000FFC000
000001FF8000
000003FF8000
000007FF0000
00000FFE0000
00001FFC0000
00003FF80000
00007FF00000
00007FF00000
0000FFE00000
0001FFC00000
0003FF800000
0007FF000000
000FFE000000
001FFC000000
003FF8000000
007FF0000000
00FFE0000000
01FFC0000000
03FF80000000
07FF00000000
0FFE00000000
0FFC00000000
1FF800000000
3FFFFFFFFF80
7FFFFFFFFF80
7FFFFFFFFF80
7FFFFFFFFF80
7FFFFFFFFF80
7FFFFFFFFF80
7FFFFFFFFF80
7FFFFFFFFF80
ENDCHAR
STARTCHAR three
ENCODING 51
SWIDTH 617 0
DWIDTH 48 0
BBX 41 57 2 -1
BITMAP
3FFFFFFFFC00
3FFFFFFFFC00
3FFFFFFFFC00
3FFFFFFFFC00
3FFFFFFFFC00
3FFFFFFFFC00
3FFFFFFFF800
3FFFFFFFF000
0000003FF000
0000007FE000
000000FFC000
000000FF8000
000001FF0000
000003FE0000
000007FC0000
00000FF80000
00001FF00000
00003FE00000
00007FC00000
0000FF800000
0001FF000000
0003FE000000
0007FC000000
000FF8000000
001FFFE00000
001FFFFE0000
001FFFFF8000
001FFFFFE000
001FFFFFF000
001FFFFFF800
000000FFFC00
0000001FFE00
00000007FE00
00000003FF00
00000001FF00
00000001FF80
00000000FF80
00000000FF80
00000000FF80
00000000FF80
00000000FF80
00000000FF80
00000001FF80
10000001FF00
18000003FF00
3C000003FF00
3F000007FE00
7FC0001FFE00
7FF8007FFC00
FFFFFFFFFC00
FFFFFFFFF800
FFFFFFFFF000
3FFFFFFFE000
0FFFFFFF8000
03FFFFFE0000
007FFFF80000
0007FF800000
ENDCHAR
STARTCHAR four
ENCODING 52
SWIDTH 617 0
DWIDTH 48 0
BBX 43 57 3 -1
BITMAP
00003FE00000
00003FE00000
00007FC00000
00007FC00000
0000FF800000
0000FF800000
0001FF000000
0001FF000000
0003FE000000
0003FE000000
0007FC000000
0007FC000000
000FF8000000
000FF8000000
001FF0000000
001FF0000000
003FE0000000
007FE0000000
007FC0000000
00FF80000000
00FF80000000
01FF003FE000
01FF003FE000
03FE003FE000
03FE003FE000
07FC003FE000
07FC003FE000
0FF8003FE000
0FF8003FE000
1FF0003FE000
1FF0003FE000
3FE0003FE000
3FE0003FE000
7FC0003FE000
7FC0003FE000
FFFFFFFFFFE0
FFFFFFFFFFE0
FFFFFFFFFFE0
FFFFFFFFFFE0
FFFFFFFFFFE0
FFFFFFFFFFE0
FFFFFFFFFFE0
FFFFFFFFFFE0
0000003FE000
0000003FE000
0000003FE000
0000003FE000
0000003FE000
0000003FE000
0000003FE000
0000003FE000
0000003FE000
0000003FE000
0000003FE000
0000003FE000
0000003FE000
0000003FE000
ENDCHAR
STARTCHAR five
ENCODING 53
SWIDTH 617 0
DWIDTH 48 0
BBX 41 57 3 -1
BITMAP
0FFFFFFFFE00
0FFFFFFFFE00
0FFFFFFFFE00
0FFFFFFFFE00
0FFFFFFFFE00
0FFFFFFFFE00
0FFFFFFFFE00
0FFFFFFFFE00
0FF800000000
0FF800000000
0FF800000000
0FF800000000
0FF800000000
0FF800000000
0FF800000000
0FF800000000
0FF800000000
0FF800000000
0FF800000000
0FF800000000
0FF800000000
0FFFFFE00000
0FFFFFFC0000
0FFFFFFF0000
0FFFFFFFC000
0FFFFFFFE000
0FFFFFFFF000
0FFFFFFFF800
0FFFFFFFFC00
0E0001FFFE00
0000003FFE00
0000000FFF00
00000007FF00
00000003FF00
00000003FF80
00000001FF80
00000001FF80
00000001FF80
00000001FF80
00000001FF80
00000001FF80
00000001FF80
00000001FF80
10000003FF00
1C000003FF00
3E000007FF00
3F80000FFE00
7FE0003FFE00
7FFE00FFFC00
FFFFFFFFF800
FFFFFFFFF800
7FFFFFFFF000
1FFFFFFFE000
07FFFFFF8000
01FFFFFE0000
003FFFF80000
0003FF800000
ENDCHAR
STARTCHAR six
ENCODING 54
SWIDTH 617 0
DWIDTH 48 0
BBX 41 57 4 -1
BITMAP
00001FF80000
0001FFFF8000
0007FFFFF000
001FFFFFFE00
003FFFFFFE00
007FFFFFFE00
00FFFFFFFC00
01FFFFFFFC00
03FFE003F800
07FF00007800
0FFE00001000
0FFC00000000
1FF800000000
1FF000000000
3FE000000000
3FE000000000
3FE000000000
7FC000000000
7FC000000000
7FC000000000
7F801FF80000
FF80FFFF0000
FF83FFFFC000
FF87FFFFE000
FF9FFFFFF000
FFBFFFFFF800
FFBFFFFFFC00
FFFFE0FFFE00
FFFF000FFE00
FFFE0007FF00
FFF80003FF00
FFF00001FF00
FFF00000FF80
FFE00000FF80
FFE00000FF80
FFE000007F80
FFC000007F80
7FC000007F80
7FC000007F80
7FC000007F80
7FE000007F80
7FE00000FF80
3FE00000FF80
3FF00000FF80
1FF00001FF00
1FF80003FF00
0FFC0007FF00
0FFE000FFE00
07FFC03FFE00
07FFFFFFFC00
03FFFFFFF800
01FFFFFFF800
00FFFFFFE000
003FFFFFC000
001FFFFF8000
0007FFFC0000
00007FE00000
ENDCHAR
STARTCHAR seven
ENCODING 55
SWIDTH 617 0
DWIDTH 48 0
BBX 41 57 4 -1
BITMAP
FFFFFFFFFF80
FFFFFFFFFF80
FFFFFFFFFF80
FFFFFFFFFF80
FFFFFFFFFF80
FFFFFFFFFF80
FFFFFFFFFF80
FFFFFFFFFF80
FF000001FF80
FF000001FF00
FF000003FF00
FF000003FE00
FF000007FE00
FF000007FC00
FF00000FFC00
FF00000FF800
0000001FF800
0000001FF000
0000003FF000
0000003FF000
0000007FE000
0000007FE000
0000007FC000
000000FFC000
000000FF8000
000001FF8000
000001FF0000
000003FF0000
000003FE0000
000007FE0000
000007FE0000
00000FFC0000
00000FFC0000
00001FF80000
00001FF80000
00001FF00000
00003FF00000
00003FE00000
00007FE00000
00007FC00000
0000FFC00000
0000FF800000
0001FF800000
0001FF800000
0003FF000000
0003FF000000
0007FE000000
0007FE000000
000FFC000000
000FFC000000
000FF8000000
001FF8000000
001FF0000000
003FF0000000
003FE0000000
007FE0000000
007FE0000000
ENDCHAR
STARTCHAR eight
ENCODING 56
SWIDTH 617 0
DWIDTH 48 0
BBX 42 57 3 -1
BITMAP
0000FFE00000
000FFFFC0000
003FFFFF0000
00FFFFFFC000
01FFFFFFE000
03FFFFFFF000
07FFFFFFF800
07FF003FF800
0FFC000FFC00
0FF80007FC00
1FF00003FE00
1FE00001FE00
1FE00001FE00
1FE00001FE00
1FE00001FE00
1FE00001FE00
1FE00001FE00
1FE00001FE00
0FE00001FE00
0FF00003FC00
0FF00003FC00
07F80007F800
03FE001FF800
03FFC0FFF000
01FFFFFFE000
007FFFFFC000
003FFFFF0000
003FFFFF8000
00FFFFFFE000
03FFFFFFF000
07FFFFFFF800
0FFF007FFC00
1FFC000FFE00
1FF00003FF00
3FE00001FF00
7FC00000FF80
7FC00000FF80
7F8000007FC0
7F8000007FC0
FF8000007FC0
FF8000007FC0
FF8000007FC0
FF8000007FC0
FFC000007FC0
7FC00000FFC0
7FE00000FF80
7FE00001FF80
3FF00003FF80
3FFC000FFF00
1FFFC0FFFE00
1FFFFFFFFE00
0FFFFFFFFC00
07FFFFFFF800
01FFFFFFE000
007FFFFF8000
001FFFFE0000
0001FFE00000
ENDCHAR
STARTCHAR nine
ENCODING 57
SWIDTH 617 0
DWIDTH 48 0
BBX 41 57 3 -1
BITMAP
0003FF800000
001FFFF00000
007FFFFC0000
01FFFFFF0000
03FFFFFF8000
07FFFFFFC000
0FFFFFFFE000
1FFFFFFFF000
1FFF00FFF800
3FFC003FF800
3FF0001FFC00
7FE0000FFC00
7FC00007FE00
7FC00003FE00
7FC00003FF00
FF800001FF00
FF800001FF00
FF800001FF00
FF800001FF80
FF800001FF80
FF800001FF80
FF800001FF80
FF800003FF80
7FC00003FF80
7FC00003FF80
7FE00007FF80
7FE0000FFF80
3FF0001FFF80
3FFC007FFF80
1FFF83FF7F80
1FFFFFFF7F80
0FFFFFFEFF80
07FFFFFCFF80
03FFFFF8FF80
00FFFFE0FF80
003FFFC0FF80
0007FC00FF80
00000000FF00
00000001FF00
00000001FF00
00000001FF00
00000003FE00
00000003FE00
00000007FC00
0000000FFC00
0000000FF800
0400001FF800
0F80007FF000
0FE001FFF000
1FFFFFFFE000
1FFFFFFFC000
3FFFFFFF8000
3FFFFFFF0000
1FFFFFFC0000
07FFFFF80000
00FFFFC00000
000FFE000000
ENDCHAR
STARTCHAR colon
ENCODING 58
SWIDTH 218 0
DWIDTH 17 0
BBX 9 33 4 -1
BITMAP
3E00
7F00
FF80
FF80
FF80
FF80
FF80
FF80
7F00
3E00
0000
0000
0000
0000
0000
0000
0000
0000
0000
0000
0000
0000
0000
3E00
7F00
FF80
FF80
FF80
FF80
FF80
FF80
7F00
3E00
ENDCHAR
STARTCHAR A
ENCODING 65
SWIDTH 738 0
DWIDTH 58 0
BBX 57 57 0 -1
BITMAP
000000FFC0000000
000000FFC0000000
000001FFE0000000
000001FFE0000000
000003FFF0000000
000003FFF0000000
000007FFF0000000
000007FFF8000000
000007FFF8000000
00000FFFFC000000
00000FF7FC000000
00001FF7FC000000
00001FF3FE000000
00003FE3FE000000
00003FE3FF000000
00003FC1FF000000
00007FC1FF800000
00007FC0FF800000
0000FF80FF800000
0000FF80FFC00000
0001FF007FC00000
0001FF007FE00000
0001FF003FE00000
0003FE003FE00000
0003FE003FF00000
0007FC001FF00000
0007FC001FF80000
0007FC000FF80000
000FF8000FFC0000
000FF8000FFC0000
001FF00007FC0000
001FF00007FE0000
003FF00003FE0000
003FE00003FF0000
003FE00003FF0000
007FC00001FF8000
007FFFFFFFFF8000
00FFFFFFFFFF8000
00FFFFFFFFFFC000
01FFFFFFFFFFC000
01FFFFFFFFFFE000
01FFFFFFFFFFE000
03FFFFFFFFFFE000
03FFFFFFFFFFF000
07FE0000001FF000
07FC0000001FF800
0FFC0000001FF800
0FF80000000FFC00
0FF80000000FFC00
1FF800000007FC00
1FF000000007FE00
3FF000000007FE00
3FE000000003FF00
3FE000000003FF00
7FE000000001FF00
7FC000000001FF80
FFC000000001FF80
ENDCHAR
STARTCHAR M
ENCODING 77
SWIDTH 925 0
DWIDTH 72 0
BBX 58 57 7 -1
BITMAP
FFE000000001FFC0
FFF000000003FFC0
FFF000000003FFC0
FFF800000007FFC0
FFF800000007FFC0
FFFC0000000FFFC0
FFFC0000000FFFC0
FFFE0000001FFFC0
FFFE0000001FFFC0
FFFF0000001FFFC0
FFFF0000003FFFC0
FFFF8000003FFFC0
FFFF8000007FFFC0
FFFFC000007FFFC0
FFFFC00000FFFFC0
FFBFE00000FFFFC0
FFBFE00001FF7FC0
FF9FE00001FF7FC0
FF9FF00003FE7FC0
FF9FF00003FE7FC0
FF8FF80007FC7FC0
FF8FF80007FC7FC0
FF87FC000FF87FC0
FF87FC000FF87FC0
FF83FE001FF07FC0
FF83FE001FF07FC0
FF81FF003FE07FC0
FF81FF003FE07FC0
FF80FF807FC07FC0
FF80FF807FC07FC0
FF807FC0FFC07FC0
FF807FC0FF807FC0
FF807FE0FF807FC0
FF803FE1FF007FC0
FF803FF1FF007FC0
FF801FF3FE007FC0
FF801FFBFE007FC0
FF800FFFFC007FC0
FF800FFFFC007FC0
FF8007FFF8007FC0
FF8007FFF8007FC0
FF8003FFF0007FC0
FF8003FFF0007FC0
FF8001FFF0007FC0
FF8001FFE0007FC0
FF8001FFE0007FC0
FF8000FFC0007FC0
FF8000FFC0007FC0
FF80007F80007FC0
FF80007F80007FC0
FF80003F00007FC0
FF80000000007FC0
FF80000000007FC0
FF80000000007FC0
FF80000000007FC0
FF80000000007FC0
FF80000000007FC0
ENDCHAR
STARTCHAR P
ENCODING 80
SWIDTH 673 0
DWIDTH 53 0
BBX 44 57 7 -1
BITMAP
FFFFFFF00000
FFFFFFFF0000
FFFFFFFFC000
FFFFFFFFF000
FFFFFFFFF800
FFFFFFFFFE00
FFFFFFFFFE00
FFFFFFFFFF00
FF80007FFF80
FF800007FF80
FF800001FFC0
FF800000FFC0
FF8000007FE0
FF8000007FE0
FF8000003FE0
FF8000003FE0
FF8000003FE0
FF8000001FF0
FF8000001FF0
FF8000001FF0
FF8000001FF0
FF8000001FE0
FF8000003FE0
FF8000003FE0
FF8000003FE0
FF8000007FE0
FF8000007FE0
FF800000FFC0
FF800001FFC0
FF800007FF80
FF80003FFF80
FFFFFFFFFF00
FFFFFFFFFE00
FFFFFFFFFC00
FFFFFFFFF800
FFFFFFFFF000
FFFFFFFFC000
FFFFFFFF0000
FFFFFFF80000
FF8000000000
FF8000000000
FF8000000000
FF8000000000
FF8000000000
FF8000000000
FF8000000000
FF8000000000
FF8000000000
FF8000000000
FF8000000000
FF8000000000
FF8000000000
FF8000000000
FF8000000000
FF8000000000
FF8000000000
FF8000000000
ENDCHAR
STARTCHAR a
ENCODING 97
SWIDTH 586 0
DWIDTH 46 0
BBX 37 43 3 -1
BITMAP
0003FFC000
003FFFF800
00FFFFFE00
03FFFFFF00
0FFFFFFFC0
1FFFFFFFC0
1FFFFFFFE0
0FFF07FFF0
0FF000FFF0
07C0003FF8
0300001FF8
0000001FF8
0000000FF8
0000000FF8
0000000FF8
0000000FF8
0000000FF8
001FFFFFF8
00FFFFFFF8
03FFFFFFF8
0FFFFFFFF8
1FFFFFFFF8
3FFFFFFFF8
3FFFFFFFF8
7FE0000FF8
7FC0000FF8
7F80000FF8
FF80000FF8
FF80000FF8
FF80000FF8
FF80000FF8
FF80001FF8
FF80003FF8
7FC0007FF8
7FE001FFF8
7FFC0FFFF8
3FFFFFFFF8
1FFFFFFFF8
1FFFFFFFF8
0FFFFFEFF8
03FFFF8FF8
01FFFE0FF8
003FF00FF8
ENDCHAR
STARTCHAR m
ENCODING 109
SWIDTH 1043 0
DWIDTH 81 0
BBX 69 43 7 -1
BITMAP
FF801FF000007FC000
FF80FFFE0003FFF800
FF83FFFF800FFFFE00
FF8FFFFFC01FFFFF00
FF9FFFFFE07FFFFF80
FFBFFFFFF07FFFFFC0
FFBFFFFFF0FFFFFFE0
FFFFFFFFF9FFFFFFE0
FFFFE3FFFDFF8FFFF0
FFFE007FFFF801FFF0
FFFC001FFFF0007FF0
FFF0000FFFE0003FF8
FFE0000FFFC0003FF8
FFE00007FF80001FF8
FFC00007FF00001FF8
FFC00007FF00000FF8
FF800003FF00000FF8
FF800003FE00000FF8
FF800003FE00000FF8
FF800003FE00000FF8
FF800003FE00000FF8
FF800003FE00000FF8
FF800003FE00000FF8
FF800003FE00000FF8
FF800003FE00000FF8
FF800003FE00000FF8
FF800003FE00000FF8
FF800003FE00000FF8
FF800003FE00000FF8
FF800003FE00000FF8
FF800003FE00000FF8
FF800003FE00000FF8
FF800003FE00000FF8
FF800003FE00000FF8
FF800003FE00000FF8
FF800003FE00000FF8
FF800003FE00000FF8
FF800003FE00000FF8
FF800003FE00000FF8
FF800003FE00000FF8
FF800003FE00000FF8
FF800003FE00000FF8
FF800003FE00000FF8
ENDCHAR
STARTCHAR p
ENCODING 112
SWIDTH 680 0
DWIDTH 53 0
BBX 43 58 7 -16
BITMAP
FF801FF80000
FF80FFFF0000
FF83FFFFC000
FF87FFFFE000
FF9FFFFFF800
FF9FFFFFFC00
FFBFFFFFFE00
FFFFFBFFFE00
FFFF001FFF00
FFFE000FFF80
FFF80003FF80
FFF00001FF80
FFF00000FFC0
FFE00000FFC0
FFC000007FC0
FFC000007FE0
FFC000003FE0
FF8000003FE0
FF8000003FE0
FF8000003FE0
FF8000003FE0
FF8000003FE0
FF8000003FE0
FF8000003FE0
FF8000003FE0
FFC000003FE0
FFC000003FE0
FFC000007FE0
FFE000007FE0
FFE00000FFC0
FFF00000FFC0
FFF80001FF80
FFFC0003FF80
FFFE000FFF80
FFFF803FFF00
FFFFFFFFFE00
FFBFFFFFFC00
FFBFFFFFFC00
FF9FFFFFF000
FF87FFFFE000
FF83FFFFC000
FF80FFFF0000
FF801FF00000
FF8000000000
FF8000000000
FF8000000000
FF8000000000
FF8000000000
FF8000000000
FF8000000000
FF8000000000
FF8000000000
FF8000000000
FF8000000000
FF8000000000
FF8000000000
FF8000000000
FF8000000000
ENDCHAR
ENDFONT
