STARTFONT 2.1
FONT -FontForge-Arial-Bold-R-Normal--36-350-75-75-P-198-ISO10646-1
SIZE 35 75 75
FONTBOUNDINGBOX 37 37 -2 -9
COMMENT "Generated by fontforge, http://fontforge.sourceforge.net"
COMMENT "(c) 2006 The Monotype Corporation. All Rights Reserved."
STARTPROPERTIES 40
FOUNDRY "FontForge"
FAMILY_NAME "Arial"
WEIGHT_NAME "Bold"
SLANT "R"
SETWIDTH_NAME "Normal"
ADD_STYLE_NAME ""
PIXEL_SIZE 36
POINT_SIZE 350
RESOLUTION_X 75
RESOLUTION_Y 75
SPACING "P"
AVERAGE_WIDTH 198
CHARSET_REGISTRY "ISO10646"
CHARSET_ENCODING "1"
FONTNAME_REGISTRY ""
CHARSET_COLLECTIONS "ISO10646-1"
FONT_NAME "Arial-BoldMT"
FACE_NAME "Arial Bold"
COPYRIGHT "(c) 2006 The Monotype Corporation. All Rights Reserved."
FONT_VERSION "5.01.2x"
FONT_ASCENT 29
FONT_DESCENT 7
UNDERLINE_POSITION -6
UNDERLINE_THICKNESS 4
X_HEIGHT 19
CAP_HEIGHT 25
RAW_ASCENT 799
RAW_DESCENT 200
NORM_SPACE 10
RELATIVE_WEIGHT 70
RELATIVE_SETWIDTH 50
SUPERSCRIPT_X 0
SUPERSCRIPT_Y 17
SUPERSCRIPT_SIZE 23
SUBSCRIPT_X 0
SUBSCRIPT_Y 4
SUBSCRIPT_SIZE 23
FIGURE_WIDTH 20
AVG_LOWERCASE_WIDTH 192
AVG_UPPERCASE_WIDTH 246
ENDPROPERTIES
CHARS 95
STARTCHAR space
ENCODING 32
SWIDTH 277 0
DWIDTH 10 0
BBX 1 1 0 0
BITMAP
00
ENDCHAR
STARTCHAR exclam
ENCODING 33
SWIDTH 333 0
DWIDTH 11 0
BBX 5 26 3 0
BITMAP
F8
F8
F8
F8
F8
F8
F8
F8
F8
F8
F8
78
70
70
70
70
70
70
70
00
00
F8
F8
F8
F8
F8
ENDCHAR
STARTCHAR quotedbl
ENCODING 34
SWIDTH 474 0
DWIDTH 17 0
BBX 13 9 2 17
BITMAP
F8F8
F8F8
F8F8
F8F8
F8F8
F8F8
F8F8
7878
7070
ENDCHAR
STARTCHAR numbersign
ENCODING 35
SWIDTH 556 0
DWIDTH 20 0
BBX 19 26 1 0
BITMAP
03C3C0
03C3C0
03C3C0
078780
078780
078780
078780
FFFFE0
FFFFE0
FFFFE0
FFFFE0
0F0F00
0F0F00
1E1E00
1E1E00
1E1E00
FFFFE0
FFFFE0
FFFFE0
FFFFE0
3C3C00
3C3C00
3C3C00
7C7C00
787800
787800
ENDCHAR
STARTCHAR dollar
ENCODING 36
SWIDTH 556 0
DWIDTH 20 0
BBX 17 31 1 -3
BITMAP
01C000
01C000
07F000
1FFC00
3FFE00
3FFE00
7DDF00
79DF00
79CC00
79C000
79C000
7DC000
3FC000
3FF000
1FFC00
0FFE00
03FF00
01FF80
01CF80
01C780
31C780
F9C780
F9C780
7DCF00
7FFF00
3FFE00
1FFC00
07F000
01C000
01C000
01C000
ENDCHAR
STARTCHAR percent
ENCODING 37
SWIDTH 889 0
DWIDTH 33 0
BBX 30 27 1 -1
BITMAP
1F800E00
3FC01E00
7FE01C00
79E03C00
F0F03800
F0F07800
F0F07000
F0F0F000
F0F0E000
F0F1E000
79E1C000
7FE38000
3FC38000
1F8707E0
00070FF0
000E1FF8
000E1E78
001C3C3C
001C3C3C
00383C3C
00783C3C
00703C3C
00F03C3C
00E01E78
01E01FF8
01C00FF0
03C007E0
ENDCHAR
STARTCHAR ampersand
ENCODING 38
SWIDTH 722 0
DWIDTH 26 0
BBX 24 26 1 0
BITMAP
01FC00
07FF00
0FFF80
1FFF80
1F8FC0
1F07C0
1F07C0
1F8FC0
0FDF80
0FFF00
07FE00
07FC00
0FF800
3FFC00
3F7E38
7E7F7C
FC3FFC
F81FF8
F80FF8
F807F0
FC07F8
7E1FFC
7FFFFF
3FFFFE
1FFE3C
03F80C
ENDCHAR
STARTCHAR quotesingle
ENCODING 39
SWIDTH 237 0
DWIDTH 9 0
BBX 5 9 2 17
BITMAP
F8
F8
F8
F8
F8
F8
F8
78
70
ENDCHAR
STARTCHAR parenleft
ENCODING 40
SWIDTH 333 0
DWIDTH 12 0
BBX 9 33 2 -7
BITMAP
0780
0F00
0F00
1F00
1E00
3E00
3E00
7C00
7C00
7C00
7C00
F800
F800
F800
F800
F800
F800
F800
F800
F800
F800
F800
7C00
7C00
7C00
7C00
3C00
3E00
1E00
1E00
0F00
0F00
0780
ENDCHAR
STARTCHAR parenright
ENCODING 41
SWIDTH 333 0
DWIDTH 12 0
BBX 9 33 1 -7
BITMAP
F000
7800
7800
7C00
3C00
3E00
3E00
1F00
1F00
1F00
1F00
0F80
0F80
0F80
0F80
0F80
0F80
0F80
0F80
0F80
0F80
0F00
1F00
1F00
1F00
1E00
1E00
3E00
3C00
7C00
7800
7800
F000
ENDCHAR
STARTCHAR asterisk
ENCODING 42
SWIDTH 389 0
DWIDTH 14 0
BBX 13 12 0 14
BITMAP
0700
0700
0700
6730
7FF0
FFF8
1FC0
0F80
1DC0
38E0
78F0
1040
ENDCHAR
STARTCHAR plus
ENCODING 43
SWIDTH 583 0
DWIDTH 21 0
BBX 18 18 1 4
BITMAP
01E000
01E000
01E000
01E000
01E000
01E000
01E000
FFFFC0
FFFFC0
FFFFC0
FFFFC0
01E000
01E000
01E000
01E000
01E000
01E000
01E000
ENDCHAR
STARTCHAR comma
ENCODING 44
SWIDTH 277 0
DWIDTH 10 0
BBX 5 11 2 -6
BITMAP
F8
F8
F8
F8
F8
38
38
30
70
E0
40
ENDCHAR
STARTCHAR hyphen
ENCODING 45
SWIDTH 333 0
DWIDTH 12 0
BBX 10 4 2 7
BITMAP
FFC0
FFC0
FFC0
FFC0
ENDCHAR
STARTCHAR period
ENCODING 46
SWIDTH 277 0
DWIDTH 10 0
BBX 5 5 2 0
BITMAP
F8
F8
F8
F8
F8
ENDCHAR
STARTCHAR slash
ENCODING 47
SWIDTH 277 0
DWIDTH 10 0
BBX 10 26 0 0
BITMAP
03C0
03C0
0780
0780
0780
0780
0F80
0F00
0F00
0F00
1F00
1E00
1E00
1E00
1E00
3C00
3C00
3C00
3C00
7C00
7800
7800
7800
F800
F000
F000
ENDCHAR
STARTCHAR zero
ENCODING 48
SWIDTH 556 0
DWIDTH 20 0
BBX 17 26 1 0
BITMAP
03E000
0FF800
1FFC00
3FFE00
7E3F00
7C1F00
7C1F00
F80F80
F80F80
F80F80
F80F80
F80F80
F80F80
F80F80
F80F80
F80F80
F80F80
F80F80
F80F80
7C1F00
7C1F00
7E3F00
3FFE00
1FFC00
0FF800
03E000
ENDCHAR
STARTCHAR one
ENCODING 49
SWIDTH 556 0
DWIDTH 20 0
BBX 11 26 3 0
BITMAP
01E0
03E0
03E0
07E0
0FE0
1FE0
7FE0
FFE0
FBE0
E3E0
83E0
03E0
03E0
03E0
03E0
03E0
03E0
03E0
03E0
03E0
03E0
03E0
03E0
03E0
03E0
03E0
ENDCHAR
STARTCHAR two
ENCODING 50
SWIDTH 556 0
DWIDTH 20 0
BBX 17 26 1 0
BITMAP
03F000
0FFC00
1FFE00
3FFF00
3E1F80
7E0F80
7C0F80
7C0F80
000F80
000F80
001F00
003F00
007E00
00FE00
01FC00
03F800
07F000
0FC000
1F8000
1F0000
3E0000
7FFF80
7FFF80
7FFF80
FFFF80
FFFF80
ENDCHAR
STARTCHAR three
ENCODING 51
SWIDTH 556 0
DWIDTH 20 0
BBX 17 26 1 0
BITMAP
03F000
0FF800
1FFC00
3FFE00
7E3F00
7C1F00
3C1F00
001F00
001F00
003E00
01FC00
01F800
01FC00
01FE00
001F00
001F80
000F80
000F80
780F80
F80F80
FC1F80
7E3F00
7FFF00
3FFE00
1FF800
07E000
ENDCHAR
STARTCHAR four
ENCODING 52
SWIDTH 556 0
DWIDTH 20 0
BBX 18 26 1 0
BITMAP
003E00
003E00
007E00
00FE00
00FE00
01FE00
01FE00
03FE00
07FE00
07BE00
0FBE00
1F3E00
1E3E00
3E3E00
3C3E00
783E00
F83E00
FFFFC0
FFFFC0
FFFFC0
FFFFC0
003E00
003E00
003E00
003E00
003E00
ENDCHAR
STARTCHAR five
ENCODING 53
SWIDTH 556 0
DWIDTH 20 0
BBX 17 26 1 0
BITMAP
0FFF00
0FFF00
1FFF00
1FFF00
1FFF00
1F0000
1F0000
3E0000
3E0000
3EF000
3FFC00
3FFE00
7FFF00
7E3F00
3C1F80
000F80
000F80
000F80
780F80
F80F80
FC1F00
7E3F00
7FFE00
3FFE00
1FF800
07E000
ENDCHAR
STARTCHAR six
ENCODING 54
SWIDTH 556 0
DWIDTH 20 0
BBX 17 26 1 0
BITMAP
03F000
0FF800
1FFC00
3FFE00
3E3E00
7C1F00
781F00
780000
F80000
F9F000
FFFC00
FFFE00
FFFF00
FE3F00
FC1F80
F80F80
F80F80
F80F80
F80F80
780F80
7C1F80
7E3F00
3FFF00
1FFE00
0FFC00
03F000
ENDCHAR
STARTCHAR seven
ENCODING 55
SWIDTH 556 0
DWIDTH 20 0
BBX 17 26 1 0
BITMAP
FFFF80
FFFF80
FFFF80
FFFF80
FFFF00
001F00
003E00
007C00
007800
00F800
01F000
01F000
03E000
03E000
07C000
07C000
07C000
0F8000
0F8000
0F8000
0F8000
1F0000
1F0000
1F0000
1F0000
1F0000
ENDCHAR
STARTCHAR eight
ENCODING 56
SWIDTH 556 0
DWIDTH 20 0
BBX 17 26 1 0
BITMAP
07F000
1FFC00
3FFE00
3FFE00
7E3F00
7C1F00
7C1F00
7C1F00
7C1F00
3E3E00
3FFC00
0FF800
1FFC00
3FFE00
7E3F00
7C1F00
F80F80
F80F80
F80F80
F80F80
FC1F80
7E3F00
7FFF00
3FFE00
1FFC00
07F000
ENDCHAR
STARTCHAR nine
ENCODING 57
SWIDTH 556 0
DWIDTH 20 0
BBX 17 26 1 0
BITMAP
07E000
1FF800
3FFC00
7FFE00
7E3E00
FC1F00
F80F00
F80F00
F80F80
F80F80
F80F80
FC1F80
7E3F80
7FFF80
3FFF80
1FFF80
07CF80
000F80
000F00
7C0F00
7C1F00
7E3E00
3FFE00
3FFC00
1FF800
07E000
ENDCHAR
STARTCHAR colon
ENCODING 58
SWIDTH 333 0
DWIDTH 13 0
BBX 5 20 4 0
BITMAP
F8
F8
F8
F8
F8
00
00
00
00
00
00
00
00
00
00
F8
F8
F8
F8
F8
ENDCHAR
STARTCHAR semicolon
ENCODING 59
SWIDTH 333 0
DWIDTH 13 0
BBX 5 26 4 -6
BITMAP
F8
F8
F8
F8
F8
00
00
00
00
00
00
00
00
00
00
F8
F8
F8
F8
F8
38
38
30
70
E0
40
ENDCHAR
STARTCHAR less
ENCODING 60
SWIDTH 583 0
DWIDTH 21 0
BBX 18 20 1 3
BITMAP
000040
0001C0
000FC0
003FC0
00FF80
07FE00
1FF000
7FC000
FF0000
F80000
FC0000
FF0000
7FC000
1FF000
07FE00
00FF80
003FC0
000FC0
0001C0
000040
ENDCHAR
STARTCHAR equal
ENCODING 61
SWIDTH 583 0
DWIDTH 21 0
BBX 18 11 1 8
BITMAP
FFFFC0
FFFFC0
FFFFC0
FFFFC0
000000
000000
000000
FFFFC0
FFFFC0
FFFFC0
FFFFC0
ENDCHAR
STARTCHAR greater
ENCODING 62
SWIDTH 583 0
DWIDTH 21 0
BBX 18 20 1 3
BITMAP
800000
E00000
FC0000
FF0000
7FC000
1FF800
03FE00
00FF80
003FC0
000FC0
000FC0
003FC0
00FF80
03FE00
1FF800
7FC000
FF0000
FC0000
E00000
800000
ENDCHAR
STARTCHAR question
ENCODING 63
SWIDTH 610 0
DWIDTH 22 0
BBX 19 26 1 0
BITMAP
03F800
0FFE00
1FFF80
3FFFC0
7E0FC0
7C07E0
FC03E0
F803E0
0003E0
0007E0
000FC0
003F80
007F00
00FE00
00FC00
01F800
01F000
01F000
01F000
000000
000000
01F000
01F000
01F000
01F000
01F000
ENDCHAR
STARTCHAR at
ENCODING 64
SWIDTH 975 0
DWIDTH 35 0
BBX 34 35 1 -9
BITMAP
0007FE0000
003FFF8000
00FFFFE000
01FFFFF800
03FC03FC00
07E000FC00
0F87C7BE00
1F0FE79F00
3E1FFF8F00
3E3FFF8F00
3C7FFF8780
7C7E3F8780
78FC1F0780
78F81F0780
F1F81F0780
F1F01F0780
F1F01F0F80
F1F03F0F00
F1F03E0F00
F1F07E1E00
F1F8FE3E00
F1FFFE7C00
F8FFFFF800
78FFBFF000
787FBFE000
7C1E1F0000
3E000007C0
3F00000F80
1F80001F80
0FC0007F00
07FC03FE00
03FFFFFC00
01FFFFF000
003FFFC000
0007FE0000
ENDCHAR
STARTCHAR A
ENCODING 65
SWIDTH 722 0
DWIDTH 25 0
BBX 25 26 0 0
BITMAP
007F0000
007F0000
00FF8000
00FF8000
00F78000
01F7C000
01F7C000
03E3C000
03E3E000
03E3E000
07C1F000
07C1F000
07C1F000
0F80F800
0F80F800
0F80F800
1FFFFC00
1FFFFC00
1FFFFC00
3FFFFE00
3E003E00
3E003E00
7C001F00
7C001F00
7C001F00
F8000F80
ENDCHAR
STARTCHAR B
ENCODING 66
SWIDTH 722 0
DWIDTH 26 0
BBX 21 26 3 0
BITMAP
FFFF00
FFFFC0
FFFFE0
FFFFE0
F803F0
F801F0
F801F0
F801F0
F801F0
F803E0
FFFFC0
FFFF80
FFFFC0
FFFFE0
F803F0
F801F8
F800F8
F800F8
F800F8
F800F8
F801F8
F803F0
FFFFF0
FFFFE0
FFFFC0
FFFF00
ENDCHAR
STARTCHAR C
ENCODING 67
SWIDTH 722 0
DWIDTH 26 0
BBX 22 26 2 0
BITMAP
00FE00
03FFC0
0FFFE0
1FFFF0
3F83F8
3E00F8
7C00FC
7C0070
7C0000
F80000
F80000
F80000
F80000
F80000
F80000
F80000
F80000
FC0040
7C00F8
7C00FC
3E01F8
3F83F8
1FFFF0
0FFFE0
03FFC0
00FE00
ENDCHAR
STARTCHAR D
ENCODING 68
SWIDTH 722 0
DWIDTH 26 0
BBX 21 26 3 0
BITMAP
FFFC00
FFFF00
FFFF80
FFFFC0
F80FE0
F803F0
F801F0
F801F0
F800F8
F800F8
F800F8
F800F8
F800F8
F800F8
F800F8
F800F8
F800F8
F800F8
F801F0
F801F0
F803F0
F807E0
FFFFC0
FFFF80
FFFF00
FFFC00
ENDCHAR
STARTCHAR E
ENCODING 69
SWIDTH 666 0
DWIDTH 24 0
BBX 19 26 3 0
BITMAP
FFFFC0
FFFFC0
FFFFC0
FFFFC0
F80000
F80000
F80000
F80000
F80000
F80000
FFFF80
FFFF80
FFFF80
FFFF80
F80000
F80000
F80000
F80000
F80000
F80000
F80000
F80000
FFFFE0
FFFFE0
FFFFE0
FFFFE0
ENDCHAR
STARTCHAR F
ENCODING 70
SWIDTH 610 0
DWIDTH 22 0
BBX 17 26 3 0
BITMAP
FFFF80
FFFF80
FFFF80
FFFF80
F80000
F80000
F80000
F80000
F80000
F80000
FFFE00
FFFE00
FFFE00
FFFE00
F80000
F80000
F80000
F80000
F80000
F80000
F80000
F80000
F80000
F80000
F80000
F80000
ENDCHAR
STARTCHAR G
ENCODING 71
SWIDTH 777 0
DWIDTH 28 0
BBX 24 26 2 0
BITMAP
007F80
03FFF0
07FFF8
0FFFFC
1FC0FE
3F007F
7E003F
7C001C
7C0000
F80000
F80000
F80000
F807FF
F807FF
F807FF
F807FF
F8001F
7C001F
7C001F
7E001F
3F003F
1FC1FF
0FFFFF
07FFFC
03FFF0
007F80
ENDCHAR
STARTCHAR H
ENCODING 72
SWIDTH 722 0
DWIDTH 26 0
BBX 20 26 3 0
BITMAP
F801F0
F801F0
F801F0
F801F0
F801F0
F801F0
F801F0
F801F0
F801F0
F801F0
FFFFF0
FFFFF0
FFFFF0
FFFFF0
F801F0
F801F0
F801F0
F801F0
F801F0
F801F0
F801F0
F801F0
F801F0
F801F0
F801F0
F801F0
ENDCHAR
STARTCHAR I
ENCODING 73
SWIDTH 277 0
DWIDTH 9 0
BBX 5 26 2 0
BITMAP
F8
F8
F8
F8
F8
F8
F8
F8
F8
F8
F8
F8
F8
F8
F8
F8
F8
F8
F8
F8
F8
F8
F8
F8
F8
F8
ENDCHAR
STARTCHAR J
ENCODING 74
SWIDTH 556 0
DWIDTH 20 0
BBX 16 26 1 0
BITMAP
001F
001F
001F
001F
001F
001F
001F
001F
001F
001F
001F
001F
001F
001F
001F
001F
001F
381F
F81F
F81F
FC1F
7C3E
7FFE
3FFC
1FF8
0FE0
ENDCHAR
STARTCHAR K
ENCODING 75
SWIDTH 722 0
DWIDTH 26 0
BBX 22 26 3 0
BITMAP
F801F8
F803F0
F807E0
F80FC0
F81F80
F83F80
F87F00
F8FE00
F9FC00
F9F800
FBF800
FFF800
FFFC00
FFFE00
FF3E00
FF3F00
FE1F00
FC1F80
F80FC0
F807C0
F807E0
F803F0
F801F0
F801F8
F800FC
F800FC
ENDCHAR
STARTCHAR L
ENCODING 76
SWIDTH 610 0
DWIDTH 22 0
BBX 18 26 3 0
BITMAP
F80000
F80000
F80000
F80000
F80000
F80000
F80000
F80000
F80000
F80000
F80000
F80000
F80000
F80000
F80000
F80000
F80000
F80000
F80000
F80000
F80000
F80000
FFFFC0
FFFFC0
FFFFC0
FFFFC0
ENDCHAR
STARTCHAR M
ENCODING 77
SWIDTH 833 0
DWIDTH 29 0
BBX 23 26 3 0
BITMAP
FE00FE
FE00FE
FF01FE
FF01FE
FF01FE
FF01FE
F783DE
F783DE
F783DE
F3839E
F3839E
F3C79E
F3C79E
F1C71E
F1C71E
F1EF1E
F1EF1E
F0EE1E
F0EE1E
F0EE1E
F0FE1E
F07C1E
F07C1E
F07C1E
F0381E
F0381E
ENDCHAR
STARTCHAR N
ENCODING 78
SWIDTH 722 0
DWIDTH 26 0
BBX 20 26 3 0
BITMAP
FC00F0
FC00F0
FE00F0
FE00F0
FF00F0
FF00F0
FF80F0
F780F0
F7C0F0
F3C0F0
F3E0F0
F1E0F0
F1F0F0
F0F0F0
F0F8F0
F078F0
F07CF0
F03CF0
F03EF0
F01EF0
F01FF0
F00FF0
F00FF0
F007F0
F007F0
F003F0
ENDCHAR
STARTCHAR O
ENCODING 79
SWIDTH 777 0
DWIDTH 28 0
BBX 24 26 2 0
BITMAP
00FF00
03FFC0
0FFFF0
1FFFF8
3F81FC
3F00FC
7E007E
7C003E
FC003E
F8001F
F8001F
F8001F
F8001F
F8001F
F8001F
F8001F
F8001F
FC003E
7C003E
7E007E
3F00FC
3F81FC
1FFFF8
0FFFF0
03FFC0
00FF00
ENDCHAR
STARTCHAR P
ENCODING 80
SWIDTH 666 0
DWIDTH 24 0
BBX 19 26 3 0
BITMAP
FFFC00
FFFF00
FFFF80
FFFFC0
F80FC0
F807E0
F803E0
F803E0
F803E0
F803E0
F807E0
F80FC0
FFFFC0
FFFF80
FFFF00
FFFC00
F80000
F80000
F80000
F80000
F80000
F80000
F80000
F80000
F80000
F80000
ENDCHAR
STARTCHAR Q
ENCODING 81
SWIDTH 777 0
DWIDTH 28 0
BBX 25 28 2 -2
BITMAP
00FF0000
03FFC000
0FFFF000
1FFFF800
3F81FC00
3F00FC00
7E007E00
7C003E00
FC003F00
F8001F00
F8001F00
F8001F00
F8001F00
F8001F00
F8001F00
F8001F00
F8001F00
7C0C3E00
7C0E3E00
7E1FFE00
3F0FFC00
3F83F800
1FFFFC00
0FFFFF00
03FFFF80
00FF1F00
00000F00
00000200
ENDCHAR
STARTCHAR R
ENCODING 82
SWIDTH 722 0
DWIDTH 26 0
BBX 23 26 3 0
BITMAP
FFFF00
FFFFC0
FFFFE0
FFFFF0
F803F8
F801F8
F800F8
F800F8
F800F8
F801F8
F803F0
FFFFF0
FFFFE0
FFFF80
FFFE00
F87F00
F81F80
F80FC0
F80FC0
F807E0
F803F0
F803F0
F801F8
F800F8
F800FC
F8007E
ENDCHAR
STARTCHAR S
ENCODING 83
SWIDTH 666 0
DWIDTH 24 0
BBX 21 26 1 0
BITMAP
03FC00
0FFF80
1FFFC0
3FFFE0
3F07E0
7C03F0
7C01F0
7C01F0
7E0000
7FC000
3FF800
1FFF00
0FFFC0
03FFE0
007FF0
0007F8
0001F8
3800F8
F800F8
FC00F8
7E01F8
7F03F0
3FFFF0
1FFFE0
0FFF80
03FE00
ENDCHAR
STARTCHAR T
ENCODING 84
SWIDTH 610 0
DWIDTH 23 0
BBX 21 26 1 0
BITMAP
FFFFF8
FFFFF8
FFFFF8
FFFFF8
00F800
00F800
00F800
00F800
00F800
00F800
00F800
00F800
00F800
00F800
00F800
00F800
00F800
00F800
00F800
00F800
00F800
00F800
00F800
00F800
00F800
00F800
ENDCHAR
STARTCHAR U
ENCODING 85
SWIDTH 722 0
DWIDTH 26 0
BBX 20 26 3 0
BITMAP
F801F0
F801F0
F801F0
F801F0
F801F0
F801F0
F801F0
F801F0
F801F0
F801F0
F801F0
F801F0
F801F0
F801F0
F801F0
F801F0
F801F0
F801F0
F801F0
FC01F0
7C03E0
7F07E0
3FFFE0
3FFFC0
0FFF00
03FC00
ENDCHAR
STARTCHAR V
ENCODING 86
SWIDTH 666 0
DWIDTH 24 0
BBX 25 26 0 0
BITMAP
F8000F80
7C001F00
7C001F00
7C003F00
3E003E00
3E003E00
3E007E00
1F007C00
1F007C00
0F80F800
0F80F800
0F80F800
07C1F000
07C1F000
03C1F000
03E3E000
03E3E000
01E3C000
01F7C000
01F7C000
00F78000
00FF8000
007F0000
007F0000
007F0000
003E0000
ENDCHAR
STARTCHAR W
ENCODING 87
SWIDTH 943 0
DWIDTH 35 0
BBX 35 26 0 0
BITMAP
F801F003E0
F801F003E0
7C03F807C0
7C03F807C0
7C03F807C0
7C03F807C0
3E07BC0F80
3E07BC0F80
3E07BC0F80
3E0F1C0F80
1E0F1E0F00
1F0F1E1F00
1F0E0E1F00
1F1E0F1F00
0F1E0F1E00
0F9E0F3E00
0FBC073E00
0FBC07BE00
07BC07BE00
07B803BC00
07F803FC00
07F803FC00
03F001FC00
03F001F800
03F001F800
03F001F800
ENDCHAR
STARTCHAR X
ENCODING 88
SWIDTH 666 0
DWIDTH 24 0
BBX 22 26 1 0
BITMAP
7E01F8
7E01F8
3F03F0
1F87E0
1F87E0
0FCFC0
07CF80
07FF80
03FF00
03FF00
01FE00
00FC00
00FC00
01FE00
01FE00
03FF00
07FF80
07FF80
0FCFC0
0F87C0
1F87E0
3F03F0
3F03F0
7E01F8
FC00FC
FC00FC
ENDCHAR
STARTCHAR Y
ENCODING 89
SWIDTH 666 0
DWIDTH 23 0
BBX 23 26 0 0
BITMAP
FC007E
FC007E
7E00FC
3E00F8
3F01F8
1F01F0
0F83E0
0FC7E0
07C7C0
07EFC0
03EF80
01FF00
01FF00
00FE00
007C00
007C00
007C00
007C00
007C00
007C00
007C00
007C00
007C00
007C00
007C00
007C00
ENDCHAR
STARTCHAR Z
ENCODING 90
SWIDTH 610 0
DWIDTH 22 0
BBX 21 26 0 0
BITMAP
3FFFF0
3FFFF0
3FFFF0
3FFFF0
0003F0
0007E0
000FC0
000F80
001F00
003F00
007E00
00FC00
00F800
01F000
03E000
07E000
0FC000
0F8000
1F0000
3E0000
7E0000
FC0000
FFFFF8
FFFFF8
FFFFF8
FFFFF8
ENDCHAR
STARTCHAR bracketleft
ENCODING 91
SWIDTH 333 0
DWIDTH 12 0
BBX 9 33 3 -7
BITMAP
FF80
FF80
FF80
FF80
F800
F800
F800
F800
F800
F800
F800
F800
F800
F800
F800
F800
F800
F800
F800
F800
F800
F800
F800
F800
F800
F800
F800
F800
F800
FF80
FF80
FF80
FF80
ENDCHAR
STARTCHAR backslash
ENCODING 92
SWIDTH 277 0
DWIDTH 10 0
BBX 10 26 0 0
BITMAP
F000
F000
7800
7800
7800
7800
7800
3C00
3C00
3C00
3C00
1E00
1E00
1E00
1E00
0F00
0F00
0F00
0F00
0F00
0780
0780
0780
0780
03C0
03C0
ENDCHAR
STARTCHAR bracketright
ENCODING 93
SWIDTH 333 0
DWIDTH 12 0
BBX 9 33 0 -7
BITMAP
FF80
FF80
FF80
FF80
0F80
0F80
0F80
0F80
0F80
0F80
0F80
0F80
0F80
0F80
0F80
0F80
0F80
0F80
0F80
0F80
0F80
0F80
0F80
0F80
0F80
0F80
0F80
0F80
0F80
FF80
FF80
FF80
FF80
ENDCHAR
STARTCHAR asciicircum
ENCODING 94
SWIDTH 583 0
DWIDTH 21 0
BBX 16 14 2 12
BITMAP
03C0
03E0
07E0
07E0
0FF0
0FF0
1FF8
1E78
3E7C
3E7C
3C3C
7C3E
7C3E
F81F
ENDCHAR
STARTCHAR underscore
ENCODING 95
SWIDTH 556 0
DWIDTH 20 0
BBX 21 4 -1 -7
BITMAP
FFFFF8
FFFFF8
FFFFF8
FFFFF8
ENDCHAR
STARTCHAR grave
ENCODING 96
SWIDTH 333 0
DWIDTH 12 0
BBX 8 5 1 21
BITMAP
FC
7C
3E
1E
0F
ENDCHAR
STARTCHAR a
ENCODING 97
SWIDTH 556 0
DWIDTH 21 0
BBX 18 20 1 0
BITMAP
07F800
1FFE00
3FFF00
3FFF80
7C1F80
180F80
000F80
003F80
03FF80
1FFF80
7FCF80
7C0F80
F80F80
F80F80
F81F80
FC3F80
FFFF80
7FFF80
3FE780
1F87C0
ENDCHAR
STARTCHAR b
ENCODING 98
SWIDTH 610 0
DWIDTH 22 0
BBX 18 26 3 0
BITMAP
F80000
F80000
F80000
F80000
F80000
F80000
F8F800
FBFE00
FFFF00
FFFF80
FE1F80
FC0F80
FC0FC0
F807C0
F807C0
F807C0
F807C0
F807C0
F807C0
FC0FC0
FC0F80
FE1F80
FFFF00
FFFF00
F7FC00
F1F800
ENDCHAR
STARTCHAR c
ENCODING 99
SWIDTH 556 0
DWIDTH 20 0
BBX 18 20 1 0
BITMAP
03F800
0FFE00
1FFF00
3FFF80
7E1F80
7C0FC0
F80700
F80000
F80000
F80000
F80000
F80000
F80700
FC07C0
7C0FC0
7E1F80
3FFF80
1FFF00
0FFE00
03F800
ENDCHAR
STARTCHAR d
ENCODING 100
SWIDTH 610 0
DWIDTH 22 0
BBX 18 26 1 0
BITMAP
0007C0
0007C0
0007C0
0007C0
0007C0
0007C0
07C7C0
1FF7C0
3FFFC0
7FFFC0
7E1FC0
7C0FC0
FC0FC0
F807C0
F807C0
F807C0
F807C0
F807C0
F807C0
FC0FC0
7C0FC0
7E1FC0
3FFFC0
3FFFC0
0FFBC0
07E3C0
ENDCHAR
STARTCHAR e
ENCODING 101
SWIDTH 556 0
DWIDTH 20 0
BBX 18 20 1 0
BITMAP
03F000
0FFC00
1FFE00
3FFF00
7E1F80
7C0F80
F807C0
F807C0
FFFFC0
FFFFC0
FFFFC0
F80000
F80000
FC0000
7C0700
7E0FC0
3FFF80
1FFF00
0FFE00
03F800
ENDCHAR
STARTCHAR f
ENCODING 102
SWIDTH 333 0
DWIDTH 13 0
BBX 13 26 1 0
BITMAP
03F0
0FF8
1FF8
1FF8
1F00
1F00
FFF0
FFF0
FFF0
FFF0
1F00
1F00
1F00
1F00
1F00
1F00
1F00
1F00
1F00
1F00
1F00
1F00
1F00
1F00
1F00
1F00
ENDCHAR
STARTCHAR g
ENCODING 103
SWIDTH 610 0
DWIDTH 22 0
BBX 18 27 1 -7
BITMAP
07E3C0
1FF3C0
3FFBC0
3FFFC0
7E1FC0
7C0FC0
FC0FC0
F807C0
F807C0
F807C0
F807C0
F807C0
F807C0
FC0FC0
7C0FC0
7E1FC0
3FFFC0
3FFFC0
1FF7C0
07E7C0
0007C0
7007C0
7C0F80
7FFF80
3FFF00
1FFE00
07F800
ENDCHAR
STARTCHAR h
ENCODING 104
SWIDTH 610 0
DWIDTH 21 0
BBX 17 26 2 0
BITMAP
F80000
F80000
F80000
F80000
F80000
F80000
F8F800
F9FE00
FBFF00
FFFF00
FE1F80
FC0F80
F80F80
F80F80
F80F80
F80F80
F80F80
F80F80
F80F80
F80F80
F80F80
F80F80
F80F80
F80F80
F80F80
F80F80
ENDCHAR
STARTCHAR i
ENCODING 105
SWIDTH 277 0
DWIDTH 9 0
BBX 5 26 2 0
BITMAP
F8
F8
F8
F8
00
00
F8
F8
F8
F8
F8
F8
F8
F8
F8
F8
F8
F8
F8
F8
F8
F8
F8
F8
F8
F8
ENDCHAR
STARTCHAR j
ENCODING 106
SWIDTH 277 0
DWIDTH 10 0
BBX 9 33 -2 -7
BITMAP
0F80
0F80
0F80
0F80
0000
0000
0F80
0F80
0F80
0F80
0F80
0F80
0F80
0F80
0F80
0F80
0F80
0F80
0F80
0F80
0F80
0F80
0F80
0F80
0F80
0F80
0F80
0F80
1F80
FF80
FF00
FF00
FC00
ENDCHAR
STARTCHAR k
ENCODING 107
SWIDTH 556 0
DWIDTH 20 0
BBX 16 26 3 0
BITMAP
F800
F800
F800
F800
F800
F800
F83F
F87E
F87C
F8FC
F9F8
F9F0
FBE0
FFC0
FFC0
FFE0
FFF0
FFF0
FDF8
F8F8
F87C
F87C
F83E
F83E
F81F
F81F
ENDCHAR
STARTCHAR l
ENCODING 108
SWIDTH 277 0
DWIDTH 9 0
BBX 5 26 2 0
BITMAP
F8
F8
F8
F8
F8
F8
F8
F8
F8
F8
F8
F8
F8
F8
F8
F8
F8
F8
F8
F8
F8
F8
F8
F8
F8
F8
ENDCHAR
STARTCHAR m
ENCODING 109
SWIDTH 889 0
DWIDTH 33 0
BBX 27 20 3 0
BITMAP
F1F81F00
F7FC7F80
FFFEFFC0
FFFFFFE0
FE3FC7E0
FC1F83E0
F81F03E0
F81F03E0
F81F03E0
F81F03E0
F81F03E0
F81F03E0
F81F03E0
F81F03E0
F81F03E0
F81F03E0
F81F03E0
F81F03E0
F81F03E0
F81F03E0
ENDCHAR
STARTCHAR n
ENCODING 110
SWIDTH 610 0
DWIDTH 21 0
BBX 17 20 2 0
BITMAP
F1F800
F7FE00
FFFF00
FFFF00
FE1F80
FC0F80
F80F80
F80F80
F80F80
F80F80
F80F80
F80F80
F80F80
F80F80
F80F80
F80F80
F80F80
F80F80
F80F80
F80F80
ENDCHAR
STARTCHAR o
ENCODING 111
SWIDTH 610 0
DWIDTH 22 0
BBX 20 20 1 0
BITMAP
01F800
0FFF00
1FFF80
3FFFC0
7F0FE0
7C03E0
7C03E0
F801F0
F801F0
F801F0
F801F0
F801F0
F801F0
FC03E0
7C03E0
7F0FC0
3FFFC0
1FFF80
0FFE00
01F800
ENDCHAR
STARTCHAR p
ENCODING 112
SWIDTH 610 0
DWIDTH 22 0
BBX 18 27 3 -7
BITMAP
F1F800
F7FC00
FFFF00
FFFF00
FE1F80
FC0F80
FC0FC0
F807C0
F807C0
F807C0
F807C0
F807C0
F807C0
FC0FC0
FC0F80
FE1F80
FFFF00
FFFF00
FBFE00
F8F800
F80000
F80000
F80000
F80000
F80000
F80000
F80000
ENDCHAR
STARTCHAR q
ENCODING 113
SWIDTH 610 0
DWIDTH 22 0
BBX 18 27 1 -7
BITMAP
07E3C0
0FFBC0
3FFFC0
3FFFC0
7E1FC0
7C0FC0
FC0FC0
F807C0
F807C0
F807C0
F807C0
F807C0
F807C0
F80FC0
7C0FC0
7E1FC0
3FFFC0
3FFFC0
1FF7C0
07C7C0
0007C0
0007C0
0007C0
0007C0
0007C0
0007C0
0007C0
ENDCHAR
STARTCHAR r
ENCODING 114
SWIDTH 389 0
DWIDTH 14 0
BBX 11 20 3 0
BITMAP
F3C0
F7E0
FFC0
FFC0
FFC0
FC00
FC00
F800
F800
F800
F800
F800
F800
F800
F800
F800
F800
F800
F800
F800
ENDCHAR
STARTCHAR s
ENCODING 115
SWIDTH 556 0
DWIDTH 19 0
BBX 17 20 1 0
BITMAP
07F000
1FFC00
3FFE00
7E3F00
7C1C00
7C0000
7E0000
7FE000
3FFC00
1FFE00
0FFF00
01FF80
001F80
000F80
380F80
FC1F80
7FFF00
7FFE00
1FFC00
07F000
ENDCHAR
STARTCHAR t
ENCODING 116
SWIDTH 333 0
DWIDTH 12 0
BBX 11 26 1 0
BITMAP
0200
0E00
1E00
3E00
3E00
3E00
FFE0
FFE0
FFE0
FFE0
3E00
3E00
3E00
3E00
3E00
3E00
3E00
3E00
3E00
3E00
3E00
3E00
3FE0
3FE0
1FE0
0FC0
ENDCHAR
STARTCHAR u
ENCODING 117
SWIDTH 610 0
DWIDTH 21 0
BBX 17 20 2 0
BITMAP
F80F80
F80F80
F80F80
F80F80
F80F80
F80F80
F80F80
F80F80
F80F80
F80F80
F80F80
F80F80
F80F80
F80F80
F81F80
FC3F80
7FFF80
7FFF80
3FF780
0FC780
ENDCHAR
STARTCHAR v
ENCODING 118
SWIDTH 556 0
DWIDTH 19 0
BBX 17 20 1 0
BITMAP
F80F80
F80F80
F80F80
780F00
7C1F00
7C1F00
3C1E00
3C1E00
3E3E00
1E3C00
1E3C00
0E3C00
0F7800
0F7800
077800
07F000
07F000
03E000
03E000
03E000
ENDCHAR
STARTCHAR w
ENCODING 119
SWIDTH 777 0
DWIDTH 29 0
BBX 29 20 0 0
BITMAP
F80F80F8
F80F80F8
7C0F81F0
7C0F81F0
7C1FC1F0
3C1FC1E0
3E1DC3E0
3E3DE3E0
1E3DE3C0
1E3DE3C0
1F38E7C0
0F78F780
0F78F780
0F707780
07F07F00
07F07F00
07E03F00
03E03E00
03E03E00
03E03E00
ENDCHAR
STARTCHAR x
ENCODING 120
SWIDTH 556 0
DWIDTH 20 0
BBX 18 20 1 0
BITMAP
7C0F80
7E1F80
3E1F00
1F3E00
1F7E00
0FFC00
0FFC00
07F800
03F000
03F000
03F000
07F800
0FFC00
0FFC00
1F3E00
3F3F00
3E1F00
7C0F80
FC0FC0
F807C0
ENDCHAR
STARTCHAR y
ENCODING 121
SWIDTH 556 0
DWIDTH 20 0
BBX 19 27 1 -7
BITMAP
F803E0
F803E0
7C07C0
7C07C0
7C07C0
3C0780
3E0F80
3E0F80
1E0F00
1F1F00
0F1E00
0F1E00
0FBE00
07BC00
07BC00
07FC00
03F800
03F800
03F000
01F000
01F000
03E000
07E000
7FE000
7FC000
7F8000
7E0000
ENDCHAR
STARTCHAR z
ENCODING 122
SWIDTH 500 0
DWIDTH 18 0
BBX 16 20 1 0
BITMAP
7FFE
7FFE
7FFE
7FFE
003E
007C
00F8
01F0
03E0
07E0
07C0
0F80
1F00
3E00
7C00
F800
FFFF
FFFF
FFFF
FFFF
ENDCHAR
STARTCHAR braceleft
ENCODING 123
SWIDTH 389 0
DWIDTH 14 0
BBX 12 33 1 -7
BITMAP
01F0
03F0
07F0
0FF0
0FF0
0F80
0F80
0F80
0F80
0F80
0F80
0F80
0F80
1F80
3F00
FF00
FC00
FC00
FF00
3F00
1F80
0F80
0F80
0F80
0F80
0F80
0F80
0F80
0FF0
0FF0
07F0
07F0
01F0
ENDCHAR
STARTCHAR bar
ENCODING 124
SWIDTH 279 0
DWIDTH 10 0
BBX 4 34 3 -8
BITMAP
F0
F0
F0
F0
F0
F0
F0
F0
F0
F0
F0
F0
F0
F0
F0
F0
F0
F0
F0
F0
F0
F0
F0
F0
F0
F0
F0
F0
F0
F0
F0
F0
F0
F0
ENDCHAR
STARTCHAR braceright
ENCODING 125
SWIDTH 389 0
DWIDTH 14 0
BBX 12 33 1 -7
BITMAP
F800
FC00
FE00
FF00
FF00
1F00
1F00
1F00
1F00
1F00
1F00
1F00
1F00
1F80
0FC0
07F0
03F0
03F0
0FF0
0FC0
1F80
1F00
1F00
1F00
1F00
1F00
1F00
3F00
FF00
FF00
FE00
FE00
F800
ENDCHAR
STARTCHAR asciitilde
ENCODING 126
SWIDTH 583 0
DWIDTH 21 0
BBX 19 6 1 9
BITMAP
3F8020
7FF0E0
FFFFE0
FFFFE0
C0FFC0
801F00
ENDCHAR
ENDFONT
