STARTFONT 2.1
COMMENT
COMMENT Converted from OpenType font "arial.ttf" by "otf2bdf 3.0".
COMMENT
FONT -FreeType-Arial-Medium-R-Normal--17-120-100-100-P-83-ISO10646-1
SIZE 12 100 100
FONTBOUNDINGBOX 34 23 -9 -6
STARTPROPERTIES 19
FOUNDRY "FreeType"
FAMILY_NAME "Arial"
WEIGHT_NAME "Medium"
SLANT "R"
SETWIDTH_NAME "Normal"
ADD_STYLE_NAME ""
PIXEL_SIZE 17
POINT_SIZE 120
RESOLUTION_X 100
RESOLUTION_Y 100
SPACING "P"
AVERAGE_WIDTH 83
CHARSET_REGISTRY "ISO10646"
CHARSET_ENCODING "1"
FONT_ASCENT 15
FONT_DESCENT 3
COPYRIGHT "© 2017 The Monotype Corporation. All Rights Reserved.     Hebrew OpenType Layout logic copyright © 2003 & 2007, Ralph Hancock & John Hudson. This layout logic for Biblical Hebrew is open source software under the MIT License; see embedded license description for details."
_OTF_FONTFILE "arial.ttf"
_OTF_PSNAME "ArialMT"
ENDPROPERTIES
CHARS 3361
STARTCHAR 0020
ENCODING 32
SWIDTH 300 0
DWIDTH 5 0
BBX 0 0 0 0
BITMAP
ENDCHAR
STARTCHAR 0021
ENCODING 33
SWIDTH 300 0
DWIDTH 5 0
BBX 1 12 2 0
BITMAP
80
80
80
80
80
80
80
80
80
80
00
80
ENDCHAR
STARTCHAR 0022
ENCODING 34
SWIDTH 360 0
DWIDTH 6 0
BBX 4 4 1 8
BITMAP
90
90
90
90
ENDCHAR
STARTCHAR 0023
ENCODING 35
SWIDTH 540 0
DWIDTH 9 0
BBX 9 12 0 0
BITMAP
0900
0900
1200
1200
FF80
1200
2400
2400
FF80
2400
4800
4800
ENDCHAR
STARTCHAR 0024
ENCODING 36
SWIDTH 540 0
DWIDTH 9 0
BBX 7 15 1 -2
BITMAP
10
3C
56
92
90
90
70
1C
12
92
92
54
38
10
10
ENDCHAR
STARTCHAR 0025
ENCODING 37
SWIDTH 900 0
DWIDTH 15 0
BBX 13 12 1 0
BITMAP
7040
8880
8880
8900
8900
8A70
7288
0488
0888
0888
1088
1070
ENDCHAR
STARTCHAR 0026
ENCODING 38
SWIDTH 660 0
DWIDTH 11 0
BBX 9 12 1 0
BITMAP
1C00
2200
2200
2200
1400
3800
4800
8480
8500
8200
4300
3C80
ENDCHAR
STARTCHAR 0027
ENCODING 39
SWIDTH 180 0
DWIDTH 3 0
BBX 1 4 1 8
BITMAP
80
80
80
80
ENDCHAR
STARTCHAR 0028
ENCODING 40
SWIDTH 360 0
DWIDTH 6 0
BBX 3 15 1 -3
BITMAP
20
40
40
40
80
80
80
80
80
80
80
40
40
40
20
ENDCHAR
STARTCHAR 0029
ENCODING 41
SWIDTH 360 0
DWIDTH 6 0
BBX 3 15 2 -3
BITMAP
80
40
40
40
20
20
20
20
20
20
20
40
40
40
80
ENDCHAR
STARTCHAR 002A
ENCODING 42
SWIDTH 420 0
DWIDTH 7 0
BBX 5 5 1 7
BITMAP
20
F8
20
50
50
ENDCHAR
STARTCHAR 002B
ENCODING 43
SWIDTH 600 0
DWIDTH 10 0
BBX 7 7 1 3
BITMAP
10
10
10
FE
10
10
10
ENDCHAR
STARTCHAR 002C
ENCODING 44
SWIDTH 300 0
DWIDTH 5 0
BBX 1 3 2 -3
BITMAP
80
80
80
ENDCHAR
STARTCHAR 002D
ENCODING 45
SWIDTH 360 0
DWIDTH 6 0
BBX 5 1 0 4
BITMAP
F8
ENDCHAR
STARTCHAR 002E
ENCODING 46
SWIDTH 300 0
DWIDTH 5 0
BBX 1 1 2 0
BITMAP
80
ENDCHAR
STARTCHAR 002F
ENCODING 47
SWIDTH 300 0
DWIDTH 5 0
BBX 5 12 0 0
BITMAP
08
10
10
10
20
20
20
40
40
40
80
80
ENDCHAR
STARTCHAR 0030
ENCODING 48
SWIDTH 540 0
DWIDTH 9 0
BBX 7 12 1 0
BITMAP
38
44
82
82
82
82
82
82
82
82
44
38
ENDCHAR
STARTCHAR 0031
ENCODING 49
SWIDTH 540 0
DWIDTH 9 0
BBX 4 12 2 0
BITMAP
10
30
50
90
10
10
10
10
10
10
10
10
ENDCHAR
STARTCHAR 0032
ENCODING 50
SWIDTH 540 0
DWIDTH 9 0
BBX 7 12 1 0
BITMAP
3C
44
82
02
02
04
04
08
10
20
40
FE
ENDCHAR
STARTCHAR 0033
ENCODING 51
SWIDTH 540 0
DWIDTH 9 0
BBX 7 12 1 0
BITMAP
38
44
84
04
08
38
04
02
02
82
C4
38
ENDCHAR
STARTCHAR 0034
ENCODING 52
SWIDTH 540 0
DWIDTH 9 0
BBX 8 12 0 0
BITMAP
04
0C
14
14
24
24
44
84
FF
04
04
04
ENDCHAR
STARTCHAR 0035
ENCODING 53
SWIDTH 540 0
DWIDTH 9 0
BBX 7 12 1 0
BITMAP
7E
40
40
80
F8
84
02
02
02
82
44
38
ENDCHAR
STARTCHAR 0036
ENCODING 54
SWIDTH 540 0
DWIDTH 9 0
BBX 7 12 1 0
BITMAP
38
46
82
80
B8
C4
82
82
82
82
44
38
ENDCHAR
STARTCHAR 0037
ENCODING 55
SWIDTH 540 0
DWIDTH 9 0
BBX 7 12 1 0
BITMAP
FE
04
04
08
08
10
10
10
20
20
20
20
ENDCHAR
STARTCHAR 0038
ENCODING 56
SWIDTH 540 0
DWIDTH 9 0
BBX 7 12 1 0
BITMAP
38
44
82
82
44
38
44
82
82
82
44
38
ENDCHAR
STARTCHAR 0039
ENCODING 57
SWIDTH 540 0
DWIDTH 9 0
BBX 7 12 1 0
BITMAP
38
44
82
82
82
82
46
3A
02
82
44
78
ENDCHAR
STARTCHAR 003A
ENCODING 58
SWIDTH 300 0
DWIDTH 5 0
BBX 1 9 2 0
BITMAP
80
00
00
00
00
00
00
00
80
ENDCHAR
STARTCHAR 003B
ENCODING 59
SWIDTH 300 0
DWIDTH 5 0
BBX 1 11 2 -3
BITMAP
80
00
00
00
00
00
00
00
80
80
80
ENDCHAR
STARTCHAR 003C
ENCODING 60
SWIDTH 600 0
DWIDTH 10 0
BBX 8 9 1 2
BITMAP
01
06
18
60
80
60
18
06
01
ENDCHAR
STARTCHAR 003D
ENCODING 61
SWIDTH 600 0
DWIDTH 10 0
BBX 8 5 1 3
BITMAP
FF
00
00
00
FF
ENDCHAR
STARTCHAR 003E
ENCODING 62
SWIDTH 600 0
DWIDTH 10 0
BBX 8 9 1 2
BITMAP
80
60
18
06
01
06
18
60
80
ENDCHAR
STARTCHAR 003F
ENCODING 63
SWIDTH 540 0
DWIDTH 9 0
BBX 7 12 1 0
BITMAP
38
44
82
82
02
04
08
10
10
10
00
10
ENDCHAR
STARTCHAR 0040
ENCODING 64
SWIDTH 1020 0
DWIDTH 17 0
BBX 16 16 1 -4
BITMAP
07F0
180C
2002
4392
4471
4821
9021
9021
9041
9042
88C4
4778
4001
2002
180C
07F0
ENDCHAR
STARTCHAR 0041
ENCODING 65
SWIDTH 660 0
DWIDTH 11 0
BBX 11 12 0 0
BITMAP
0400
0A00
0A00
1100
1100
1100
2080
3F80
4040
4040
8020
8020
ENDCHAR
STARTCHAR 0042
ENCODING 66
SWIDTH 660 0
DWIDTH 11 0
BBX 9 12 1 0
BITMAP
FE00
8100
8080
8080
8100
FF00
8100
8080
8080
8080
8100
FE00
ENDCHAR
STARTCHAR 0043
ENCODING 67
SWIDTH 720 0
DWIDTH 12 0
BBX 10 12 1 0
BITMAP
1F00
2080
4040
8000
8000
8000
8000
8000
8000
4040
2080
1F00
ENDCHAR
STARTCHAR 0044
ENCODING 68
SWIDTH 720 0
DWIDTH 12 0
BBX 10 12 1 0
BITMAP
FE00
8100
8080
8040
8040
8040
8040
8040
8040
8080
8100
FE00
ENDCHAR
STARTCHAR 0045
ENCODING 69
SWIDTH 660 0
DWIDTH 11 0
BBX 9 12 1 0
BITMAP
FF80
8000
8000
8000
8000
FF00
8000
8000
8000
8000
8000
FF80
ENDCHAR
STARTCHAR 0046
ENCODING 70
SWIDTH 600 0
DWIDTH 10 0
BBX 8 12 1 0
BITMAP
FF
80
80
80
80
FE
80
80
80
80
80
80
ENDCHAR
STARTCHAR 0047
ENCODING 71
SWIDTH 720 0
DWIDTH 12 0
BBX 10 12 1 0
BITMAP
1E00
2100
4080
8000
8000
8000
87C0
8040
8040
4080
2100
1E00
ENDCHAR
STARTCHAR 0048
ENCODING 72
SWIDTH 660 0
DWIDTH 11 0
BBX 9 12 1 0
BITMAP
8080
8080
8080
8080
8080
FF80
8080
8080
8080
8080
8080
8080
ENDCHAR
STARTCHAR 0049
ENCODING 73
SWIDTH 300 0
DWIDTH 5 0
BBX 1 12 2 0
BITMAP
80
80
80
80
80
80
80
80
80
80
80
80
ENDCHAR
STARTCHAR 004A
ENCODING 74
SWIDTH 540 0
DWIDTH 9 0
BBX 7 12 1 0
BITMAP
02
02
02
02
02
02
02
02
82
82
44
78
ENDCHAR
STARTCHAR 004B
ENCODING 75
SWIDTH 660 0
DWIDTH 11 0
BBX 9 12 1 0
BITMAP
8080
8100
8200
8400
8800
9800
A400
C200
8200
8100
8100
8080
ENDCHAR
STARTCHAR 004C
ENCODING 76
SWIDTH 540 0
DWIDTH 9 0
BBX 7 12 1 0
BITMAP
80
80
80
80
80
80
80
80
80
80
80
FE
ENDCHAR
STARTCHAR 004D
ENCODING 77
SWIDTH 780 0
DWIDTH 13 0
BBX 11 12 1 0
BITMAP
8020
C060
C060
A0A0
A0A0
9120
9120
9220
8A20
8A20
8420
8420
ENDCHAR
STARTCHAR 004E
ENCODING 78
SWIDTH 660 0
DWIDTH 11 0
BBX 9 12 1 0
BITMAP
8080
C080
A080
A080
9080
8880
8880
8480
8280
8280
8180
8080
ENDCHAR
STARTCHAR 004F
ENCODING 79
SWIDTH 720 0
DWIDTH 12 0
BBX 10 12 1 0
BITMAP
1E00
2100
4080
8040
8040
8040
8040
8040
8040
4080
2100
1E00
ENDCHAR
STARTCHAR 0050
ENCODING 80
SWIDTH 660 0
DWIDTH 11 0
BBX 9 12 1 0
BITMAP
FE00
8100
8080
8080
8080
8100
FE00
8000
8000
8000
8000
8000
ENDCHAR
STARTCHAR 0051
ENCODING 81
SWIDTH 720 0
DWIDTH 12 0
BBX 10 12 1 0
BITMAP
1E00
2100
4080
8040
8040
8040
8040
8040
8040
46C0
2180
1EC0
ENDCHAR
STARTCHAR 0052
ENCODING 82
SWIDTH 660 0
DWIDTH 11 0
BBX 9 12 1 0
BITMAP
FE00
8100
8080
8080
8080
8100
FE00
8400
8200
8200
8100
8080
ENDCHAR
STARTCHAR 0053
ENCODING 83
SWIDTH 660 0
DWIDTH 11 0
BBX 9 12 1 0
BITMAP
3E00
4100
8080
8000
4000
3800
0700
0080
8080
8080
4100
3E00
ENDCHAR
STARTCHAR 0054
ENCODING 84
SWIDTH 540 0
DWIDTH 9 0
BBX 9 12 0 0
BITMAP
FF80
0800
0800
0800
0800
0800
0800
0800
0800
0800
0800
0800
ENDCHAR
STARTCHAR 0055
ENCODING 85
SWIDTH 660 0
DWIDTH 11 0
BBX 9 12 1 0
BITMAP
8080
8080
8080
8080
8080
8080
8080
8080
8080
8080
4100
3E00
ENDCHAR
STARTCHAR 0056
ENCODING 86
SWIDTH 660 0
DWIDTH 11 0
BBX 9 12 1 0
BITMAP
8080
8080
4100
4100
4100
2200
2200
2200
1400
1400
0800
0800
ENDCHAR
STARTCHAR 0057
ENCODING 87
SWIDTH 1020 0
DWIDTH 17 0
BBX 17 12 0 0
BITMAP
808080
814100
414100
414100
422200
222200
222200
241400
141400
141400
080800
080800
ENDCHAR
STARTCHAR 0058
ENCODING 88
SWIDTH 660 0
DWIDTH 11 0
BBX 11 12 0 0
BITMAP
4040
2080
1100
1100
0A00
0400
0A00
1100
1100
2080
4040
8020
ENDCHAR
STARTCHAR 0059
ENCODING 89
SWIDTH 660 0
DWIDTH 11 0
BBX 9 12 1 0
BITMAP
8080
4100
4100
2200
1400
1400
0800
0800
0800
0800
0800
0800
ENDCHAR
STARTCHAR 005A
ENCODING 90
SWIDTH 540 0
DWIDTH 9 0
BBX 9 12 0 0
BITMAP
7F80
0100
0200
0200
0400
0800
0800
1000
2000
2000
4000
FF80
ENDCHAR
STARTCHAR 005B
ENCODING 91
SWIDTH 300 0
DWIDTH 5 0
BBX 3 15 1 -3
BITMAP
E0
80
80
80
80
80
80
80
80
80
80
80
80
80
E0
ENDCHAR
STARTCHAR 005C
ENCODING 92
SWIDTH 300 0
DWIDTH 5 0
BBX 5 12 0 0
BITMAP
80
40
40
40
20
20
20
10
10
10
08
08
ENDCHAR
STARTCHAR 005D
ENCODING 93
SWIDTH 300 0
DWIDTH 5 0
BBX 3 15 1 -3
BITMAP
E0
20
20
20
20
20
20
20
20
20
20
20
20
20
E0
ENDCHAR
STARTCHAR 005E
ENCODING 94
SWIDTH 420 0
DWIDTH 7 0
BBX 7 7 0 5
BITMAP
10
28
28
44
44
44
82
ENDCHAR
STARTCHAR 005F
ENCODING 95
SWIDTH 540 0
DWIDTH 9 0
BBX 9 1 0 -3
BITMAP
FF80
ENDCHAR
STARTCHAR 0060
ENCODING 96
SWIDTH 360 0
DWIDTH 6 0
BBX 2 2 1 10
BITMAP
80
40
ENDCHAR
STARTCHAR 0061
ENCODING 97
SWIDTH 540 0
DWIDTH 9 0
BBX 7 9 1 0
BITMAP
3C
42
82
0E
72
82
82
86
7A
ENDCHAR
STARTCHAR 0062
ENCODING 98
SWIDTH 540 0
DWIDTH 9 0
BBX 7 12 1 0
BITMAP
80
80
80
B8
C4
82
82
82
82
82
C4
B8
ENDCHAR
STARTCHAR 0063
ENCODING 99
SWIDTH 540 0
DWIDTH 9 0
BBX 7 9 1 0
BITMAP
38
44
82
80
80
80
82
44
38
ENDCHAR
STARTCHAR 0064
ENCODING 100
SWIDTH 540 0
DWIDTH 9 0
BBX 7 12 1 0
BITMAP
02
02
02
3A
46
82
82
82
82
82
46
3A
ENDCHAR
STARTCHAR 0065
ENCODING 101
SWIDTH 540 0
DWIDTH 9 0
BBX 7 9 1 0
BITMAP
38
44
82
82
FE
80
82
44
38
ENDCHAR
STARTCHAR 0066
ENCODING 102
SWIDTH 300 0
DWIDTH 5 0
BBX 4 12 1 0
BITMAP
30
40
40
F0
40
40
40
40
40
40
40
40
ENDCHAR
STARTCHAR 0067
ENCODING 103
SWIDTH 540 0
DWIDTH 9 0
BBX 7 12 1 -3
BITMAP
3A
46
82
82
82
82
82
46
3A
02
84
78
ENDCHAR
STARTCHAR 0068
ENCODING 104
SWIDTH 540 0
DWIDTH 9 0
BBX 7 12 1 0
BITMAP
80
80
80
BC
C2
82
82
82
82
82
82
82
ENDCHAR
STARTCHAR 0069
ENCODING 105
SWIDTH 240 0
DWIDTH 4 0
BBX 1 12 1 0
BITMAP
80
00
00
80
80
80
80
80
80
80
80
80
ENDCHAR
STARTCHAR 006A
ENCODING 106
SWIDTH 180 0
DWIDTH 3 0
BBX 3 15 -1 -3
BITMAP
20
00
00
20
20
20
20
20
20
20
20
20
20
20
C0
ENDCHAR
STARTCHAR 006B
ENCODING 107
SWIDTH 480 0
DWIDTH 8 0
BBX 7 12 1 0
BITMAP
80
80
80
82
84
88
90
B0
C8
84
84
82
ENDCHAR
STARTCHAR 006C
ENCODING 108
SWIDTH 180 0
DWIDTH 3 0
BBX 1 12 1 0
BITMAP
80
80
80
80
80
80
80
80
80
80
80
80
ENDCHAR
STARTCHAR 006D
ENCODING 109
SWIDTH 780 0
DWIDTH 13 0
BBX 11 9 1 0
BITMAP
B9C0
C620
8420
8420
8420
8420
8420
8420
8420
ENDCHAR
STARTCHAR 006E
ENCODING 110
SWIDTH 540 0
DWIDTH 9 0
BBX 7 9 1 0
BITMAP
BC
C2
82
82
82
82
82
82
82
ENDCHAR
STARTCHAR 006F
ENCODING 111
SWIDTH 540 0
DWIDTH 9 0
BBX 7 9 1 0
BITMAP
38
44
82
82
82
82
82
44
38
ENDCHAR
STARTCHAR 0070
ENCODING 112
SWIDTH 540 0
DWIDTH 9 0
BBX 7 12 1 -3
BITMAP
B8
C4
82
82
82
82
82
C4
B8
80
80
80
ENDCHAR
STARTCHAR 0071
ENCODING 113
SWIDTH 540 0
DWIDTH 9 0
BBX 7 12 1 -3
BITMAP
3A
46
82
82
82
82
82
46
3A
02
02
02
ENDCHAR
STARTCHAR 0072
ENCODING 114
SWIDTH 360 0
DWIDTH 6 0
BBX 5 9 1 0
BITMAP
B8
C0
80
80
80
80
80
80
80
ENDCHAR
STARTCHAR 0073
ENCODING 115
SWIDTH 480 0
DWIDTH 8 0
BBX 6 9 1 0
BITMAP
78
84
80
80
78
04
04
84
78
ENDCHAR
STARTCHAR 0074
ENCODING 116
SWIDTH 240 0
DWIDTH 4 0
BBX 4 12 0 0
BITMAP
40
40
40
F0
40
40
40
40
40
40
40
70
ENDCHAR
STARTCHAR 0075
ENCODING 117
SWIDTH 540 0
DWIDTH 9 0
BBX 7 9 1 0
BITMAP
82
82
82
82
82
82
82
86
7A
ENDCHAR
STARTCHAR 0076
ENCODING 118
SWIDTH 420 0
DWIDTH 7 0
BBX 7 9 0 0
BITMAP
82
82
44
44
44
28
28
10
10
ENDCHAR
STARTCHAR 0077
ENCODING 119
SWIDTH 660 0
DWIDTH 11 0
BBX 11 9 0 0
BITMAP
8420
8420
4A40
4A40
5140
5140
5140
2080
2080
ENDCHAR
STARTCHAR 0078
ENCODING 120
SWIDTH 420 0
DWIDTH 7 0
BBX 7 9 0 0
BITMAP
82
44
28
28
10
28
28
44
82
ENDCHAR
STARTCHAR 0079
ENCODING 121
SWIDTH 540 0
DWIDTH 9 0
BBX 7 12 1 -3
BITMAP
82
82
82
44
44
44
28
28
10
10
20
C0
ENDCHAR
STARTCHAR 007A
ENCODING 122
SWIDTH 480 0
DWIDTH 8 0
BBX 7 9 0 0
BITMAP
FE
04
08
08
10
20
40
40
FE
ENDCHAR
STARTCHAR 007B
ENCODING 123
SWIDTH 360 0
DWIDTH 6 0
BBX 5 15 1 -3
BITMAP
18
20
20
20
20
20
20
C0
20
20
20
20
20
20
18
ENDCHAR
STARTCHAR 007C
ENCODING 124
SWIDTH 300 0
DWIDTH 5 0
BBX 1 16 2 -4
BITMAP
80
80
80
80
80
80
80
80
80
80
80
80
80
80
80
80
ENDCHAR
STARTCHAR 007D
ENCODING 125
SWIDTH 360 0
DWIDTH 6 0
BBX 5 15 0 -3
BITMAP
C0
20
20
20
20
20
20
18
20
20
20
20
20
20
C0
ENDCHAR
STARTCHAR 007E
ENCODING 126
SWIDTH 600 0
DWIDTH 10 0
BBX 9 2 0 5
BITMAP
7880
8F00
ENDCHAR
STARTCHAR 00A0
ENCODING 160
SWIDTH 300 0
DWIDTH 5 0
BBX 0 0 0 0
BITMAP
ENDCHAR
STARTCHAR 00A1
ENCODING 161
SWIDTH 300 0
DWIDTH 5 0
BBX 1 12 2 -3
BITMAP
80
00
80
80
80
80
80
80
80
80
80
80
ENDCHAR
STARTCHAR 00A2
ENCODING 162
SWIDTH 540 0
DWIDTH 9 0
BBX 7 15 1 -3
BITMAP
04
04
04
3C
4E
8A
90
90
90
A2
64
78
20
40
40
ENDCHAR
STARTCHAR 00A3
ENCODING 163
SWIDTH 540 0
DWIDTH 9 0
BBX 8 12 0 0
BITMAP
3C
62
41
40
40
F8
20
20
20
40
F1
8E
ENDCHAR
STARTCHAR 00A4
ENCODING 164
SWIDTH 540 0
DWIDTH 9 0
BBX 7 7 1 2
BITMAP
BA
44
82
82
82
44
BA
ENDCHAR
STARTCHAR 00A5
ENCODING 165
SWIDTH 540 0
DWIDTH 9 0
BBX 9 12 0 0
BITMAP
8080
4100
2200
2200
1400
1400
FF80
0800
FF80
0800
0800
0800
ENDCHAR
STARTCHAR 00A6
ENCODING 166
SWIDTH 300 0
DWIDTH 5 0
BBX 1 16 2 -4
BITMAP
80
80
80
80
80
80
00
00
00
80
80
80
80
80
80
80
ENDCHAR
STARTCHAR 00A7
ENCODING 167
SWIDTH 540 0
DWIDTH 9 0
BBX 8 15 0 -3
BITMAP
3C
42
42
60
30
4C
82
81
41
32
0C
06
82
42
3C
ENDCHAR
STARTCHAR 00A8
ENCODING 168
SWIDTH 360 0
DWIDTH 6 0
BBX 3 1 2 11
BITMAP
A0
ENDCHAR
STARTCHAR 00A9
ENCODING 169
SWIDTH 780 0
DWIDTH 13 0
BBX 13 12 0 0
BITMAP
1FC0
2020
4F90
9048
9008
9008
9008
9048
8F88
4010
2020
1FC0
ENDCHAR
STARTCHAR 00AA
ENCODING 170
SWIDTH 300 0
DWIDTH 5 0
BBX 5 6 0 6
BITMAP
70
88
38
C8
88
78
ENDCHAR
STARTCHAR 00AB
ENCODING 171
SWIDTH 540 0
DWIDTH 9 0
BBX 6 8 1 1
BITMAP
24
48
48
90
90
48
48
24
ENDCHAR
STARTCHAR 00AC
ENCODING 172
SWIDTH 600 0
DWIDTH 10 0
BBX 8 5 1 4
BITMAP
FF
01
01
01
01
ENDCHAR
STARTCHAR 00AD
ENCODING 173
SWIDTH 360 0
DWIDTH 6 0
BBX 5 1 0 4
BITMAP
F8
ENDCHAR
STARTCHAR 00AE
ENCODING 174
SWIDTH 780 0
DWIDTH 13 0
BBX 13 12 0 0
BITMAP
1FC0
2020
4F90
8848
8848
8F88
8908
8888
8848
4010
2020
1FC0
ENDCHAR
STARTCHAR 00AF
ENCODING 175
SWIDTH 540 0
DWIDTH 9 0
BBX 10 1 -1 13
BITMAP
FFC0
ENDCHAR
STARTCHAR 00B0
ENCODING 176
SWIDTH 420 0
DWIDTH 7 0
BBX 5 5 1 7
BITMAP
70
88
88
88
70
ENDCHAR
STARTCHAR 00B1
ENCODING 177
SWIDTH 540 0
DWIDTH 9 0
BBX 7 10 1 0
BITMAP
10
10
10
FE
10
10
10
00
00
FE
ENDCHAR
STARTCHAR 00B2
ENCODING 178
SWIDTH 360 0
DWIDTH 6 0
BBX 5 6 0 6
BITMAP
70
88
08
30
40
F8
ENDCHAR
STARTCHAR 00B3
ENCODING 179
SWIDTH 360 0
DWIDTH 6 0
BBX 5 6 0 6
BITMAP
78
88
30
08
88
70
ENDCHAR
STARTCHAR 00B4
ENCODING 180
SWIDTH 360 0
DWIDTH 6 0
BBX 2 2 2 10
BITMAP
40
80
ENDCHAR
STARTCHAR 00B5
ENCODING 181
SWIDTH 540 0
DWIDTH 9 0
BBX 7 12 1 -3
BITMAP
82
82
82
82
82
82
82
C6
BA
80
80
80
ENDCHAR
STARTCHAR 00B6
ENCODING 182
SWIDTH 540 0
DWIDTH 9 0
BBX 9 16 0 -4
BITMAP
3F80
7900
F900
F900
F900
7900
3900
0900
0900
0900
0900
0900
0900
0900
0900
0900
ENDCHAR
STARTCHAR 00B7
ENCODING 183
SWIDTH 360 0
DWIDTH 6 0
BBX 1 1 2 5
BITMAP
80
ENDCHAR
STARTCHAR 00B8
ENCODING 184
SWIDTH 360 0
DWIDTH 6 0
BBX 3 4 1 -4
BITMAP
40
60
20
C0
ENDCHAR
STARTCHAR 00B9
ENCODING 185
SWIDTH 360 0
DWIDTH 6 0
BBX 3 6 1 6
BITMAP
20
60
A0
20
20
20
ENDCHAR
STARTCHAR 00BA
ENCODING 186
SWIDTH 300 0
DWIDTH 5 0
BBX 5 6 0 6
BITMAP
70
88
88
88
88
70
ENDCHAR
STARTCHAR 00BB
ENCODING 187
SWIDTH 540 0
DWIDTH 9 0
BBX 6 8 2 1
BITMAP
90
48
48
24
24
48
48
90
ENDCHAR
STARTCHAR 00BC
ENCODING 188
SWIDTH 840 0
DWIDTH 14 0
BBX 13 12 1 0
BITMAP
2020
6040
A080
2080
2100
2200
0410
0430
0850
1090
20F8
2010
ENDCHAR
STARTCHAR 00BD
ENCODING 189
SWIDTH 840 0
DWIDTH 14 0
BBX 13 12 1 0
BITMAP
2040
6040
A080
2100
2200
2200
0470
0888
1008
1030
2040
40F8
ENDCHAR
STARTCHAR 00BE
ENCODING 190
SWIDTH 840 0
DWIDTH 14 0
BBX 14 12 0 0
BITMAP
7810
8820
1040
0880
8880
7100
0208
0418
0428
0848
107C
2008
ENDCHAR
STARTCHAR 00BF
ENCODING 191
SWIDTH 600 0
DWIDTH 10 0
BBX 8 12 1 -3
BITMAP
10
00
10
10
10
20
40
80
81
81
42
3C
ENDCHAR
STARTCHAR 00C0
ENCODING 192
SWIDTH 660 0
DWIDTH 11 0
BBX 11 15 0 0
BITMAP
0800
0400
0000
0400
0A00
0A00
1100
1100
1100
2080
3F80
4040
4040
8020
8020
ENDCHAR
STARTCHAR 00C1
ENCODING 193
SWIDTH 660 0
DWIDTH 11 0
BBX 11 15 0 0
BITMAP
0200
0400
0000
0400
0A00
0A00
1100
1100
1100
2080
3F80
4040
4040
8020
8020
ENDCHAR
STARTCHAR 00C2
ENCODING 194
SWIDTH 660 0
DWIDTH 11 0
BBX 11 15 0 0
BITMAP
0600
0900
0000
0400
0A00
0A00
1100
1100
1100
2080
3F80
4040
4040
8020
8020
ENDCHAR
STARTCHAR 00C3
ENCODING 195
SWIDTH 660 0
DWIDTH 11 0
BBX 11 15 0 0
BITMAP
0500
0A00
0000
0400
0A00
0A00
1100
1100
1100
2080
3F80
4040
4040
8020
8020
ENDCHAR
STARTCHAR 00C4
ENCODING 196
SWIDTH 660 0
DWIDTH 11 0
BBX 11 14 0 0
BITMAP
0A00
0000
0400
0A00
0A00
1100
1100
1100
2080
3F80
4040
4040
8020
8020
ENDCHAR
STARTCHAR 00C5
ENCODING 197
SWIDTH 660 0
DWIDTH 11 0
BBX 11 14 0 0
BITMAP
0E00
0A00
0E00
0A00
0A00
1100
1100
1100
2080
3F80
4040
4040
8020
8020
ENDCHAR
STARTCHAR 00C6
ENCODING 198
SWIDTH 1020 0
DWIDTH 17 0
BBX 16 12 0 0
BITMAP
07FF
0480
0880
0880
1080
10FF
2080
3F80
4080
4080
8080
80FF
ENDCHAR
STARTCHAR 00C7
ENCODING 199
SWIDTH 720 0
DWIDTH 12 0
BBX 10 16 1 -4
BITMAP
1F00
2080
4040
8000
8000
8000
8000
8000
8000
4040
2080
1F00
0400
0600
0200
0C00
ENDCHAR
STARTCHAR 00C8
ENCODING 200
SWIDTH 660 0
DWIDTH 11 0
BBX 9 15 1 0
BITMAP
0800
0400
0000
FF80
8000
8000
8000
8000
FF00
8000
8000
8000
8000
8000
FF80
ENDCHAR
STARTCHAR 00C9
ENCODING 201
SWIDTH 660 0
DWIDTH 11 0
BBX 9 15 1 0
BITMAP
0400
0800
0000
FF80
8000
8000
8000
8000
FF00
8000
8000
8000
8000
8000
FF80
ENDCHAR
STARTCHAR 00CA
ENCODING 202
SWIDTH 660 0
DWIDTH 11 0
BBX 9 15 1 0
BITMAP
0C00
1200
0000
FF80
8000
8000
8000
8000
FF00
8000
8000
8000
8000
8000
FF80
ENDCHAR
STARTCHAR 00CB
ENCODING 203
SWIDTH 660 0
DWIDTH 11 0
BBX 9 14 1 0
BITMAP
1400
0000
FF80
8000
8000
8000
8000
FF00
8000
8000
8000
8000
8000
FF80
ENDCHAR
STARTCHAR 00CC
ENCODING 204
SWIDTH 300 0
DWIDTH 5 0
BBX 2 15 1 0
BITMAP
80
40
00
40
40
40
40
40
40
40
40
40
40
40
40
ENDCHAR
STARTCHAR 00CD
ENCODING 205
SWIDTH 300 0
DWIDTH 5 0
BBX 2 15 2 0
BITMAP
40
80
00
80
80
80
80
80
80
80
80
80
80
80
80
ENDCHAR
STARTCHAR 00CE
ENCODING 206
SWIDTH 300 0
DWIDTH 5 0
BBX 4 15 1 0
BITMAP
60
90
00
40
40
40
40
40
40
40
40
40
40
40
40
ENDCHAR
STARTCHAR 00CF
ENCODING 207
SWIDTH 300 0
DWIDTH 5 0
BBX 3 14 1 0
BITMAP
A0
00
40
40
40
40
40
40
40
40
40
40
40
40
ENDCHAR
STARTCHAR 00D0
ENCODING 208
SWIDTH 720 0
DWIDTH 12 0
BBX 11 12 0 0
BITMAP
7F00
4080
4040
4020
4020
FC20
4020
4020
4020
4040
4080
7F00
ENDCHAR
STARTCHAR 00D1
ENCODING 209
SWIDTH 660 0
DWIDTH 11 0
BBX 9 15 1 0
BITMAP
0A00
1400
0000
8080
C080
A080
A080
9080
8880
8880
8480
8280
8280
8180
8080
ENDCHAR
STARTCHAR 00D2
ENCODING 210
SWIDTH 720 0
DWIDTH 12 0
BBX 10 15 1 0
BITMAP
0800
0400
0000
1E00
2100
4080
8040
8040
8040
8040
8040
8040
4080
2100
1E00
ENDCHAR
STARTCHAR 00D3
ENCODING 211
SWIDTH 720 0
DWIDTH 12 0
BBX 10 15 1 0
BITMAP
0400
0800
0000
1E00
2100
4080
8040
8040
8040
8040
8040
8040
4080
2100
1E00
ENDCHAR
STARTCHAR 00D4
ENCODING 212
SWIDTH 720 0
DWIDTH 12 0
BBX 10 15 1 0
BITMAP
0C00
1200
0000
1E00
2100
4080
8040
8040
8040
8040
8040
8040
4080
2100
1E00
ENDCHAR
STARTCHAR 00D5
ENCODING 213
SWIDTH 720 0
DWIDTH 12 0
BBX 10 15 1 0
BITMAP
0A00
1400
0000
1E00
2100
4080
8040
8040
8040
8040
8040
8040
4080
2100
1E00
ENDCHAR
STARTCHAR 00D6
ENCODING 214
SWIDTH 720 0
DWIDTH 12 0
BBX 10 14 1 0
BITMAP
0A00
0000
1E00
2100
4080
8040
8040
8040
8040
8040
8040
4080
2100
1E00
ENDCHAR
STARTCHAR 00D7
ENCODING 215
SWIDTH 600 0
DWIDTH 10 0
BBX 7 7 1 2
BITMAP
82
44
38
10
38
44
82
ENDCHAR
STARTCHAR 00D8
ENCODING 216
SWIDTH 780 0
DWIDTH 13 0
BBX 11 12 1 0
BITMAP
1F20
20C0
40C0
8120
8220
8420
8820
8820
9040
6040
6080
9F00
ENDCHAR
STARTCHAR 00D9
ENCODING 217
SWIDTH 660 0
DWIDTH 11 0
BBX 9 15 1 0
BITMAP
1000
0800
0000
8080
8080
8080
8080
8080
8080
8080
8080
8080
8080
4100
3E00
ENDCHAR
STARTCHAR 00DA
ENCODING 218
SWIDTH 660 0
DWIDTH 11 0
BBX 9 15 1 0
BITMAP
0400
0800
0000
8080
8080
8080
8080
8080
8080
8080
8080
8080
8080
4100
3E00
ENDCHAR
STARTCHAR 00DB
ENCODING 219
SWIDTH 660 0
DWIDTH 11 0
BBX 9 15 1 0
BITMAP
0C00
1200
0000
8080
8080
8080
8080
8080
8080
8080
8080
8080
8080
4100
3E00
ENDCHAR
STARTCHAR 00DC
ENCODING 220
SWIDTH 660 0
DWIDTH 11 0
BBX 9 14 1 0
BITMAP
1400
0000
8080
8080
8080
8080
8080
8080
8080
8080
8080
8080
4100
3E00
ENDCHAR
STARTCHAR 00DD
ENCODING 221
SWIDTH 660 0
DWIDTH 11 0
BBX 9 15 1 0
BITMAP
0400
0800
0000
8080
4100
4100
2200
1400
1400
0800
0800
0800
0800
0800
0800
ENDCHAR
STARTCHAR 00DE
ENCODING 222
SWIDTH 660 0
DWIDTH 11 0
BBX 9 12 1 0
BITMAP
8000
8000
FE00
8100
8080
8080
8080
8080
8100
FE00
8000
8000
ENDCHAR
STARTCHAR 00DF
ENCODING 223
SWIDTH 600 0
DWIDTH 10 0
BBX 8 12 1 0
BITMAP
38
44
84
84
88
88
84
82
81
81
91
8E
ENDCHAR
STARTCHAR 00E0
ENCODING 224
SWIDTH 540 0
DWIDTH 9 0
BBX 7 12 1 0
BITMAP
10
08
00
3C
42
82
0E
72
82
82
86
7A
ENDCHAR
STARTCHAR 00E1
ENCODING 225
SWIDTH 540 0
DWIDTH 9 0
BBX 7 12 1 0
BITMAP
08
10
00
3C
42
82
0E
72
82
82
86
7A
ENDCHAR
STARTCHAR 00E2
ENCODING 226
SWIDTH 540 0
DWIDTH 9 0
BBX 7 12 1 0
BITMAP
18
24
00
3C
42
82
0E
72
82
82
86
7A
ENDCHAR
STARTCHAR 00E3
ENCODING 227
SWIDTH 540 0
DWIDTH 9 0
BBX 7 12 1 0
BITMAP
14
28
00
3C
42
82
0E
72
82
82
86
7A
ENDCHAR
STARTCHAR 00E4
ENCODING 228
SWIDTH 540 0
DWIDTH 9 0
BBX 7 11 1 0
BITMAP
28
00
3C
42
82
0E
72
82
82
86
7A
ENDCHAR
STARTCHAR 00E5
ENCODING 229
SWIDTH 540 0
DWIDTH 9 0
BBX 7 13 1 0
BITMAP
38
28
38
00
3C
42
82
0E
72
82
82
86
7A
ENDCHAR
STARTCHAR 00E6
ENCODING 230
SWIDTH 900 0
DWIDTH 15 0
BBX 13 9 1 0
BITMAP
3DE0
4310
8208
0E08
73F8
8200
8208
8710
79E0
ENDCHAR
STARTCHAR 00E7
ENCODING 231
SWIDTH 540 0
DWIDTH 9 0
BBX 7 13 1 -4
BITMAP
38
44
82
80
80
80
82
44
38
10
18
08
30
ENDCHAR
STARTCHAR 00E8
ENCODING 232
SWIDTH 540 0
DWIDTH 9 0
BBX 7 12 1 0
BITMAP
10
08
00
38
44
82
82
FE
80
82
44
38
ENDCHAR
STARTCHAR 00E9
ENCODING 233
SWIDTH 540 0
DWIDTH 9 0
BBX 7 12 1 0
BITMAP
08
10
00
38
44
82
82
FE
80
82
44
38
ENDCHAR
STARTCHAR 00EA
ENCODING 234
SWIDTH 540 0
DWIDTH 9 0
BBX 7 12 1 0
BITMAP
18
24
00
38
44
82
82
FE
80
82
44
38
ENDCHAR
STARTCHAR 00EB
ENCODING 235
SWIDTH 540 0
DWIDTH 9 0
BBX 7 11 1 0
BITMAP
28
00
38
44
82
82
FE
80
82
44
38
ENDCHAR
STARTCHAR 00EC
ENCODING 236
SWIDTH 300 0
DWIDTH 5 0
BBX 2 12 1 0
BITMAP
80
40
00
40
40
40
40
40
40
40
40
40
ENDCHAR
STARTCHAR 00ED
ENCODING 237
SWIDTH 300 0
DWIDTH 5 0
BBX 2 12 2 0
BITMAP
40
80
00
80
80
80
80
80
80
80
80
80
ENDCHAR
STARTCHAR 00EE
ENCODING 238
SWIDTH 300 0
DWIDTH 5 0
BBX 4 12 1 0
BITMAP
60
90
00
40
40
40
40
40
40
40
40
40
ENDCHAR
STARTCHAR 00EF
ENCODING 239
SWIDTH 300 0
DWIDTH 5 0
BBX 3 11 1 0
BITMAP
A0
00
40
40
40
40
40
40
40
40
40
ENDCHAR
STARTCHAR 00F0
ENCODING 240
SWIDTH 540 0
DWIDTH 9 0
BBX 7 12 1 0
BITMAP
34
18
6C
3C
44
82
82
82
82
82
44
38
ENDCHAR
STARTCHAR 00F1
ENCODING 241
SWIDTH 540 0
DWIDTH 9 0
BBX 7 12 1 0
BITMAP
14
28
00
BC
C2
82
82
82
82
82
82
82
ENDCHAR
STARTCHAR 00F2
ENCODING 242
SWIDTH 540 0
DWIDTH 9 0
BBX 7 12 1 0
BITMAP
10
08
00
38
44
82
82
82
82
82
44
38
ENDCHAR
STARTCHAR 00F3
ENCODING 243
SWIDTH 540 0
DWIDTH 9 0
BBX 7 12 1 0
BITMAP
08
10
00
38
44
82
82
82
82
82
44
38
ENDCHAR
STARTCHAR 00F4
ENCODING 244
SWIDTH 540 0
DWIDTH 9 0
BBX 7 12 1 0
BITMAP
18
24
00
38
44
82
82
82
82
82
44
38
ENDCHAR
STARTCHAR 00F5
ENCODING 245
SWIDTH 540 0
DWIDTH 9 0
BBX 7 12 1 0
BITMAP
14
28
00
38
44
82
82
82
82
82
44
38
ENDCHAR
STARTCHAR 00F6
ENCODING 246
SWIDTH 540 0
DWIDTH 9 0
BBX 7 11 1 0
BITMAP
28
00
38
44
82
82
82
82
82
44
38
ENDCHAR
STARTCHAR 00F7
ENCODING 247
SWIDTH 540 0
DWIDTH 9 0
BBX 7 5 1 4
BITMAP
10
00
FE
00
10
ENDCHAR
STARTCHAR 00F8
ENCODING 248
SWIDTH 540 0
DWIDTH 9 0
BBX 7 9 1 0
BITMAP
3A
44
86
8A
92
A2
C2
44
B8
ENDCHAR
STARTCHAR 00F9
ENCODING 249
SWIDTH 540 0
DWIDTH 9 0
BBX 7 12 1 0
BITMAP
20
10
00
82
82
82
82
82
82
82
86
7A
ENDCHAR
STARTCHAR 00FA
ENCODING 250
SWIDTH 540 0
DWIDTH 9 0
BBX 7 12 1 0
BITMAP
08
10
00
82
82
82
82
82
82
82
86
7A
ENDCHAR
STARTCHAR 00FB
ENCODING 251
SWIDTH 540 0
DWIDTH 9 0
BBX 7 12 1 0
BITMAP
18
24
00
82
82
82
82
82
82
82
86
7A
ENDCHAR
STARTCHAR 00FC
ENCODING 252
SWIDTH 540 0
DWIDTH 9 0
BBX 7 11 1 0
BITMAP
28
00
82
82
82
82
82
82
82
86
7A
ENDCHAR
STARTCHAR 00FD
ENCODING 253
SWIDTH 540 0
DWIDTH 9 0
BBX 7 15 1 -3
BITMAP
08
10
00
82
82
82
44
44
44
28
28
10
10
20
C0
ENDCHAR
STARTCHAR 00FE
ENCODING 254
SWIDTH 540 0
DWIDTH 9 0
BBX 7 15 1 -3
BITMAP
80
80
80
B8
C4
82
82
82
82
82
C4
B8
80
80
80
ENDCHAR
STARTCHAR 00FF
ENCODING 255
SWIDTH 540 0
DWIDTH 9 0
BBX 7 14 1 -3
BITMAP
28
00
82
82
82
44
44
44
28
28
10
10
20
C0
ENDCHAR
STARTCHAR 0100
ENCODING 256
SWIDTH 660 0
DWIDTH 11 0
BBX 11 14 0 0
BITMAP
1F00
0000
0400
0A00
0A00
1100
1100
1100
2080
3F80
4040
4040
8020
8020
ENDCHAR
STARTCHAR 0101
ENCODING 257
SWIDTH 540 0
DWIDTH 9 0
BBX 7 11 1 0
BITMAP
3E
00
3C
42
82
0E
72
82
82
86
7A
ENDCHAR
STARTCHAR 0102
ENCODING 258
SWIDTH 660 0
DWIDTH 11 0
BBX 11 15 0 0
BITMAP
1100
0E00
0000
0400
0A00
0A00
1100
1100
1100
2080
3F80
4040
4040
8020
8020
ENDCHAR
STARTCHAR 0103
ENCODING 259
SWIDTH 540 0
DWIDTH 9 0
BBX 7 12 1 0
BITMAP
44
38
00
3C
42
82
0E
72
82
82
86
7A
ENDCHAR
STARTCHAR 0104
ENCODING 260
SWIDTH 660 0
DWIDTH 11 0
BBX 12 15 0 -3
BITMAP
0400
0A00
0A00
1100
1100
1100
2080
3F80
4040
4040
8020
8020
0040
0040
0070
ENDCHAR
STARTCHAR 0105
ENCODING 261
SWIDTH 540 0
DWIDTH 9 0
BBX 8 12 1 -3
BITMAP
3C
42
82
0E
72
82
82
86
7A
04
04
07
ENDCHAR
STARTCHAR 0106
ENCODING 262
SWIDTH 720 0
DWIDTH 12 0
BBX 10 15 1 0
BITMAP
0200
0400
0000
1F00
2080
4040
8000
8000
8000
8000
8000
8000
4040
2080
1F00
ENDCHAR
STARTCHAR 0107
ENCODING 263
SWIDTH 540 0
DWIDTH 9 0
BBX 7 12 1 0
BITMAP
08
10
00
38
44
82
80
80
80
82
44
38
ENDCHAR
STARTCHAR 0108
ENCODING 264
SWIDTH 720 0
DWIDTH 12 0
BBX 10 15 1 0
BITMAP
0C00
1200
0000
1F00
2080
4040
8000
8000
8000
8000
8000
8000
4040
2080
1F00
ENDCHAR
STARTCHAR 0109
ENCODING 265
SWIDTH 540 0
DWIDTH 9 0
BBX 7 12 1 0
BITMAP
18
24
00
38
44
82
80
80
80
82
44
38
ENDCHAR
STARTCHAR 010A
ENCODING 266
SWIDTH 720 0
DWIDTH 12 0
BBX 10 14 1 0
BITMAP
0400
0000
1F00
2080
4040
8000
8000
8000
8000
8000
8000
4040
2080
1F00
ENDCHAR
STARTCHAR 010B
ENCODING 267
SWIDTH 540 0
DWIDTH 9 0
BBX 7 11 1 0
BITMAP
10
00
38
44
82
80
80
80
82
44
38
ENDCHAR
STARTCHAR 010C
ENCODING 268
SWIDTH 720 0
DWIDTH 12 0
BBX 10 15 1 0
BITMAP
1200
0C00
0000
1F00
2080
4040
8000
8000
8000
8000
8000
8000
4040
2080
1F00
ENDCHAR
STARTCHAR 010D
ENCODING 269
SWIDTH 540 0
DWIDTH 9 0
BBX 7 12 1 0
BITMAP
24
18
00
38
44
82
80
80
80
82
44
38
ENDCHAR
STARTCHAR 010E
ENCODING 270
SWIDTH 720 0
DWIDTH 12 0
BBX 10 15 1 0
BITMAP
2400
1800
0000
FE00
8100
8080
8040
8040
8040
8040
8040
8040
8080
8100
FE00
ENDCHAR
STARTCHAR 010F
ENCODING 271
SWIDTH 600 0
DWIDTH 10 0
BBX 9 12 1 0
BITMAP
0280
0280
0280
3A80
4600
8200
8200
8200
8200
8200
4600
3A00
ENDCHAR
STARTCHAR 0110
ENCODING 272
SWIDTH 720 0
DWIDTH 12 0
BBX 11 12 0 0
BITMAP
7F00
4080
4040
4020
4020
4020
FC20
4020
4020
4040
4080
7F00
ENDCHAR
STARTCHAR 0111
ENCODING 273
SWIDTH 600 0
DWIDTH 10 0
BBX 8 12 1 0
BITMAP
02
3F
02
3A
46
82
82
82
82
82
46
3A
ENDCHAR
STARTCHAR 0112
ENCODING 274
SWIDTH 660 0
DWIDTH 11 0
BBX 9 14 1 0
BITMAP
3E00
0000
FF80
8000
8000
8000
8000
FF00
8000
8000
8000
8000
8000
FF80
ENDCHAR
STARTCHAR 0113
ENCODING 275
SWIDTH 540 0
DWIDTH 9 0
BBX 7 11 1 0
BITMAP
7C
00
38
44
82
82
FE
80
82
44
38
ENDCHAR
STARTCHAR 0114
ENCODING 276
SWIDTH 660 0
DWIDTH 11 0
BBX 9 15 1 0
BITMAP
2200
1C00
0000
FF80
8000
8000
8000
8000
FF00
8000
8000
8000
8000
8000
FF80
ENDCHAR
STARTCHAR 0115
ENCODING 277
SWIDTH 540 0
DWIDTH 9 0
BBX 7 12 1 0
BITMAP
44
38
00
38
44
82
82
FE
80
82
44
38
ENDCHAR
STARTCHAR 0116
ENCODING 278
SWIDTH 660 0
DWIDTH 11 0
BBX 9 14 1 0
BITMAP
0800
0000
FF80
8000
8000
8000
8000
FF00
8000
8000
8000
8000
8000
FF80
ENDCHAR
STARTCHAR 0117
ENCODING 279
SWIDTH 540 0
DWIDTH 9 0
BBX 7 11 1 0
BITMAP
10
00
38
44
82
82
FE
80
82
44
38
ENDCHAR
STARTCHAR 0118
ENCODING 280
SWIDTH 660 0
DWIDTH 11 0
BBX 9 15 1 -3
BITMAP
FF80
8000
8000
8000
8000
FF00
8000
8000
8000
8000
8000
FF80
0200
0200
0380
ENDCHAR
STARTCHAR 0119
ENCODING 281
SWIDTH 540 0
DWIDTH 9 0
BBX 7 12 1 -3
BITMAP
38
44
82
82
FE
80
82
44
38
10
10
1C
ENDCHAR
STARTCHAR 011A
ENCODING 282
SWIDTH 660 0
DWIDTH 11 0
BBX 9 15 1 0
BITMAP
1200
0C00
0000
FF80
8000
8000
8000
8000
FF00
8000
8000
8000
8000
8000
FF80
ENDCHAR
STARTCHAR 011B
ENCODING 283
SWIDTH 540 0
DWIDTH 9 0
BBX 7 12 1 0
BITMAP
24
18
00
38
44
82
82
FE
80
82
44
38
ENDCHAR
STARTCHAR 011C
ENCODING 284
SWIDTH 720 0
DWIDTH 12 0
BBX 10 15 1 0
BITMAP
0C00
1200
0000
1E00
2100
4080
8000
8000
8000
87C0
8040
8040
4080
2100
1E00
ENDCHAR
STARTCHAR 011D
ENCODING 285
SWIDTH 540 0
DWIDTH 9 0
BBX 7 15 1 -3
BITMAP
18
24
00
3A
46
82
82
82
82
82
46
3A
02
84
78
ENDCHAR
STARTCHAR 011E
ENCODING 286
SWIDTH 720 0
DWIDTH 12 0
BBX 10 15 1 0
BITMAP
1100
0E00
0000
1E00
2100
4080
8000
8000
8000
87C0
8040
8040
4080
2100
1E00
ENDCHAR
STARTCHAR 011F
ENCODING 287
SWIDTH 540 0
DWIDTH 9 0
BBX 7 15 1 -3
BITMAP
44
38
00
3A
46
82
82
82
82
82
46
3A
02
84
78
ENDCHAR
STARTCHAR 0120
ENCODING 288
SWIDTH 720 0
DWIDTH 12 0
BBX 10 14 1 0
BITMAP
0400
0000
1E00
2100
4080
8000
8000
8000
87C0
8040
8040
4080
2100
1E00
ENDCHAR
STARTCHAR 0121
ENCODING 289
SWIDTH 540 0
DWIDTH 9 0
BBX 7 14 1 -3
BITMAP
10
00
3A
46
82
82
82
82
82
46
3A
02
84
78
ENDCHAR
STARTCHAR 0122
ENCODING 290
SWIDTH 720 0
DWIDTH 12 0
BBX 10 16 1 -4
BITMAP
1E00
2100
4080
8000
8000
8000
87C0
8040
8040
4080
2100
1E00
0000
0400
0400
0400
ENDCHAR
STARTCHAR 0123
ENCODING 291
SWIDTH 540 0
DWIDTH 9 0
BBX 7 16 1 -3
BITMAP
08
10
10
00
3A
46
82
82
82
82
82
46
3A
02
84
78
ENDCHAR
STARTCHAR 0124
ENCODING 292
SWIDTH 660 0
DWIDTH 11 0
BBX 9 15 1 0
BITMAP
0C00
1200
0000
8080
8080
8080
8080
8080
FF80
8080
8080
8080
8080
8080
8080
ENDCHAR
STARTCHAR 0125
ENCODING 293
SWIDTH 540 0
DWIDTH 9 0
BBX 7 15 1 0
BITMAP
18
24
00
80
80
80
BC
C2
82
82
82
82
82
82
82
ENDCHAR
STARTCHAR 0126
ENCODING 294
SWIDTH 660 0
DWIDTH 11 0
BBX 11 12 0 0
BITMAP
4040
4040
FFE0
4040
4040
7FC0
4040
4040
4040
4040
4040
4040
ENDCHAR
STARTCHAR 0127
ENCODING 295
SWIDTH 540 0
DWIDTH 9 0
BBX 8 12 0 0
BITMAP
40
FC
40
5E
61
41
41
41
41
41
41
41
ENDCHAR
STARTCHAR 0128
ENCODING 296
SWIDTH 300 0
DWIDTH 5 0
BBX 4 15 0 0
BITMAP
50
A0
00
20
20
20
20
20
20
20
20
20
20
20
20
ENDCHAR
STARTCHAR 0129
ENCODING 297
SWIDTH 300 0
DWIDTH 5 0
BBX 4 12 1 0
BITMAP
50
A0
00
40
40
40
40
40
40
40
40
40
ENDCHAR
STARTCHAR 012A
ENCODING 298
SWIDTH 300 0
DWIDTH 5 0
BBX 5 14 0 0
BITMAP
F8
00
20
20
20
20
20
20
20
20
20
20
20
20
ENDCHAR
STARTCHAR 012B
ENCODING 299
SWIDTH 300 0
DWIDTH 5 0
BBX 5 11 0 0
BITMAP
F8
00
20
20
20
20
20
20
20
20
20
ENDCHAR
STARTCHAR 012C
ENCODING 300
SWIDTH 300 0
DWIDTH 5 0
BBX 5 15 0 0
BITMAP
88
70
00
20
20
20
20
20
20
20
20
20
20
20
20
ENDCHAR
STARTCHAR 012D
ENCODING 301
SWIDTH 300 0
DWIDTH 5 0
BBX 5 12 0 0
BITMAP
88
70
00
20
20
20
20
20
20
20
20
20
ENDCHAR
STARTCHAR 012E
ENCODING 302
SWIDTH 300 0
DWIDTH 5 0
BBX 3 15 1 -3
BITMAP
40
40
40
40
40
40
40
40
40
40
40
40
80
80
E0
ENDCHAR
STARTCHAR 012F
ENCODING 303
SWIDTH 240 0
DWIDTH 4 0
BBX 3 15 0 -3
BITMAP
40
00
00
40
40
40
40
40
40
40
40
40
80
80
E0
ENDCHAR
STARTCHAR 0130
ENCODING 304
SWIDTH 300 0
DWIDTH 5 0
BBX 1 14 2 0
BITMAP
80
00
80
80
80
80
80
80
80
80
80
80
80
80
ENDCHAR
STARTCHAR 0131
ENCODING 305
SWIDTH 300 0
DWIDTH 5 0
BBX 1 9 2 0
BITMAP
80
80
80
80
80
80
80
80
80
ENDCHAR
STARTCHAR 0132
ENCODING 306
SWIDTH 780 0
DWIDTH 13 0
BBX 9 12 2 0
BITMAP
8080
8080
8080
8080
8080
8080
8080
8080
A080
A080
9100
9E00
ENDCHAR
STARTCHAR 0133
ENCODING 307
SWIDTH 480 0
DWIDTH 8 0
BBX 4 15 2 -3
BITMAP
90
00
00
90
90
90
90
90
90
90
90
90
10
10
60
ENDCHAR
STARTCHAR 0134
ENCODING 308
SWIDTH 540 0
DWIDTH 9 0
BBX 9 15 1 0
BITMAP
0300
0480
0000
0200
0200
0200
0200
0200
0200
0200
0200
8200
8200
4400
7800
ENDCHAR
STARTCHAR 0135
ENCODING 309
SWIDTH 180 0
DWIDTH 3 0
BBX 4 15 -1 -3
BITMAP
60
90
00
20
20
20
20
20
20
20
20
20
20
20
C0
ENDCHAR
STARTCHAR 0136
ENCODING 310
SWIDTH 660 0
DWIDTH 11 0
BBX 9 16 1 -4
BITMAP
8080
8100
8200
8400
8800
9800
A400
C200
8200
8100
8100
8080
0000
0800
0800
0800
ENDCHAR
STARTCHAR 0137
ENCODING 311
SWIDTH 480 0
DWIDTH 8 0
BBX 7 16 1 -4
BITMAP
80
80
80
82
84
88
90
B0
C8
84
84
82
00
10
10
10
ENDCHAR
STARTCHAR 0138
ENCODING 312
SWIDTH 480 0
DWIDTH 8 0
BBX 6 9 1 0
BITMAP
84
88
90
A0
D0
90
88
84
84
ENDCHAR
STARTCHAR 0139
ENCODING 313
SWIDTH 540 0
DWIDTH 9 0
BBX 7 15 1 0
BITMAP
20
40
00
80
80
80
80
80
80
80
80
80
80
80
FE
ENDCHAR
STARTCHAR 013A
ENCODING 314
SWIDTH 180 0
DWIDTH 3 0
BBX 2 15 1 0
BITMAP
40
80
00
80
80
80
80
80
80
80
80
80
80
80
80
ENDCHAR
STARTCHAR 013B
ENCODING 315
SWIDTH 540 0
DWIDTH 9 0
BBX 7 16 1 -4
BITMAP
80
80
80
80
80
80
80
80
80
80
80
FE
00
10
10
10
ENDCHAR
STARTCHAR 013C
ENCODING 316
SWIDTH 180 0
DWIDTH 3 0
BBX 1 16 1 -4
BITMAP
80
80
80
80
80
80
80
80
80
80
80
80
00
80
80
80
ENDCHAR
STARTCHAR 013D
ENCODING 317
SWIDTH 540 0
DWIDTH 9 0
BBX 6 12 2 0
BITMAP
88
88
88
88
80
80
80
80
80
80
80
FC
ENDCHAR
STARTCHAR 013E
ENCODING 318
SWIDTH 240 0
DWIDTH 4 0
BBX 3 12 1 0
BITMAP
A0
A0
A0
80
80
80
80
80
80
80
80
80
ENDCHAR
STARTCHAR 013F
ENCODING 319
SWIDTH 540 0
DWIDTH 9 0
BBX 7 12 1 0
BITMAP
80
80
80
80
80
88
80
80
80
80
80
FE
ENDCHAR
STARTCHAR 0140
ENCODING 320
SWIDTH 360 0
DWIDTH 6 0
BBX 4 12 1 0
BITMAP
80
80
80
80
80
80
90
80
80
80
80
80
ENDCHAR
STARTCHAR 0141
ENCODING 321
SWIDTH 540 0
DWIDTH 9 0
BBX 9 12 0 0
BITMAP
4000
4000
4000
4800
5000
6000
4000
C000
4000
4000
4000
7F80
ENDCHAR
STARTCHAR 0142
ENCODING 322
SWIDTH 180 0
DWIDTH 3 0
BBX 3 12 0 0
BITMAP
40
40
40
40
40
60
40
C0
40
40
40
40
ENDCHAR
STARTCHAR 0143
ENCODING 323
SWIDTH 660 0
DWIDTH 11 0
BBX 9 15 1 0
BITMAP
0400
0800
0000
8080
C080
A080
A080
9080
8880
8880
8480
8280
8280
8180
8080
ENDCHAR
STARTCHAR 0144
ENCODING 324
SWIDTH 540 0
DWIDTH 9 0
BBX 7 12 1 0
BITMAP
08
10
00
BC
C2
82
82
82
82
82
82
82
ENDCHAR
STARTCHAR 0145
ENCODING 325
SWIDTH 660 0
DWIDTH 11 0
BBX 9 16 1 -4
BITMAP
8080
C080
A080
A080
9080
8880
8880
8480
8280
8280
8180
8080
0000
0800
0800
0800
ENDCHAR
STARTCHAR 0146
ENCODING 326
SWIDTH 540 0
DWIDTH 9 0
BBX 7 13 1 -4
BITMAP
BC
C2
82
82
82
82
82
82
82
00
10
10
10
ENDCHAR
STARTCHAR 0147
ENCODING 327
SWIDTH 660 0
DWIDTH 11 0
BBX 9 15 1 0
BITMAP
1200
0C00
0000
8080
C080
A080
A080
9080
8880
8880
8480
8280
8280
8180
8080
ENDCHAR
STARTCHAR 0148
ENCODING 328
SWIDTH 540 0
DWIDTH 9 0
BBX 7 12 1 0
BITMAP
24
18
00
BC
C2
82
82
82
82
82
82
82
ENDCHAR
STARTCHAR 0149
ENCODING 329
SWIDTH 600 0
DWIDTH 10 0
BBX 9 12 0 0
BITMAP
8000
8000
8000
2F00
3080
2080
2080
2080
2080
2080
2080
2080
ENDCHAR
STARTCHAR 014A
ENCODING 330
SWIDTH 720 0
DWIDTH 12 0
BBX 10 12 1 0
BITMAP
9F00
A180
C080
8040
8040
8040
8040
8040
8040
8080
8080
8F00
ENDCHAR
STARTCHAR 014B
ENCODING 331
SWIDTH 540 0
DWIDTH 9 0
BBX 7 12 1 -3
BITMAP
BC
C2
82
82
82
82
82
82
82
02
02
0E
ENDCHAR
STARTCHAR 014C
ENCODING 332
SWIDTH 720 0
DWIDTH 12 0
BBX 10 14 1 0
BITMAP
1F00
0000
1E00
2100
4080
8040
8040
8040
8040
8040
8040
4080
2100
1E00
ENDCHAR
STARTCHAR 014D
ENCODING 333
SWIDTH 540 0
DWIDTH 9 0
BBX 7 11 1 0
BITMAP
7C
00
38
44
82
82
82
82
82
44
38
ENDCHAR
STARTCHAR 014E
ENCODING 334
SWIDTH 720 0
DWIDTH 12 0
BBX 10 15 1 0
BITMAP
2200
1C00
0000
1E00
2100
4080
8040
8040
8040
8040
8040
8040
4080
2100
1E00
ENDCHAR
STARTCHAR 014F
ENCODING 335
SWIDTH 540 0
DWIDTH 9 0
BBX 7 12 1 0
BITMAP
44
38
00
38
44
82
82
82
82
82
44
38
ENDCHAR
STARTCHAR 0150
ENCODING 336
SWIDTH 720 0
DWIDTH 12 0
BBX 10 15 1 0
BITMAP
0900
1200
0000
1E00
2100
4080
8040
8040
8040
8040
8040
8040
4080
2100
1E00
ENDCHAR
STARTCHAR 0151
ENCODING 337
SWIDTH 540 0
DWIDTH 9 0
BBX 7 12 1 0
BITMAP
12
24
00
38
44
82
82
82
82
82
44
38
ENDCHAR
STARTCHAR 0152
ENCODING 338
SWIDTH 1020 0
DWIDTH 17 0
BBX 15 12 1 0
BITMAP
1E7E
61C0
40C0
8040
8040
807E
8040
8040
8040
40C0
2140
1E7E
ENDCHAR
STARTCHAR 0153
ENCODING 339
SWIDTH 960 0
DWIDTH 16 0
BBX 14 9 1 0
BITMAP
38F0
4508
8204
8204
83FC
8200
8204
4708
38F0
ENDCHAR
STARTCHAR 0154
ENCODING 340
SWIDTH 660 0
DWIDTH 11 0
BBX 9 15 1 0
BITMAP
0400
0800
0000
FE00
8100
8080
8080
8080
8100
FE00
8400
8200
8200
8100
8080
ENDCHAR
STARTCHAR 0155
ENCODING 341
SWIDTH 360 0
DWIDTH 6 0
BBX 5 12 1 0
BITMAP
20
40
00
B8
C0
80
80
80
80
80
80
80
ENDCHAR
STARTCHAR 0156
ENCODING 342
SWIDTH 660 0
DWIDTH 11 0
BBX 9 16 1 -4
BITMAP
FE00
8100
8080
8080
8080
8100
FE00
8400
8200
8200
8100
8080
0000
0800
0800
0800
ENDCHAR
STARTCHAR 0157
ENCODING 343
SWIDTH 360 0
DWIDTH 6 0
BBX 5 13 1 -4
BITMAP
B8
C0
80
80
80
80
80
80
80
00
80
80
80
ENDCHAR
STARTCHAR 0158
ENCODING 344
SWIDTH 660 0
DWIDTH 11 0
BBX 9 15 1 0
BITMAP
2400
1800
0000
FE00
8100
8080
8080
8080
8100
FE00
8400
8200
8200
8100
8080
ENDCHAR
STARTCHAR 0159
ENCODING 345
SWIDTH 360 0
DWIDTH 6 0
BBX 5 12 1 0
BITMAP
90
60
00
B8
C0
80
80
80
80
80
80
80
ENDCHAR
STARTCHAR 015A
ENCODING 346
SWIDTH 660 0
DWIDTH 11 0
BBX 9 15 1 0
BITMAP
0400
0800
0000
3E00
4100
8080
8000
4000
3800
0700
0080
8080
8080
4100
3E00
ENDCHAR
STARTCHAR 015B
ENCODING 347
SWIDTH 480 0
DWIDTH 8 0
BBX 6 12 1 0
BITMAP
10
20
00
78
84
80
80
78
04
04
84
78
ENDCHAR
STARTCHAR 015C
ENCODING 348
SWIDTH 660 0
DWIDTH 11 0
BBX 9 15 1 0
BITMAP
0C00
1200
0000
3E00
4100
8080
8000
4000
3800
0700
0080
8080
8080
4100
3E00
ENDCHAR
STARTCHAR 015D
ENCODING 349
SWIDTH 480 0
DWIDTH 8 0
BBX 6 12 1 0
BITMAP
30
48
00
78
84
80
80
78
04
04
84
78
ENDCHAR
STARTCHAR 015E
ENCODING 350
SWIDTH 660 0
DWIDTH 11 0
BBX 9 16 1 -4
BITMAP
3E00
4100
8080
8000
4000
3800
0700
0080
8080
8080
4100
3E00
0800
0C00
0400
1800
ENDCHAR
STARTCHAR 015F
ENCODING 351
SWIDTH 480 0
DWIDTH 8 0
BBX 6 13 1 -4
BITMAP
78
84
80
80
78
04
04
84
78
20
30
10
60
ENDCHAR
STARTCHAR 0160
ENCODING 352
SWIDTH 660 0
DWIDTH 11 0
BBX 9 15 1 0
BITMAP
1200
0C00
0000
3E00
4100
8080
8000
4000
3800
0700
0080
8080
8080
4100
3E00
ENDCHAR
STARTCHAR 0161
ENCODING 353
SWIDTH 480 0
DWIDTH 8 0
BBX 6 12 1 0
BITMAP
48
30
00
78
84
80
80
78
04
04
84
78
ENDCHAR
STARTCHAR 0162
ENCODING 354
SWIDTH 540 0
DWIDTH 9 0
BBX 9 16 0 -4
BITMAP
FF80
0800
0800
0800
0800
0800
0800
0800
0800
0800
0800
0800
0800
0C00
0400
1800
ENDCHAR
STARTCHAR 0163
ENCODING 355
SWIDTH 240 0
DWIDTH 4 0
BBX 4 16 0 -4
BITMAP
40
40
40
F0
40
40
40
40
40
40
40
70
20
30
10
60
ENDCHAR
STARTCHAR 0164
ENCODING 356
SWIDTH 540 0
DWIDTH 9 0
BBX 9 15 0 0
BITMAP
1200
0C00
0000
FF80
0800
0800
0800
0800
0800
0800
0800
0800
0800
0800
0800
ENDCHAR
STARTCHAR 0165
ENCODING 357
SWIDTH 360 0
DWIDTH 6 0
BBX 6 12 0 0
BITMAP
4C
44
44
E0
40
40
40
40
40
40
40
60
ENDCHAR
STARTCHAR 0166
ENCODING 358
SWIDTH 600 0
DWIDTH 10 0
BBX 9 12 0 0
BITMAP
FF80
0800
0800
0800
0800
0800
7F00
0800
0800
0800
0800
0800
ENDCHAR
STARTCHAR 0167
ENCODING 359
SWIDTH 240 0
DWIDTH 4 0
BBX 4 11 0 1
BITMAP
40
40
F0
40
40
F0
40
40
40
40
30
ENDCHAR
STARTCHAR 0168
ENCODING 360
SWIDTH 660 0
DWIDTH 11 0
BBX 9 15 1 0
BITMAP
0A00
1400
0000
8080
8080
8080
8080
8080
8080
8080
8080
8080
8080
4100
3E00
ENDCHAR
STARTCHAR 0169
ENCODING 361
SWIDTH 540 0
DWIDTH 9 0
BBX 7 12 1 0
BITMAP
28
50
00
82
82
82
82
82
82
82
86
7A
ENDCHAR
STARTCHAR 016A
ENCODING 362
SWIDTH 660 0
DWIDTH 11 0
BBX 9 14 1 0
BITMAP
3E00
0000
8080
8080
8080
8080
8080
8080
8080
8080
8080
8080
4100
3E00
ENDCHAR
STARTCHAR 016B
ENCODING 363
SWIDTH 540 0
DWIDTH 9 0
BBX 7 11 1 0
BITMAP
7C
00
82
82
82
82
82
82
82
86
7A
ENDCHAR
STARTCHAR 016C
ENCODING 364
SWIDTH 660 0
DWIDTH 11 0
BBX 9 15 1 0
BITMAP
2200
1C00
0000
8080
8080
8080
8080
8080
8080
8080
8080
8080
8080
4100
3E00
ENDCHAR
STARTCHAR 016D
ENCODING 365
SWIDTH 540 0
DWIDTH 9 0
BBX 7 12 1 0
BITMAP
44
38
00
82
82
82
82
82
82
82
86
7A
ENDCHAR
STARTCHAR 016E
ENCODING 366
SWIDTH 660 0
DWIDTH 11 0
BBX 9 15 1 0
BITMAP
1C00
1400
1C00
8080
8080
8080
8080
8080
8080
8080
8080
8080
8080
4100
3E00
ENDCHAR
STARTCHAR 016F
ENCODING 367
SWIDTH 540 0
DWIDTH 9 0
BBX 7 13 1 0
BITMAP
38
28
38
00
82
82
82
82
82
82
82
86
7A
ENDCHAR
STARTCHAR 0170
ENCODING 368
SWIDTH 660 0
DWIDTH 11 0
BBX 9 15 1 0
BITMAP
1200
2400
0000
8080
8080
8080
8080
8080
8080
8080
8080
8080
8080
4100
3E00
ENDCHAR
STARTCHAR 0171
ENCODING 369
SWIDTH 540 0
DWIDTH 9 0
BBX 7 12 1 0
BITMAP
24
48
00
82
82
82
82
82
82
82
86
7A
ENDCHAR
STARTCHAR 0172
ENCODING 370
SWIDTH 660 0
DWIDTH 11 0
BBX 9 15 1 -3
BITMAP
8080
8080
8080
8080
8080
8080
8080
8080
8080
8080
4100
3E00
0800
0800
0E00
ENDCHAR
STARTCHAR 0173
ENCODING 371
SWIDTH 540 0
DWIDTH 9 0
BBX 8 12 1 -3
BITMAP
82
82
82
82
82
82
82
86
7A
04
04
07
ENDCHAR
STARTCHAR 0174
ENCODING 372
SWIDTH 1020 0
DWIDTH 17 0
BBX 17 15 0 0
BITMAP
00C000
012000
000000
808080
814100
414100
414100
422200
222200
222200
241400
141400
141400
080800
080800
ENDCHAR
STARTCHAR 0175
ENCODING 373
SWIDTH 660 0
DWIDTH 11 0
BBX 11 12 0 0
BITMAP
0600
0900
0000
8420
8420
4A40
4A40
5140
5140
5140
2080
2080
ENDCHAR
STARTCHAR 0176
ENCODING 374
SWIDTH 660 0
DWIDTH 11 0
BBX 9 15 1 0
BITMAP
0C00
1200
0000
8080
4100
4100
2200
1400
1400
0800
0800
0800
0800
0800
0800
ENDCHAR
STARTCHAR 0177
ENCODING 375
SWIDTH 540 0
DWIDTH 9 0
BBX 7 15 1 -3
BITMAP
18
24
00
82
82
82
44
44
44
28
28
10
10
20
C0
ENDCHAR
STARTCHAR 0178
ENCODING 376
SWIDTH 660 0
DWIDTH 11 0
BBX 9 14 1 0
BITMAP
1400
0000
8080
4100
4100
2200
1400
1400
0800
0800
0800
0800
0800
0800
ENDCHAR
STARTCHAR 0179
ENCODING 377
SWIDTH 540 0
DWIDTH 9 0
BBX 9 15 0 0
BITMAP
0400
0800
0000
7F80
0100
0200
0200
0400
0800
0800
1000
2000
2000
4000
FF80
ENDCHAR
STARTCHAR 017A
ENCODING 378
SWIDTH 480 0
DWIDTH 8 0
BBX 7 12 0 0
BITMAP
08
10
00
FE
04
08
08
10
20
40
40
FE
ENDCHAR
STARTCHAR 017B
ENCODING 379
SWIDTH 540 0
DWIDTH 9 0
BBX 9 14 0 0
BITMAP
0800
0000
7F80
0100
0200
0200
0400
0800
0800
1000
2000
2000
4000
FF80
ENDCHAR
STARTCHAR 017C
ENCODING 380
SWIDTH 480 0
DWIDTH 8 0
BBX 7 11 0 0
BITMAP
10
00
FE
04
08
08
10
20
40
40
FE
ENDCHAR
STARTCHAR 017D
ENCODING 381
SWIDTH 540 0
DWIDTH 9 0
BBX 9 15 0 0
BITMAP
1200
0C00
0000
7F80
0100
0200
0200
0400
0800
0800
1000
2000
2000
4000
FF80
ENDCHAR
STARTCHAR 017E
ENCODING 382
SWIDTH 480 0
DWIDTH 8 0
BBX 7 12 0 0
BITMAP
24
18
00
FE
04
08
08
10
20
40
40
FE
ENDCHAR
ENDFONT
