<?xml version="1.0" encoding="UTF-8" standalone="no"?>
<!DOCTYPE svg PUBLIC "-//W3C//DTD SVG 1.1//EN" "http://www.w3.org/Graphics/SVG/1.1/DTD/svg11.dtd">
<svg width="100%" height="100%" viewBox="0 0 5080 15240" version="1.1" xmlns="http://www.w3.org/2000/svg" xmlns:xlink="http://www.w3.org/1999/xlink" xml:space="preserve" xmlns:serif="http://www.serif.com/" style="fill-rule:evenodd;clip-rule:evenodd;stroke-linecap:round;stroke-linejoin:round;stroke-miterlimit:1.5;">
    <g id="Edge.Cuts">
        <path d="M5060.15,827.887C5060.15,370.964 4689.19,0 4232.27,0L834.501,0C377.578,0 6.614,370.964 6.614,827.887L6.614,14394.4C6.614,14851.3 377.578,15222.3 834.501,15222.3L4232.27,15222.3C4689.19,15222.3 5060.15,14851.3 5060.15,14394.4L5060.15,827.887Z" style="fill:rgb(235,235,235);"/>
    </g>
    <g id="F.Cu">
        <path id="Activate" d="M4480.2,1352.27C4480.2,1056.19 4239.83,815.813 3943.75,815.813L1172.91,815.813C876.834,815.813 636.455,1056.19 636.455,1352.27C636.455,1648.35 876.834,1888.73 1172.91,1888.73L3943.75,1888.73C4239.83,1888.73 4480.2,1648.35 4480.2,1352.27Z" style="fill:rgb(255,109,0);"/>
        <rect id="Artboard1" x="698.702" y="2819.08" width="3817.02" height="3848.31" style="fill:none;"/>
        <path id="Delta" d="M2124.24,3467.87C2248.43,3259.88 2387.59,3066.86 2543.99,2891.08C2731.27,3122.94 2881.15,3328.62 2987.9,3504.1C3080.51,3553.92 3173.12,3606.29 3265.72,3664.15C3357.76,3745.91 3432.38,3818.95 3492.21,3884.6C3544.51,3968.58 3591.91,4045.23 3628.1,4105.05C3669.06,4200.93 3701.9,4285.99 3718.7,4349.65C3747.45,4450.31 3767.47,4550.97 3763.99,4651.63C3761.06,4751.38 3752.83,4845.82 3733.79,4929.45C3710.59,5013.06 3683.52,5100.52 3652.26,5192.18C3625.08,5226.5 3597.9,5272.61 3570.72,5331.09C3613.19,5609 3617.85,5897.71 3603.94,6191.73C3557.07,5976.63 3495.84,5765.62 3392.56,5566.63C3328.64,5609.92 3274.28,5653.2 3226.47,5696.48C3194.26,5726.68 3125.81,5764.93 3021.12,5811.24C2955.12,5845.57 2871.7,5875.55 2773.5,5901.83C2714.27,5906.27 2635.43,5913.5 2519.83,5925.99C2480.97,5932.78 2415.75,5928.26 2320.52,5910.89C2263.32,5906.03 2197.55,5892.6 2124.24,5871.63C2098.32,5866.98 2050.5,5844.08 1976.27,5799.16C1800.84,5972.71 1608.14,6192.29 1408.54,6430.3C1407.37,6092.82 1428.84,5752.11 1484.04,5406.58C1436.73,5344.49 1389.42,5254.27 1342.11,5143.86C1308.07,5064.06 1277.49,4942.82 1251.51,4766.38C1253.05,4693.68 1257.02,4596.52 1266.61,4443.26C1286.78,4346.65 1314.9,4254.01 1351.17,4165.44C1369.44,4115.96 1407.38,4046.82 1465.92,3957.08C1505.27,3902.66 1556.42,3840.37 1619.93,3769.85C1697.55,3712.47 1770.81,3655.1 1840.38,3597.72C1943.71,3545.72 2037.01,3503.76 2124.24,3467.87ZM3105.67,3721.53L3202.31,3948.02C3238.55,4053.66 3274.78,4147.37 3311.02,4228.86C3353.39,4368.07 3387.44,4478.19 3413.7,4561.04C3451.76,4684.49 3475.28,4778.82 3489.19,4853.96C3496.71,4933.48 3510.86,5013 3534.49,5092.52C3572.08,5031.03 3599.57,4952.7 3613,4850.94C3629.11,4761.86 3635.15,4665.22 3619.04,4551.98C3609.67,4447.03 3584.12,4338.84 3534.49,4225.84C3508.28,4152.67 3461.04,4065.47 3386.52,3960.1C3323.85,3884.99 3224.71,3804.68 3105.67,3721.53ZM2553.05,3467.87C2515.07,3744.41 2481.3,4016.74 2459.44,4277.18C2413.92,4292.34 2340.88,4315.36 2238.99,4346.63C2331.49,4411.09 2397.14,4444.23 2441.32,4452.32C2414.42,4544.93 2397.75,4637.54 2386.96,4730.15C2444.68,4656.66 2500.37,4583.18 2550.03,4509.7C2605.39,4589.35 2660.76,4660.57 2716.12,4724.11C2693.06,4633.97 2674.75,4541.46 2667.8,4443.26C2761.2,4412.36 2825.05,4376.53 2870.13,4337.57C2807.45,4325.53 2734.53,4307.35 2631.57,4271.14C2610.67,4013.93 2582.07,3741.31 2553.05,3467.87ZM2015.52,3652.08L1837.36,3766.83C1773.06,3812.12 1724.49,3857.42 1692.4,3902.72C1627.98,3962.11 1579.66,4021.5 1547.45,4080.89C1503.86,4168.98 1473.28,4235.38 1453.84,4283.22C1426.13,4359.72 1405.05,4436.22 1393.44,4512.72C1378.03,4610.78 1375.64,4691.48 1384.38,4757.32C1389.98,4883.64 1408.99,4965.2 1438.74,5010.99C1460.67,5099.33 1491.3,5157.18 1529.34,5189.16C1544.16,5111.1 1555.78,5026.64 1562.55,4932.47C1590.86,4829.55 1607.73,4764.61 1619.93,4718.07C1660.03,4590.78 1688.54,4502.1 1704.48,4455.34C1738.08,4343.47 1762.49,4259.19 1779.98,4195.64C1831.82,4079.88 1873.09,3985.26 1900.77,3917.82C1952.29,3815.97 1988.17,3729.76 2015.52,3652.08ZM2069.88,5696.48C2145.12,5731.34 2272.21,5765.94 2272.21,5765.94C2339.65,5782.72 2407.09,5789.43 2474.53,5790.1C2533.92,5792.11 2593.31,5787.11 2652.7,5781.04C2652.7,5781.04 2810.5,5756.46 2855.03,5732.72C2944.04,5703.9 2991.54,5681.01 3024.14,5660.25C3104.15,5619.68 3159.54,5584.04 3199.29,5551.53C3262.74,5496.55 3302.93,5455.53 3326.12,5424.7L3250.62,5334.11C3218.29,5297.08 3167.2,5255.37 3102.66,5210.3C3048.61,5150.94 2966.45,5133.76 2864.09,5146.88C2767.33,5178.97 2679,5219.48 2598.35,5267.67C2499.28,5343.58 2409.52,5410.19 2326.56,5470L2069.88,5696.48Z" style="stroke:black;stroke-width:8.47px;"/>
        <path id="CU-10" serif:id="CU 10" d="M2761.45,13581.4L2756.25,14862.7L4245.83,14867.9C4331.75,14849.9 4399.49,14819.9 4443.75,14774.1C4488.26,14735.3 4515.55,14679.3 4532.29,14612.7L4532.29,13862.7C4518.76,13805 4497.21,13755.4 4469.79,13711.6C4412.5,13656.6 4355.2,13619.1 4297.91,13591.9L3563.54,13586.6L2761.45,13581.4Z" style="fill:rgb(255,109,0);"/>
        <path id="CU-8" serif:id="CU 8" d="M2766.66,12091.9L2761.45,13373.1L4251.04,13378.3C4336.96,13360.4 4404.7,13330.3 4448.95,13284.6C4493.47,13245.7 4520.76,13189.7 4537.5,13123.1L4537.5,12373.1C4523.97,12315.5 4502.41,12265.8 4475,12222.1C4417.7,12167 4360.41,12129.5 4303.12,12102.3L3568.75,12097.1L2766.66,12091.9Z" style="fill:rgb(255,110,0);"/>
        <path id="CU-6" serif:id="CU 6" d="M2761.45,10591.9L2756.25,11873.1L4245.83,11878.3C4331.75,11860.4 4399.49,11830.3 4443.75,11784.6C4488.26,11745.7 4515.55,11689.7 4532.29,11623.1L4532.29,10873.1C4518.76,10815.5 4497.21,10765.8 4469.79,10722.1C4412.5,10667 4355.2,10629.5 4297.91,10602.3L3563.54,10597.1L2761.45,10591.9Z" style="fill:rgb(255,122,0);"/>
        <path id="CU-4" serif:id="CU 4" d="M2756.25,9091.85L2751.04,10373.1L4240.62,10378.3C4326.55,10360.4 4394.28,10330.3 4438.54,10284.6C4483.06,10245.7 4510.34,10189.7 4527.08,10123.1L4527.08,9373.1C4513.55,9315.45 4492,9265.82 4464.58,9222.06C4407.29,9167.05 4350,9129.51 4292.7,9102.27L3558.33,9097.06L2756.25,9091.85Z" style="fill:rgb(255,109,0);"/>
        <path id="CU-2" serif:id="CU 2" d="M2756.25,7612.69L2751.04,8893.94L4240.62,8899.15C4326.55,8881.2 4394.28,8851.12 4438.54,8805.4C4483.06,8766.58 4510.34,8710.53 4527.08,8643.94L4527.08,7893.94C4513.55,7836.29 4492,7786.66 4464.58,7742.9C4407.29,7687.88 4350,7650.34 4292.7,7623.1L3558.33,7617.9L2756.25,7612.69Z" style="fill:rgb(255,109,0);"/>
        <path id="CU-9" serif:id="CU 9" d="M2339.58,13581.4L2344.79,14862.7L855.205,14867.9C769.281,14849.9 701.545,14819.9 657.288,14774.1C612.77,14735.3 585.486,14679.3 568.746,14612.7L568.746,13862.7C582.276,13805 603.828,13755.4 631.246,13711.6C688.538,13656.6 745.83,13619.1 803.121,13591.9L1537.5,13586.6L2339.58,13581.4Z" style="fill:rgb(255,109,0);"/>
        <path id="CU-7" serif:id="CU 7" d="M2339.58,12086.6L2344.79,13367.9L855.205,13373.1C769.281,13355.2 701.545,13325.1 657.288,13279.4C612.77,13240.5 585.486,13184.5 568.746,13117.9L568.746,12367.9C582.276,12310.2 603.828,12260.6 631.246,12216.9C688.538,12161.8 745.83,12124.3 803.121,12097.1L1537.5,12091.9L2339.58,12086.6Z" style="fill:rgb(255,109,0);"/>
        <path id="CU-5" serif:id="CU 5" d="M2339.58,10591.9L2344.79,11873.1L855.205,11878.3C769.281,11860.4 701.545,11830.3 657.288,11784.6C612.77,11745.7 585.486,11689.7 568.746,11623.1L568.746,10873.1C582.276,10815.5 603.828,10765.8 631.246,10722.1C688.538,10667 745.83,10629.5 803.121,10602.3L1537.5,10597.1L2339.58,10591.9Z" style="fill:rgb(255,109,0);"/>
        <path id="CU-3" serif:id="CU 3" d="M2334.37,9093.44L2339.58,10374.7L849.996,10379.9C764.072,10361.9 696.336,10331.9 652.079,10286.1C607.562,10247.3 580.277,10191.3 563.538,10124.7L563.538,9374.69C577.067,9317.04 598.619,9267.41 626.038,9223.65C683.329,9168.63 740.621,9131.09 797.913,9103.85L1532.29,9098.65L2334.37,9093.44Z" style="fill:rgb(255,109,0);"/>
        <path id="CU-1" serif:id="CU 1" d="M2334.37,7597.06L2339.58,8878.31L849.996,8883.52C764.072,8865.57 696.336,8835.5 652.079,8789.77C607.562,8750.96 580.277,8694.91 563.538,8628.31L563.538,7878.31C577.067,7820.66 598.619,7771.03 626.038,7727.27C683.329,7672.26 740.621,7634.72 797.913,7607.48L1532.29,7602.27L2334.37,7597.06Z" style="fill:rgb(255,109,0);"/>
    </g>
    <g id="F.Mask">
        <path d="M4511.46,3182.74C4511.46,2895.67 4278.39,2662.6 3991.32,2662.6L1086.28,2662.6C799.211,2662.6 566.146,2895.67 566.146,3182.74L566.146,6009.66C566.146,6296.73 799.211,6529.79 1086.28,6529.79L3991.32,6529.79C4278.39,6529.79 4511.46,6296.73 4511.46,6009.66L4511.46,3182.74Z" style="fill:rgb(215,0,255);"/>
    </g>
    <g id="B.Mask">
        <path d="M4511.46,3182.74C4511.46,2895.67 4278.39,2662.6 3991.32,2662.6L1086.28,2662.6C799.211,2662.6 566.146,2895.67 566.146,3182.74L566.146,6009.66C566.146,6296.73 799.211,6529.79 1086.28,6529.79L3991.32,6529.79C4278.39,6529.79 4511.46,6296.73 4511.46,6009.66L4511.46,3182.74Z" style="fill:rgb(215,0,255);"/>
    </g>
    <g id="F.SilkS">
        <path id="Main-Silk" serif:id="Main Silk" d="M5080,890.115L5080,14336.7C5080,14835.2 4675.23,15240 4176.66,15240L903.344,15240C404.775,15240 0,14835.2 0,14336.7L0,890.115C0,391.546 404.775,-13.229 903.344,-13.229L4176.66,-13.229C4675.23,-13.229 5080,391.546 5080,890.115ZM4533.68,13912.6C4533.68,13737.3 4391.41,13595.1 4216.18,13595.1L2758.16,13602.9L2760.97,13912.6L2760.97,14547.6L2765.97,14857.3L4216.18,14865.1C4391.41,14865.1 4533.68,14722.8 4533.68,14547.6L4533.68,13912.6ZM4533.68,7932.99C4533.68,7757.75 4391.41,7615.49 4216.18,7615.49L2758.16,7623.3L2760.97,7932.99L2760.97,8567.99L2765.97,8877.67L4216.18,8885.49C4391.41,8885.49 4533.68,8743.22 4533.68,8567.99L4533.68,7932.99ZM2341.76,13943.8L2335.72,13581.8L878.739,13595.1C703.506,13595.1 561.239,13737.3 561.239,13912.6L561.239,14547.6C561.239,14722.8 703.506,14865.1 878.739,14865.1L2340.51,14861.4L2341.76,14555.4L2341.76,13943.8ZM4533.68,12417.7C4533.68,12242.4 4391.41,12100.2 4216.18,12100.2L2758.16,12108L2760.97,12417.7L2760.97,13052.7L2765.97,13362.4L4216.18,13370.2C4391.41,13370.2 4533.68,13227.9 4533.68,13052.7L4533.68,12417.7ZM4517.76,3209.78C4517.76,2910.64 4274.9,2667.78 3975.76,2667.78L1104.25,2667.78C805.105,2667.78 562.24,2910.64 562.24,3209.78L562.24,6001.92C562.24,6301.06 805.105,6543.92 1104.25,6543.92L3975.76,6543.92C4274.9,6543.92 4517.76,6301.06 4517.76,6001.92L4517.76,3209.78ZM2341.76,10954L2335.72,10592L878.739,10605.3C703.506,10605.3 561.239,10747.5 561.239,10922.8L561.239,11557.8C561.239,11733 703.506,11875.3 878.739,11875.3L2340.51,11871.6L2341.76,11565.6L2341.76,10954ZM4533.68,10922.8C4533.68,10747.5 4391.41,10605.3 4216.18,10605.3L2758.16,10613.1L2760.97,10922.8L2760.97,11557.8L2765.97,11867.5L4216.18,11875.3C4391.41,11875.3 4533.68,11733 4533.68,11557.8L4533.68,10922.8ZM2341.76,9459.13L2335.72,9097.15L878.739,9110.38C703.506,9110.38 561.239,9252.65 561.239,9427.88L561.239,10062.9C561.239,10238.1 703.506,10380.4 878.739,10380.4L2340.51,10376.7L2341.76,10070.7L2341.76,9459.13ZM4533.68,9427.88C4533.68,9252.65 4391.41,9110.38 4216.18,9110.38L2758.16,9118.19L2760.97,9427.88L2760.97,10062.9L2765.97,10372.6L4216.18,10380.4C4391.41,10380.4 4533.68,10238.1 4533.68,10062.9L4533.68,9427.88ZM2341.76,12448.9L2335.72,12086.9L878.739,12100.2C703.506,12100.2 561.239,12242.4 561.239,12417.7L561.239,13052.7C561.239,13227.9 703.506,13370.2 878.739,13370.2L2340.51,13366.5L2341.76,13060.5L2341.76,12448.9ZM2341.76,7964.24L2335.72,7602.26L878.739,7615.49C703.506,7615.49 561.239,7757.75 561.239,7932.99L561.239,8567.99C561.239,8743.22 703.506,8885.49 878.739,8885.49L2340.51,8881.84L2341.76,8575.8L2341.76,7964.24ZM4497.92,1355.99C4497.92,1060.28 4257.84,820.208 3962.14,820.208L1170.78,820.208C875.075,820.208 635,1060.28 635,1355.99C635,1651.69 875.075,1891.77 1170.78,1891.77L3962.14,1891.77C4257.84,1891.77 4497.92,1651.69 4497.92,1355.99Z"/>
        <g id="Text">
            <path d="M3142.22,14750.4L3084.13,14750.4L3084.13,14527.3C3062.91,14547.6 3037.9,14562.5 3009.1,14572.2L3009.1,14518.5C3024.26,14513.4 3040.72,14503.8 3058.5,14489.7C3076.28,14475.6 3088.47,14459.1 3095.09,14440.3L3142.22,14440.3L3142.22,14750.4Z" style="fill-rule:nonzero;"/>
            <path d="M3327.22,14440.3C3356.57,14440.3 3379.52,14451 3396.05,14472.4C3415.76,14497.6 3425.61,14539.6 3425.61,14598.1C3425.61,14656.5 3415.69,14698.5 3395.85,14724.1C3379.45,14745.2 3356.57,14755.7 3327.22,14755.7C3297.73,14755.7 3273.96,14744.1 3255.91,14721C3237.85,14697.9 3228.83,14656.7 3228.83,14597.5C3228.83,14539.3 3238.75,14497.5 3258.59,14471.9C3274.99,14450.9 3297.87,14440.3 3327.22,14440.3ZM3327.22,14489.4C3320.19,14489.4 3313.92,14491.7 3308.41,14496.3C3302.9,14500.8 3298.62,14509 3295.59,14520.8C3291.6,14536.1 3289.6,14561.9 3289.6,14598.1C3289.6,14634.3 3291.39,14659.2 3294.97,14672.8C3298.56,14686.3 3303.07,14695.4 3308.51,14699.9C3313.96,14704.4 3320.19,14706.6 3327.22,14706.6C3334.25,14706.6 3340.52,14704.3 3346.03,14699.8C3351.54,14695.2 3355.81,14687 3358.85,14675.2C3362.84,14660 3364.84,14634.3 3364.84,14598.1C3364.84,14561.9 3363.05,14537 3359.47,14523.4C3355.88,14509.9 3351.37,14500.8 3345.93,14496.3C3340.48,14491.7 3334.25,14489.4 3327.22,14489.4Z" style="fill-rule:nonzero;"/>
            <path d="M1929.45,14693.7L1985.68,14687.5C1987.06,14698.9 1990.64,14707.4 1996.43,14712.9C2002.21,14718.4 2009.86,14721.2 2019.37,14721.2C2031.36,14721.2 2041.56,14715.7 2049.96,14704.6C2058.37,14693.6 2063.74,14670.7 2066.09,14636C2051.48,14653 2033.22,14661.4 2011.31,14661.4C1987.47,14661.4 1966.9,14652.2 1949.61,14633.8C1932.31,14615.4 1923.66,14591.5 1923.66,14562C1923.66,14531.3 1932.8,14506.5 1951.05,14487.7C1969.31,14468.9 1992.57,14459.5 2020.82,14459.5C2051.55,14459.5 2076.76,14471.4 2096.47,14495.1C2116.18,14518.9 2126.03,14558 2126.03,14612.4C2126.03,14667.8 2115.76,14707.8 2095.23,14732.3C2074.7,14756.9 2047.96,14769.1 2015.03,14769.1C1991.33,14769.1 1972.17,14762.8 1957.57,14750.2C1942.96,14737.6 1933.59,14718.8 1929.45,14693.7ZM2060.92,14566.8C2060.92,14548 2056.61,14533.5 2048,14523.1C2039.39,14512.8 2029.43,14507.6 2018.13,14507.6C2007.38,14507.6 1998.46,14511.9 1991.36,14520.4C1984.27,14528.8 1980.72,14542.7 1980.72,14562C1980.72,14581.6 1984.58,14595.9 1992.29,14605.1C2000.01,14614.3 2009.65,14618.8 2021.23,14618.8C2032.39,14618.8 2041.8,14614.4 2049.45,14605.6C2057.09,14596.8 2060.92,14583.8 2060.92,14566.8Z" style="fill-rule:nonzero;"/>
            <path d="M3072.35,13074.2C3057.33,13067.7 3046.41,13058.9 3039.59,13047.5C3032.77,13036.2 3029.36,13023.8 3029.36,13010.4C3029.36,12987.3 3037.25,12968.3 3053.02,12953.3C3068.8,12938.2 3091.23,12930.7 3120.31,12930.7C3149.11,12930.7 3171.47,12938.2 3187.38,12953.3C3203.3,12968.3 3211.26,12987.3 3211.26,13010.4C3211.26,13024.7 3207.61,13037.4 3200.3,13048.6C3193,13059.8 3182.73,13068.3 3169.5,13074.2C3186.32,13081.1 3199.1,13091.1 3207.85,13104.3C3216.6,13117.5 3220.97,13132.8 3220.97,13150C3220.97,13178.5 3212.05,13201.7 3194.2,13219.6C3176.36,13237.4 3152.62,13246.3 3122.99,13246.3C3095.43,13246.3 3072.49,13238.9 3054.16,13224.2C3032.53,13206.8 3021.71,13182.9 3021.71,13152.6C3021.71,13135.8 3025.77,13120.5 3033.9,13106.5C3042.03,13092.6 3054.85,13081.8 3072.35,13074.2ZM3084.34,13014.6C3084.34,13026.4 3087.61,13035.6 3094.16,13042.2C3100.7,13048.8 3109.42,13052.1 3120.31,13052.1C3131.33,13052.1 3140.15,13048.7 3146.76,13042.1C3153.38,13035.4 3156.69,13026.2 3156.69,13014.4C3156.69,13003.3 3153.41,12994.4 3146.87,12987.7C3140.32,12981 3131.68,12977.7 3120.93,12977.7C3109.76,12977.7 3100.88,12981.1 3094.26,12987.8C3087.65,12994.6 3084.34,13003.5 3084.34,13014.6ZM3078.97,13146.9C3078.97,13163.2 3083.07,13175.9 3091.26,13185C3099.46,13194.1 3109.7,13198.7 3121.96,13198.7C3133.95,13198.7 3143.87,13194.3 3151.73,13185.5C3159.58,13176.8 3163.51,13164.1 3163.51,13147.5C3163.51,13133 3159.51,13121.4 3151.52,13112.6C3143.53,13103.9 3133.4,13099.5 3121.13,13099.5C3106.94,13099.5 3096.36,13104.5 3089.41,13114.4C3082.45,13124.4 3078.97,13135.2 3078.97,13146.9Z" style="fill-rule:nonzero;"/>
            <path d="M1928.83,13004.1L1928.83,12950.1L2127.48,12950.1L2127.48,12992.3C2111.08,13008.4 2094.4,13031.6 2077.45,13061.7C2060.51,13091.9 2047.59,13124 2038.7,13158C2029.81,13191.9 2025.43,13222.3 2025.57,13249L1969.55,13249C1970.52,13207.1 1979.17,13164.4 1995.5,13120.9C2011.83,13077.3 2033.63,13038.4 2060.92,13004.1L1928.83,13004.1Z" style="fill-rule:nonzero;"/>
            <path d="M3220.56,11498L3164.34,11504.4C3162.96,11492.6 3159.37,11483.8 3153.59,11478.2C3147.8,11472.6 3140.29,11469.8 3131.06,11469.8C3118.79,11469.8 3108.42,11475.4 3099.95,11486.7C3091.47,11497.9 3086.13,11521.3 3083.93,11556.8C3098.4,11539.4 3116.38,11530.7 3137.88,11530.7C3162.13,11530.7 3182.9,11540.1 3200.2,11558.9C3217.49,11577.7 3226.14,11602 3226.14,11631.8C3226.14,11663.4 3217.05,11688.8 3198.86,11707.9C3180.66,11727 3157.31,11736.5 3128.78,11736.5C3098.19,11736.5 3073.04,11724.4 3053.33,11700.2C3033.63,11675.9 3023.78,11636.2 3023.78,11581C3023.78,11524.4 3034.04,11483.6 3054.58,11458.6C3075.11,11433.6 3101.77,11421.1 3134.57,11421.1C3157.58,11421.1 3176.63,11427.7 3191.72,11440.8C3206.81,11454 3216.43,11473 3220.56,11498ZM3088.89,11627.2C3088.89,11646.4 3093.23,11661.3 3101.91,11671.7C3110.59,11682.2 3120.51,11687.4 3131.68,11687.4C3142.43,11687.4 3151.38,11683.1 3158.55,11674.6C3165.71,11666 3169.3,11652 3169.3,11632.4C3169.3,11612.4 3165.44,11597.6 3157.72,11588.3C3150,11579 3140.36,11574.3 3128.78,11574.3C3117.62,11574.3 3108.18,11578.8 3100.46,11587.7C3092.75,11596.6 3088.89,11609.8 3088.89,11627.2Z" style="fill-rule:nonzero;"/>
            <path d="M1927.39,11656.3L1985.26,11650.3C1986.92,11663.4 1991.81,11673.8 1999.94,11681.5C2008.07,11689.1 2017.44,11692.9 2028.05,11692.9C2040.18,11692.9 2050.45,11688 2058.85,11678.1C2067.26,11668.3 2071.46,11653.4 2071.46,11633.6C2071.46,11615 2067.29,11601 2058.95,11591.7C2050.62,11582.4 2039.77,11577.8 2026.4,11577.8C2009.72,11577.8 1994.77,11585.2 1981.54,11599.9L1934.41,11593.1L1964.18,11435.4L2117.76,11435.4L2117.76,11489.7L2008.21,11489.7L1999.11,11541.2C2012.07,11534.7 2025.3,11531.5 2038.8,11531.5C2064.57,11531.5 2086.41,11540.9 2104.33,11559.6C2122.24,11578.3 2131.2,11602.7 2131.2,11632.6C2131.2,11657.5 2123.96,11679.8 2109.49,11699.3C2089.79,11726.1 2062.43,11739.4 2027.43,11739.4C1999.46,11739.4 1976.65,11731.9 1959.01,11716.9C1941.37,11701.9 1930.83,11681.7 1927.39,11656.3Z" style="fill-rule:nonzero;"/>
            <path d="M3148.21,10226.9L3148.21,10164.8L3024.19,10164.8L3024.19,10112.9L3155.65,9916.81L3204.44,9916.81L3204.44,10112.7L3242.06,10112.7L3242.06,10164.8L3204.44,10164.8L3204.44,10226.9L3148.21,10226.9ZM3148.21,10112.7L3148.21,10007.2L3078.55,10112.7L3148.21,10112.7Z" style="fill-rule:nonzero;"/>
            <path d="M1926.77,10139.1L1982.99,10132.3C1984.78,10146.6 1989.61,10157.6 1997.46,10165.2C2005.31,10172.7 2014.82,10176.5 2025.99,10176.5C2037.97,10176.5 2048.07,10172 2056.27,10162.9C2064.47,10153.8 2068.57,10141.5 2068.57,10126.1C2068.57,10111.5 2064.64,10099.9 2056.78,10091.4C2048.93,10082.8 2039.35,10078.6 2028.05,10078.6C2020.61,10078.6 2011.72,10080 2001.39,10082.9L2007.8,10035.6C2023.5,10036 2035.49,10032.6 2043.76,10025.3C2052.03,10018.1 2056.16,10008.5 2056.16,9996.5C2056.16,9986.3 2053.13,9978.17 2047.07,9972.1C2041.01,9966.04 2032.94,9963.01 2022.88,9963.01C2012.96,9963.01 2004.49,9966.45 1997.46,9973.34C1990.43,9980.24 1986.16,9990.29 1984.64,10003.5L1931.11,9994.43C1934.83,9976.1 1940.44,9961.46 1947.95,9950.5C1955.46,9939.55 1965.94,9930.93 1979.37,9924.67C1992.81,9918.4 2007.86,9915.26 2024.54,9915.26C2053.06,9915.26 2075.94,9924.35 2093.16,9942.55C2107.36,9957.43 2114.45,9974.24 2114.45,9992.98C2114.45,10019.6 2099.92,10040.8 2070.84,10056.6C2088.2,10060.4 2102.09,10068.7 2112.49,10081.7C2122.89,10094.6 2128.1,10110.3 2128.1,10128.6C2128.1,10155.2 2118.38,10177.8 2098.95,10196.6C2079.52,10215.3 2055.34,10224.7 2026.4,10224.7C1998.98,10224.7 1976.24,10216.8 1958.18,10201C1940.13,10185.3 1929.66,10164.6 1926.77,10139.1Z" style="fill-rule:nonzero;"/>
            <path d="M3223.07,8668.86L3223.07,8723.84L3019.47,8723.84C3021.67,8703.06 3028.29,8683.36 3039.31,8664.75C3050.34,8646.15 3072.11,8621.46 3104.63,8590.71C3130.81,8565.85 3146.87,8549 3152.79,8540.15C3160.79,8527.93 3164.78,8515.85 3164.78,8503.91C3164.78,8490.71 3161.3,8480.57 3154.34,8473.47C3147.38,8466.38 3137.77,8462.84 3125.51,8462.84C3113.38,8462.84 3103.74,8466.56 3096.57,8474C3089.4,8481.44 3085.27,8493.8 3084.17,8511.08L3026.29,8505.18C3029.73,8472.59 3040.55,8449.21 3058.74,8435.03C3076.93,8420.84 3099.67,8413.75 3126.95,8413.75C3156.86,8413.75 3180.35,8421.97 3197.44,8438.4C3214.53,8454.83 3223.07,8475.26 3223.07,8499.7C3223.07,8513.6 3220.63,8526.84 3215.74,8539.41C3210.84,8551.98 3203.09,8565.15 3192.48,8578.91C3185.45,8588.04 3172.77,8601.17 3154.45,8618.3C3136.12,8635.44 3124.51,8646.81 3119.62,8652.43C3114.72,8658.05 3110.76,8663.52 3107.73,8668.86L3223.07,8668.86Z" style="fill-rule:nonzero;"/>
            <path d="M2135.95,8704.79L2077.87,8704.79L2077.87,8485.89C2056.65,8505.73 2031.63,8520.41 2002.83,8529.92L2002.83,8477.21C2017.99,8472.25 2034.46,8462.84 2052.24,8448.99C2070.01,8435.14 2082.21,8418.99 2088.82,8400.52L2135.95,8400.52L2135.95,8704.79Z" style="fill-rule:nonzero;"/>
            <path d="M2553.91,1834.48L2498.44,1834.48L2476.39,1777.12L2375.45,1777.12L2354.61,1834.48L2300.52,1834.48L2398.88,1581.95L2452.79,1581.95L2553.91,1834.48ZM2460.03,1734.57L2425.23,1640.87L2391.13,1734.57L2460.03,1734.57Z" style="fill-rule:nonzero;"/>
            <path d="M2742.53,1741.63L2791.96,1757.31C2784.39,1784.87 2771.78,1805.34 2754.15,1818.72C2736.53,1832.1 2714.16,1838.79 2687.06,1838.79C2653.53,1838.79 2625.97,1827.33 2604.38,1804.42C2582.79,1781.51 2571.99,1750.19 2571.99,1710.46C2571.99,1668.43 2582.85,1635.78 2604.55,1612.53C2626.26,1589.28 2654.79,1577.65 2690.16,1577.65C2721.05,1577.65 2746.14,1586.78 2765.44,1605.04C2776.92,1615.83 2785.53,1631.33 2791.28,1651.55L2740.8,1663.6C2737.82,1650.51 2731.59,1640.18 2722.11,1632.6C2712.64,1625.02 2701.13,1621.23 2687.58,1621.23C2668.86,1621.23 2653.67,1627.95 2642.02,1641.38C2630.36,1654.82 2624.53,1676.58 2624.53,1706.67C2624.53,1738.59 2630.27,1761.33 2641.76,1774.88C2653.24,1788.43 2668.17,1795.2 2686.54,1795.2C2700.1,1795.2 2711.75,1790.9 2721.51,1782.29C2731.27,1773.67 2738.28,1760.12 2742.53,1741.63Z" style="fill-rule:nonzero;"/>
            <path d="M2892.56,1834.48L2892.56,1624.67L2817.63,1624.67L2817.63,1581.95L3018.31,1581.95L3018.31,1624.67L2943.55,1624.67L2943.55,1834.48L2892.56,1834.48Z" style="fill-rule:nonzero;"/>
            <rect x="3049.66" y="1581.95" width="50.987" height="252.525" style="fill-rule:nonzero;"/>
            <path d="M3213.64,1834.48L3123.38,1581.95L3178.68,1581.95L3242.58,1768.85L3304.42,1581.95L3358.51,1581.95L3268.08,1834.48L3213.64,1834.48Z" style="fill-rule:nonzero;"/>
            <path d="M3586.06,1834.48L3530.59,1834.48L3508.54,1777.12L3407.6,1777.12L3386.76,1834.48L3332.67,1834.48L3431.03,1581.95L3484.95,1581.95L3586.06,1834.48ZM3492.18,1734.57L3457.38,1640.87L3423.28,1734.57L3492.18,1734.57Z" style="fill-rule:nonzero;"/>
            <path d="M3643.76,1834.48L3643.76,1624.67L3568.83,1624.67L3568.83,1581.95L3769.51,1581.95L3769.51,1624.67L3694.75,1624.67L3694.75,1834.48L3643.76,1834.48Z" style="fill-rule:nonzero;"/>
            <path d="M3802.41,1834.48L3802.41,1581.95L3989.65,1581.95L3989.65,1624.67L3853.4,1624.67L3853.4,1680.66L3980.18,1680.66L3980.18,1723.2L3853.4,1723.2L3853.4,1791.93L3994.47,1791.93L3994.47,1834.48L3802.41,1834.48Z" style="fill-rule:nonzero;"/>
        </g>
        <rect id="Artboard11" serif:id="Artboard1" x="698.702" y="2819.08" width="3817.02" height="3848.31" style="fill:none;"/>
        <path id="Delta1" serif:id="Delta" d="M2124.24,3467.87C2248.43,3259.88 2387.59,3066.86 2543.99,2891.08C2731.27,3122.94 2881.15,3328.62 2987.9,3504.1C3080.51,3553.92 3173.12,3606.29 3265.72,3664.15C3357.76,3745.91 3432.38,3818.95 3492.21,3884.6C3544.51,3968.58 3591.91,4045.23 3628.1,4105.05C3669.06,4200.93 3701.9,4285.99 3718.7,4349.65C3747.45,4450.31 3767.47,4550.97 3763.99,4651.63C3761.06,4751.38 3752.83,4845.82 3733.79,4929.45C3710.59,5013.06 3683.52,5100.52 3652.26,5192.18C3625.08,5226.5 3597.9,5272.61 3570.72,5331.09C3613.19,5609 3617.85,5897.71 3603.94,6191.73C3557.07,5976.63 3495.84,5765.62 3392.56,5566.63C3328.64,5609.92 3274.28,5653.2 3226.47,5696.48C3194.26,5726.68 3125.81,5764.93 3021.12,5811.24C2955.12,5845.57 2871.7,5875.55 2773.5,5901.83C2714.27,5906.27 2635.43,5913.5 2519.83,5925.99C2480.97,5932.78 2415.75,5928.26 2320.52,5910.89C2263.32,5906.03 2197.55,5892.6 2124.24,5871.63C2098.32,5866.98 2050.5,5844.08 1976.27,5799.16C1800.84,5972.71 1608.14,6192.29 1408.54,6430.3C1407.37,6092.82 1428.84,5752.11 1484.04,5406.58C1436.73,5344.49 1389.42,5254.27 1342.11,5143.86C1308.07,5064.06 1277.49,4942.82 1251.51,4766.38C1253.05,4693.68 1257.02,4596.52 1266.61,4443.26C1286.78,4346.65 1314.9,4254.01 1351.17,4165.44C1369.44,4115.96 1407.38,4046.82 1465.92,3957.08C1505.27,3902.66 1556.42,3840.37 1619.93,3769.85C1697.55,3712.47 1770.81,3655.1 1840.38,3597.72C1943.71,3545.72 2037.01,3503.76 2124.24,3467.87ZM3105.67,3721.53L3202.31,3948.02C3238.55,4053.66 3274.78,4147.37 3311.02,4228.86C3353.39,4368.07 3387.44,4478.19 3413.7,4561.04C3451.76,4684.49 3475.28,4778.82 3489.19,4853.96C3496.71,4933.48 3510.86,5013 3534.49,5092.52C3572.08,5031.03 3599.57,4952.7 3613,4850.94C3629.11,4761.86 3635.15,4665.22 3619.04,4551.98C3609.67,4447.03 3584.12,4338.84 3534.49,4225.84C3508.28,4152.67 3461.04,4065.47 3386.52,3960.1C3323.85,3884.99 3224.71,3804.68 3105.67,3721.53ZM2553.05,3467.87C2515.07,3744.41 2481.3,4016.74 2459.44,4277.18C2413.92,4292.34 2340.88,4315.36 2238.99,4346.63C2331.49,4411.09 2397.14,4444.23 2441.32,4452.32C2414.42,4544.93 2397.75,4637.54 2386.96,4730.15C2444.68,4656.66 2500.37,4583.18 2550.03,4509.7C2605.39,4589.35 2660.76,4660.57 2716.12,4724.11C2693.06,4633.97 2674.75,4541.46 2667.8,4443.26C2761.2,4412.36 2825.05,4376.53 2870.13,4337.57C2807.45,4325.53 2734.53,4307.35 2631.57,4271.14C2610.67,4013.93 2582.07,3741.31 2553.05,3467.87ZM2015.52,3652.08L1837.36,3766.83C1773.06,3812.12 1724.49,3857.42 1692.4,3902.72C1627.98,3962.11 1579.66,4021.5 1547.45,4080.89C1503.86,4168.98 1473.28,4235.38 1453.84,4283.22C1426.13,4359.72 1405.05,4436.22 1393.44,4512.72C1378.03,4610.78 1375.64,4691.48 1384.38,4757.32C1389.98,4883.64 1408.99,4965.2 1438.74,5010.99C1460.67,5099.33 1491.3,5157.18 1529.34,5189.16C1544.16,5111.1 1555.78,5026.64 1562.55,4932.47C1590.86,4829.55 1607.73,4764.61 1619.93,4718.07C1660.03,4590.78 1688.54,4502.1 1704.48,4455.34C1738.08,4343.47 1762.49,4259.19 1779.98,4195.64C1831.82,4079.88 1873.09,3985.26 1900.77,3917.82C1952.29,3815.97 1988.17,3729.76 2015.52,3652.08ZM2069.88,5696.48C2145.12,5731.34 2272.21,5765.94 2272.21,5765.94C2339.65,5782.72 2407.09,5789.43 2474.53,5790.1C2533.92,5792.11 2593.31,5787.11 2652.7,5781.04C2652.7,5781.04 2810.5,5756.46 2855.03,5732.72C2944.04,5703.9 2991.54,5681.01 3024.14,5660.25C3104.15,5619.68 3159.54,5584.04 3199.29,5551.53C3262.74,5496.55 3302.93,5455.53 3326.12,5424.7L3250.62,5334.11C3218.29,5297.08 3167.2,5255.37 3102.66,5210.3C3048.61,5150.94 2966.45,5133.76 2864.09,5146.88C2767.33,5178.97 2679,5219.48 2598.35,5267.67C2499.28,5343.58 2409.52,5410.19 2326.56,5470L2069.88,5696.48Z" style="stroke:black;stroke-width:8.47px;"/>
    </g>
</svg>
