STARTFONT 2.1
COMMENT
COMMENT Converted from OpenType font "arialbd.ttf" by "otf2bdf 3.0".
COMMENT
FONT -FreeType-Arial-Bold-R-Normal--17-120-100-100-P-89-ISO10646-1
SIZE 12 100 100
FONTBOUNDINGBOX 34 26 -9 -8
STARTPROPERTIES 19
FOUNDRY "FreeType"
FAMILY_NAME "Arial"
WEIGHT_NAME "Bold"
SLANT "R"
SETWIDTH_NAME "Normal"
ADD_STYLE_NAME ""
PIXEL_SIZE 17
POINT_SIZE 120
RESOLUTION_X 100
RESOLUTION_Y 100
SPACING "P"
AVERAGE_WIDTH 89
CHARSET_REGISTRY "ISO10646"
CHARSET_ENCODING "1"
FONT_ASCENT 15
FONT_DESCENT 3
COPYRIGHT "© 2017 The Monotype Corporation. All Rights Reserved.     Hebrew OpenType Layout logic copyright © 2003 & 2007, Ralph Hancock & John Hudson. This layout logic for Biblical Hebrew is open source software under the MIT License; see embedded license description for details."
_OTF_FONTFILE "arialbd.ttf"
_OTF_PSNAME "Arial-BoldMT"
ENDPROPERTIES
CHARS 3361
STARTCHAR 0020
ENCODING 32
SWIDTH 300 0
DWIDTH 5 0
BBX 0 0 0 0
BITMAP
ENDCHAR
STARTCHAR 0021
ENCODING 33
SWIDTH 360 0
DWIDTH 6 0
BBX 2 12 2 0
BITMAP
C0
C0
C0
C0
C0
C0
C0
C0
C0
00
C0
C0
ENDCHAR
STARTCHAR 0022
ENCODING 34
SWIDTH 480 0
DWIDTH 8 0
BBX 6 4 1 8
BITMAP
CC
CC
CC
CC
ENDCHAR
STARTCHAR 0023
ENCODING 35
SWIDTH 540 0
DWIDTH 9 0
BBX 10 12 0 0
BITMAP
0D80
0D80
1B00
FFC0
FFC0
1B00
3600
FFC0
FFC0
3600
6C00
6C00
ENDCHAR
STARTCHAR 0024
ENCODING 36
SWIDTH 540 0
DWIDTH 9 0
BBX 7 15 1 -2
BITMAP
10
38
7C
D6
D0
F0
78
3C
1E
D6
D6
7C
38
10
10
ENDCHAR
STARTCHAR 0025
ENCODING 37
SWIDTH 960 0
DWIDTH 16 0
BBX 15 12 0 0
BITMAP
7830
CC60
CC60
CCC0
CD80
7980
033C
0366
0666
0666
0C66
183C
ENDCHAR
STARTCHAR 0026
ENCODING 38
SWIDTH 720 0
DWIDTH 12 0
BBX 11 12 1 0
BITMAP
3E00
7F00
6300
6300
3E00
3C00
6C80
CEC0
C780
C3C0
7FE0
3C40
ENDCHAR
STARTCHAR 0027
ENCODING 39
SWIDTH 240 0
DWIDTH 4 0
BBX 2 4 1 8
BITMAP
C0
C0
C0
C0
ENDCHAR
STARTCHAR 0028
ENCODING 40
SWIDTH 360 0
DWIDTH 6 0
BBX 4 15 1 -3
BITMAP
30
60
60
60
C0
C0
C0
C0
C0
C0
C0
60
60
60
30
ENDCHAR
STARTCHAR 0029
ENCODING 41
SWIDTH 360 0
DWIDTH 6 0
BBX 4 15 1 -3
BITMAP
C0
60
60
60
30
30
30
30
30
30
30
60
60
60
C0
ENDCHAR
STARTCHAR 002A
ENCODING 42
SWIDTH 420 0
DWIDTH 7 0
BBX 5 5 1 7
BITMAP
20
F8
20
50
D8
ENDCHAR
STARTCHAR 002B
ENCODING 43
SWIDTH 600 0
DWIDTH 10 0
BBX 8 8 1 2
BITMAP
18
18
18
FF
FF
18
18
18
ENDCHAR
STARTCHAR 002C
ENCODING 44
SWIDTH 300 0
DWIDTH 5 0
BBX 2 5 1 -3
BITMAP
C0
C0
40
40
80
ENDCHAR
STARTCHAR 002D
ENCODING 45
SWIDTH 360 0
DWIDTH 6 0
BBX 5 2 1 3
BITMAP
F8
F8
ENDCHAR
STARTCHAR 002E
ENCODING 46
SWIDTH 300 0
DWIDTH 5 0
BBX 2 2 1 0
BITMAP
C0
C0
ENDCHAR
STARTCHAR 002F
ENCODING 47
SWIDTH 300 0
DWIDTH 5 0
BBX 5 12 0 0
BITMAP
18
18
30
30
30
30
60
60
60
60
C0
C0
ENDCHAR
STARTCHAR 0030
ENCODING 48
SWIDTH 540 0
DWIDTH 9 0
BBX 8 12 0 0
BITMAP
3C
7E
E7
C3
C3
C3
C3
C3
C3
E7
7E
3C
ENDCHAR
STARTCHAR 0031
ENCODING 49
SWIDTH 540 0
DWIDTH 9 0
BBX 5 12 1 0
BITMAP
18
38
78
D8
98
18
18
18
18
18
18
18
ENDCHAR
STARTCHAR 0032
ENCODING 50
SWIDTH 540 0
DWIDTH 9 0
BBX 8 12 0 0
BITMAP
3C
7E
E3
C3
03
06
0E
1C
38
60
FF
FF
ENDCHAR
STARTCHAR 0033
ENCODING 51
SWIDTH 540 0
DWIDTH 9 0
BBX 8 12 0 0
BITMAP
3E
7F
E3
03
1E
1E
07
03
C3
E7
7E
3C
ENDCHAR
STARTCHAR 0034
ENCODING 52
SWIDTH 540 0
DWIDTH 9 0
BBX 8 12 0 0
BITMAP
06
0E
0E
1E
36
36
66
C6
FF
FF
06
06
ENDCHAR
STARTCHAR 0035
ENCODING 53
SWIDTH 540 0
DWIDTH 9 0
BBX 8 12 0 0
BITMAP
7E
7E
60
C0
FC
FE
C7
03
C3
E7
7E
3C
ENDCHAR
STARTCHAR 0036
ENCODING 54
SWIDTH 540 0
DWIDTH 9 0
BBX 8 12 0 0
BITMAP
3E
7F
63
C0
DC
FE
E7
C3
C3
63
7E
3C
ENDCHAR
STARTCHAR 0037
ENCODING 55
SWIDTH 540 0
DWIDTH 9 0
BBX 8 12 0 0
BITMAP
FF
FF
06
0C
0C
18
18
18
30
30
30
30
ENDCHAR
STARTCHAR 0038
ENCODING 56
SWIDTH 540 0
DWIDTH 9 0
BBX 8 12 0 0
BITMAP
3C
7E
C3
C3
C3
7E
7E
C3
C3
C3
7E
3C
ENDCHAR
STARTCHAR 0039
ENCODING 57
SWIDTH 540 0
DWIDTH 9 0
BBX 8 12 0 0
BITMAP
3C
7E
C6
C3
C3
E7
7F
3B
03
C6
FE
7C
ENDCHAR
STARTCHAR 003A
ENCODING 58
SWIDTH 360 0
DWIDTH 6 0
BBX 2 9 2 0
BITMAP
C0
C0
00
00
00
00
00
C0
C0
ENDCHAR
STARTCHAR 003B
ENCODING 59
SWIDTH 360 0
DWIDTH 6 0
BBX 2 12 2 -3
BITMAP
C0
C0
00
00
00
00
00
C0
C0
40
40
80
ENDCHAR
STARTCHAR 003C
ENCODING 60
SWIDTH 600 0
DWIDTH 10 0
BBX 8 9 0 1
BITMAP
01
07
1E
78
E0
78
1E
07
01
ENDCHAR
STARTCHAR 003D
ENCODING 61
SWIDTH 600 0
DWIDTH 10 0
BBX 9 6 0 3
BITMAP
FF80
FF80
0000
0000
FF80
FF80
ENDCHAR
STARTCHAR 003E
ENCODING 62
SWIDTH 600 0
DWIDTH 10 0
BBX 8 9 0 1
BITMAP
80
E0
78
1E
07
1E
78
E0
80
ENDCHAR
STARTCHAR 003F
ENCODING 63
SWIDTH 600 0
DWIDTH 10 0
BBX 8 12 1 0
BITMAP
3C
7E
E3
C3
07
0E
1C
18
18
00
18
18
ENDCHAR
STARTCHAR 0040
ENCODING 64
SWIDTH 1020 0
DWIDTH 17 0
BBX 16 16 1 -4
BITMAP
07E0
1FF8
381C
776C
6FE6
ECE6
D8E6
D8C6
D8CE
D9DC
DFF8
6EF0
7007
381E
1FFC
07F0
ENDCHAR
STARTCHAR 0041
ENCODING 65
SWIDTH 660 0
DWIDTH 11 0
BBX 11 12 0 0
BITMAP
0E00
0E00
1B00
1B00
1B00
3180
3180
3F80
7FC0
60C0
60C0
C060
ENDCHAR
STARTCHAR 0042
ENCODING 66
SWIDTH 720 0
DWIDTH 12 0
BBX 10 12 1 0
BITMAP
FF00
FF80
C180
C180
C180
FF00
FF80
C0C0
C0C0
C0C0
FF80
FF00
ENDCHAR
STARTCHAR 0043
ENCODING 67
SWIDTH 720 0
DWIDTH 12 0
BBX 10 12 1 0
BITMAP
1F00
7F80
61C0
E080
C000
C000
C000
C000
E080
61C0
7F80
1F00
ENDCHAR
STARTCHAR 0044
ENCODING 68
SWIDTH 720 0
DWIDTH 12 0
BBX 10 12 1 0
BITMAP
FE00
FF80
C180
C0C0
C0C0
C0C0
C0C0
C0C0
C0C0
C180
FF80
FE00
ENDCHAR
STARTCHAR 0045
ENCODING 69
SWIDTH 660 0
DWIDTH 11 0
BBX 9 12 1 0
BITMAP
FF80
FF80
C000
C000
C000
FF80
FF80
C000
C000
C000
FF80
FF80
ENDCHAR
STARTCHAR 0046
ENCODING 70
SWIDTH 600 0
DWIDTH 10 0
BBX 8 12 1 0
BITMAP
FF
FF
C0
C0
C0
FE
FE
C0
C0
C0
C0
C0
ENDCHAR
STARTCHAR 0047
ENCODING 71
SWIDTH 780 0
DWIDTH 13 0
BBX 11 12 1 0
BITMAP
1F80
7FC0
60E0
E040
C000
C000
C3E0
C3E0
E060
60E0
7FE0
1F80
ENDCHAR
STARTCHAR 0048
ENCODING 72
SWIDTH 720 0
DWIDTH 12 0
BBX 10 12 1 0
BITMAP
C0C0
C0C0
C0C0
C0C0
C0C0
FFC0
FFC0
C0C0
C0C0
C0C0
C0C0
C0C0
ENDCHAR
STARTCHAR 0049
ENCODING 73
SWIDTH 240 0
DWIDTH 4 0
BBX 2 12 1 0
BITMAP
C0
C0
C0
C0
C0
C0
C0
C0
C0
C0
C0
C0
ENDCHAR
STARTCHAR 004A
ENCODING 74
SWIDTH 540 0
DWIDTH 9 0
BBX 8 12 0 0
BITMAP
03
03
03
03
03
03
03
03
C3
E7
7E
3C
ENDCHAR
STARTCHAR 004B
ENCODING 75
SWIDTH 720 0
DWIDTH 12 0
BBX 10 12 1 0
BITMAP
C0C0
C180
C300
C600
CC00
DE00
F700
E300
C380
C180
C0C0
C0C0
ENDCHAR
STARTCHAR 004C
ENCODING 76
SWIDTH 600 0
DWIDTH 10 0
BBX 8 12 1 0
BITMAP
C0
C0
C0
C0
C0
C0
C0
C0
C0
C0
FF
FF
ENDCHAR
STARTCHAR 004D
ENCODING 77
SWIDTH 780 0
DWIDTH 13 0
BBX 11 12 1 0
BITMAP
E0E0
E0E0
F1E0
F1E0
D160
DB60
DB60
DB60
CE60
CE60
CE60
C460
ENDCHAR
STARTCHAR 004E
ENCODING 78
SWIDTH 720 0
DWIDTH 12 0
BBX 10 12 1 0
BITMAP
C0C0
E0C0
F0C0
F0C0
D8C0
CCC0
CCC0
C6C0
C3C0
C3C0
C1C0
C0C0
ENDCHAR
STARTCHAR 004F
ENCODING 79
SWIDTH 780 0
DWIDTH 13 0
BBX 11 12 1 0
BITMAP
1F00
7FC0
60C0
E060
C060
C060
C060
C060
C060
60C0
7FC0
1F00
ENDCHAR
STARTCHAR 0050
ENCODING 80
SWIDTH 660 0
DWIDTH 11 0
BBX 9 12 1 0
BITMAP
FE00
FF00
C380
C180
C380
FF00
FE00
C000
C000
C000
C000
C000
ENDCHAR
STARTCHAR 0051
ENCODING 81
SWIDTH 780 0
DWIDTH 13 0
BBX 11 13 1 -1
BITMAP
1F00
7FC0
60C0
E060
C060
C060
C060
C060
C6E0
63C0
7FC0
1EC0
0060
ENDCHAR
STARTCHAR 0052
ENCODING 82
SWIDTH 720 0
DWIDTH 12 0
BBX 11 12 1 0
BITMAP
FF00
FF80
C1C0
C0C0
C1C0
FF80
FE00
C700
C380
C180
C1C0
C0E0
ENDCHAR
STARTCHAR 0053
ENCODING 83
SWIDTH 660 0
DWIDTH 11 0
BBX 9 12 1 0
BITMAP
3E00
7F00
E380
C180
F000
7E00
1F00
0380
C180
E380
7F00
3E00
ENDCHAR
STARTCHAR 0054
ENCODING 84
SWIDTH 600 0
DWIDTH 10 0
BBX 10 12 0 0
BITMAP
FFC0
FFC0
0C00
0C00
0C00
0C00
0C00
0C00
0C00
0C00
0C00
0C00
ENDCHAR
STARTCHAR 0055
ENCODING 85
SWIDTH 720 0
DWIDTH 12 0
BBX 10 12 1 0
BITMAP
C0C0
C0C0
C0C0
C0C0
C0C0
C0C0
C0C0
C0C0
C0C0
E1C0
7F80
3F00
ENDCHAR
STARTCHAR 0056
ENCODING 86
SWIDTH 660 0
DWIDTH 11 0
BBX 11 12 0 0
BITMAP
C060
60C0
60C0
60C0
3180
3180
3B80
1B00
1B00
0E00
0E00
0E00
ENDCHAR
STARTCHAR 0057
ENCODING 87
SWIDTH 1020 0
DWIDTH 17 0
BBX 17 12 0 0
BITMAP
C1C180
E1C180
63E300
636300
636300
377600
363600
363600
1E3E00
1C1C00
1C1C00
1C1C00
ENDCHAR
STARTCHAR 0058
ENCODING 88
SWIDTH 660 0
DWIDTH 11 0
BBX 9 12 1 0
BITMAP
C180
E380
6300
3600
3E00
1C00
1C00
3E00
3600
6300
E380
C180
ENDCHAR
STARTCHAR 0059
ENCODING 89
SWIDTH 600 0
DWIDTH 10 0
BBX 10 12 0 0
BITMAP
C0C0
E1C0
6180
3300
3300
1E00
0C00
0C00
0C00
0C00
0C00
0C00
ENDCHAR
STARTCHAR 005A
ENCODING 90
SWIDTH 540 0
DWIDTH 9 0
BBX 9 12 0 0
BITMAP
7F80
7F80
0300
0600
0E00
0C00
1800
3800
3000
6000
FF80
FF80
ENDCHAR
STARTCHAR 005B
ENCODING 91
SWIDTH 360 0
DWIDTH 6 0
BBX 4 15 1 -3
BITMAP
F0
F0
C0
C0
C0
C0
C0
C0
C0
C0
C0
C0
C0
F0
F0
ENDCHAR
STARTCHAR 005C
ENCODING 92
SWIDTH 300 0
DWIDTH 5 0
BBX 5 12 0 0
BITMAP
C0
C0
60
60
60
60
30
30
30
30
18
18
ENDCHAR
STARTCHAR 005D
ENCODING 93
SWIDTH 360 0
DWIDTH 6 0
BBX 4 15 1 -3
BITMAP
F0
F0
30
30
30
30
30
30
30
30
30
30
30
F0
F0
ENDCHAR
STARTCHAR 005E
ENCODING 94
SWIDTH 600 0
DWIDTH 10 0
BBX 8 7 1 5
BITMAP
18
3C
3C
66
66
66
C3
ENDCHAR
STARTCHAR 005F
ENCODING 95
SWIDTH 540 0
DWIDTH 9 0
BBX 9 2 0 -3
BITMAP
FF80
FF80
ENDCHAR
STARTCHAR 0060
ENCODING 96
SWIDTH 360 0
DWIDTH 6 0
BBX 3 2 1 10
BITMAP
C0
60
ENDCHAR
STARTCHAR 0061
ENCODING 97
SWIDTH 540 0
DWIDTH 9 0
BBX 8 9 1 0
BITMAP
7C
FE
C6
1E
7E
E6
C6
FE
7B
ENDCHAR
STARTCHAR 0062
ENCODING 98
SWIDTH 600 0
DWIDTH 10 0
BBX 8 12 1 0
BITMAP
C0
C0
C0
DC
FE
E7
C3
C3
C3
E7
FE
DC
ENDCHAR
STARTCHAR 0063
ENCODING 99
SWIDTH 540 0
DWIDTH 9 0
BBX 7 9 1 0
BITMAP
3C
7E
E6
C0
C0
C0
E6
7E
3C
ENDCHAR
STARTCHAR 0064
ENCODING 100
SWIDTH 600 0
DWIDTH 10 0
BBX 8 12 1 0
BITMAP
03
03
03
3B
7F
E7
C3
C3
C3
E7
7F
3B
ENDCHAR
STARTCHAR 0065
ENCODING 101
SWIDTH 540 0
DWIDTH 9 0
BBX 7 9 1 0
BITMAP
38
7C
C6
FE
FE
C0
E6
7C
38
ENDCHAR
STARTCHAR 0066
ENCODING 102
SWIDTH 300 0
DWIDTH 5 0
BBX 6 12 0 0
BITMAP
3C
7C
60
F8
F8
60
60
60
60
60
60
60
ENDCHAR
STARTCHAR 0067
ENCODING 103
SWIDTH 600 0
DWIDTH 10 0
BBX 8 12 1 -3
BITMAP
3B
7F
E7
C3
C3
C3
E7
7F
3B
C3
FF
7E
ENDCHAR
STARTCHAR 0068
ENCODING 104
SWIDTH 600 0
DWIDTH 10 0
BBX 8 12 1 0
BITMAP
C0
C0
C0
DE
FF
E3
C3
C3
C3
C3
C3
C3
ENDCHAR
STARTCHAR 0069
ENCODING 105
SWIDTH 240 0
DWIDTH 4 0
BBX 2 12 1 0
BITMAP
C0
C0
00
C0
C0
C0
C0
C0
C0
C0
C0
C0
ENDCHAR
STARTCHAR 006A
ENCODING 106
SWIDTH 240 0
DWIDTH 4 0
BBX 4 15 -1 -3
BITMAP
30
30
00
30
30
30
30
30
30
30
30
30
30
F0
E0
ENDCHAR
STARTCHAR 006B
ENCODING 107
SWIDTH 540 0
DWIDTH 9 0
BBX 7 12 1 0
BITMAP
C0
C0
C0
C6
CC
D8
F8
FC
EC
CC
C6
C6
ENDCHAR
STARTCHAR 006C
ENCODING 108
SWIDTH 240 0
DWIDTH 4 0
BBX 2 12 1 0
BITMAP
C0
C0
C0
C0
C0
C0
C0
C0
C0
C0
C0
C0
ENDCHAR
STARTCHAR 006D
ENCODING 109
SWIDTH 840 0
DWIDTH 14 0
BBX 12 9 1 0
BITMAP
DCE0
FFF0
E730
C630
C630
C630
C630
C630
C630
ENDCHAR
STARTCHAR 006E
ENCODING 110
SWIDTH 600 0
DWIDTH 10 0
BBX 8 9 1 0
BITMAP
DE
FF
E3
C3
C3
C3
C3
C3
C3
ENDCHAR
STARTCHAR 006F
ENCODING 111
SWIDTH 600 0
DWIDTH 10 0
BBX 8 9 1 0
BITMAP
3C
7E
E7
C3
C3
C3
E7
7E
3C
ENDCHAR
STARTCHAR 0070
ENCODING 112
SWIDTH 600 0
DWIDTH 10 0
BBX 8 12 1 -3
BITMAP
DC
FE
E7
C3
C3
C3
E7
FE
DC
C0
C0
C0
ENDCHAR
STARTCHAR 0071
ENCODING 113
SWIDTH 600 0
DWIDTH 10 0
BBX 8 12 1 -3
BITMAP
3B
7F
E7
C3
C3
C3
E7
7F
3B
03
03
03
ENDCHAR
STARTCHAR 0072
ENCODING 114
SWIDTH 420 0
DWIDTH 7 0
BBX 6 9 1 0
BITMAP
DC
FC
E0
C0
C0
C0
C0
C0
C0
ENDCHAR
STARTCHAR 0073
ENCODING 115
SWIDTH 540 0
DWIDTH 9 0
BBX 7 9 1 0
BITMAP
7C
FE
C6
F0
7C
0E
C6
FE
7C
ENDCHAR
STARTCHAR 0074
ENCODING 116
SWIDTH 360 0
DWIDTH 6 0
BBX 5 12 0 0
BITMAP
20
60
60
F8
F8
60
60
60
60
60
78
38
ENDCHAR
STARTCHAR 0075
ENCODING 117
SWIDTH 600 0
DWIDTH 10 0
BBX 8 9 1 0
BITMAP
C3
C3
C3
C3
C3
C3
C7
FF
7B
ENDCHAR
STARTCHAR 0076
ENCODING 118
SWIDTH 540 0
DWIDTH 9 0
BBX 7 9 1 0
BITMAP
C6
C6
C6
6C
6C
6C
38
38
38
ENDCHAR
STARTCHAR 0077
ENCODING 119
SWIDTH 780 0
DWIDTH 13 0
BBX 13 9 0 0
BITMAP
C718
C718
6730
6DB0
6DB0
6DB0
38E0
38E0
38E0
ENDCHAR
STARTCHAR 0078
ENCODING 120
SWIDTH 540 0
DWIDTH 9 0
BBX 7 9 1 0
BITMAP
C6
EE
6C
38
38
38
6C
EE
C6
ENDCHAR
STARTCHAR 0079
ENCODING 121
SWIDTH 540 0
DWIDTH 9 0
BBX 9 12 0 -3
BITMAP
C180
C180
6300
6300
3600
3600
3E00
1C00
1C00
1800
7800
7000
ENDCHAR
STARTCHAR 007A
ENCODING 122
SWIDTH 540 0
DWIDTH 9 0
BBX 7 9 1 0
BITMAP
FE
FE
0C
1C
38
70
60
FE
FE
ENDCHAR
STARTCHAR 007B
ENCODING 123
SWIDTH 420 0
DWIDTH 7 0
BBX 6 15 1 -3
BITMAP
1C
3C
30
30
30
30
E0
E0
30
30
30
30
30
3C
1C
ENDCHAR
STARTCHAR 007C
ENCODING 124
SWIDTH 240 0
DWIDTH 4 0
BBX 2 16 1 -4
BITMAP
C0
C0
C0
C0
C0
C0
C0
C0
C0
C0
C0
C0
C0
C0
C0
C0
ENDCHAR
STARTCHAR 007D
ENCODING 125
SWIDTH 420 0
DWIDTH 7 0
BBX 6 15 0 -3
BITMAP
E0
F0
30
30
30
30
1C
1C
30
30
30
30
30
F0
E0
ENDCHAR
STARTCHAR 007E
ENCODING 126
SWIDTH 600 0
DWIDTH 10 0
BBX 9 3 0 4
BITMAP
7880
FF80
8F00
ENDCHAR
STARTCHAR 00A0
ENCODING 160
SWIDTH 300 0
DWIDTH 5 0
BBX 0 0 0 0
BITMAP
ENDCHAR
STARTCHAR 00A1
ENCODING 161
SWIDTH 360 0
DWIDTH 6 0
BBX 2 12 2 -3
BITMAP
C0
C0
00
C0
C0
C0
C0
C0
C0
C0
C0
C0
ENDCHAR
STARTCHAR 00A2
ENCODING 162
SWIDTH 540 0
DWIDTH 9 0
BBX 8 15 0 -3
BITMAP
02
02
04
3E
7E
EB
C8
D0
D3
F7
7E
3C
20
40
40
ENDCHAR
STARTCHAR 00A3
ENCODING 163
SWIDTH 540 0
DWIDTH 9 0
BBX 9 12 0 0
BITMAP
1E00
3F00
6380
6180
6000
FC00
FC00
3000
3000
7900
FF80
4700
ENDCHAR
STARTCHAR 00A4
ENCODING 164
SWIDTH 540 0
DWIDTH 9 0
BBX 9 9 0 1
BITMAP
2200
7F00
FF80
6300
6300
6300
FF80
7F00
2200
ENDCHAR
STARTCHAR 00A5
ENCODING 165
SWIDTH 540 0
DWIDTH 9 0
BBX 8 12 0 0
BITMAP
C3
66
66
24
3C
3C
FF
18
FF
18
18
18
ENDCHAR
STARTCHAR 00A6
ENCODING 166
SWIDTH 240 0
DWIDTH 4 0
BBX 2 16 1 -4
BITMAP
C0
C0
C0
C0
C0
C0
00
00
00
C0
C0
C0
C0
C0
C0
C0
ENDCHAR
STARTCHAR 00A7
ENCODING 167
SWIDTH 540 0
DWIDTH 9 0
BBX 8 16 0 -4
BITMAP
3C
7E
66
70
38
7C
CE
C7
E3
73
3E
1C
0E
66
7E
3C
ENDCHAR
STARTCHAR 00A8
ENCODING 168
SWIDTH 360 0
DWIDTH 6 0
BBX 6 2 0 10
BITMAP
CC
CC
ENDCHAR
STARTCHAR 00A9
ENCODING 169
SWIDTH 780 0
DWIDTH 13 0
BBX 12 12 0 0
BITMAP
0F00
30C0
4020
4F20
9090
9010
9010
9090
4F20
4020
30C0
0F00
ENDCHAR
STARTCHAR 00AA
ENCODING 170
SWIDTH 360 0
DWIDTH 6 0
BBX 5 6 0 6
BITMAP
70
D8
38
D8
D8
78
ENDCHAR
STARTCHAR 00AB
ENCODING 171
SWIDTH 540 0
DWIDTH 9 0
BBX 7 8 1 1
BITMAP
36
6C
6C
D8
D8
6C
6C
36
ENDCHAR
STARTCHAR 00AC
ENCODING 172
SWIDTH 600 0
DWIDTH 10 0
BBX 9 6 0 3
BITMAP
FF80
FF80
0180
0180
0180
0180
ENDCHAR
STARTCHAR 00AD
ENCODING 173
SWIDTH 360 0
DWIDTH 6 0
BBX 5 2 1 3
BITMAP
F8
F8
ENDCHAR
STARTCHAR 00AE
ENCODING 174
SWIDTH 780 0
DWIDTH 13 0
BBX 12 12 0 0
BITMAP
0F00
30C0
4020
4E20
8910
8910
8E10
8910
4920
4020
30C0
0F00
ENDCHAR
STARTCHAR 00AF
ENCODING 175
SWIDTH 540 0
DWIDTH 9 0
BBX 9 2 0 13
BITMAP
FF80
FF80
ENDCHAR
STARTCHAR 00B0
ENCODING 176
SWIDTH 420 0
DWIDTH 7 0
BBX 5 5 1 7
BITMAP
70
88
88
88
70
ENDCHAR
STARTCHAR 00B1
ENCODING 177
SWIDTH 540 0
DWIDTH 9 0
BBX 8 11 0 0
BITMAP
18
18
18
FF
FF
18
18
18
00
FF
FF
ENDCHAR
STARTCHAR 00B2
ENCODING 178
SWIDTH 360 0
DWIDTH 6 0
BBX 5 6 0 6
BITMAP
70
D8
18
30
60
F8
ENDCHAR
STARTCHAR 00B3
ENCODING 179
SWIDTH 360 0
DWIDTH 6 0
BBX 5 6 0 6
BITMAP
70
D8
30
18
D8
70
ENDCHAR
STARTCHAR 00B4
ENCODING 180
SWIDTH 360 0
DWIDTH 6 0
BBX 3 2 1 10
BITMAP
60
C0
ENDCHAR
STARTCHAR 00B5
ENCODING 181
SWIDTH 600 0
DWIDTH 10 0
BBX 8 12 1 -3
BITMAP
C3
C3
C3
C3
C3
C3
E7
FF
DB
C0
C0
C0
ENDCHAR
STARTCHAR 00B6
ENCODING 182
SWIDTH 540 0
DWIDTH 9 0
BBX 9 16 0 -4
BITMAP
3F80
7F80
FB00
FB00
FB00
FB00
7B00
1B00
1B00
1B00
1B00
1B00
1B00
1B00
1B00
1B00
ENDCHAR
STARTCHAR 00B7
ENCODING 183
SWIDTH 360 0
DWIDTH 6 0
BBX 2 2 2 5
BITMAP
C0
C0
ENDCHAR
STARTCHAR 00B8
ENCODING 184
SWIDTH 300 0
DWIDTH 5 0
BBX 4 3 0 -3
BITMAP
70
30
E0
ENDCHAR
STARTCHAR 00B9
ENCODING 185
SWIDTH 360 0
DWIDTH 6 0
BBX 4 6 0 6
BITMAP
30
F0
30
30
30
30
ENDCHAR
STARTCHAR 00BA
ENCODING 186
SWIDTH 360 0
DWIDTH 6 0
BBX 5 6 1 6
BITMAP
70
D8
D8
D8
D8
70
ENDCHAR
STARTCHAR 00BB
ENCODING 187
SWIDTH 540 0
DWIDTH 9 0
BBX 7 8 1 1
BITMAP
D8
6C
6C
36
36
6C
6C
D8
ENDCHAR
STARTCHAR 00BC
ENCODING 188
SWIDTH 840 0
DWIDTH 14 0
BBX 14 12 0 0
BITMAP
30C0
F0C0
3180
3180
3300
3300
0618
0638
0C58
1898
18FC
3018
ENDCHAR
STARTCHAR 00BD
ENCODING 189
SWIDTH 840 0
DWIDTH 14 0
BBX 13 12 0 0
BITMAP
30C0
F0C0
3180
3180
3300
3300
0670
0CD8
0C18
1830
1860
30F8
ENDCHAR
STARTCHAR 00BE
ENCODING 190
SWIDTH 840 0
DWIDTH 14 0
BBX 14 12 0 0
BITMAP
7060
D8C0
30C0
1980
D980
7300
0618
0638
0C58
0C98
18FC
1818
ENDCHAR
STARTCHAR 00BF
ENCODING 191
SWIDTH 600 0
DWIDTH 10 0
BBX 8 12 1 -3
BITMAP
18
18
00
18
18
38
70
E0
C3
C7
7E
3C
ENDCHAR
STARTCHAR 00C0
ENCODING 192
SWIDTH 660 0
DWIDTH 11 0
BBX 11 15 0 0
BITMAP
0C00
0600
0000
0E00
0E00
1B00
1B00
1B00
3180
3180
3F80
7FC0
60C0
60C0
C060
ENDCHAR
STARTCHAR 00C1
ENCODING 193
SWIDTH 660 0
DWIDTH 11 0
BBX 11 15 0 0
BITMAP
0300
0600
0000
0E00
0E00
1B00
1B00
1B00
3180
3180
3F80
7FC0
60C0
60C0
C060
ENDCHAR
STARTCHAR 00C2
ENCODING 194
SWIDTH 660 0
DWIDTH 11 0
BBX 11 15 0 0
BITMAP
0E00
1B00
0000
0E00
0E00
1B00
1B00
1B00
3180
3180
3F80
7FC0
60C0
60C0
C060
ENDCHAR
STARTCHAR 00C3
ENCODING 195
SWIDTH 660 0
DWIDTH 11 0
BBX 11 15 0 0
BITMAP
1C80
1380
0000
0E00
0E00
1B00
1B00
1B00
3180
3180
3F80
7FC0
60C0
60C0
C060
ENDCHAR
STARTCHAR 00C4
ENCODING 196
SWIDTH 660 0
DWIDTH 11 0
BBX 11 15 0 0
BITMAP
1980
1980
0000
0E00
0E00
1B00
1B00
1B00
3180
3180
3F80
7FC0
60C0
60C0
C060
ENDCHAR
STARTCHAR 00C5
ENCODING 197
SWIDTH 660 0
DWIDTH 11 0
BBX 11 15 0 0
BITMAP
0600
0900
0900
0E00
0E00
1B00
1B00
1B00
3180
3180
3F80
7FC0
60C0
60C0
C060
ENDCHAR
STARTCHAR 00C6
ENCODING 198
SWIDTH 1020 0
DWIDTH 17 0
BBX 17 12 -1 0
BITMAP
03FF80
07FF80
06C000
0CC000
0CC000
18FF80
18FF80
3FC000
3FC000
60C000
60FF80
C0FF80
ENDCHAR
STARTCHAR 00C7
ENCODING 199
SWIDTH 720 0
DWIDTH 12 0
BBX 10 15 1 -3
BITMAP
1F00
7F80
61C0
E080
C000
C000
C000
C000
E080
61C0
7F80
1F00
0E00
0600
1C00
ENDCHAR
STARTCHAR 00C8
ENCODING 200
SWIDTH 660 0
DWIDTH 11 0
BBX 9 15 1 0
BITMAP
1800
0C00
0000
FF80
FF80
C000
C000
C000
FF80
FF80
C000
C000
C000
FF80
FF80
ENDCHAR
STARTCHAR 00C9
ENCODING 201
SWIDTH 660 0
DWIDTH 11 0
BBX 9 15 1 0
BITMAP
0600
0C00
0000
FF80
FF80
C000
C000
C000
FF80
FF80
C000
C000
C000
FF80
FF80
ENDCHAR
STARTCHAR 00CA
ENCODING 202
SWIDTH 660 0
DWIDTH 11 0
BBX 9 15 1 0
BITMAP
1C00
3600
0000
FF80
FF80
C000
C000
C000
FF80
FF80
C000
C000
C000
FF80
FF80
ENDCHAR
STARTCHAR 00CB
ENCODING 203
SWIDTH 660 0
DWIDTH 11 0
BBX 9 15 1 0
BITMAP
3300
3300
0000
FF80
FF80
C000
C000
C000
FF80
FF80
C000
C000
C000
FF80
FF80
ENDCHAR
STARTCHAR 00CC
ENCODING 204
SWIDTH 240 0
DWIDTH 4 0
BBX 3 15 0 0
BITMAP
C0
60
00
60
60
60
60
60
60
60
60
60
60
60
60
ENDCHAR
STARTCHAR 00CD
ENCODING 205
SWIDTH 240 0
DWIDTH 4 0
BBX 3 15 1 0
BITMAP
60
C0
00
C0
C0
C0
C0
C0
C0
C0
C0
C0
C0
C0
C0
ENDCHAR
STARTCHAR 00CE
ENCODING 206
SWIDTH 240 0
DWIDTH 4 0
BBX 5 15 0 0
BITMAP
70
D8
00
60
60
60
60
60
60
60
60
60
60
60
60
ENDCHAR
STARTCHAR 00CF
ENCODING 207
SWIDTH 240 0
DWIDTH 4 0
BBX 6 15 -1 0
BITMAP
CC
CC
00
30
30
30
30
30
30
30
30
30
30
30
30
ENDCHAR
STARTCHAR 00D0
ENCODING 208
SWIDTH 720 0
DWIDTH 12 0
BBX 11 12 0 0
BITMAP
7F00
7FC0
60C0
6060
6060
FC60
6060
6060
6060
60C0
7FC0
7F00
ENDCHAR
STARTCHAR 00D1
ENCODING 209
SWIDTH 720 0
DWIDTH 12 0
BBX 10 15 1 0
BITMAP
3900
2700
0000
C0C0
E0C0
F0C0
F0C0
D8C0
CCC0
CCC0
C6C0
C3C0
C3C0
C1C0
C0C0
ENDCHAR
STARTCHAR 00D2
ENCODING 210
SWIDTH 780 0
DWIDTH 13 0
BBX 11 15 1 0
BITMAP
0C00
0600
0000
1F00
7FC0
60C0
E060
C060
C060
C060
C060
C060
60C0
7FC0
1F00
ENDCHAR
STARTCHAR 00D3
ENCODING 211
SWIDTH 780 0
DWIDTH 13 0
BBX 11 15 1 0
BITMAP
0600
0C00
0000
1F00
7FC0
60C0
E060
C060
C060
C060
C060
C060
60C0
7FC0
1F00
ENDCHAR
STARTCHAR 00D4
ENCODING 212
SWIDTH 780 0
DWIDTH 13 0
BBX 11 15 1 0
BITMAP
0E00
1B00
0000
1F00
7FC0
60C0
E060
C060
C060
C060
C060
C060
60C0
7FC0
1F00
ENDCHAR
STARTCHAR 00D5
ENCODING 213
SWIDTH 780 0
DWIDTH 13 0
BBX 11 15 1 0
BITMAP
1C80
1380
0000
1F00
7FC0
60C0
E060
C060
C060
C060
C060
C060
60C0
7FC0
1F00
ENDCHAR
STARTCHAR 00D6
ENCODING 214
SWIDTH 780 0
DWIDTH 13 0
BBX 11 15 1 0
BITMAP
1980
1980
0000
1F00
7FC0
60C0
E060
C060
C060
C060
C060
C060
60C0
7FC0
1F00
ENDCHAR
STARTCHAR 00D7
ENCODING 215
SWIDTH 600 0
DWIDTH 10 0
BBX 6 7 2 2
BITMAP
84
CC
78
30
78
CC
84
ENDCHAR
STARTCHAR 00D8
ENCODING 216
SWIDTH 780 0
DWIDTH 13 0
BBX 12 13 1 0
BITMAP
0020
1F30
7FE0
61C0
C1E0
C360
C660
CC60
D860
F060
70C0
FFC0
9F00
ENDCHAR
STARTCHAR 00D9
ENCODING 217
SWIDTH 720 0
DWIDTH 12 0
BBX 10 15 1 0
BITMAP
1800
0C00
0000
C0C0
C0C0
C0C0
C0C0
C0C0
C0C0
C0C0
C0C0
C0C0
E1C0
7F80
3F00
ENDCHAR
STARTCHAR 00DA
ENCODING 218
SWIDTH 720 0
DWIDTH 12 0
BBX 10 15 1 0
BITMAP
0600
0C00
0000
C0C0
C0C0
C0C0
C0C0
C0C0
C0C0
C0C0
C0C0
C0C0
E1C0
7F80
3F00
ENDCHAR
STARTCHAR 00DB
ENCODING 219
SWIDTH 720 0
DWIDTH 12 0
BBX 10 15 1 0
BITMAP
0E00
1B00
0000
C0C0
C0C0
C0C0
C0C0
C0C0
C0C0
C0C0
C0C0
C0C0
E1C0
7F80
3F00
ENDCHAR
STARTCHAR 00DC
ENCODING 220
SWIDTH 720 0
DWIDTH 12 0
BBX 10 15 1 0
BITMAP
3300
3300
0000
C0C0
C0C0
C0C0
C0C0
C0C0
C0C0
C0C0
C0C0
C0C0
E1C0
7F80
3F00
ENDCHAR
STARTCHAR 00DD
ENCODING 221
SWIDTH 600 0
DWIDTH 10 0
BBX 10 15 0 0
BITMAP
0600
0C00
0000
C0C0
E1C0
6180
3300
3300
1E00
0C00
0C00
0C00
0C00
0C00
0C00
ENDCHAR
STARTCHAR 00DE
ENCODING 222
SWIDTH 660 0
DWIDTH 11 0
BBX 9 12 1 0
BITMAP
C000
C000
FE00
FF00
C380
C180
C180
C380
FF00
FE00
C000
C000
ENDCHAR
STARTCHAR 00DF
ENCODING 223
SWIDTH 600 0
DWIDTH 10 0
BBX 8 12 1 0
BITMAP
7C
FE
C6
C6
CC
CC
CE
C6
C3
CB
DF
CE
ENDCHAR
STARTCHAR 00E0
ENCODING 224
SWIDTH 540 0
DWIDTH 9 0
BBX 8 12 1 0
BITMAP
30
18
00
7C
FE
C6
1E
7E
E6
C6
FE
7B
ENDCHAR
STARTCHAR 00E1
ENCODING 225
SWIDTH 540 0
DWIDTH 9 0
BBX 8 12 1 0
BITMAP
0C
18
00
7C
FE
C6
1E
7E
E6
C6
FE
7B
ENDCHAR
STARTCHAR 00E2
ENCODING 226
SWIDTH 540 0
DWIDTH 9 0
BBX 8 12 1 0
BITMAP
38
6C
00
7C
FE
C6
1E
7E
E6
C6
FE
7B
ENDCHAR
STARTCHAR 00E3
ENCODING 227
SWIDTH 540 0
DWIDTH 9 0
BBX 8 12 1 0
BITMAP
72
4E
00
7C
FE
C6
1E
7E
E6
C6
FE
7B
ENDCHAR
STARTCHAR 00E4
ENCODING 228
SWIDTH 540 0
DWIDTH 9 0
BBX 8 12 1 0
BITMAP
66
66
00
7C
FE
C6
1E
7E
E6
C6
FE
7B
ENDCHAR
STARTCHAR 00E5
ENCODING 229
SWIDTH 540 0
DWIDTH 9 0
BBX 8 14 1 0
BITMAP
18
24
24
18
00
7C
FE
C6
1E
7E
E6
C6
FE
7B
ENDCHAR
STARTCHAR 00E6
ENCODING 230
SWIDTH 900 0
DWIDTH 15 0
BBX 13 9 1 0
BITMAP
3DE0
7FF0
C618
1FF8
7FF8
E600
C718
FFF0
79E0
ENDCHAR
STARTCHAR 00E7
ENCODING 231
SWIDTH 540 0
DWIDTH 9 0
BBX 7 12 1 -3
BITMAP
3C
7E
E6
C0
C0
C0
E6
7E
3C
38
18
70
ENDCHAR
STARTCHAR 00E8
ENCODING 232
SWIDTH 540 0
DWIDTH 9 0
BBX 7 12 1 0
BITMAP
30
18
00
38
7C
C6
FE
FE
C0
E6
7C
38
ENDCHAR
STARTCHAR 00E9
ENCODING 233
SWIDTH 540 0
DWIDTH 9 0
BBX 7 12 1 0
BITMAP
18
30
00
38
7C
C6
FE
FE
C0
E6
7C
38
ENDCHAR
STARTCHAR 00EA
ENCODING 234
SWIDTH 540 0
DWIDTH 9 0
BBX 7 12 1 0
BITMAP
38
6C
00
38
7C
C6
FE
FE
C0
E6
7C
38
ENDCHAR
STARTCHAR 00EB
ENCODING 235
SWIDTH 540 0
DWIDTH 9 0
BBX 7 12 1 0
BITMAP
66
66
00
38
7C
C6
FE
FE
C0
E6
7C
38
ENDCHAR
STARTCHAR 00EC
ENCODING 236
SWIDTH 240 0
DWIDTH 4 0
BBX 3 12 0 0
BITMAP
C0
60
00
60
60
60
60
60
60
60
60
60
ENDCHAR
STARTCHAR 00ED
ENCODING 237
SWIDTH 240 0
DWIDTH 4 0
BBX 3 12 1 0
BITMAP
60
C0
00
C0
C0
C0
C0
C0
C0
C0
C0
C0
ENDCHAR
STARTCHAR 00EE
ENCODING 238
SWIDTH 240 0
DWIDTH 4 0
BBX 5 12 0 0
BITMAP
70
D8
00
60
60
60
60
60
60
60
60
60
ENDCHAR
STARTCHAR 00EF
ENCODING 239
SWIDTH 240 0
DWIDTH 4 0
BBX 6 12 -1 0
BITMAP
CC
CC
00
30
30
30
30
30
30
30
30
30
ENDCHAR
STARTCHAR 00F0
ENCODING 240
SWIDTH 600 0
DWIDTH 10 0
BBX 8 12 1 0
BITMAP
1A
0C
16
3A
7F
E7
C3
C3
C3
E7
7E
3C
ENDCHAR
STARTCHAR 00F1
ENCODING 241
SWIDTH 600 0
DWIDTH 10 0
BBX 8 12 1 0
BITMAP
72
4E
00
DE
FF
E3
C3
C3
C3
C3
C3
C3
ENDCHAR
STARTCHAR 00F2
ENCODING 242
SWIDTH 600 0
DWIDTH 10 0
BBX 8 12 1 0
BITMAP
18
0C
00
3C
7E
E7
C3
C3
C3
E7
7E
3C
ENDCHAR
STARTCHAR 00F3
ENCODING 243
SWIDTH 600 0
DWIDTH 10 0
BBX 8 12 1 0
BITMAP
0C
18
00
3C
7E
E7
C3
C3
C3
E7
7E
3C
ENDCHAR
STARTCHAR 00F4
ENCODING 244
SWIDTH 600 0
DWIDTH 10 0
BBX 8 12 1 0
BITMAP
1C
36
00
3C
7E
E7
C3
C3
C3
E7
7E
3C
ENDCHAR
STARTCHAR 00F5
ENCODING 245
SWIDTH 600 0
DWIDTH 10 0
BBX 8 12 1 0
BITMAP
72
4E
00
3C
7E
E7
C3
C3
C3
E7
7E
3C
ENDCHAR
STARTCHAR 00F6
ENCODING 246
SWIDTH 600 0
DWIDTH 10 0
BBX 8 12 1 0
BITMAP
66
66
00
3C
7E
E7
C3
C3
C3
E7
7E
3C
ENDCHAR
STARTCHAR 00F7
ENCODING 247
SWIDTH 540 0
DWIDTH 9 0
BBX 8 8 0 2
BITMAP
18
18
00
FF
FF
00
18
18
ENDCHAR
STARTCHAR 00F8
ENCODING 248
SWIDTH 600 0
DWIDTH 10 0
BBX 8 10 1 0
BITMAP
02
3B
7E
EF
CB
DB
F3
E7
7E
DC
ENDCHAR
STARTCHAR 00F9
ENCODING 249
SWIDTH 600 0
DWIDTH 10 0
BBX 8 12 1 0
BITMAP
30
18
00
C3
C3
C3
C3
C3
C3
C7
FF
7B
ENDCHAR
STARTCHAR 00FA
ENCODING 250
SWIDTH 600 0
DWIDTH 10 0
BBX 8 12 1 0
BITMAP
0C
18
00
C3
C3
C3
C3
C3
C3
C7
FF
7B
ENDCHAR
STARTCHAR 00FB
ENCODING 251
SWIDTH 600 0
DWIDTH 10 0
BBX 8 12 1 0
BITMAP
1C
36
00
C3
C3
C3
C3
C3
C3
C7
FF
7B
ENDCHAR
STARTCHAR 00FC
ENCODING 252
SWIDTH 600 0
DWIDTH 10 0
BBX 8 12 1 0
BITMAP
66
66
00
C3
C3
C3
C3
C3
C3
C7
FF
7B
ENDCHAR
STARTCHAR 00FD
ENCODING 253
SWIDTH 540 0
DWIDTH 9 0
BBX 9 15 0 -3
BITMAP
0600
0C00
0000
C180
C180
6300
6300
3600
3600
3E00
1C00
1C00
1800
7800
7000
ENDCHAR
STARTCHAR 00FE
ENCODING 254
SWIDTH 600 0
DWIDTH 10 0
BBX 8 15 1 -3
BITMAP
C0
C0
C0
DC
FE
E7
C3
C3
C3
E7
FE
DC
C0
C0
C0
ENDCHAR
STARTCHAR 00FF
ENCODING 255
SWIDTH 540 0
DWIDTH 9 0
BBX 9 15 0 -3
BITMAP
3300
3300
0000
C180
C180
6300
6300
3600
3600
3E00
1C00
1C00
1800
7800
7000
ENDCHAR
STARTCHAR 0100
ENCODING 256
SWIDTH 660 0
DWIDTH 11 0
BBX 11 15 0 0
BITMAP
1F80
1F80
0000
0E00
0E00
1B00
1B00
1B00
3180
3180
3F80
7FC0
60C0
60C0
C060
ENDCHAR
STARTCHAR 0101
ENCODING 257
SWIDTH 540 0
DWIDTH 9 0
BBX 8 12 1 0
BITMAP
7E
7E
00
7C
FE
C6
1E
7E
E6
C6
FE
7B
ENDCHAR
STARTCHAR 0102
ENCODING 258
SWIDTH 660 0
DWIDTH 11 0
BBX 11 15 0 0
BITMAP
1100
0E00
0000
0E00
0E00
1B00
1B00
1B00
3180
3180
3F80
7FC0
60C0
60C0
C060
ENDCHAR
STARTCHAR 0103
ENCODING 259
SWIDTH 540 0
DWIDTH 9 0
BBX 8 12 1 0
BITMAP
44
38
00
7C
FE
C6
1E
7E
E6
C6
FE
7B
ENDCHAR
STARTCHAR 0104
ENCODING 260
SWIDTH 660 0
DWIDTH 11 0
BBX 11 15 0 -3
BITMAP
0E00
0E00
1B00
1B00
1B00
3180
3180
3F80
7FC0
60C0
60C0
C060
0040
00C0
00E0
ENDCHAR
STARTCHAR 0105
ENCODING 261
SWIDTH 540 0
DWIDTH 9 0
BBX 8 12 1 -3
BITMAP
7C
FE
C6
1E
7E
E6
C6
FE
7B
02
06
07
ENDCHAR
STARTCHAR 0106
ENCODING 262
SWIDTH 720 0
DWIDTH 12 0
BBX 10 15 1 0
BITMAP
0600
0C00
0000
1F00
7F80
61C0
E080
C000
C000
C000
C000
E080
61C0
7F80
1F00
ENDCHAR
STARTCHAR 0107
ENCODING 263
SWIDTH 540 0
DWIDTH 9 0
BBX 7 12 1 0
BITMAP
0C
18
00
3C
7E
E6
C0
C0
C0
E6
7E
3C
ENDCHAR
STARTCHAR 0108
ENCODING 264
SWIDTH 720 0
DWIDTH 12 0
BBX 10 15 1 0
BITMAP
0E00
1B00
0000
1F00
7F80
61C0
E080
C000
C000
C000
C000
E080
61C0
7F80
1F00
ENDCHAR
STARTCHAR 0109
ENCODING 265
SWIDTH 540 0
DWIDTH 9 0
BBX 7 12 1 0
BITMAP
38
6C
00
3C
7E
E6
C0
C0
C0
E6
7E
3C
ENDCHAR
STARTCHAR 010A
ENCODING 266
SWIDTH 720 0
DWIDTH 12 0
BBX 10 15 1 0
BITMAP
0C00
0C00
0000
1F00
7F80
61C0
E080
C000
C000
C000
C000
E080
61C0
7F80
1F00
ENDCHAR
STARTCHAR 010B
ENCODING 267
SWIDTH 540 0
DWIDTH 9 0
BBX 7 12 1 0
BITMAP
18
18
00
3C
7E
E6
C0
C0
C0
E6
7E
3C
ENDCHAR
STARTCHAR 010C
ENCODING 268
SWIDTH 720 0
DWIDTH 12 0
BBX 10 15 1 0
BITMAP
1B00
0E00
0000
1F00
7F80
61C0
E080
C000
C000
C000
C000
E080
61C0
7F80
1F00
ENDCHAR
STARTCHAR 010D
ENCODING 269
SWIDTH 540 0
DWIDTH 9 0
BBX 7 12 1 0
BITMAP
6C
38
00
3C
7E
E6
C0
C0
C0
E6
7E
3C
ENDCHAR
STARTCHAR 010E
ENCODING 270
SWIDTH 720 0
DWIDTH 12 0
BBX 10 15 1 0
BITMAP
3600
1C00
0000
FE00
FF80
C180
C0C0
C0C0
C0C0
C0C0
C0C0
C0C0
C180
FF80
FE00
ENDCHAR
STARTCHAR 010F
ENCODING 271
SWIDTH 720 0
DWIDTH 12 0
BBX 11 12 1 0
BITMAP
0360
0360
0320
3B40
7F00
E700
C300
C300
C300
E700
7F00
3B00
ENDCHAR
STARTCHAR 0110
ENCODING 272
SWIDTH 720 0
DWIDTH 12 0
BBX 11 12 0 0
BITMAP
7F00
7FC0
60C0
6060
6060
FC60
6060
6060
6060
60C0
7FC0
7F00
ENDCHAR
STARTCHAR 0111
ENCODING 273
SWIDTH 600 0
DWIDTH 10 0
BBX 9 12 1 0
BITMAP
0300
1F80
0300
3B00
7F00
E700
C300
C300
C300
E700
7F00
3B00
ENDCHAR
STARTCHAR 0112
ENCODING 274
SWIDTH 660 0
DWIDTH 11 0
BBX 9 15 1 0
BITMAP
3F00
3F00
0000
FF80
FF80
C000
C000
C000
FF80
FF80
C000
C000
C000
FF80
FF80
ENDCHAR
STARTCHAR 0113
ENCODING 275
SWIDTH 540 0
DWIDTH 9 0
BBX 7 12 1 0
BITMAP
7E
7E
00
38
7C
C6
FE
FE
C0
E6
7C
38
ENDCHAR
STARTCHAR 0114
ENCODING 276
SWIDTH 660 0
DWIDTH 11 0
BBX 9 15 1 0
BITMAP
2200
1C00
0000
FF80
FF80
C000
C000
C000
FF80
FF80
C000
C000
C000
FF80
FF80
ENDCHAR
STARTCHAR 0115
ENCODING 277
SWIDTH 540 0
DWIDTH 9 0
BBX 7 12 1 0
BITMAP
44
38
00
38
7C
C6
FE
FE
C0
E6
7C
38
ENDCHAR
STARTCHAR 0116
ENCODING 278
SWIDTH 660 0
DWIDTH 11 0
BBX 9 15 1 0
BITMAP
0C00
0C00
0000
FF80
FF80
C000
C000
C000
FF80
FF80
C000
C000
C000
FF80
FF80
ENDCHAR
STARTCHAR 0117
ENCODING 279
SWIDTH 540 0
DWIDTH 9 0
BBX 7 12 1 0
BITMAP
18
18
00
38
7C
C6
FE
FE
C0
E6
7C
38
ENDCHAR
STARTCHAR 0118
ENCODING 280
SWIDTH 660 0
DWIDTH 11 0
BBX 9 15 1 -3
BITMAP
FF80
FF80
C000
C000
C000
FF80
FF80
C000
C000
C000
FF80
FF80
0100
0300
0380
ENDCHAR
STARTCHAR 0119
ENCODING 281
SWIDTH 540 0
DWIDTH 9 0
BBX 7 12 1 -3
BITMAP
38
7C
C6
FE
FE
C0
E6
7C
38
08
18
1C
ENDCHAR
STARTCHAR 011A
ENCODING 282
SWIDTH 660 0
DWIDTH 11 0
BBX 9 15 1 0
BITMAP
3600
1C00
0000
FF80
FF80
C000
C000
C000
FF80
FF80
C000
C000
C000
FF80
FF80
ENDCHAR
STARTCHAR 011B
ENCODING 283
SWIDTH 540 0
DWIDTH 9 0
BBX 7 12 1 0
BITMAP
6C
38
00
38
7C
C6
FE
FE
C0
E6
7C
38
ENDCHAR
STARTCHAR 011C
ENCODING 284
SWIDTH 780 0
DWIDTH 13 0
BBX 11 15 1 0
BITMAP
0E00
1B00
0000
1F80
7FC0
60E0
E040
C000
C000
C3E0
C3E0
E060
60E0
7FE0
1F80
ENDCHAR
STARTCHAR 011D
ENCODING 285
SWIDTH 600 0
DWIDTH 10 0
BBX 8 15 1 -3
BITMAP
1C
36
00
3B
7F
E7
C3
C3
C3
E7
7F
3B
C3
FF
7E
ENDCHAR
STARTCHAR 011E
ENCODING 286
SWIDTH 780 0
DWIDTH 13 0
BBX 11 15 1 0
BITMAP
1100
0E00
0000
1F80
7FC0
60E0
E040
C000
C000
C3E0
C3E0
E060
60E0
7FE0
1F80
ENDCHAR
STARTCHAR 011F
ENCODING 287
SWIDTH 600 0
DWIDTH 10 0
BBX 8 15 1 -3
BITMAP
22
1C
00
3B
7F
E7
C3
C3
C3
E7
7F
3B
C3
FF
7E
ENDCHAR
STARTCHAR 0120
ENCODING 288
SWIDTH 780 0
DWIDTH 13 0
BBX 11 15 1 0
BITMAP
0600
0600
0000
1F80
7FC0
60E0
E040
C000
C000
C3E0
C3E0
E060
60E0
7FE0
1F80
ENDCHAR
STARTCHAR 0121
ENCODING 289
SWIDTH 600 0
DWIDTH 10 0
BBX 8 15 1 -3
BITMAP
18
18
00
3B
7F
E7
C3
C3
C3
E7
7F
3B
C3
FF
7E
ENDCHAR
STARTCHAR 0122
ENCODING 290
SWIDTH 780 0
DWIDTH 13 0
BBX 11 17 1 -5
BITMAP
1F80
7FC0
60E0
E040
C000
C000
C3E0
C3E0
E060
60E0
7FE0
1F80
0000
0600
0600
0200
0400
ENDCHAR
STARTCHAR 0123
ENCODING 291
SWIDTH 600 0
DWIDTH 10 0
BBX 8 17 1 -3
BITMAP
08
10
18
18
00
3B
7F
E7
C3
C3
C3
E7
7F
3B
C3
FF
7C
ENDCHAR
STARTCHAR 0124
ENCODING 292
SWIDTH 720 0
DWIDTH 12 0
BBX 10 15 1 0
BITMAP
0E00
1B00
0000
C0C0
C0C0
C0C0
C0C0
C0C0
FFC0
FFC0
C0C0
C0C0
C0C0
C0C0
C0C0
ENDCHAR
STARTCHAR 0125
ENCODING 293
SWIDTH 600 0
DWIDTH 10 0
BBX 8 15 1 0
BITMAP
1C
36
00
C0
C0
C0
DE
FF
E3
C3
C3
C3
C3
C3
C3
ENDCHAR
STARTCHAR 0126
ENCODING 294
SWIDTH 720 0
DWIDTH 12 0
BBX 12 12 0 0
BITMAP
6060
FFF0
FFF0
6060
6060
7FE0
7FE0
6060
6060
6060
6060
6060
ENDCHAR
STARTCHAR 0127
ENCODING 295
SWIDTH 600 0
DWIDTH 10 0
BBX 9 12 0 0
BITMAP
6000
FC00
6000
6F00
7F80
7180
6180
6180
6180
6180
6180
6180
ENDCHAR
STARTCHAR 0128
ENCODING 296
SWIDTH 240 0
DWIDTH 4 0
BBX 6 15 -1 0
BITMAP
E4
9C
00
30
30
30
30
30
30
30
30
30
30
30
30
ENDCHAR
STARTCHAR 0129
ENCODING 297
SWIDTH 240 0
DWIDTH 4 0
BBX 6 12 -1 0
BITMAP
E4
9C
00
30
30
30
30
30
30
30
30
30
ENDCHAR
STARTCHAR 012A
ENCODING 298
SWIDTH 240 0
DWIDTH 4 0
BBX 6 15 -1 0
BITMAP
FC
FC
00
30
30
30
30
30
30
30
30
30
30
30
30
ENDCHAR
STARTCHAR 012B
ENCODING 299
SWIDTH 240 0
DWIDTH 4 0
BBX 6 12 -1 0
BITMAP
FC
FC
00
30
30
30
30
30
30
30
30
30
ENDCHAR
STARTCHAR 012C
ENCODING 300
SWIDTH 240 0
DWIDTH 4 0
BBX 5 15 0 0
BITMAP
88
70
00
60
60
60
60
60
60
60
60
60
60
60
60
ENDCHAR
STARTCHAR 012D
ENCODING 301
SWIDTH 240 0
DWIDTH 4 0
BBX 5 12 0 0
BITMAP
88
70
00
60
60
60
60
60
60
60
60
60
ENDCHAR
STARTCHAR 012E
ENCODING 302
SWIDTH 240 0
DWIDTH 4 0
BBX 3 15 0 -3
BITMAP
60
60
60
60
60
60
60
60
60
60
60
60
40
C0
E0
ENDCHAR
STARTCHAR 012F
ENCODING 303
SWIDTH 240 0
DWIDTH 4 0
BBX 3 15 0 -3
BITMAP
60
60
00
60
60
60
60
60
60
60
60
60
40
C0
E0
ENDCHAR
STARTCHAR 0130
ENCODING 304
SWIDTH 240 0
DWIDTH 4 0
BBX 2 15 1 0
BITMAP
C0
C0
00
C0
C0
C0
C0
C0
C0
C0
C0
C0
C0
C0
C0
ENDCHAR
STARTCHAR 0131
ENCODING 305
SWIDTH 240 0
DWIDTH 4 0
BBX 2 9 1 0
BITMAP
C0
C0
C0
C0
C0
C0
C0
C0
C0
ENDCHAR
STARTCHAR 0132
ENCODING 306
SWIDTH 780 0
DWIDTH 13 0
BBX 11 12 1 0
BITMAP
C060
C060
C060
C060
C060
C060
C060
C060
D860
DCE0
CFC0
C780
ENDCHAR
STARTCHAR 0133
ENCODING 307
SWIDTH 540 0
DWIDTH 9 0
BBX 7 15 1 -3
BITMAP
C6
C6
00
C6
C6
C6
C6
C6
C6
C6
C6
C6
06
1E
1C
ENDCHAR
STARTCHAR 0134
ENCODING 308
SWIDTH 540 0
DWIDTH 9 0
BBX 9 15 0 0
BITMAP
0700
0D80
0000
0300
0300
0300
0300
0300
0300
0300
0300
C300
E700
7E00
3C00
ENDCHAR
STARTCHAR 0135
ENCODING 309
SWIDTH 240 0
DWIDTH 4 0
BBX 6 15 -1 -3
BITMAP
38
6C
00
30
30
30
30
30
30
30
30
30
30
F0
E0
ENDCHAR
STARTCHAR 0136
ENCODING 310
SWIDTH 720 0
DWIDTH 12 0
BBX 10 17 1 -5
BITMAP
C0C0
C180
C300
C600
CC00
DE00
F700
E300
C380
C180
C0C0
C0C0
0000
0C00
0C00
0400
0800
ENDCHAR
STARTCHAR 0137
ENCODING 311
SWIDTH 540 0
DWIDTH 9 0
BBX 7 17 1 -5
BITMAP
C0
C0
C0
C6
CC
D8
F8
FC
EC
CC
C6
C6
00
18
18
08
10
ENDCHAR
STARTCHAR 0138
ENCODING 312
SWIDTH 540 0
DWIDTH 9 0
BBX 8 9 1 0
BITMAP
C7
CE
DC
F8
F8
EC
CE
C6
C3
ENDCHAR
STARTCHAR 0139
ENCODING 313
SWIDTH 600 0
DWIDTH 10 0
BBX 8 15 1 0
BITMAP
18
30
00
C0
C0
C0
C0
C0
C0
C0
C0
C0
C0
FF
FF
ENDCHAR
STARTCHAR 013A
ENCODING 314
SWIDTH 240 0
DWIDTH 4 0
BBX 3 15 1 0
BITMAP
60
C0
00
C0
C0
C0
C0
C0
C0
C0
C0
C0
C0
C0
C0
ENDCHAR
STARTCHAR 013B
ENCODING 315
SWIDTH 600 0
DWIDTH 10 0
BBX 8 17 1 -5
BITMAP
C0
C0
C0
C0
C0
C0
C0
C0
C0
C0
FF
FF
00
18
18
08
10
ENDCHAR
STARTCHAR 013C
ENCODING 316
SWIDTH 240 0
DWIDTH 4 0
BBX 2 17 1 -5
BITMAP
C0
C0
C0
C0
C0
C0
C0
C0
C0
C0
C0
C0
00
C0
C0
40
80
ENDCHAR
STARTCHAR 013D
ENCODING 317
SWIDTH 600 0
DWIDTH 10 0
BBX 8 12 1 0
BITMAP
C3
C3
C1
C1
C2
C0
C0
C0
C0
C0
FF
FF
ENDCHAR
STARTCHAR 013E
ENCODING 318
SWIDTH 420 0
DWIDTH 7 0
BBX 6 12 1 0
BITMAP
CC
CC
C4
C8
C0
C0
C0
C0
C0
C0
C0
C0
ENDCHAR
STARTCHAR 013F
ENCODING 319
SWIDTH 600 0
DWIDTH 10 0
BBX 8 12 1 0
BITMAP
C0
C0
C0
C0
C6
C6
C0
C0
C0
C0
FF
FF
ENDCHAR
STARTCHAR 0140
ENCODING 320
SWIDTH 420 0
DWIDTH 7 0
BBX 5 12 1 0
BITMAP
C0
C0
C0
C0
C0
D8
D8
C0
C0
C0
C0
C0
ENDCHAR
STARTCHAR 0141
ENCODING 321
SWIDTH 600 0
DWIDTH 10 0
BBX 9 12 0 0
BITMAP
6000
6000
6400
6800
7000
6000
6000
E000
6000
6000
7F80
7F80
ENDCHAR
STARTCHAR 0142
ENCODING 322
SWIDTH 240 0
DWIDTH 4 0
BBX 4 12 0 0
BITMAP
60
60
60
60
70
60
60
E0
60
60
60
60
ENDCHAR
STARTCHAR 0143
ENCODING 323
SWIDTH 720 0
DWIDTH 12 0
BBX 10 15 1 0
BITMAP
0600
0C00
0000
C0C0
E0C0
F0C0
F0C0
D8C0
CCC0
CCC0
C6C0
C3C0
C3C0
C1C0
C0C0
ENDCHAR
STARTCHAR 0144
ENCODING 324
SWIDTH 600 0
DWIDTH 10 0
BBX 8 12 1 0
BITMAP
0C
18
00
DE
FF
E3
C3
C3
C3
C3
C3
C3
ENDCHAR
STARTCHAR 0145
ENCODING 325
SWIDTH 720 0
DWIDTH 12 0
BBX 10 17 1 -5
BITMAP
C0C0
E0C0
F0C0
F0C0
D8C0
CCC0
CCC0
C6C0
C3C0
C3C0
C1C0
C0C0
0000
0C00
0C00
0400
0800
ENDCHAR
STARTCHAR 0146
ENCODING 326
SWIDTH 600 0
DWIDTH 10 0
BBX 8 14 1 -5
BITMAP
DE
FF
E3
C3
C3
C3
C3
C3
C3
00
18
18
08
10
ENDCHAR
STARTCHAR 0147
ENCODING 327
SWIDTH 720 0
DWIDTH 12 0
BBX 10 15 1 0
BITMAP
1B00
0E00
0000
C0C0
E0C0
F0C0
F0C0
D8C0
CCC0
CCC0
C6C0
C3C0
C3C0
C1C0
C0C0
ENDCHAR
STARTCHAR 0148
ENCODING 328
SWIDTH 600 0
DWIDTH 10 0
BBX 8 12 1 0
BITMAP
36
1C
00
DE
FF
E3
C3
C3
C3
C3
C3
C3
ENDCHAR
STARTCHAR 0149
ENCODING 329
SWIDTH 720 0
DWIDTH 12 0
BBX 11 12 0 0
BITMAP
C000
C000
4000
5BC0
9FE0
1C60
1860
1860
1860
1860
1860
1860
ENDCHAR
STARTCHAR 014A
ENCODING 330
SWIDTH 720 0
DWIDTH 12 0
BBX 10 12 1 0
BITMAP
CF00
FF80
E1C0
C0C0
C0C0
C0C0
C0C0
C0C0
C0C0
C1C0
CF80
CF00
ENDCHAR
STARTCHAR 014B
ENCODING 331
SWIDTH 600 0
DWIDTH 10 0
BBX 8 13 1 -4
BITMAP
DE
FF
E3
C3
C3
C3
C3
C3
C3
03
03
0F
0E
ENDCHAR
STARTCHAR 014C
ENCODING 332
SWIDTH 780 0
DWIDTH 13 0
BBX 11 15 1 0
BITMAP
1F80
1F80
0000
1F00
7FC0
60C0
E060
C060
C060
C060
C060
C060
60C0
7FC0
1F00
ENDCHAR
STARTCHAR 014D
ENCODING 333
SWIDTH 600 0
DWIDTH 10 0
BBX 8 12 1 0
BITMAP
7E
7E
00
3C
7E
E7
C3
C3
C3
E7
7E
3C
ENDCHAR
STARTCHAR 014E
ENCODING 334
SWIDTH 780 0
DWIDTH 13 0
BBX 11 15 1 0
BITMAP
1100
0E00
0000
1F00
7FC0
60C0
E060
C060
C060
C060
C060
C060
60C0
7FC0
1F00
ENDCHAR
STARTCHAR 014F
ENCODING 335
SWIDTH 600 0
DWIDTH 10 0
BBX 8 12 1 0
BITMAP
22
1C
00
3C
7E
E7
C3
C3
C3
E7
7E
3C
ENDCHAR
STARTCHAR 0150
ENCODING 336
SWIDTH 780 0
DWIDTH 13 0
BBX 11 15 1 0
BITMAP
0D80
1B00
0000
1F00
7FC0
60C0
E060
C060
C060
C060
C060
C060
60C0
7FC0
1F00
ENDCHAR
STARTCHAR 0151
ENCODING 337
SWIDTH 600 0
DWIDTH 10 0
BBX 8 12 1 0
BITMAP
36
6C
00
3C
7E
E7
C3
C3
C3
E7
7E
3C
ENDCHAR
STARTCHAR 0152
ENCODING 338
SWIDTH 1020 0
DWIDTH 17 0
BBX 16 12 0 0
BITMAP
3DFF
7FFF
E380
C180
C180
C1FF
C1FF
C180
C180
E380
7FFF
3DFF
ENDCHAR
STARTCHAR 0153
ENCODING 339
SWIDTH 900 0
DWIDTH 15 0
BBX 13 9 1 0
BITMAP
3CE0
7FF0
E718
C3F8
C3F8
C300
E798
7FF0
3CE0
ENDCHAR
STARTCHAR 0154
ENCODING 340
SWIDTH 720 0
DWIDTH 12 0
BBX 11 15 1 0
BITMAP
0600
0C00
0000
FF00
FF80
C1C0
C0C0
C1C0
FF80
FE00
C700
C380
C180
C1C0
C0E0
ENDCHAR
STARTCHAR 0155
ENCODING 341
SWIDTH 420 0
DWIDTH 7 0
BBX 6 12 1 0
BITMAP
18
30
00
DC
FC
E0
C0
C0
C0
C0
C0
C0
ENDCHAR
STARTCHAR 0156
ENCODING 342
SWIDTH 720 0
DWIDTH 12 0
BBX 11 17 1 -5
BITMAP
FF00
FF80
C1C0
C0C0
C1C0
FF80
FE00
C700
C380
C180
C1C0
C0E0
0000
0C00
0C00
0400
0800
ENDCHAR
STARTCHAR 0157
ENCODING 343
SWIDTH 420 0
DWIDTH 7 0
BBX 6 14 1 -5
BITMAP
DC
FC
E0
C0
C0
C0
C0
C0
C0
00
C0
C0
40
80
ENDCHAR
STARTCHAR 0158
ENCODING 344
SWIDTH 720 0
DWIDTH 12 0
BBX 11 15 1 0
BITMAP
3600
1C00
0000
FF00
FF80
C1C0
C0C0
C1C0
FF80
FE00
C700
C380
C180
C1C0
C0E0
ENDCHAR
STARTCHAR 0159
ENCODING 345
SWIDTH 420 0
DWIDTH 7 0
BBX 6 12 1 0
BITMAP
D8
70
00
DC
FC
E0
C0
C0
C0
C0
C0
C0
ENDCHAR
STARTCHAR 015A
ENCODING 346
SWIDTH 660 0
DWIDTH 11 0
BBX 9 15 1 0
BITMAP
0C00
1800
0000
3E00
7F00
E380
C180
F000
7E00
1F00
0380
C180
E380
7F00
3E00
ENDCHAR
STARTCHAR 015B
ENCODING 347
SWIDTH 540 0
DWIDTH 9 0
BBX 7 12 1 0
BITMAP
18
30
00
7C
FE
C6
F0
7C
0E
C6
FE
7C
ENDCHAR
STARTCHAR 015C
ENCODING 348
SWIDTH 660 0
DWIDTH 11 0
BBX 9 15 1 0
BITMAP
1C00
3600
0000
3E00
7F00
E380
C180
F000
7E00
1F00
0380
C180
E380
7F00
3E00
ENDCHAR
STARTCHAR 015D
ENCODING 349
SWIDTH 540 0
DWIDTH 9 0
BBX 7 12 1 0
BITMAP
38
6C
00
7C
FE
C6
F0
7C
0E
C6
FE
7C
ENDCHAR
STARTCHAR 015E
ENCODING 350
SWIDTH 660 0
DWIDTH 11 0
BBX 9 15 1 -3
BITMAP
3E00
7F00
E380
C180
F000
7E00
1F00
0380
C180
E380
7F00
3E00
1C00
0C00
3800
ENDCHAR
STARTCHAR 015F
ENCODING 351
SWIDTH 540 0
DWIDTH 9 0
BBX 7 12 1 -3
BITMAP
7C
FE
C6
F0
7C
0E
C6
FE
7C
38
18
70
ENDCHAR
STARTCHAR 0160
ENCODING 352
SWIDTH 660 0
DWIDTH 11 0
BBX 9 15 1 0
BITMAP
3600
1C00
0000
3E00
7F00
E380
C180
F000
7E00
1F00
0380
C180
E380
7F00
3E00
ENDCHAR
STARTCHAR 0161
ENCODING 353
SWIDTH 540 0
DWIDTH 9 0
BBX 7 12 1 0
BITMAP
6C
38
00
7C
FE
C6
F0
7C
0E
C6
FE
7C
ENDCHAR
STARTCHAR 0162
ENCODING 354
SWIDTH 600 0
DWIDTH 10 0
BBX 10 15 0 -3
BITMAP
FFC0
FFC0
0C00
0C00
0C00
0C00
0C00
0C00
0C00
0C00
0C00
0C00
0E00
0600
1C00
ENDCHAR
STARTCHAR 0163
ENCODING 355
SWIDTH 360 0
DWIDTH 6 0
BBX 5 15 0 -3
BITMAP
20
60
60
F8
F8
60
60
60
60
60
78
38
38
18
70
ENDCHAR
STARTCHAR 0164
ENCODING 356
SWIDTH 600 0
DWIDTH 10 0
BBX 10 15 0 0
BITMAP
1B00
0E00
0000
FFC0
FFC0
0C00
0C00
0C00
0C00
0C00
0C00
0C00
0C00
0C00
0C00
ENDCHAR
STARTCHAR 0165
ENCODING 357
SWIDTH 480 0
DWIDTH 8 0
BBX 8 12 0 0
BITMAP
23
63
61
FA
F8
60
60
60
60
60
78
38
ENDCHAR
STARTCHAR 0166
ENCODING 358
SWIDTH 600 0
DWIDTH 10 0
BBX 10 12 0 0
BITMAP
FFC0
FFC0
0C00
0C00
0C00
7F80
7F80
0C00
0C00
0C00
0C00
0C00
ENDCHAR
STARTCHAR 0167
ENCODING 359
SWIDTH 360 0
DWIDTH 6 0
BBX 5 12 0 0
BITMAP
20
60
60
F8
F8
60
F8
F8
60
60
78
38
ENDCHAR
STARTCHAR 0168
ENCODING 360
SWIDTH 720 0
DWIDTH 12 0
BBX 10 15 1 0
BITMAP
3900
2700
0000
C0C0
C0C0
C0C0
C0C0
C0C0
C0C0
C0C0
C0C0
C0C0
E1C0
7F80
3F00
ENDCHAR
STARTCHAR 0169
ENCODING 361
SWIDTH 600 0
DWIDTH 10 0
BBX 8 12 1 0
BITMAP
72
4E
00
C3
C3
C3
C3
C3
C3
C7
FF
7B
ENDCHAR
STARTCHAR 016A
ENCODING 362
SWIDTH 720 0
DWIDTH 12 0
BBX 10 15 1 0
BITMAP
3F00
3F00
0000
C0C0
C0C0
C0C0
C0C0
C0C0
C0C0
C0C0
C0C0
C0C0
E1C0
7F80
3F00
ENDCHAR
STARTCHAR 016B
ENCODING 363
SWIDTH 600 0
DWIDTH 10 0
BBX 8 12 1 0
BITMAP
7E
7E
00
C3
C3
C3
C3
C3
C3
C7
FF
7B
ENDCHAR
STARTCHAR 016C
ENCODING 364
SWIDTH 720 0
DWIDTH 12 0
BBX 10 15 1 0
BITMAP
1100
0E00
0000
C0C0
C0C0
C0C0
C0C0
C0C0
C0C0
C0C0
C0C0
C0C0
E1C0
7F80
3F00
ENDCHAR
STARTCHAR 016D
ENCODING 365
SWIDTH 600 0
DWIDTH 10 0
BBX 8 12 1 0
BITMAP
22
1C
00
C3
C3
C3
C3
C3
C3
C7
FF
7B
ENDCHAR
STARTCHAR 016E
ENCODING 366
SWIDTH 720 0
DWIDTH 12 0
BBX 10 15 1 0
BITMAP
0C00
1200
1200
CCC0
C0C0
C0C0
C0C0
C0C0
C0C0
C0C0
C0C0
C0C0
E1C0
7F80
3F00
ENDCHAR
STARTCHAR 016F
ENCODING 367
SWIDTH 600 0
DWIDTH 10 0
BBX 8 14 1 0
BITMAP
18
24
24
18
00
C3
C3
C3
C3
C3
C3
C7
FF
7B
ENDCHAR
STARTCHAR 0170
ENCODING 368
SWIDTH 720 0
DWIDTH 12 0
BBX 10 15 1 0
BITMAP
1B00
3600
0000
C0C0
C0C0
C0C0
C0C0
C0C0
C0C0
C0C0
C0C0
C0C0
E1C0
7F80
3F00
ENDCHAR
STARTCHAR 0171
ENCODING 369
SWIDTH 600 0
DWIDTH 10 0
BBX 8 12 1 0
BITMAP
36
6C
00
C3
C3
C3
C3
C3
C3
C7
FF
7B
ENDCHAR
STARTCHAR 0172
ENCODING 370
SWIDTH 720 0
DWIDTH 12 0
BBX 10 15 1 -3
BITMAP
C0C0
C0C0
C0C0
C0C0
C0C0
C0C0
C0C0
C0C0
C0C0
E1C0
7F80
3F00
0400
0C00
0E00
ENDCHAR
STARTCHAR 0173
ENCODING 371
SWIDTH 600 0
DWIDTH 10 0
BBX 8 12 1 -3
BITMAP
C3
C3
C3
C3
C3
C3
C7
FF
7B
02
06
07
ENDCHAR
STARTCHAR 0174
ENCODING 372
SWIDTH 1020 0
DWIDTH 17 0
BBX 17 15 0 0
BITMAP
01C000
036000
000000
C1C180
E1C180
63E300
636300
636300
377600
363600
363600
1E3E00
1C1C00
1C1C00
1C1C00
ENDCHAR
STARTCHAR 0175
ENCODING 373
SWIDTH 780 0
DWIDTH 13 0
BBX 13 12 0 0
BITMAP
0700
0D80
0000
C718
C718
6730
6DB0
6DB0
6DB0
38E0
38E0
38E0
ENDCHAR
STARTCHAR 0176
ENCODING 374
SWIDTH 600 0
DWIDTH 10 0
BBX 10 15 0 0
BITMAP
0E00
1B00
0000
C0C0
E1C0
6180
3300
3300
1E00
0C00
0C00
0C00
0C00
0C00
0C00
ENDCHAR
STARTCHAR 0177
ENCODING 375
SWIDTH 540 0
DWIDTH 9 0
BBX 9 15 0 -3
BITMAP
1C00
3600
0000
C180
C180
6300
6300
3600
3600
3E00
1C00
1C00
1800
7800
7000
ENDCHAR
STARTCHAR 0178
ENCODING 376
SWIDTH 600 0
DWIDTH 10 0
BBX 10 15 0 0
BITMAP
3300
3300
0000
C0C0
E1C0
6180
3300
3300
1E00
0C00
0C00
0C00
0C00
0C00
0C00
ENDCHAR
STARTCHAR 0179
ENCODING 377
SWIDTH 540 0
DWIDTH 9 0
BBX 9 15 0 0
BITMAP
0600
0C00
0000
7F80
7F80
0300
0600
0E00
0C00
1800
3800
3000
6000
FF80
FF80
ENDCHAR
STARTCHAR 017A
ENCODING 378
SWIDTH 540 0
DWIDTH 9 0
BBX 7 12 1 0
BITMAP
0C
18
00
FE
FE
0C
1C
38
70
60
FE
FE
ENDCHAR
STARTCHAR 017B
ENCODING 379
SWIDTH 540 0
DWIDTH 9 0
BBX 9 15 0 0
BITMAP
0C00
0C00
0000
7F80
7F80
0300
0600
0E00
0C00
1800
3800
3000
6000
FF80
FF80
ENDCHAR
STARTCHAR 017C
ENCODING 380
SWIDTH 540 0
DWIDTH 9 0
BBX 7 12 1 0
BITMAP
18
18
00
FE
FE
0C
1C
38
70
60
FE
FE
ENDCHAR
STARTCHAR 017D
ENCODING 381
SWIDTH 540 0
DWIDTH 9 0
BBX 9 15 0 0
BITMAP
1B00
0E00
0000
7F80
7F80
0300
0600
0E00
0C00
1800
3800
3000
6000
FF80
FF80
ENDCHAR
STARTCHAR 017E
ENCODING 382
SWIDTH 540 0
DWIDTH 9 0
BBX 7 12 1 0
BITMAP
6C
38
00
FE
FE
0C
1C
38
70
60
FE
FE
ENDCHAR
ENDFONT
