STARTFONT 2.1
COMMENT
COMMENT Converted from OpenType font "arial.ttf" by "otf2bdf 3.0".
COMMENT
FONT -FreeType-Arial-Medium-R-Normal--19-140-100-100-P-96-ISO10646-1
SIZE 14 100 100
FONTBOUNDINGBOX 37 26 -9 -6
STARTPROPERTIES 19
FOUNDRY "FreeType"
FAMILY_NAME "Arial"
WEIGHT_NAME "Medium"
SLANT "R"
SETWIDTH_NAME "Normal"
ADD_STYLE_NAME ""
PIXEL_SIZE 19
POINT_SIZE 140
RESOLUTION_X 100
RESOLUTION_Y 100
SPACING "P"
AVERAGE_WIDTH 96
CHARSET_REGISTRY "ISO10646"
CHARSET_ENCODING "1"
FONT_ASCENT 17
FONT_DESCENT 4
COPYRIGHT "© 2017 The Monotype Corporation. All Rights Reserved.     Hebrew OpenType Layout logic copyright © 2003 & 2007, Ralph Hancock & John Hudson. This layout logic for Biblical Hebrew is open source software under the MIT License; see embedded license description for details."
_OTF_FONTFILE "arial.ttf"
_OTF_PSNAME "ArialMT"
ENDPROPERTIES
CHARS 3361
STARTCHAR 0020
ENCODING 32
SWIDTH 257 0
DWIDTH 5 0
BBX 0 0 0 0
BITMAP
ENDCHAR
STARTCHAR 0021
ENCODING 33
SWIDTH 308 0
DWIDTH 6 0
BBX 2 14 2 0
BITMAP
C0
C0
C0
C0
C0
C0
C0
C0
C0
C0
C0
00
C0
C0
ENDCHAR
STARTCHAR 0022
ENCODING 34
SWIDTH 360 0
DWIDTH 7 0
BBX 5 5 1 9
BITMAP
D8
D8
D8
D8
D8
ENDCHAR
STARTCHAR 0023
ENCODING 35
SWIDTH 565 0
DWIDTH 11 0
BBX 11 14 0 0
BITMAP
0CC0
0CC0
1980
FFE0
FFE0
1980
1980
3300
FFE0
FFE0
3300
3300
6600
6600
ENDCHAR
STARTCHAR 0024
ENCODING 36
SWIDTH 565 0
DWIDTH 11 0
BBX 9 17 1 -2
BITMAP
0800
3E00
7F00
E980
C800
C800
7800
3E00
0F00
0B80
0980
C980
EB80
7F00
3E00
0800
0800
ENDCHAR
STARTCHAR 0025
ENCODING 37
SWIDTH 874 0
DWIDTH 17 0
BBX 15 14 1 0
BITMAP
7818
CC30
CC30
CC60
CCC0
CCC0
7980
01BC
0366
0366
0666
0C66
0C66
183C
ENDCHAR
STARTCHAR 0026
ENCODING 38
SWIDTH 668 0
DWIDTH 13 0
BBX 12 14 1 0
BITMAP
1E00
3F00
6300
6300
7300
3E00
3C00
7C00
E660
C360
C1C0
E3C0
7F60
3E30
ENDCHAR
STARTCHAR 0027
ENCODING 39
SWIDTH 205 0
DWIDTH 4 0
BBX 2 5 1 9
BITMAP
C0
C0
C0
C0
C0
ENDCHAR
STARTCHAR 0028
ENCODING 40
SWIDTH 308 0
DWIDTH 6 0
BBX 5 18 1 -4
BITMAP
08
10
30
60
60
40
C0
C0
C0
C0
C0
C0
40
60
60
30
10
08
ENDCHAR
STARTCHAR 0029
ENCODING 41
SWIDTH 308 0
DWIDTH 6 0
BBX 5 18 0 -4
BITMAP
80
40
60
30
30
10
18
18
18
18
18
18
10
30
30
60
40
80
ENDCHAR
STARTCHAR 002A
ENCODING 42
SWIDTH 360 0
DWIDTH 7 0
BBX 5 6 1 8
BITMAP
20
20
F8
20
50
50
ENDCHAR
STARTCHAR 002B
ENCODING 43
SWIDTH 565 0
DWIDTH 11 0
BBX 10 10 1 1
BITMAP
0C00
0C00
0C00
0C00
FFC0
FFC0
0C00
0C00
0C00
0C00
ENDCHAR
STARTCHAR 002C
ENCODING 44
SWIDTH 257 0
DWIDTH 5 0
BBX 2 5 1 -3
BITMAP
C0
C0
40
40
80
ENDCHAR
STARTCHAR 002D
ENCODING 45
SWIDTH 308 0
DWIDTH 6 0
BBX 5 2 0 4
BITMAP
F8
F8
ENDCHAR
STARTCHAR 002E
ENCODING 46
SWIDTH 257 0
DWIDTH 5 0
BBX 2 2 2 0
BITMAP
C0
C0
ENDCHAR
STARTCHAR 002F
ENCODING 47
SWIDTH 257 0
DWIDTH 5 0
BBX 6 14 0 0
BITMAP
0C
0C
18
18
18
30
30
30
30
60
60
60
C0
C0
ENDCHAR
STARTCHAR 0030
ENCODING 48
SWIDTH 565 0
DWIDTH 11 0
BBX 9 14 1 0
BITMAP
3E00
7F00
6300
C180
C180
C180
C180
C180
C180
C180
C180
6300
7F00
3E00
ENDCHAR
STARTCHAR 0031
ENCODING 49
SWIDTH 565 0
DWIDTH 11 0
BBX 5 14 2 0
BITMAP
18
18
38
F8
D8
18
18
18
18
18
18
18
18
18
ENDCHAR
STARTCHAR 0032
ENCODING 50
SWIDTH 565 0
DWIDTH 11 0
BBX 9 14 1 0
BITMAP
3E00
7F00
E380
C180
0180
0180
0300
0600
0C00
1800
3000
6000
FF80
FF80
ENDCHAR
STARTCHAR 0033
ENCODING 51
SWIDTH 565 0
DWIDTH 11 0
BBX 9 14 1 0
BITMAP
3C00
7E00
E300
C300
0300
1E00
1F00
0380
0180
0180
C180
E380
7F00
3E00
ENDCHAR
STARTCHAR 0034
ENCODING 52
SWIDTH 565 0
DWIDTH 11 0
BBX 10 14 0 0
BITMAP
0100
0300
0700
0F00
1B00
1B00
3300
6300
C300
FFC0
FFC0
0300
0300
0300
ENDCHAR
STARTCHAR 0035
ENCODING 53
SWIDTH 565 0
DWIDTH 11 0
BBX 9 14 1 0
BITMAP
7F00
7F00
6000
6000
C000
DE00
FF00
C180
0180
0180
C180
E380
7F00
3E00
ENDCHAR
STARTCHAR 0036
ENCODING 54
SWIDTH 565 0
DWIDTH 11 0
BBX 9 14 1 0
BITMAP
1E00
3F00
6380
E180
C000
DE00
FF00
E380
C180
C180
C180
6380
7F00
1E00
ENDCHAR
STARTCHAR 0037
ENCODING 55
SWIDTH 565 0
DWIDTH 11 0
BBX 9 14 1 0
BITMAP
FF80
FF80
0100
0300
0600
0400
0C00
0C00
1800
1800
1800
3000
3000
3000
ENDCHAR
STARTCHAR 0038
ENCODING 56
SWIDTH 565 0
DWIDTH 11 0
BBX 9 14 1 0
BITMAP
3E00
7F00
E380
C180
C180
E380
7F00
7F00
E380
C180
C180
C380
7F00
3E00
ENDCHAR
STARTCHAR 0039
ENCODING 57
SWIDTH 565 0
DWIDTH 11 0
BBX 9 14 1 0
BITMAP
3C00
7F00
E300
C180
C180
C180
E380
7F80
3D80
0180
C180
E300
7F00
3C00
ENDCHAR
STARTCHAR 003A
ENCODING 58
SWIDTH 257 0
DWIDTH 5 0
BBX 2 10 2 0
BITMAP
C0
C0
00
00
00
00
00
00
C0
C0
ENDCHAR
STARTCHAR 003B
ENCODING 59
SWIDTH 257 0
DWIDTH 5 0
BBX 2 13 2 -3
BITMAP
C0
C0
00
00
00
00
00
00
C0
C0
40
40
80
ENDCHAR
STARTCHAR 003C
ENCODING 60
SWIDTH 565 0
DWIDTH 11 0
BBX 9 9 1 2
BITMAP
0080
0380
1F00
7800
C000
7800
1F00
0380
0080
ENDCHAR
STARTCHAR 003D
ENCODING 61
SWIDTH 565 0
DWIDTH 11 0
BBX 9 6 1 4
BITMAP
FF80
FF80
0000
0000
FF80
FF80
ENDCHAR
STARTCHAR 003E
ENCODING 62
SWIDTH 565 0
DWIDTH 11 0
BBX 9 9 1 2
BITMAP
8000
E000
7C00
0F00
0180
0F00
7C00
E000
8000
ENDCHAR
STARTCHAR 003F
ENCODING 63
SWIDTH 565 0
DWIDTH 11 0
BBX 9 14 1 0
BITMAP
3E00
7F00
E380
C180
0180
0300
0700
0E00
1C00
1800
1800
0000
1800
1800
ENDCHAR
STARTCHAR 0040
ENCODING 64
SWIDTH 977 0
DWIDTH 19 0
BBX 18 18 1 -4
BITMAP
03F800
0FFE00
1E0F00
380380
71ED80
63FCC0
E738C0
CE18C0
CC18C0
CC11C0
CC3180
CE7300
E7FF00
63BC00
7001C0
3C0780
0FFF00
03F800
ENDCHAR
STARTCHAR 0041
ENCODING 65
SWIDTH 668 0
DWIDTH 13 0
BBX 13 14 0 0
BITMAP
0700
0700
0D80
0D80
0D80
18C0
18C0
3060
3FE0
3FE0
6030
6030
C018
C018
ENDCHAR
STARTCHAR 0042
ENCODING 66
SWIDTH 668 0
DWIDTH 13 0
BBX 10 14 2 0
BITMAP
FE00
FF00
C380
C180
C180
C380
FF00
FF00
C180
C0C0
C0C0
C1C0
FF80
FF00
ENDCHAR
STARTCHAR 0043
ENCODING 67
SWIDTH 720 0
DWIDTH 14 0
BBX 12 14 1 0
BITMAP
0F00
3FC0
7060
6030
C000
C000
C000
C000
C000
C030
6060
70E0
3FC0
0F00
ENDCHAR
STARTCHAR 0044
ENCODING 68
SWIDTH 720 0
DWIDTH 14 0
BBX 11 14 2 0
BITMAP
FF00
FF80
C1C0
C0C0
C060
C060
C060
C060
C060
C060
C0C0
C1C0
FF80
FF00
ENDCHAR
STARTCHAR 0045
ENCODING 69
SWIDTH 668 0
DWIDTH 13 0
BBX 10 14 2 0
BITMAP
FFC0
FFC0
C000
C000
C000
C000
FF80
FF80
C000
C000
C000
C000
FFC0
FFC0
ENDCHAR
STARTCHAR 0046
ENCODING 70
SWIDTH 617 0
DWIDTH 12 0
BBX 9 14 2 0
BITMAP
FF80
FF80
C000
C000
C000
C000
FF00
FF00
C000
C000
C000
C000
C000
C000
ENDCHAR
STARTCHAR 0047
ENCODING 71
SWIDTH 771 0
DWIDTH 15 0
BBX 13 14 1 0
BITMAP
0FC0
3FE0
7070
6038
E010
C000
C000
C1F8
C1F8
C018
6018
7838
3FF0
0FC0
ENDCHAR
STARTCHAR 0048
ENCODING 72
SWIDTH 668 0
DWIDTH 13 0
BBX 11 14 1 0
BITMAP
C060
C060
C060
C060
C060
C060
FFE0
FFE0
C060
C060
C060
C060
C060
C060
ENDCHAR
STARTCHAR 0049
ENCODING 73
SWIDTH 308 0
DWIDTH 6 0
BBX 2 14 2 0
BITMAP
C0
C0
C0
C0
C0
C0
C0
C0
C0
C0
C0
C0
C0
C0
ENDCHAR
STARTCHAR 004A
ENCODING 74
SWIDTH 514 0
DWIDTH 10 0
BBX 7 14 1 0
BITMAP
06
06
06
06
06
06
06
06
06
06
C6
C6
FC
78
ENDCHAR
STARTCHAR 004B
ENCODING 75
SWIDTH 668 0
DWIDTH 13 0
BBX 11 14 2 0
BITMAP
C1C0
C380
C700
CE00
DC00
D800
F800
FC00
CE00
C600
C300
C380
C1C0
C0E0
ENDCHAR
STARTCHAR 004C
ENCODING 76
SWIDTH 565 0
DWIDTH 11 0
BBX 8 14 2 0
BITMAP
C0
C0
C0
C0
C0
C0
C0
C0
C0
C0
C0
C0
FF
FF
ENDCHAR
STARTCHAR 004D
ENCODING 77
SWIDTH 771 0
DWIDTH 15 0
BBX 13 14 1 0
BITMAP
E038
F078
F078
F078
D8D8
D8D8
D8D8
D8D8
CD98
CD98
CD98
C518
C718
C718
ENDCHAR
STARTCHAR 004E
ENCODING 78
SWIDTH 668 0
DWIDTH 13 0
BBX 11 14 1 0
BITMAP
C060
E060
F060
F060
D860
CC60
CC60
C660
C660
C360
C1E0
C1E0
C0E0
C060
ENDCHAR
STARTCHAR 004F
ENCODING 79
SWIDTH 771 0
DWIDTH 15 0
BBX 13 14 1 0
BITMAP
0F80
3FE0
7070
6030
C018
C018
C018
C018
C018
C018
6030
7070
3FE0
0F80
ENDCHAR
STARTCHAR 0050
ENCODING 80
SWIDTH 668 0
DWIDTH 13 0
BBX 10 14 2 0
BITMAP
FF00
FF80
C1C0
C0C0
C0C0
C0C0
C1C0
FF80
FF00
C000
C000
C000
C000
C000
ENDCHAR
STARTCHAR 0051
ENCODING 81
SWIDTH 771 0
DWIDTH 15 0
BBX 13 14 1 0
BITMAP
0F80
3FE0
7070
6030
C018
C018
C018
C018
C018
C018
61B0
70E0
3FE0
0FB8
ENDCHAR
STARTCHAR 0052
ENCODING 82
SWIDTH 720 0
DWIDTH 14 0
BBX 11 14 2 0
BITMAP
FF00
FF80
C1C0
C0C0
C0C0
C1C0
FF80
FF00
C600
C300
C380
C1C0
C0C0
C0E0
ENDCHAR
STARTCHAR 0053
ENCODING 83
SWIDTH 668 0
DWIDTH 13 0
BBX 11 14 1 0
BITMAP
1F80
3FC0
70E0
6060
6000
3800
1F00
03C0
0060
C060
C060
70E0
7FC0
1F80
ENDCHAR
STARTCHAR 0054
ENCODING 84
SWIDTH 617 0
DWIDTH 12 0
BBX 10 14 1 0
BITMAP
FFC0
FFC0
0C00
0C00
0C00
0C00
0C00
0C00
0C00
0C00
0C00
0C00
0C00
0C00
ENDCHAR
STARTCHAR 0055
ENCODING 85
SWIDTH 668 0
DWIDTH 13 0
BBX 11 14 1 0
BITMAP
C060
C060
C060
C060
C060
C060
C060
C060
C060
C060
C060
60C0
7FC0
1F00
ENDCHAR
STARTCHAR 0056
ENCODING 86
SWIDTH 668 0
DWIDTH 13 0
BBX 13 14 0 0
BITMAP
C018
C018
6030
6030
6030
3060
3060
18C0
18C0
18C0
0D80
0D80
0700
0700
ENDCHAR
STARTCHAR 0057
ENCODING 87
SWIDTH 977 0
DWIDTH 19 0
BBX 19 14 0 0
BITMAP
C0E060
C0E060
61B0C0
61B0C0
61B0C0
6318C0
6318C0
331980
331980
360D80
360D80
360D80
1C0700
1C0700
ENDCHAR
STARTCHAR 0058
ENCODING 88
SWIDTH 668 0
DWIDTH 13 0
BBX 13 14 0 0
BITMAP
7070
38E0
18C0
1DC0
0D80
0700
0700
0700
0D80
1DC0
38E0
3060
7070
E038
ENDCHAR
STARTCHAR 0059
ENCODING 89
SWIDTH 617 0
DWIDTH 12 0
BBX 12 14 0 0
BITMAP
E070
6060
30C0
39C0
1980
1D80
0F00
0600
0600
0600
0600
0600
0600
0600
ENDCHAR
STARTCHAR 005A
ENCODING 90
SWIDTH 617 0
DWIDTH 12 0
BBX 11 14 0 0
BITMAP
7FE0
7FE0
00C0
0180
0300
0300
0600
0C00
1800
1800
3000
6000
FFE0
FFE0
ENDCHAR
STARTCHAR 005B
ENCODING 91
SWIDTH 257 0
DWIDTH 5 0
BBX 4 18 1 -4
BITMAP
F0
F0
C0
C0
C0
C0
C0
C0
C0
C0
C0
C0
C0
C0
C0
C0
F0
F0
ENDCHAR
STARTCHAR 005C
ENCODING 92
SWIDTH 257 0
DWIDTH 5 0
BBX 6 14 0 0
BITMAP
C0
C0
60
60
60
30
30
30
30
18
18
18
0C
0C
ENDCHAR
STARTCHAR 005D
ENCODING 93
SWIDTH 257 0
DWIDTH 5 0
BBX 4 18 0 -4
BITMAP
F0
F0
30
30
30
30
30
30
30
30
30
30
30
30
30
30
F0
F0
ENDCHAR
STARTCHAR 005E
ENCODING 94
SWIDTH 360 0
DWIDTH 7 0
BBX 7 7 0 7
BITMAP
10
38
28
6C
6C
44
C6
ENDCHAR
STARTCHAR 005F
ENCODING 95
SWIDTH 565 0
DWIDTH 11 0
BBX 11 2 0 -4
BITMAP
FFE0
FFE0
ENDCHAR
STARTCHAR 0060
ENCODING 96
SWIDTH 308 0
DWIDTH 6 0
BBX 3 3 1 11
BITMAP
C0
60
20
ENDCHAR
STARTCHAR 0061
ENCODING 97
SWIDTH 514 0
DWIDTH 10 0
BBX 9 10 1 0
BITMAP
3E00
FF00
C300
0F00
7F00
F300
C300
C700
FF00
7980
ENDCHAR
STARTCHAR 0062
ENCODING 98
SWIDTH 565 0
DWIDTH 11 0
BBX 9 14 1 0
BITMAP
C000
C000
C000
C000
DE00
FF00
E380
C180
C180
C180
C180
E380
FF00
DE00
ENDCHAR
STARTCHAR 0063
ENCODING 99
SWIDTH 514 0
DWIDTH 10 0
BBX 8 10 1 0
BITMAP
3C
7E
E7
C0
C0
C0
C0
E7
7E
3C
ENDCHAR
STARTCHAR 0064
ENCODING 100
SWIDTH 565 0
DWIDTH 11 0
BBX 9 14 1 0
BITMAP
0180
0180
0180
0180
3D80
7F80
E380
C180
C180
C180
C180
E380
7F80
3D80
ENDCHAR
STARTCHAR 0065
ENCODING 101
SWIDTH 565 0
DWIDTH 11 0
BBX 9 10 1 0
BITMAP
3E00
7F00
E300
C180
FF80
FF80
C000
E180
7F00
3E00
ENDCHAR
STARTCHAR 0066
ENCODING 102
SWIDTH 308 0
DWIDTH 6 0
BBX 6 14 1 0
BITMAP
3C
7C
60
60
F8
F8
60
60
60
60
60
60
60
60
ENDCHAR
STARTCHAR 0067
ENCODING 103
SWIDTH 565 0
DWIDTH 11 0
BBX 9 14 1 -4
BITMAP
3D80
7F80
E380
C180
C180
C180
C180
E380
7F80
3D80
0180
C380
FF00
3E00
ENDCHAR
STARTCHAR 0068
ENCODING 104
SWIDTH 514 0
DWIDTH 10 0
BBX 8 14 1 0
BITMAP
C0
C0
C0
C0
DE
FF
E3
C3
C3
C3
C3
C3
C3
C3
ENDCHAR
STARTCHAR 0069
ENCODING 105
SWIDTH 205 0
DWIDTH 4 0
BBX 2 14 1 0
BITMAP
C0
C0
00
00
C0
C0
C0
C0
C0
C0
C0
C0
C0
C0
ENDCHAR
STARTCHAR 006A
ENCODING 106
SWIDTH 205 0
DWIDTH 4 0
BBX 4 18 -1 -4
BITMAP
30
30
00
00
30
30
30
30
30
30
30
30
30
30
30
30
F0
E0
ENDCHAR
STARTCHAR 006B
ENCODING 107
SWIDTH 462 0
DWIDTH 9 0
BBX 8 14 1 0
BITMAP
C0
C0
C0
C0
C7
CE
DC
F8
F8
DC
CC
CE
C6
C7
ENDCHAR
STARTCHAR 006C
ENCODING 108
SWIDTH 205 0
DWIDTH 4 0
BBX 2 14 1 0
BITMAP
C0
C0
C0
C0
C0
C0
C0
C0
C0
C0
C0
C0
C0
C0
ENDCHAR
STARTCHAR 006D
ENCODING 109
SWIDTH 822 0
DWIDTH 16 0
BBX 14 10 1 0
BITMAP
DE78
FEFC
E38C
C30C
C30C
C30C
C30C
C30C
C30C
C30C
ENDCHAR
STARTCHAR 006E
ENCODING 110
SWIDTH 514 0
DWIDTH 10 0
BBX 8 10 1 0
BITMAP
DE
FF
E3
C3
C3
C3
C3
C3
C3
C3
ENDCHAR
STARTCHAR 006F
ENCODING 111
SWIDTH 565 0
DWIDTH 11 0
BBX 9 10 1 0
BITMAP
3E00
7F00
E380
C180
C180
C180
C180
E380
7F00
3E00
ENDCHAR
STARTCHAR 0070
ENCODING 112
SWIDTH 565 0
DWIDTH 11 0
BBX 9 14 1 -4
BITMAP
DE00
FF00
E380
C180
C180
C180
C180
E300
FF00
DE00
C000
C000
C000
C000
ENDCHAR
STARTCHAR 0071
ENCODING 113
SWIDTH 565 0
DWIDTH 11 0
BBX 9 14 1 -4
BITMAP
3D80
7F80
E380
C180
C180
C180
C180
6380
7F80
3D80
0180
0180
0180
0180
ENDCHAR
STARTCHAR 0072
ENCODING 114
SWIDTH 308 0
DWIDTH 6 0
BBX 5 10 1 0
BITMAP
D8
F8
E0
C0
C0
C0
C0
C0
C0
C0
ENDCHAR
STARTCHAR 0073
ENCODING 115
SWIDTH 514 0
DWIDTH 10 0
BBX 8 10 1 0
BITMAP
7C
FE
C3
E0
78
1E
07
C3
7F
3E
ENDCHAR
STARTCHAR 0074
ENCODING 116
SWIDTH 257 0
DWIDTH 5 0
BBX 5 13 0 0
BITMAP
60
60
60
F8
F8
60
60
60
60
60
60
78
38
ENDCHAR
STARTCHAR 0075
ENCODING 117
SWIDTH 514 0
DWIDTH 10 0
BBX 8 10 1 0
BITMAP
C3
C3
C3
C3
C3
C3
C3
C7
FF
7B
ENDCHAR
STARTCHAR 0076
ENCODING 118
SWIDTH 462 0
DWIDTH 9 0
BBX 9 10 0 0
BITMAP
C180
C180
6300
6300
6300
3600
3600
1C00
1C00
0800
ENDCHAR
STARTCHAR 0077
ENCODING 119
SWIDTH 668 0
DWIDTH 13 0
BBX 13 10 0 0
BITMAP
C218
C718
C718
6530
6DB0
6DB0
28A0
38E0
38E0
18C0
ENDCHAR
STARTCHAR 0078
ENCODING 120
SWIDTH 462 0
DWIDTH 9 0
BBX 9 10 0 0
BITMAP
C180
6300
3600
3600
1C00
1C00
3600
3600
6300
C180
ENDCHAR
STARTCHAR 0079
ENCODING 121
SWIDTH 462 0
DWIDTH 9 0
BBX 9 14 0 -4
BITMAP
C180
C180
6300
6300
3300
3600
1E00
1E00
0C00
0C00
0C00
1800
7800
7000
ENDCHAR
STARTCHAR 007A
ENCODING 122
SWIDTH 462 0
DWIDTH 9 0
BBX 9 10 0 0
BITMAP
7F80
7F80
0380
0700
1E00
3800
7000
E000
FF80
FF80
ENDCHAR
STARTCHAR 007B
ENCODING 123
SWIDTH 308 0
DWIDTH 6 0
BBX 6 18 0 -4
BITMAP
1C
3C
30
30
30
30
30
70
E0
E0
70
30
30
30
30
30
3C
1C
ENDCHAR
STARTCHAR 007C
ENCODING 124
SWIDTH 308 0
DWIDTH 6 0
BBX 2 18 2 -4
BITMAP
C0
C0
C0
C0
C0
C0
C0
C0
C0
C0
C0
C0
C0
C0
C0
C0
C0
C0
ENDCHAR
STARTCHAR 007D
ENCODING 125
SWIDTH 308 0
DWIDTH 6 0
BBX 6 18 0 -4
BITMAP
E0
F0
30
30
30
30
30
38
1C
1C
38
30
30
30
30
30
F0
E0
ENDCHAR
STARTCHAR 007E
ENCODING 126
SWIDTH 565 0
DWIDTH 11 0
BBX 9 4 1 4
BITMAP
7000
F880
8F80
0700
ENDCHAR
STARTCHAR 00A0
ENCODING 160
SWIDTH 257 0
DWIDTH 5 0
BBX 0 0 0 0
BITMAP
ENDCHAR
STARTCHAR 00A1
ENCODING 161
SWIDTH 308 0
DWIDTH 6 0
BBX 2 14 2 -4
BITMAP
C0
C0
00
C0
C0
C0
C0
C0
C0
C0
C0
C0
C0
C0
ENDCHAR
STARTCHAR 00A2
ENCODING 162
SWIDTH 565 0
DWIDTH 11 0
BBX 9 18 1 -4
BITMAP
0200
0200
0200
0200
3C00
7F00
E780
C500
C800
C800
C980
F380
7F00
1E00
2000
2000
2000
2000
ENDCHAR
STARTCHAR 00A3
ENCODING 163
SWIDTH 565 0
DWIDTH 11 0
BBX 9 14 1 0
BITMAP
1E00
3F00
7180
6000
6000
6000
FC00
FC00
3000
3000
2000
7900
FF80
8700
ENDCHAR
STARTCHAR 00A4
ENCODING 164
SWIDTH 565 0
DWIDTH 11 0
BBX 10 8 0 2
BITMAP
5E80
FFC0
3300
6180
6180
3300
7F80
DEC0
ENDCHAR
STARTCHAR 00A5
ENCODING 165
SWIDTH 565 0
DWIDTH 11 0
BBX 10 14 0 0
BITMAP
C0C0
6180
6180
3300
3300
3F00
1E00
FFC0
FFC0
0C00
FFC0
FFC0
0C00
0C00
ENDCHAR
STARTCHAR 00A6
ENCODING 166
SWIDTH 308 0
DWIDTH 6 0
BBX 2 18 2 -4
BITMAP
C0
C0
C0
C0
C0
C0
C0
C0
00
00
00
C0
C0
C0
C0
C0
C0
C0
ENDCHAR
STARTCHAR 00A7
ENCODING 167
SWIDTH 565 0
DWIDTH 11 0
BBX 9 18 1 -4
BITMAP
3C00
7F00
6300
6000
3000
7C00
CE00
C700
C180
6180
3980
1E00
0600
0300
C300
E300
7E00
3C00
ENDCHAR
STARTCHAR 00A8
ENCODING 168
SWIDTH 308 0
DWIDTH 6 0
BBX 6 2 0 12
BITMAP
CC
CC
ENDCHAR
STARTCHAR 00A9
ENCODING 169
SWIDTH 720 0
DWIDTH 14 0
BBX 14 14 0 0
BITMAP
0FC0
1860
2010
4788
4848
9004
9004
9004
9044
488C
4708
2010
1860
0FC0
ENDCHAR
STARTCHAR 00AA
ENCODING 170
SWIDTH 360 0
DWIDTH 7 0
BBX 7 7 0 7
BITMAP
7C
C6
06
7E
C6
CE
7E
ENDCHAR
STARTCHAR 00AB
ENCODING 171
SWIDTH 565 0
DWIDTH 11 0
BBX 9 9 1 1
BITMAP
1980
3300
6600
6600
CC00
6600
6600
3300
1980
ENDCHAR
STARTCHAR 00AC
ENCODING 172
SWIDTH 565 0
DWIDTH 11 0
BBX 9 6 1 4
BITMAP
FF80
FF80
0180
0180
0180
0180
ENDCHAR
STARTCHAR 00AD
ENCODING 173
SWIDTH 308 0
DWIDTH 6 0
BBX 5 2 0 4
BITMAP
F8
F8
ENDCHAR
STARTCHAR 00AE
ENCODING 174
SWIDTH 720 0
DWIDTH 14 0
BBX 14 14 0 0
BITMAP
0FC0
1860
2010
4F08
4888
8884
8F04
8904
8884
488C
4848
2010
1860
0FC0
ENDCHAR
STARTCHAR 00AF
ENCODING 175
SWIDTH 565 0
DWIDTH 11 0
BBX 12 2 -1 15
BITMAP
FFF0
FFF0
ENDCHAR
STARTCHAR 00B0
ENCODING 176
SWIDTH 411 0
DWIDTH 8 0
BBX 5 5 1 9
BITMAP
70
88
88
88
70
ENDCHAR
STARTCHAR 00B1
ENCODING 177
SWIDTH 514 0
DWIDTH 10 0
BBX 10 11 0 0
BITMAP
0C00
0C00
0C00
0C00
FFC0
FFC0
0C00
0C00
0C00
FFC0
FFC0
ENDCHAR
STARTCHAR 00B2
ENCODING 178
SWIDTH 308 0
DWIDTH 6 0
BBX 6 7 0 7
BITMAP
78
CC
0C
18
30
60
FC
ENDCHAR
STARTCHAR 00B3
ENCODING 179
SWIDTH 308 0
DWIDTH 6 0
BBX 6 7 0 7
BITMAP
78
CC
0C
30
0C
CC
78
ENDCHAR
STARTCHAR 00B4
ENCODING 180
SWIDTH 308 0
DWIDTH 6 0
BBX 3 3 2 11
BITMAP
60
C0
80
ENDCHAR
STARTCHAR 00B5
ENCODING 181
SWIDTH 565 0
DWIDTH 11 0
BBX 9 14 1 -4
BITMAP
C180
C180
C180
C180
C180
C180
C180
E380
FF80
DD80
C000
C000
C000
C000
ENDCHAR
STARTCHAR 00B6
ENCODING 182
SWIDTH 514 0
DWIDTH 10 0
BBX 10 17 0 -3
BITMAP
3FC0
7FC0
F980
F980
F980
F980
7980
7980
1980
1980
1980
1980
1980
1980
1980
1980
1980
ENDCHAR
STARTCHAR 00B7
ENCODING 183
SWIDTH 308 0
DWIDTH 6 0
BBX 2 2 2 6
BITMAP
C0
C0
ENDCHAR
STARTCHAR 00B8
ENCODING 184
SWIDTH 308 0
DWIDTH 6 0
BBX 3 4 1 -4
BITMAP
40
60
20
C0
ENDCHAR
STARTCHAR 00B9
ENCODING 185
SWIDTH 308 0
DWIDTH 6 0
BBX 4 7 1 7
BITMAP
30
70
F0
B0
30
30
30
ENDCHAR
STARTCHAR 00BA
ENCODING 186
SWIDTH 360 0
DWIDTH 7 0
BBX 7 7 0 7
BITMAP
38
44
C6
C6
C6
C4
38
ENDCHAR
STARTCHAR 00BB
ENCODING 187
SWIDTH 565 0
DWIDTH 11 0
BBX 9 9 1 1
BITMAP
CC00
6600
3300
3300
1980
3300
3300
6600
CC00
ENDCHAR
STARTCHAR 00BC
ENCODING 188
SWIDTH 822 0
DWIDTH 16 0
BBX 15 14 1 0
BITMAP
3018
7030
F060
B060
30C0
3180
3300
030C
061C
0C1C
182C
186C
307E
600C
ENDCHAR
STARTCHAR 00BD
ENCODING 189
SWIDTH 822 0
DWIDTH 16 0
BBX 15 14 1 0
BITMAP
3018
7030
F030
B060
30C0
3180
3180
033C
0646
0C06
0C0C
1818
3020
307E
ENDCHAR
STARTCHAR 00BE
ENCODING 190
SWIDTH 822 0
DWIDTH 16 0
BBX 16 14 0 0
BITMAP
780C
CC0C
0C18
3030
0C60
CC60
78C0
0186
030E
030E
061E
0C36
183F
1806
ENDCHAR
STARTCHAR 00BF
ENCODING 191
SWIDTH 617 0
DWIDTH 12 0
BBX 10 14 1 -4
BITMAP
0C00
0C00
0000
0C00
0C00
1C00
3800
7000
6000
C000
C0C0
E1C0
7F80
3F00
ENDCHAR
STARTCHAR 00C0
ENCODING 192
SWIDTH 668 0
DWIDTH 13 0
BBX 13 18 0 0
BITMAP
0600
0300
0100
0000
0700
0700
0D80
0D80
0D80
18C0
18C0
3060
3FE0
3FE0
6030
6030
C018
C018
ENDCHAR
STARTCHAR 00C1
ENCODING 193
SWIDTH 668 0
DWIDTH 13 0
BBX 13 18 0 0
BITMAP
0300
0600
0400
0000
0700
0700
0D80
0D80
0D80
18C0
18C0
3060
3FE0
3FE0
6030
6030
C018
C018
ENDCHAR
STARTCHAR 00C2
ENCODING 194
SWIDTH 668 0
DWIDTH 13 0
BBX 13 18 0 0
BITMAP
0300
0780
0CC0
0000
0700
0700
0D80
0D80
0D80
18C0
18C0
3060
3FE0
3FE0
6030
6030
C018
C018
ENDCHAR
STARTCHAR 00C3
ENCODING 195
SWIDTH 668 0
DWIDTH 13 0
BBX 13 18 0 0
BITMAP
0680
0F80
0B00
0000
0700
0700
0D80
0D80
0D80
18C0
18C0
3060
3FE0
3FE0
6030
6030
C018
C018
ENDCHAR
STARTCHAR 00C4
ENCODING 196
SWIDTH 668 0
DWIDTH 13 0
BBX 13 17 0 0
BITMAP
0CC0
0CC0
0000
0700
0700
0D80
0D80
0D80
18C0
18C0
3060
3FE0
3FE0
6030
6030
C018
C018
ENDCHAR
STARTCHAR 00C5
ENCODING 197
SWIDTH 668 0
DWIDTH 13 0
BBX 13 18 0 0
BITMAP
0700
0880
0880
0880
0700
0700
0D80
0D80
0D80
18C0
18C0
3060
3FE0
3FE0
6030
6030
C018
C018
ENDCHAR
STARTCHAR 00C6
ENCODING 198
SWIDTH 977 0
DWIDTH 19 0
BBX 18 14 0 0
BITMAP
03FFC0
03FFC0
066000
066000
0C6000
0C6000
187F80
187F80
3FE000
3FE000
606000
606000
C07FC0
C07FC0
ENDCHAR
STARTCHAR 00C7
ENCODING 199
SWIDTH 720 0
DWIDTH 14 0
BBX 12 18 1 -4
BITMAP
0F00
3FC0
7060
6030
C000
C000
C000
C000
C000
C030
6060
70E0
3FC0
0F00
0400
0600
0200
0C00
ENDCHAR
STARTCHAR 00C8
ENCODING 200
SWIDTH 668 0
DWIDTH 13 0
BBX 10 18 2 0
BITMAP
1800
0C00
0400
0000
FFC0
FFC0
C000
C000
C000
C000
FF80
FF80
C000
C000
C000
C000
FFC0
FFC0
ENDCHAR
STARTCHAR 00C9
ENCODING 201
SWIDTH 668 0
DWIDTH 13 0
BBX 10 18 2 0
BITMAP
0600
0C00
0800
0000
FFC0
FFC0
C000
C000
C000
C000
FF80
FF80
C000
C000
C000
C000
FFC0
FFC0
ENDCHAR
STARTCHAR 00CA
ENCODING 202
SWIDTH 668 0
DWIDTH 13 0
BBX 10 18 2 0
BITMAP
0C00
1E00
3300
0000
FFC0
FFC0
C000
C000
C000
C000
FF80
FF80
C000
C000
C000
C000
FFC0
FFC0
ENDCHAR
STARTCHAR 00CB
ENCODING 203
SWIDTH 668 0
DWIDTH 13 0
BBX 10 17 2 0
BITMAP
3300
3300
0000
FFC0
FFC0
C000
C000
C000
C000
FF80
FF80
C000
C000
C000
C000
FFC0
FFC0
ENDCHAR
STARTCHAR 00CC
ENCODING 204
SWIDTH 308 0
DWIDTH 6 0
BBX 3 18 1 0
BITMAP
C0
60
20
00
60
60
60
60
60
60
60
60
60
60
60
60
60
60
ENDCHAR
STARTCHAR 00CD
ENCODING 205
SWIDTH 308 0
DWIDTH 6 0
BBX 3 18 2 0
BITMAP
60
C0
80
00
C0
C0
C0
C0
C0
C0
C0
C0
C0
C0
C0
C0
C0
C0
ENDCHAR
STARTCHAR 00CE
ENCODING 206
SWIDTH 308 0
DWIDTH 6 0
BBX 6 18 0 0
BITMAP
30
78
CC
00
30
30
30
30
30
30
30
30
30
30
30
30
30
30
ENDCHAR
STARTCHAR 00CF
ENCODING 207
SWIDTH 308 0
DWIDTH 6 0
BBX 6 17 0 0
BITMAP
CC
CC
00
30
30
30
30
30
30
30
30
30
30
30
30
30
30
ENDCHAR
STARTCHAR 00D0
ENCODING 208
SWIDTH 720 0
DWIDTH 14 0
BBX 13 14 0 0
BITMAP
3FC0
3FE0
3070
3030
3018
3018
FE18
FE18
3018
3018
3030
3070
3FE0
3FC0
ENDCHAR
STARTCHAR 00D1
ENCODING 209
SWIDTH 668 0
DWIDTH 13 0
BBX 11 18 1 0
BITMAP
0D00
1F00
1600
0000
C060
E060
F060
F060
D860
CC60
CC60
C660
C660
C360
C1E0
C1E0
C0E0
C060
ENDCHAR
STARTCHAR 00D2
ENCODING 210
SWIDTH 771 0
DWIDTH 15 0
BBX 13 18 1 0
BITMAP
0600
0300
0100
0000
0F80
3FE0
7070
6030
C018
C018
C018
C018
C018
C018
6030
7070
3FE0
0F80
ENDCHAR
STARTCHAR 00D3
ENCODING 211
SWIDTH 771 0
DWIDTH 15 0
BBX 13 18 1 0
BITMAP
0180
0300
0200
0000
0F80
3FE0
7070
6030
C018
C018
C018
C018
C018
C018
6030
7070
3FE0
0F80
ENDCHAR
STARTCHAR 00D4
ENCODING 212
SWIDTH 771 0
DWIDTH 15 0
BBX 13 18 1 0
BITMAP
0300
0780
0CC0
0000
0F80
3FE0
7070
6030
C018
C018
C018
C018
C018
C018
6030
7070
3FE0
0F80
ENDCHAR
STARTCHAR 00D5
ENCODING 213
SWIDTH 771 0
DWIDTH 15 0
BBX 13 18 1 0
BITMAP
0680
0F80
0B00
0000
0F80
3FE0
7070
6030
C018
C018
C018
C018
C018
C018
6030
7070
3FE0
0F80
ENDCHAR
STARTCHAR 00D6
ENCODING 214
SWIDTH 771 0
DWIDTH 15 0
BBX 13 17 1 0
BITMAP
0CC0
0CC0
0000
0F80
3FE0
7070
6030
C018
C018
C018
C018
C018
C018
6030
7070
3FE0
0F80
ENDCHAR
STARTCHAR 00D7
ENCODING 215
SWIDTH 565 0
DWIDTH 11 0
BBX 7 7 2 3
BITMAP
84
EE
7C
38
7C
EE
84
ENDCHAR
STARTCHAR 00D8
ENCODING 216
SWIDTH 771 0
DWIDTH 15 0
BBX 13 14 1 -1
BITMAP
0F88
3FD8
7070
6070
C0D8
C198
C318
C618
C618
EC18
7830
7060
7FC0
CF80
ENDCHAR
STARTCHAR 00D9
ENCODING 217
SWIDTH 668 0
DWIDTH 13 0
BBX 11 18 1 0
BITMAP
1800
0C00
0400
0000
C060
C060
C060
C060
C060
C060
C060
C060
C060
C060
C060
60C0
7FC0
1F00
ENDCHAR
STARTCHAR 00DA
ENCODING 218
SWIDTH 668 0
DWIDTH 13 0
BBX 11 18 1 0
BITMAP
0600
0C00
0800
0000
C060
C060
C060
C060
C060
C060
C060
C060
C060
C060
C060
60C0
7FC0
1F00
ENDCHAR
STARTCHAR 00DB
ENCODING 219
SWIDTH 668 0
DWIDTH 13 0
BBX 11 18 1 0
BITMAP
0600
0F00
1980
0000
C060
C060
C060
C060
C060
C060
C060
C060
C060
C060
C060
60C0
7FC0
1F00
ENDCHAR
STARTCHAR 00DC
ENCODING 220
SWIDTH 668 0
DWIDTH 13 0
BBX 11 17 1 0
BITMAP
1980
1980
0000
C060
C060
C060
C060
C060
C060
C060
C060
C060
C060
C060
60C0
7FC0
1F00
ENDCHAR
STARTCHAR 00DD
ENCODING 221
SWIDTH 617 0
DWIDTH 12 0
BBX 12 18 0 0
BITMAP
0300
0600
0400
0000
E070
6060
30C0
39C0
1980
1D80
0F00
0600
0600
0600
0600
0600
0600
0600
ENDCHAR
STARTCHAR 00DE
ENCODING 222
SWIDTH 668 0
DWIDTH 13 0
BBX 10 14 2 0
BITMAP
C000
C000
C000
FF00
FF80
C1C0
C0C0
C0C0
C1C0
FF80
FF00
C000
C000
C000
ENDCHAR
STARTCHAR 00DF
ENCODING 223
SWIDTH 617 0
DWIDTH 12 0
BBX 10 14 1 0
BITMAP
3C00
7F00
E300
C300
C600
C600
CC00
CE00
C780
C1C0
C0C0
D8C0
CF80
C700
ENDCHAR
STARTCHAR 00E0
ENCODING 224
SWIDTH 514 0
DWIDTH 10 0
BBX 9 14 1 0
BITMAP
3000
1800
0800
0000
3E00
FF00
C300
0F00
7F00
F300
C300
C700
FF00
7980
ENDCHAR
STARTCHAR 00E1
ENCODING 225
SWIDTH 514 0
DWIDTH 10 0
BBX 9 14 1 0
BITMAP
0C00
1800
1000
0000
3E00
FF00
C300
0F00
7F00
F300
C300
C700
FF00
7980
ENDCHAR
STARTCHAR 00E2
ENCODING 226
SWIDTH 514 0
DWIDTH 10 0
BBX 9 14 1 0
BITMAP
1800
3C00
6600
0000
3E00
FF00
C300
0F00
7F00
F300
C300
C700
FF00
7980
ENDCHAR
STARTCHAR 00E3
ENCODING 227
SWIDTH 514 0
DWIDTH 10 0
BBX 9 14 1 0
BITMAP
1A00
3E00
2C00
0000
3E00
FF00
C300
0F00
7F00
F300
C300
C700
FF00
7980
ENDCHAR
STARTCHAR 00E4
ENCODING 228
SWIDTH 514 0
DWIDTH 10 0
BBX 9 13 1 0
BITMAP
6600
6600
0000
3E00
FF00
C300
0F00
7F00
F300
C300
C700
FF00
7980
ENDCHAR
STARTCHAR 00E5
ENCODING 229
SWIDTH 514 0
DWIDTH 10 0
BBX 9 16 1 0
BITMAP
1C00
2200
2200
2200
1C00
0000
3E00
FF00
C300
0F00
7F00
F300
C300
C700
FF00
7980
ENDCHAR
STARTCHAR 00E6
ENCODING 230
SWIDTH 874 0
DWIDTH 17 0
BBX 16 10 1 0
BITMAP
3E7C
7FFE
C1C6
0783
7FFF
F1FF
C180
C3C7
FEFE
7C7C
ENDCHAR
STARTCHAR 00E7
ENCODING 231
SWIDTH 514 0
DWIDTH 10 0
BBX 8 14 1 -4
BITMAP
3C
7E
E7
C0
C0
C0
C0
E7
7E
3C
10
18
08
30
ENDCHAR
STARTCHAR 00E8
ENCODING 232
SWIDTH 565 0
DWIDTH 11 0
BBX 9 14 1 0
BITMAP
1800
0C00
0400
0000
3E00
7F00
E300
C180
FF80
FF80
C000
E180
7F00
3E00
ENDCHAR
STARTCHAR 00E9
ENCODING 233
SWIDTH 565 0
DWIDTH 11 0
BBX 9 14 1 0
BITMAP
0600
0C00
0800
0000
3E00
7F00
E300
C180
FF80
FF80
C000
E180
7F00
3E00
ENDCHAR
STARTCHAR 00EA
ENCODING 234
SWIDTH 565 0
DWIDTH 11 0
BBX 9 14 1 0
BITMAP
0C00
1E00
3300
0000
3E00
7F00
E300
C180
FF80
FF80
C000
E180
7F00
3E00
ENDCHAR
STARTCHAR 00EB
ENCODING 235
SWIDTH 565 0
DWIDTH 11 0
BBX 9 13 1 0
BITMAP
3300
3300
0000
3E00
7F00
E300
C180
FF80
FF80
C000
E180
7F00
3E00
ENDCHAR
STARTCHAR 00EC
ENCODING 236
SWIDTH 308 0
DWIDTH 6 0
BBX 3 14 1 0
BITMAP
C0
60
20
00
60
60
60
60
60
60
60
60
60
60
ENDCHAR
STARTCHAR 00ED
ENCODING 237
SWIDTH 308 0
DWIDTH 6 0
BBX 3 14 2 0
BITMAP
60
C0
80
00
C0
C0
C0
C0
C0
C0
C0
C0
C0
C0
ENDCHAR
STARTCHAR 00EE
ENCODING 238
SWIDTH 308 0
DWIDTH 6 0
BBX 6 14 0 0
BITMAP
30
78
CC
00
30
30
30
30
30
30
30
30
30
30
ENDCHAR
STARTCHAR 00EF
ENCODING 239
SWIDTH 308 0
DWIDTH 6 0
BBX 6 13 0 0
BITMAP
CC
CC
00
30
30
30
30
30
30
30
30
30
30
ENDCHAR
STARTCHAR 00F0
ENCODING 240
SWIDTH 565 0
DWIDTH 11 0
BBX 9 14 1 0
BITMAP
1A00
0E00
1C00
2600
3B00
7F00
E380
C180
C180
C180
C180
E380
7F00
3E00
ENDCHAR
STARTCHAR 00F1
ENCODING 241
SWIDTH 514 0
DWIDTH 10 0
BBX 8 14 1 0
BITMAP
1A
3E
2C
00
DE
FF
E3
C3
C3
C3
C3
C3
C3
C3
ENDCHAR
STARTCHAR 00F2
ENCODING 242
SWIDTH 565 0
DWIDTH 11 0
BBX 9 14 1 0
BITMAP
1800
0C00
0400
0000
3E00
7F00
E380
C180
C180
C180
C180
E380
7F00
3E00
ENDCHAR
STARTCHAR 00F3
ENCODING 243
SWIDTH 565 0
DWIDTH 11 0
BBX 9 14 1 0
BITMAP
0600
0C00
0800
0000
3E00
7F00
E380
C180
C180
C180
C180
E380
7F00
3E00
ENDCHAR
STARTCHAR 00F4
ENCODING 244
SWIDTH 565 0
DWIDTH 11 0
BBX 9 14 1 0
BITMAP
0C00
1E00
3300
0000
3E00
7F00
E380
C180
C180
C180
C180
E380
7F00
3E00
ENDCHAR
STARTCHAR 00F5
ENCODING 245
SWIDTH 565 0
DWIDTH 11 0
BBX 9 14 1 0
BITMAP
1A00
3E00
2C00
0000
3E00
7F00
E380
C180
C180
C180
C180
E380
7F00
3E00
ENDCHAR
STARTCHAR 00F6
ENCODING 246
SWIDTH 565 0
DWIDTH 11 0
BBX 9 13 1 0
BITMAP
3300
3300
0000
3E00
7F00
E380
C180
C180
C180
C180
E380
7F00
3E00
ENDCHAR
STARTCHAR 00F7
ENCODING 247
SWIDTH 514 0
DWIDTH 10 0
BBX 10 8 0 2
BITMAP
0C00
0C00
0000
FFC0
FFC0
0000
0C00
0C00
ENDCHAR
STARTCHAR 00F8
ENCODING 248
SWIDTH 565 0
DWIDTH 11 0
BBX 9 12 1 -1
BITMAP
0180
3F80
7F00
E780
CD80
CD80
D980
D980
F380
7F00
DE00
C000
ENDCHAR
STARTCHAR 00F9
ENCODING 249
SWIDTH 514 0
DWIDTH 10 0
BBX 8 14 1 0
BITMAP
30
18
08
00
C3
C3
C3
C3
C3
C3
C3
C7
FF
7B
ENDCHAR
STARTCHAR 00FA
ENCODING 250
SWIDTH 514 0
DWIDTH 10 0
BBX 8 14 1 0
BITMAP
0C
18
10
00
C3
C3
C3
C3
C3
C3
C3
C7
FF
7B
ENDCHAR
STARTCHAR 00FB
ENCODING 251
SWIDTH 514 0
DWIDTH 10 0
BBX 8 14 1 0
BITMAP
18
3C
66
00
C3
C3
C3
C3
C3
C3
C3
C7
FF
7B
ENDCHAR
STARTCHAR 00FC
ENCODING 252
SWIDTH 514 0
DWIDTH 10 0
BBX 8 13 1 0
BITMAP
66
66
00
C3
C3
C3
C3
C3
C3
C3
C7
FF
7B
ENDCHAR
STARTCHAR 00FD
ENCODING 253
SWIDTH 462 0
DWIDTH 9 0
BBX 9 18 0 -4
BITMAP
0600
0C00
0800
0000
C180
C180
6300
6300
3300
3600
1E00
1E00
0C00
0C00
0C00
1800
7800
7000
ENDCHAR
STARTCHAR 00FE
ENCODING 254
SWIDTH 565 0
DWIDTH 11 0
BBX 9 18 1 -4
BITMAP
C000
C000
C000
C000
DE00
FF00
E380
C180
C180
C180
C180
E300
FF00
DE00
C000
C000
C000
C000
ENDCHAR
STARTCHAR 00FF
ENCODING 255
SWIDTH 462 0
DWIDTH 9 0
BBX 9 17 0 -4
BITMAP
3300
3300
0000
C180
C180
6300
6300
3300
3600
1E00
1E00
0C00
0C00
0C00
1800
7800
7000
ENDCHAR
STARTCHAR 0100
ENCODING 256
SWIDTH 668 0
DWIDTH 13 0
BBX 13 16 0 0
BITMAP
0F80
0000
0700
0700
0D80
0D80
0D80
18C0
18C0
3060
3FE0
3FE0
6030
6030
C018
C018
ENDCHAR
STARTCHAR 0101
ENCODING 257
SWIDTH 514 0
DWIDTH 10 0
BBX 9 12 1 0
BITMAP
3E00
0000
3E00
FF00
C300
0F00
7F00
F300
C300
C700
FF00
7980
ENDCHAR
STARTCHAR 0102
ENCODING 258
SWIDTH 668 0
DWIDTH 13 0
BBX 13 18 0 0
BITMAP
0880
0880
0700
0000
0700
0700
0D80
0D80
0D80
18C0
18C0
3060
3FE0
3FE0
6030
6030
C018
C018
ENDCHAR
STARTCHAR 0103
ENCODING 259
SWIDTH 514 0
DWIDTH 10 0
BBX 9 14 1 0
BITMAP
2200
2200
1C00
0000
3E00
FF00
C300
0F00
7F00
F300
C300
C700
FF00
7980
ENDCHAR
STARTCHAR 0104
ENCODING 260
SWIDTH 668 0
DWIDTH 13 0
BBX 14 18 0 -4
BITMAP
0700
0700
0D80
0D80
0D80
18C0
18C0
3060
3FE0
3FE0
6030
6030
C018
C018
0008
0010
0010
001C
ENDCHAR
STARTCHAR 0105
ENCODING 261
SWIDTH 514 0
DWIDTH 10 0
BBX 10 14 1 -4
BITMAP
3E00
FF00
C300
0F00
7F00
F300
C300
C700
FF00
7980
0080
0100
0100
01C0
ENDCHAR
STARTCHAR 0106
ENCODING 262
SWIDTH 720 0
DWIDTH 14 0
BBX 12 18 1 0
BITMAP
0300
0600
0400
0000
0F00
3FC0
7060
6030
C000
C000
C000
C000
C000
C030
6060
70E0
3FC0
0F00
ENDCHAR
STARTCHAR 0107
ENCODING 263
SWIDTH 514 0
DWIDTH 10 0
BBX 8 14 1 0
BITMAP
0C
18
10
00
3C
7E
E7
C0
C0
C0
C0
E7
7E
3C
ENDCHAR
STARTCHAR 0108
ENCODING 264
SWIDTH 720 0
DWIDTH 14 0
BBX 12 18 1 0
BITMAP
0600
0F00
1980
0000
0F00
3FC0
7060
6030
C000
C000
C000
C000
C000
C030
6060
70E0
3FC0
0F00
ENDCHAR
STARTCHAR 0109
ENCODING 265
SWIDTH 514 0
DWIDTH 10 0
BBX 8 14 1 0
BITMAP
18
3C
66
00
3C
7E
E7
C0
C0
C0
C0
E7
7E
3C
ENDCHAR
STARTCHAR 010A
ENCODING 266
SWIDTH 720 0
DWIDTH 14 0
BBX 12 17 1 0
BITMAP
0300
0300
0000
0F00
3FC0
7060
6030
C000
C000
C000
C000
C000
C030
6060
70E0
3FC0
0F00
ENDCHAR
STARTCHAR 010B
ENCODING 267
SWIDTH 514 0
DWIDTH 10 0
BBX 8 13 1 0
BITMAP
0C
0C
00
3C
7E
E7
C0
C0
C0
C0
E7
7E
3C
ENDCHAR
STARTCHAR 010C
ENCODING 268
SWIDTH 720 0
DWIDTH 14 0
BBX 12 18 1 0
BITMAP
1980
0F00
0600
0000
0F00
3FC0
7060
6030
C000
C000
C000
C000
C000
C030
6060
70E0
3FC0
0F00
ENDCHAR
STARTCHAR 010D
ENCODING 269
SWIDTH 514 0
DWIDTH 10 0
BBX 8 14 1 0
BITMAP
66
3C
18
00
3C
7E
E7
C0
C0
C0
C0
E7
7E
3C
ENDCHAR
STARTCHAR 010E
ENCODING 270
SWIDTH 720 0
DWIDTH 14 0
BBX 11 18 2 0
BITMAP
3300
1E00
0C00
0000
FF00
FF80
C1C0
C0C0
C060
C060
C060
C060
C060
C060
C0C0
C1C0
FF80
FF00
ENDCHAR
STARTCHAR 010F
ENCODING 271
SWIDTH 617 0
DWIDTH 12 0
BBX 12 14 1 0
BITMAP
01B0
01B0
0190
01A0
3D80
7F80
E380
C180
C180
C180
C180
E380
7F80
3D80
ENDCHAR
STARTCHAR 0110
ENCODING 272
SWIDTH 720 0
DWIDTH 14 0
BBX 13 14 0 0
BITMAP
3FC0
3FE0
3070
3030
3018
3018
FE18
FE18
3018
3018
3030
3070
3FE0
3FC0
ENDCHAR
STARTCHAR 0111
ENCODING 273
SWIDTH 565 0
DWIDTH 11 0
BBX 10 14 1 0
BITMAP
0180
0FC0
0FC0
0180
3D80
7F80
E380
C180
C180
C180
C180
E380
7F80
3D80
ENDCHAR
STARTCHAR 0112
ENCODING 274
SWIDTH 668 0
DWIDTH 13 0
BBX 10 16 2 0
BITMAP
1F00
0000
FFC0
FFC0
C000
C000
C000
C000
FF80
FF80
C000
C000
C000
C000
FFC0
FFC0
ENDCHAR
STARTCHAR 0113
ENCODING 275
SWIDTH 565 0
DWIDTH 11 0
BBX 9 12 1 0
BITMAP
3E00
0000
3E00
7F00
E300
C180
FF80
FF80
C000
E180
7F00
3E00
ENDCHAR
STARTCHAR 0114
ENCODING 276
SWIDTH 668 0
DWIDTH 13 0
BBX 10 18 2 0
BITMAP
1100
1100
0E00
0000
FFC0
FFC0
C000
C000
C000
C000
FF80
FF80
C000
C000
C000
C000
FFC0
FFC0
ENDCHAR
STARTCHAR 0115
ENCODING 277
SWIDTH 565 0
DWIDTH 11 0
BBX 9 14 1 0
BITMAP
2200
2200
1C00
0000
3E00
7F00
E300
C180
FF80
FF80
C000
E180
7F00
3E00
ENDCHAR
STARTCHAR 0116
ENCODING 278
SWIDTH 668 0
DWIDTH 13 0
BBX 10 17 2 0
BITMAP
0C00
0C00
0000
FFC0
FFC0
C000
C000
C000
C000
FF80
FF80
C000
C000
C000
C000
FFC0
FFC0
ENDCHAR
STARTCHAR 0117
ENCODING 279
SWIDTH 565 0
DWIDTH 11 0
BBX 9 13 1 0
BITMAP
0C00
0C00
0000
3E00
7F00
E300
C180
FF80
FF80
C000
E180
7F00
3E00
ENDCHAR
STARTCHAR 0118
ENCODING 280
SWIDTH 668 0
DWIDTH 13 0
BBX 10 18 2 -4
BITMAP
FFC0
FFC0
C000
C000
C000
C000
FF80
FF80
C000
C000
C000
C000
FFC0
FFC0
0080
0100
0100
01C0
ENDCHAR
STARTCHAR 0119
ENCODING 281
SWIDTH 565 0
DWIDTH 11 0
BBX 9 14 1 -4
BITMAP
3E00
7F00
E300
C180
FF80
FF80
C000
E180
7F00
3E00
0400
0800
0800
0E00
ENDCHAR
STARTCHAR 011A
ENCODING 282
SWIDTH 668 0
DWIDTH 13 0
BBX 10 18 2 0
BITMAP
3300
1E00
0C00
0000
FFC0
FFC0
C000
C000
C000
C000
FF80
FF80
C000
C000
C000
C000
FFC0
FFC0
ENDCHAR
STARTCHAR 011B
ENCODING 283
SWIDTH 565 0
DWIDTH 11 0
BBX 9 14 1 0
BITMAP
3300
1E00
0C00
0000
3E00
7F00
E300
C180
FF80
FF80
C000
E180
7F00
3E00
ENDCHAR
STARTCHAR 011C
ENCODING 284
SWIDTH 771 0
DWIDTH 15 0
BBX 13 18 1 0
BITMAP
0300
0780
0CC0
0000
0FC0
3FE0
7070
6038
E010
C000
C000
C1F8
C1F8
C018
6018
7838
3FF0
0FC0
ENDCHAR
STARTCHAR 011D
ENCODING 285
SWIDTH 565 0
DWIDTH 11 0
BBX 9 18 1 -4
BITMAP
0C00
1E00
3300
0000
3D80
7F80
E380
C180
C180
C180
C180
E380
7F80
3D80
0180
C380
FF00
3E00
ENDCHAR
STARTCHAR 011E
ENCODING 286
SWIDTH 771 0
DWIDTH 15 0
BBX 13 18 1 0
BITMAP
0880
0880
0700
0000
0FC0
3FE0
7070
6038
E010
C000
C000
C1F8
C1F8
C018
6018
7838
3FF0
0FC0
ENDCHAR
STARTCHAR 011F
ENCODING 287
SWIDTH 565 0
DWIDTH 11 0
BBX 9 18 1 -4
BITMAP
2200
2200
1C00
0000
3D80
7F80
E380
C180
C180
C180
C180
E380
7F80
3D80
0180
C380
FF00
3E00
ENDCHAR
STARTCHAR 0120
ENCODING 288
SWIDTH 771 0
DWIDTH 15 0
BBX 13 17 1 0
BITMAP
0300
0300
0000
0FC0
3FE0
7070
6038
E010
C000
C000
C1F8
C1F8
C018
6018
7838
3FF0
0FC0
ENDCHAR
STARTCHAR 0121
ENCODING 289
SWIDTH 565 0
DWIDTH 11 0
BBX 9 17 1 -4
BITMAP
0C00
0C00
0000
3D80
7F80
E380
C180
C180
C180
C180
E380
7F80
3D80
0180
C380
FF00
3E00
ENDCHAR
STARTCHAR 0122
ENCODING 290
SWIDTH 771 0
DWIDTH 15 0
BBX 13 19 1 -5
BITMAP
0FC0
3FE0
7070
6038
E010
C000
C000
C1F8
C1F8
C018
6018
7838
3FF0
0FC0
0000
0300
0300
0100
0200
ENDCHAR
STARTCHAR 0123
ENCODING 291
SWIDTH 565 0
DWIDTH 11 0
BBX 9 19 1 -4
BITMAP
1800
1000
1800
1800
0000
3D80
7F80
E380
C180
C180
C180
C180
E380
7F80
3D80
0180
C380
FF00
3E00
ENDCHAR
STARTCHAR 0124
ENCODING 292
SWIDTH 668 0
DWIDTH 13 0
BBX 11 18 1 0
BITMAP
0600
0F00
1980
0000
C060
C060
C060
C060
C060
C060
FFE0
FFE0
C060
C060
C060
C060
C060
C060
ENDCHAR
STARTCHAR 0125
ENCODING 293
SWIDTH 514 0
DWIDTH 10 0
BBX 8 18 1 0
BITMAP
0C
1E
33
00
C0
C0
C0
C0
DE
FF
E3
C3
C3
C3
C3
C3
C3
C3
ENDCHAR
STARTCHAR 0126
ENCODING 294
SWIDTH 668 0
DWIDTH 13 0
BBX 12 14 1 0
BITMAP
6060
FFF0
FFF0
6060
6060
7FE0
7FE0
6060
6060
6060
6060
6060
6060
6060
ENDCHAR
STARTCHAR 0127
ENCODING 295
SWIDTH 514 0
DWIDTH 10 0
BBX 9 14 0 0
BITMAP
6000
FC00
FC00
6000
6F00
7F80
7180
6180
6180
6180
6180
6180
6180
6180
ENDCHAR
STARTCHAR 0128
ENCODING 296
SWIDTH 308 0
DWIDTH 6 0
BBX 5 18 0 0
BITMAP
68
F8
B0
00
30
30
30
30
30
30
30
30
30
30
30
30
30
30
ENDCHAR
STARTCHAR 0129
ENCODING 297
SWIDTH 308 0
DWIDTH 6 0
BBX 5 14 1 0
BITMAP
68
F8
B0
00
60
60
60
60
60
60
60
60
60
60
ENDCHAR
STARTCHAR 012A
ENCODING 298
SWIDTH 308 0
DWIDTH 6 0
BBX 5 16 0 0
BITMAP
F8
00
30
30
30
30
30
30
30
30
30
30
30
30
30
30
ENDCHAR
STARTCHAR 012B
ENCODING 299
SWIDTH 308 0
DWIDTH 6 0
BBX 5 12 1 0
BITMAP
F8
00
60
60
60
60
60
60
60
60
60
60
ENDCHAR
STARTCHAR 012C
ENCODING 300
SWIDTH 308 0
DWIDTH 6 0
BBX 5 18 1 0
BITMAP
88
88
70
00
60
60
60
60
60
60
60
60
60
60
60
60
60
60
ENDCHAR
STARTCHAR 012D
ENCODING 301
SWIDTH 308 0
DWIDTH 6 0
BBX 5 14 1 0
BITMAP
88
88
70
00
60
60
60
60
60
60
60
60
60
60
ENDCHAR
STARTCHAR 012E
ENCODING 302
SWIDTH 308 0
DWIDTH 6 0
BBX 3 18 2 -4
BITMAP
C0
C0
C0
C0
C0
C0
C0
C0
C0
C0
C0
C0
C0
C0
40
80
80
E0
ENDCHAR
STARTCHAR 012F
ENCODING 303
SWIDTH 205 0
DWIDTH 4 0
BBX 3 18 1 -4
BITMAP
C0
C0
00
00
C0
C0
C0
C0
C0
C0
C0
C0
C0
C0
40
80
80
E0
ENDCHAR
STARTCHAR 0130
ENCODING 304
SWIDTH 308 0
DWIDTH 6 0
BBX 2 17 2 0
BITMAP
C0
C0
00
C0
C0
C0
C0
C0
C0
C0
C0
C0
C0
C0
C0
C0
C0
ENDCHAR
STARTCHAR 0131
ENCODING 305
SWIDTH 308 0
DWIDTH 6 0
BBX 2 10 2 0
BITMAP
C0
C0
C0
C0
C0
C0
C0
C0
C0
C0
ENDCHAR
STARTCHAR 0132
ENCODING 306
SWIDTH 720 0
DWIDTH 14 0
BBX 10 14 2 0
BITMAP
C0C0
C0C0
C0C0
C0C0
C0C0
C0C0
C0C0
C0C0
C0C0
C0C0
D8C0
D8C0
DF80
CF00
ENDCHAR
STARTCHAR 0133
ENCODING 307
SWIDTH 411 0
DWIDTH 8 0
BBX 6 18 1 -4
BITMAP
CC
CC
00
00
CC
CC
CC
CC
CC
CC
CC
CC
CC
CC
0C
0C
3C
38
ENDCHAR
STARTCHAR 0134
ENCODING 308
SWIDTH 514 0
DWIDTH 10 0
BBX 9 18 1 0
BITMAP
0600
0F00
1980
0000
0600
0600
0600
0600
0600
0600
0600
0600
0600
0600
C600
C600
FC00
7800
ENDCHAR
STARTCHAR 0135
ENCODING 309
SWIDTH 205 0
DWIDTH 4 0
BBX 6 18 -1 -4
BITMAP
30
78
CC
00
30
30
30
30
30
30
30
30
30
30
30
30
F0
E0
ENDCHAR
STARTCHAR 0136
ENCODING 310
SWIDTH 668 0
DWIDTH 13 0
BBX 11 19 2 -5
BITMAP
C1C0
C380
C700
CE00
DC00
D800
F800
FC00
CE00
C600
C300
C380
C1C0
C0E0
0000
0C00
0C00
0400
0800
ENDCHAR
STARTCHAR 0137
ENCODING 311
SWIDTH 462 0
DWIDTH 9 0
BBX 8 19 1 -5
BITMAP
C0
C0
C0
C0
C7
CE
DC
F8
F8
DC
CC
CE
C6
C7
00
18
18
08
10
ENDCHAR
STARTCHAR 0138
ENCODING 312
SWIDTH 514 0
DWIDTH 10 0
BBX 8 10 1 0
BITMAP
C3
C6
CC
D8
F8
CC
CC
C6
C3
C3
ENDCHAR
STARTCHAR 0139
ENCODING 313
SWIDTH 565 0
DWIDTH 11 0
BBX 8 18 2 0
BITMAP
18
30
20
00
C0
C0
C0
C0
C0
C0
C0
C0
C0
C0
C0
C0
FF
FF
ENDCHAR
STARTCHAR 013A
ENCODING 314
SWIDTH 205 0
DWIDTH 4 0
BBX 3 18 1 0
BITMAP
60
C0
80
00
C0
C0
C0
C0
C0
C0
C0
C0
C0
C0
C0
C0
C0
C0
ENDCHAR
STARTCHAR 013B
ENCODING 315
SWIDTH 565 0
DWIDTH 11 0
BBX 8 19 2 -5
BITMAP
C0
C0
C0
C0
C0
C0
C0
C0
C0
C0
C0
C0
FF
FF
00
18
18
08
10
ENDCHAR
STARTCHAR 013C
ENCODING 316
SWIDTH 205 0
DWIDTH 4 0
BBX 2 19 1 -5
BITMAP
C0
C0
C0
C0
C0
C0
C0
C0
C0
C0
C0
C0
C0
C0
00
C0
C0
40
80
ENDCHAR
STARTCHAR 013D
ENCODING 317
SWIDTH 565 0
DWIDTH 11 0
BBX 8 14 2 0
BITMAP
C6
C6
C2
C2
C4
C0
C0
C0
C0
C0
C0
C0
FF
FF
ENDCHAR
STARTCHAR 013E
ENCODING 318
SWIDTH 308 0
DWIDTH 6 0
BBX 5 14 1 0
BITMAP
D8
D8
C8
D8
C0
C0
C0
C0
C0
C0
C0
C0
C0
C0
ENDCHAR
STARTCHAR 013F
ENCODING 319
SWIDTH 565 0
DWIDTH 11 0
BBX 8 14 2 0
BITMAP
C0
C0
C0
C0
C0
C0
C6
C6
C0
C0
C0
C0
FF
FF
ENDCHAR
STARTCHAR 0140
ENCODING 320
SWIDTH 308 0
DWIDTH 6 0
BBX 5 14 1 0
BITMAP
C0
C0
C0
C0
C0
C0
D8
D8
C0
C0
C0
C0
C0
C0
ENDCHAR
STARTCHAR 0141
ENCODING 321
SWIDTH 565 0
DWIDTH 11 0
BBX 10 14 0 0
BITMAP
3000
3000
3000
3200
3E00
3C00
7000
F000
B000
3000
3000
3000
3FC0
3FC0
ENDCHAR
STARTCHAR 0142
ENCODING 322
SWIDTH 205 0
DWIDTH 4 0
BBX 4 14 0 0
BITMAP
60
60
60
60
70
70
60
E0
E0
60
60
60
60
60
ENDCHAR
STARTCHAR 0143
ENCODING 323
SWIDTH 668 0
DWIDTH 13 0
BBX 11 18 1 0
BITMAP
0300
0600
0400
0000
C060
E060
F060
F060
D860
CC60
CC60
C660
C660
C360
C1E0
C1E0
C0E0
C060
ENDCHAR
STARTCHAR 0144
ENCODING 324
SWIDTH 514 0
DWIDTH 10 0
BBX 8 14 1 0
BITMAP
0C
18
10
00
DE
FF
E3
C3
C3
C3
C3
C3
C3
C3
ENDCHAR
STARTCHAR 0145
ENCODING 325
SWIDTH 668 0
DWIDTH 13 0
BBX 11 19 1 -5
BITMAP
C060
E060
F060
F060
D860
CC60
CC60
C660
C660
C360
C1E0
C1E0
C0E0
C060
0000
0600
0600
0200
0400
ENDCHAR
STARTCHAR 0146
ENCODING 326
SWIDTH 514 0
DWIDTH 10 0
BBX 8 15 1 -5
BITMAP
DE
FF
E3
C3
C3
C3
C3
C3
C3
C3
00
18
18
08
10
ENDCHAR
STARTCHAR 0147
ENCODING 327
SWIDTH 668 0
DWIDTH 13 0
BBX 11 18 1 0
BITMAP
1980
0F00
0600
0000
C060
E060
F060
F060
D860
CC60
CC60
C660
C660
C360
C1E0
C1E0
C0E0
C060
ENDCHAR
STARTCHAR 0148
ENCODING 328
SWIDTH 514 0
DWIDTH 10 0
BBX 8 14 1 0
BITMAP
66
3C
18
00
DE
FF
E3
C3
C3
C3
C3
C3
C3
C3
ENDCHAR
STARTCHAR 0149
ENCODING 329
SWIDTH 565 0
DWIDTH 11 0
BBX 10 14 0 0
BITMAP
C000
C000
4000
4000
B780
3FC0
38C0
30C0
30C0
30C0
30C0
30C0
30C0
30C0
ENDCHAR
STARTCHAR 014A
ENCODING 330
SWIDTH 720 0
DWIDTH 14 0
BBX 11 14 2 0
BITMAP
CF00
DFC0
F1C0
E0E0
C060
C060
C060
C060
C060
C060
C0E0
C0C0
C7C0
CF00
ENDCHAR
STARTCHAR 014B
ENCODING 331
SWIDTH 565 0
DWIDTH 11 0
BBX 8 14 1 -4
BITMAP
DE
FF
E3
C3
C3
C3
C3
C3
C3
C3
03
03
0F
0E
ENDCHAR
STARTCHAR 014C
ENCODING 332
SWIDTH 771 0
DWIDTH 15 0
BBX 13 16 1 0
BITMAP
0F80
0000
0F80
3FE0
7070
6030
C018
C018
C018
C018
C018
C018
6030
7070
3FE0
0F80
ENDCHAR
STARTCHAR 014D
ENCODING 333
SWIDTH 565 0
DWIDTH 11 0
BBX 9 12 1 0
BITMAP
3E00
0000
3E00
7F00
E380
C180
C180
C180
C180
E380
7F00
3E00
ENDCHAR
STARTCHAR 014E
ENCODING 334
SWIDTH 771 0
DWIDTH 15 0
BBX 13 18 1 0
BITMAP
0880
0880
0700
0000
0F80
3FE0
7070
6030
C018
C018
C018
C018
C018
C018
6030
7070
3FE0
0F80
ENDCHAR
STARTCHAR 014F
ENCODING 335
SWIDTH 565 0
DWIDTH 11 0
BBX 9 14 1 0
BITMAP
2200
2200
1C00
0000
3E00
7F00
E380
C180
C180
C180
C180
E380
7F00
3E00
ENDCHAR
STARTCHAR 0150
ENCODING 336
SWIDTH 771 0
DWIDTH 15 0
BBX 13 18 1 0
BITMAP
06C0
0D80
0D80
0000
0F80
3FE0
7070
6030
C018
C018
C018
C018
C018
C018
6030
7070
3FE0
0F80
ENDCHAR
STARTCHAR 0151
ENCODING 337
SWIDTH 565 0
DWIDTH 11 0
BBX 9 14 1 0
BITMAP
1B00
3600
3600
0000
3E00
7F00
E380
C180
C180
C180
C180
E380
7F00
3E00
ENDCHAR
STARTCHAR 0152
ENCODING 338
SWIDTH 977 0
DWIDTH 19 0
BBX 17 14 1 0
BITMAP
1E7F80
3FFF80
71E000
60E000
C06000
C06000
C07F00
C07F00
C06000
C06000
60E000
71E000
3F7F80
1E7F80
ENDCHAR
STARTCHAR 0153
ENCODING 339
SWIDTH 925 0
DWIDTH 18 0
BBX 16 10 1 0
BITMAP
3C3C
7E7E
E3C6
C183
C1FF
C1FF
C180
E3C7
7EFE
3C3C
ENDCHAR
STARTCHAR 0154
ENCODING 340
SWIDTH 720 0
DWIDTH 14 0
BBX 11 18 2 0
BITMAP
0600
0C00
0800
0000
FF00
FF80
C1C0
C0C0
C0C0
C1C0
FF80
FF00
C600
C300
C380
C1C0
C0C0
C0E0
ENDCHAR
STARTCHAR 0155
ENCODING 341
SWIDTH 308 0
DWIDTH 6 0
BBX 5 14 1 0
BITMAP
18
30
20
00
D8
F8
E0
C0
C0
C0
C0
C0
C0
C0
ENDCHAR
STARTCHAR 0156
ENCODING 342
SWIDTH 720 0
DWIDTH 14 0
BBX 11 19 2 -5
BITMAP
FF00
FF80
C1C0
C0C0
C0C0
C1C0
FF80
FF00
C600
C300
C380
C1C0
C0C0
C0E0
0000
0600
0600
0200
0400
ENDCHAR
STARTCHAR 0157
ENCODING 343
SWIDTH 308 0
DWIDTH 6 0
BBX 5 15 1 -5
BITMAP
D8
F8
E0
C0
C0
C0
C0
C0
C0
C0
00
C0
C0
40
80
ENDCHAR
STARTCHAR 0158
ENCODING 344
SWIDTH 720 0
DWIDTH 14 0
BBX 11 18 2 0
BITMAP
6600
3C00
1800
0000
FF00
FF80
C1C0
C0C0
C0C0
C1C0
FF80
FF00
C600
C300
C380
C1C0
C0C0
C0E0
ENDCHAR
STARTCHAR 0159
ENCODING 345
SWIDTH 308 0
DWIDTH 6 0
BBX 6 14 1 0
BITMAP
CC
78
30
00
D8
F8
E0
C0
C0
C0
C0
C0
C0
C0
ENDCHAR
STARTCHAR 015A
ENCODING 346
SWIDTH 668 0
DWIDTH 13 0
BBX 11 18 1 0
BITMAP
0300
0600
0400
0000
1F80
3FC0
70E0
6060
6000
3800
1F00
03C0
0060
C060
C060
70E0
7FC0
1F80
ENDCHAR
STARTCHAR 015B
ENCODING 347
SWIDTH 514 0
DWIDTH 10 0
BBX 8 14 1 0
BITMAP
0C
18
10
00
7C
FE
C3
E0
78
1E
07
C3
7F
3E
ENDCHAR
STARTCHAR 015C
ENCODING 348
SWIDTH 668 0
DWIDTH 13 0
BBX 11 18 1 0
BITMAP
0600
0F00
1980
0000
1F80
3FC0
70E0
6060
6000
3800
1F00
03C0
0060
C060
C060
70E0
7FC0
1F80
ENDCHAR
STARTCHAR 015D
ENCODING 349
SWIDTH 514 0
DWIDTH 10 0
BBX 8 14 1 0
BITMAP
18
3C
66
00
7C
FE
C3
E0
78
1E
07
C3
7F
3E
ENDCHAR
STARTCHAR 015E
ENCODING 350
SWIDTH 668 0
DWIDTH 13 0
BBX 11 18 1 -4
BITMAP
1F80
3FC0
70E0
6060
6000
3800
1F00
03C0
0060
C060
C060
70E0
7FC0
1F80
0400
0600
0200
0C00
ENDCHAR
STARTCHAR 015F
ENCODING 351
SWIDTH 514 0
DWIDTH 10 0
BBX 8 14 1 -4
BITMAP
7C
FE
C3
E0
78
1E
07
C3
7F
3E
08
0C
04
18
ENDCHAR
STARTCHAR 0160
ENCODING 352
SWIDTH 668 0
DWIDTH 13 0
BBX 11 18 1 0
BITMAP
1980
0F00
0600
0000
1F80
3FC0
70E0
6060
6000
3800
1F00
03C0
0060
C060
C060
70E0
7FC0
1F80
ENDCHAR
STARTCHAR 0161
ENCODING 353
SWIDTH 514 0
DWIDTH 10 0
BBX 8 14 1 0
BITMAP
66
3C
18
00
7C
FE
C3
E0
78
1E
07
C3
7F
3E
ENDCHAR
STARTCHAR 0162
ENCODING 354
SWIDTH 617 0
DWIDTH 12 0
BBX 10 18 1 -4
BITMAP
FFC0
FFC0
0C00
0C00
0C00
0C00
0C00
0C00
0C00
0C00
0C00
0C00
0C00
0C00
0400
0600
0200
0C00
ENDCHAR
STARTCHAR 0163
ENCODING 355
SWIDTH 257 0
DWIDTH 5 0
BBX 5 17 0 -4
BITMAP
60
60
60
F8
F8
60
60
60
60
60
60
78
38
10
18
08
30
ENDCHAR
STARTCHAR 0164
ENCODING 356
SWIDTH 617 0
DWIDTH 12 0
BBX 10 18 1 0
BITMAP
3300
1E00
0C00
0000
FFC0
FFC0
0C00
0C00
0C00
0C00
0C00
0C00
0C00
0C00
0C00
0C00
0C00
0C00
ENDCHAR
STARTCHAR 0165
ENCODING 357
SWIDTH 360 0
DWIDTH 7 0
BBX 6 14 0 0
BITMAP
0C
6C
64
64
F8
F8
60
60
60
60
60
60
78
38
ENDCHAR
STARTCHAR 0166
ENCODING 358
SWIDTH 617 0
DWIDTH 12 0
BBX 10 14 1 0
BITMAP
FFC0
FFC0
0C00
0C00
0C00
0C00
0C00
3F00
3F00
0C00
0C00
0C00
0C00
0C00
ENDCHAR
STARTCHAR 0167
ENCODING 359
SWIDTH 257 0
DWIDTH 5 0
BBX 5 13 0 0
BITMAP
60
60
60
F8
F8
60
60
F8
F8
60
60
78
38
ENDCHAR
STARTCHAR 0168
ENCODING 360
SWIDTH 668 0
DWIDTH 13 0
BBX 11 18 1 0
BITMAP
0D00
1F00
1600
0000
C060
C060
C060
C060
C060
C060
C060
C060
C060
C060
C060
60C0
7FC0
1F00
ENDCHAR
STARTCHAR 0169
ENCODING 361
SWIDTH 514 0
DWIDTH 10 0
BBX 8 14 1 0
BITMAP
1A
3E
2C
00
C3
C3
C3
C3
C3
C3
C3
C7
FF
7B
ENDCHAR
STARTCHAR 016A
ENCODING 362
SWIDTH 668 0
DWIDTH 13 0
BBX 11 16 1 0
BITMAP
1F00
0000
C060
C060
C060
C060
C060
C060
C060
C060
C060
C060
C060
60C0
7FC0
1F00
ENDCHAR
STARTCHAR 016B
ENCODING 363
SWIDTH 514 0
DWIDTH 10 0
BBX 8 12 1 0
BITMAP
3E
00
C3
C3
C3
C3
C3
C3
C3
C7
FF
7B
ENDCHAR
STARTCHAR 016C
ENCODING 364
SWIDTH 668 0
DWIDTH 13 0
BBX 11 18 1 0
BITMAP
1100
1100
0E00
0000
C060
C060
C060
C060
C060
C060
C060
C060
C060
C060
C060
60C0
7FC0
1F00
ENDCHAR
STARTCHAR 016D
ENCODING 365
SWIDTH 514 0
DWIDTH 10 0
BBX 8 14 1 0
BITMAP
22
22
1C
00
C3
C3
C3
C3
C3
C3
C3
C7
FF
7B
ENDCHAR
STARTCHAR 016E
ENCODING 366
SWIDTH 668 0
DWIDTH 13 0
BBX 11 18 1 0
BITMAP
0E00
1100
1100
1100
CE60
C060
C060
C060
C060
C060
C060
C060
C060
C060
C060
60C0
7FC0
1F00
ENDCHAR
STARTCHAR 016F
ENCODING 367
SWIDTH 514 0
DWIDTH 10 0
BBX 8 16 1 0
BITMAP
38
44
44
44
38
00
C3
C3
C3
C3
C3
C3
C3
C7
FF
7B
ENDCHAR
STARTCHAR 0170
ENCODING 368
SWIDTH 668 0
DWIDTH 13 0
BBX 11 18 1 0
BITMAP
0D80
1B00
1B00
0000
C060
C060
C060
C060
C060
C060
C060
C060
C060
C060
C060
60C0
7FC0
1F00
ENDCHAR
STARTCHAR 0171
ENCODING 369
SWIDTH 514 0
DWIDTH 10 0
BBX 8 14 1 0
BITMAP
36
6C
6C
00
C3
C3
C3
C3
C3
C3
C3
C7
FF
7B
ENDCHAR
STARTCHAR 0172
ENCODING 370
SWIDTH 668 0
DWIDTH 13 0
BBX 11 18 1 -4
BITMAP
C060
C060
C060
C060
C060
C060
C060
C060
C060
C060
C060
60C0
7FC0
1F00
0200
0400
0400
0700
ENDCHAR
STARTCHAR 0173
ENCODING 371
SWIDTH 514 0
DWIDTH 10 0
BBX 9 14 1 -4
BITMAP
C300
C300
C300
C300
C300
C300
C300
C700
FF00
7B00
0100
0200
0200
0380
ENDCHAR
STARTCHAR 0174
ENCODING 372
SWIDTH 977 0
DWIDTH 19 0
BBX 19 18 0 0
BITMAP
006000
00F000
019800
000000
C0E060
C0E060
61B0C0
61B0C0
61B0C0
6318C0
6318C0
331980
331980
360D80
360D80
360D80
1C0700
1C0700
ENDCHAR
STARTCHAR 0175
ENCODING 373
SWIDTH 668 0
DWIDTH 13 0
BBX 13 14 0 0
BITMAP
0300
0780
0CC0
0000
C218
C718
C718
6530
6DB0
6DB0
28A0
38E0
38E0
18C0
ENDCHAR
STARTCHAR 0176
ENCODING 374
SWIDTH 617 0
DWIDTH 12 0
BBX 12 18 0 0
BITMAP
0600
0F00
1980
0000
E070
6060
30C0
39C0
1980
1D80
0F00
0600
0600
0600
0600
0600
0600
0600
ENDCHAR
STARTCHAR 0177
ENCODING 375
SWIDTH 462 0
DWIDTH 9 0
BBX 9 18 0 -4
BITMAP
0C00
1E00
3300
0000
C180
C180
6300
6300
3300
3600
1E00
1E00
0C00
0C00
0C00
1800
7800
7000
ENDCHAR
STARTCHAR 0178
ENCODING 376
SWIDTH 617 0
DWIDTH 12 0
BBX 12 17 0 0
BITMAP
1980
1980
0000
E070
6060
30C0
39C0
1980
1D80
0F00
0600
0600
0600
0600
0600
0600
0600
ENDCHAR
STARTCHAR 0179
ENCODING 377
SWIDTH 617 0
DWIDTH 12 0
BBX 11 18 0 0
BITMAP
0180
0300
0200
0000
7FE0
7FE0
00C0
0180
0300
0300
0600
0C00
1800
1800
3000
6000
FFE0
FFE0
ENDCHAR
STARTCHAR 017A
ENCODING 378
SWIDTH 462 0
DWIDTH 9 0
BBX 9 14 0 0
BITMAP
0600
0C00
0800
0000
7F80
7F80
0380
0700
1E00
3800
7000
E000
FF80
FF80
ENDCHAR
STARTCHAR 017B
ENCODING 379
SWIDTH 617 0
DWIDTH 12 0
BBX 11 17 0 0
BITMAP
0600
0600
0000
7FE0
7FE0
00C0
0180
0300
0300
0600
0C00
1800
1800
3000
6000
FFE0
FFE0
ENDCHAR
STARTCHAR 017C
ENCODING 380
SWIDTH 462 0
DWIDTH 9 0
BBX 9 13 0 0
BITMAP
0C00
0C00
0000
7F80
7F80
0380
0700
1E00
3800
7000
E000
FF80
FF80
ENDCHAR
STARTCHAR 017D
ENCODING 381
SWIDTH 617 0
DWIDTH 12 0
BBX 11 18 0 0
BITMAP
1980
0F00
0600
0000
7FE0
7FE0
00C0
0180
0300
0300
0600
0C00
1800
1800
3000
6000
FFE0
FFE0
ENDCHAR
STARTCHAR 017E
ENCODING 382
SWIDTH 462 0
DWIDTH 9 0
BBX 9 14 0 0
BITMAP
3300
1E00
0C00
0000
7F80
7F80
0380
0700
1E00
3800
7000
E000
FF80
FF80
ENDCHAR
ENDFONT
