<?xml version="1.0" encoding="utf-8"?>
<!-- Generator: Adobe Illustrator 22.1.0, SVG Export Plug-In . SVG Version: 6.00 Build 0)  -->
<svg version="1.1" id="Layer_1" xmlns="http://www.w3.org/2000/svg" xmlns:xlink="http://www.w3.org/1999/xlink" x="0px" y="0px"
	 viewBox="0 0 612 792" style="enable-background:new 0 0 612 792;" xml:space="preserve">
<path d="M358.7,426.2c-0.6,0-1.3,0-2,0.1c-16.4,2.1-33.2,3.2-49.8,3.2c-16.6,0-33.3-1.1-49.8-3.2c-0.7-0.1-1.3-0.1-2-0.1
	c-7.6,0-13.9,5.4-15.2,12.7c-0.6,3.9,0.3,7.8,2.7,11c2.5,3.4,6.3,5.6,10.6,6.1c17.7,2.3,35.7,3.4,53.6,3.4c17.8,0,35.8-1.1,53.6-3.4
	c4.3-0.6,8.1-2.7,10.6-6.1c2.4-3.2,3.4-7.1,2.7-11C372.6,431.6,366.3,426.2,358.7,426.2z M367.9,447.5c-1.9,2.5-4.7,4.1-7.9,4.5
	c-17.6,2.2-35.4,3.4-53,3.4s-35.5-1.1-53.1-3.4c-3.2-0.4-6-2-7.9-4.5c-1.7-2.3-2.4-5.2-2-7.9c0.9-5.4,5.6-9.4,11.2-9.4
	c0.5,0,1,0,1.5,0.1c16.6,2.1,33.5,3.2,50.3,3.2s33.7-1.1,50.3-3.2c0.5-0.1,1-0.1,1.5-0.1c5.6,0,10.3,3.9,11.2,9.4l0,0
	C370.4,442.4,369.7,445.2,367.9,447.5z M356.9,365.4c-15.8,0-28.7,12.9-28.7,28.7c0,15.8,12.9,28.7,28.7,28.7
	c15.8,0,28.7-12.9,28.7-28.7S372.7,365.4,356.9,365.4z M354.9,397.2c0,1.9-1.6,3.5-3.5,3.5s-3.5-1.6-3.5-3.5s1.6-3.5,3.5-3.5
	C353.4,393.7,354.9,395.3,354.9,397.2z M344.4,399.9c1.1,2.8,3.8,4.8,7,4.8c4.1,0,7.5-3.4,7.5-7.5c0-3.1-1.9-5.7-4.5-6.9
	c0.8-0.2,1.7-0.3,2.5-0.3c7.1,0,12.8,5.8,12.8,12.8c0,7.1-5.8,12.8-12.8,12.8c-7.1,0-12.8-5.8-12.8-12.8
	C344.1,401.9,344.2,400.9,344.4,399.9z M366.4,416.8c4.5-3,7.4-8.1,7.4-13.9c0-9.3-7.6-16.8-16.8-16.8c-9.3,0-16.8,7.6-16.8,16.8
	c0,5.8,2.9,10.9,7.4,13.9c-8.9-3.7-15.2-12.5-15.2-22.8c0-13.6,11.1-24.7,24.7-24.7s24.7,11.1,24.7,24.7
	C381.6,404.3,375.3,413.1,366.4,416.8z M285.3,394.1c0-15.8-12.9-28.7-28.7-28.7s-28.7,12.9-28.7,28.7c0,15.8,12.9,28.7,28.7,28.7
	C272.4,422.7,285.3,409.9,285.3,394.1z M254.6,397.2c0,1.9-1.6,3.5-3.5,3.5s-3.5-1.6-3.5-3.5s1.6-3.5,3.5-3.5
	S254.6,395.3,254.6,397.2z M244.1,399.9c1.1,2.8,3.8,4.8,7,4.8c4.1,0,7.5-3.4,7.5-7.5c0-3.1-1.9-5.7-4.5-6.9
	c0.8-0.2,1.7-0.3,2.5-0.3c7.1,0,12.8,5.8,12.8,12.8c0,7.1-5.8,12.8-12.8,12.8c-7.1,0-12.8-5.8-12.8-12.8
	C243.7,401.9,243.9,400.9,244.1,399.9z M231.9,394.1c0-13.6,11.1-24.7,24.7-24.7s24.7,11.1,24.7,24.7c0,10.3-6.3,19.1-15.2,22.8
	c4.5-3,7.4-8.1,7.4-13.9c0-9.3-7.6-16.8-16.8-16.8c-9.3,0-16.8,7.6-16.8,16.8c0,5.8,2.9,10.9,7.4,13.9
	C238.2,413.1,231.9,404.3,231.9,394.1z M417.5,322.4c3.5-1.2,5.9-4.4,5.9-8.2c0-4.8-3.9-8.7-8.7-8.7c-4.8,0-8.7,3.9-8.7,8.7
	c0,3.8,2.4,7,5.9,8.2v48.1c-0.4,0.6-0.7,1.3-1,2.2c-2.8-2.5-6.1-4.4-9.6-5.6V328c0-3.3-2.7-5.9-5.9-5.9H218.1
	c-3.3,0-5.9,2.7-5.9,5.9v39c-3.6,1.2-6.9,3.2-9.8,5.7c-0.3-0.9-0.6-1.6-1-2.2v-48.1c3.5-1.2,5.9-4.4,5.9-8.2c0-4.8-3.9-8.7-8.7-8.7
	s-8.7,3.9-8.7,8.7c0,3.8,2.4,7,5.9,8.2V371c-3.7,5.3-3.9,20.3-3.9,23.8c0,4.3,0.3,25.7,6.9,25.7c1.7,0,2.9-1.1,3.6-3.6
	c2.9,2.5,6.2,4.4,9.8,5.7V464c0,3.3,2.7,5.9,5.9,5.9h36.5v15.8h104.3v-15.8h36.5c3.3,0,5.9-2.7,5.9-5.9v-41.4
	c3.5-1.2,6.8-3.1,9.6-5.6c0.7,2.4,1.9,3.6,3.6,3.6c6.5,0,6.9-21.4,6.9-25.7c0-3.5-0.2-18.5-3.9-23.8L417.5,322.4L417.5,322.4z
	 M410.1,314.2c0-2.6,2.1-4.7,4.7-4.7s4.7,2.1,4.7,4.7c0,2.4-1.8,4.4-4.1,4.6l-0.5,0.1l-0.5-0.1C411.8,318.6,410.1,316.6,410.1,314.2
	z M194,314.2c0-2.6,2.1-4.7,4.7-4.7c2.6,0,4.7,2.1,4.7,4.7c0,2.4-1.8,4.4-4.1,4.6l-0.6,0.1l-0.6-0.1
	C195.7,318.6,194,316.6,194,314.2z M198.7,415.7c-1.2-2.5-2.7-9.7-2.7-20.9s1.5-18.3,2.7-20.9c0.2,0.6,0.3,1.3,0.4,2.2l0,0l0.1,0.9
	c0.1,1,0.2,2.1,0.3,3.3c0.1,2.4,0.2,5.2,0.3,7.8c0,0.6,0,1.2,0,1.8c0,0.1,0,0.1,0,0.2c0,1.6,0,3.2,0,4.8c0,1.6,0,3.2,0,4.8
	c0,0.1,0,0.1,0,0.2c0,0.6,0,1.2,0,1.8c0,2.6-0.1,5.4-0.3,7.8c-0.1,1.2-0.2,2.3-0.3,3.2l-0.1,0.9l0,0
	C198.9,414.4,198.8,415.1,198.7,415.7z M203.2,412.2c0.3-2.7,0.4-6.1,0.4-10.3c0-0.1,0-0.1,0-0.2c0-0.7,0-1.4,0-2.1
	c0-0.2,0-0.5,0-0.7c0-0.4,0-0.9,0-1.3c0-0.3,0-0.6,0-0.9c0-0.6,0-1.3,0-1.9s0-1.3,0-1.9c0-0.3,0-0.6,0-0.9c0-0.4,0-0.9,0-1.3
	c0-0.2,0-0.5,0-0.7c0-0.7,0-1.4,0-2.1c0-0.1,0-0.1,0-0.2c-0.1-4.2-0.2-7.6-0.4-10.3c2.5-2.7,5.6-4.8,9-6.2v47.1
	C208.8,417,205.8,414.9,203.2,412.2z M354.9,481.7h-96.3v-11.8h96.3L354.9,481.7L354.9,481.7z M397.3,464c0,1.1-0.9,1.9-1.9,1.9
	h-36.5H254.6h-36.5c-1.1,0-1.9-0.9-1.9-1.9v-40.2v-58V328c0-1.1,0.9-1.9,1.9-1.9h177.3c1.1,0,1.9,0.9,1.9,1.9v37.9v57.9L397.3,464
	L397.3,464z M401.3,418.3v-46.9c3.3,1.4,6.3,3.5,8.8,6.1c-0.3,2.7-0.4,6.1-0.4,10.3c0,0,0,0,0,0.1c0,0.7,0,1.4,0,2.2
	c0,0.2,0,0.4,0,0.7c0,0.5,0,0.9,0,1.4c0,0.3,0,0.6,0,0.9c0,0.6,0,1.3,0,1.9c0,0.7,0,1.3,0,1.9c0,0.3,0,0.6,0,0.9c0,0.5,0,0.9,0,1.4
	c0,0.2,0,0.4,0,0.7c0,0.7,0,1.5,0,2.2c0,0,0,0,0,0.1c0.1,4.2,0.2,7.6,0.4,10.3C407.6,414.8,404.6,416.9,401.3,418.3z M414.7,415.7
	c-0.2-0.6-0.3-1.3-0.4-2.2l0,0l-0.1-0.9c-0.1-1-0.2-2.1-0.3-3.4c-0.1-2.4-0.2-5.1-0.2-7.7c0-0.6,0-1.2,0-1.8c0-0.1,0-0.1,0-0.2
	c0-1.6,0-3.2,0-4.8c0-1.6,0-3.2,0-4.8c0-0.1,0-0.1,0-0.2c0-0.6,0-1.2,0-1.8c0-2.6,0.1-5.3,0.2-7.7c0.1-1.2,0.2-2.4,0.3-3.4l0.1-0.9
	l0,0c0.1-0.8,0.2-1.6,0.4-2.2c1.2,2.6,2.7,9.7,2.7,20.9C417.4,406,415.9,413.1,414.7,415.7z"/>
</svg>
