<?xml version="1.0" encoding="utf-8"?>
<!-- Generator: Adobe Illustrator 22.1.0, SVG Export Plug-In . SVG Version: 6.00 Build 0)  -->
<svg version="1.1" id="nest_cappy" xmlns="http://www.w3.org/2000/svg" xmlns:xlink="http://www.w3.org/1999/xlink" x="0px" y="0px"
	 viewBox="0 0 162 177" style="enable-background:new 0 0 162 177;" xml:space="preserve">
<style type="text/css">
	.st0{fill:#A8AAAD;}
	.st1{fill:#6ABDEA;}
	.st2{fill:#010101;}
	.st3{fill:#FFFFFF;}
</style>
<g id="cappy">
	<path id="gray" class="st0" d="M71.8,95.1v52.5h-1.9V95.1H71.8z M89.3,95.1v71h1.9v-71H89.3z"/>
	<path id="blue" class="st1" d="M108.7,32.3c0-2.8-2.3-5.1-5.1-5.1H80.5h-6.9c-0.5,0.8-0.8,1.7-0.8,2.7c0,0,0,1.3,0,3.4l-9.4,14.5
		l-9.2-14.2c0-0.8,0-1.3,0-1.3c0-2.8,2.3-5.1,5.1-5.1h-1.9c-2.8,0-5.1,2.3-5.1,5.1c0,0,0,34.7,0,37.7c0,5.5,2.6,2.1,2.6,10.9
		c0,5.5-2.6,7.1-2.6,10.4c0,2.1,1.7,3.8,3.8,3.8H58c-2.1,0-3.8-1.7-3.8-3.8c0-2.8,1.7-4.3,2.3-7.9l6.8,10.6l6.1-9.6c0,0,0,0,0,0
		c-0.3-0.1-0.7-0.1-1-0.2l-5.1,8L56.8,82c0-0.4,0-0.7,0-1.1c0-8.8-2.6-5.4-2.6-10.9c0-2.4,0-26.1,0-34.6l9.2,14.2L72.8,35
		c0,10.3,0,32.7,0,35c0,3.8,0.8,3.3,1.3,5.7l-2.2,3.5h1.1l1.3-2.1c0.1,0.6,0.1,1.3,0.1,2.1h27c0,0-0.7,6.1-20.9,6.1
		c-2.4,0-4.6-0.1-6.5-0.2c-0.5,2.5-1.2,4-1.2,6.3c0,2.1,1.7,3.8,3.8,3.8h4H105c2.1,0,3.8-1.7,3.8-3.8c0-3.4-2.6-5-2.6-10.4
		c0-8.8,2.6-5.4,2.6-10.9C108.7,67,108.7,32.3,108.7,32.3z M101.6,71.2h-8.3V55.3h8.3V71.2z"/>
	<path id="black" class="st2" d="M60.6,64.2h6.1v6.1h-6.1V64.2z M74.4,79.2c0-0.8-0.1-1.5-0.1-2.1l-1.3,2.1H74.4z M72.8,33.3
		c0-2.1,0-3.4,0-3.4c0-1,0.3-1.9,0.8-2.7H59.3c-2.8,0-5.1,2.3-5.1,5.1c0,0,0,0.5,0,1.3l9.2,14.2L72.8,33.3z M72.8,91.4
		c0-2.3,0.8-3.8,1.2-6.3c-1.7-0.1-3.2-0.3-4.5-0.6l-6.1,9.6l-6.8-10.6c-0.6,3.5-2.3,5.1-2.3,7.9c0,2.1,1.7,3.8,3.8,3.8h18.6
		C74.5,95.1,72.8,93.5,72.8,91.4z M56.8,80.9c0-8.8-2.6-5.4-2.6-10.9c0-2.4,0-26.1,0-34.6l9.2,14.2L72.8,35c0,10.3,0,32.7,0,35
		c0,3.8,0.8,3.3,1.3,5.7l-2.2,3.5H59.7c0,0,0.4,3.4,8.9,5.1l-5.1,8L56.8,82C56.8,81.7,56.8,81.3,56.8,80.9z M59.5,71.2h8.3V55.3
		h-8.3V71.2z M94.4,64.2v6.1h6.1v-6.1H94.4z"/>
	<path id="white" class="st3" d="M93.3,55.3v15.9h8.3V55.3H93.3z M100.5,70.3h-6.1v-6.1h6.1V70.3z M67.8,55.3h-8.3v15.9h8.3V55.3z
		 M66.7,70.3h-6.1v-6.1h6.1V70.3z M59.7,79.2h41.8c0,0-0.7,6.1-20.9,6.1C60.4,85.3,59.7,79.2,59.7,79.2z"/>
</g>
</svg>
