<?xml version="1.0" encoding="utf-8"?>
<!-- Generator: Adobe Illustrator 21.0.0, SVG Export Plug-In . SVG Version: 6.00 Build 0)  -->
<svg version="1.1" id="Layer_1" xmlns="http://www.w3.org/2000/svg" xmlns:xlink="http://www.w3.org/1999/xlink" x="0px" y="0px"
	 viewBox="0 0 792 612" style="enable-background:new 0 0 792 612;" xml:space="preserve">
<g>
	<path d="M403.1,248.3c4.7,1.3,11.9,4.3,19.3,9.4c4.6,3.2,9.3,7.3,13.5,12.2l1.1-1.1c-0.2-0.6-0.1-1.3,0.4-1.8
		c0.7-0.7,1.8-0.7,2.4,0c0.7,0.7,0.7,1.8,0,2.4c-0.5,0.5-1.2,0.6-1.8,0.4l-1.2,1.2c2,2.5,3.8,5.1,5.5,8l2.1-1.4
		c-0.1-0.6,0.2-1.3,0.7-1.6c0.8-0.5,1.9-0.3,2.4,0.5c0.5,0.8,0.3,1.9-0.5,2.4c-0.6,0.4-1.3,0.4-1.8,0.1l-2.2,1.5
		c1.5,2.7,2.7,5.6,3.8,8.7l3.2-1.3c0-0.6,0.4-1.2,1-1.5c0.9-0.4,1.9,0.1,2.2,0.9c0.4,0.9-0.1,1.9-0.9,2.2c-0.6,0.3-1.3,0.1-1.8-0.3
		l-3.3,1.4c0.9,2.9,1.6,5.9,2.1,9.1l4.1-0.8c0.2-0.6,0.7-1.1,1.3-1.2c0.9-0.2,1.8,0.4,2,1.4c0.2,0.9-0.4,1.8-1.4,2
		c-0.7,0.1-1.3-0.1-1.7-0.6l-4.2,0.8c0.4,2.9,0.5,6,0.5,9.2h4.8c0.3-0.6,0.9-1,1.5-1c1,0,1.7,0.8,1.7,1.7c0,0.9-0.8,1.7-1.7,1.7
		c-0.7,0-1.2-0.4-1.5-1h-4.8c0,0.9-0.1,1.8-0.2,2.7c-0.1,1-0.1,2-0.3,3c-0.1,1.1-0.3,2.3-0.5,3.4l4.7,0.9c0.4-0.5,1-0.8,1.7-0.6
		c0.9,0.2,1.5,1.1,1.4,2c-0.2,0.9-1.1,1.5-2,1.4c-0.7-0.1-1.1-0.6-1.3-1.2l-4.7-0.9c-0.6,3-1.5,6-2.6,8.8l4.4,1.8
		c0.5-0.4,1.2-0.5,1.8-0.3c0.9,0.4,1.3,1.4,0.9,2.2c-0.4,0.9-1.4,1.3-2.2,0.9c-0.6-0.3-1-0.8-1-1.5l-4.4-1.8
		c-1.2,2.8-2.6,5.5-4.3,8.1l3.9,2.6c0.5-0.3,1.2-0.3,1.8,0.1c0.8,0.5,1,1.6,0.5,2.4c-0.5,0.8-1.6,1-2.4,0.5c-0.6-0.4-0.8-1-0.7-1.6
		l-3.9-2.6c-1.7,2.5-3.7,4.9-5.8,7.1l3.3,3.3c0.6-0.2,1.3-0.1,1.8,0.4c0.7,0.7,0.7,1.8,0,2.4c-0.7,0.7-1.8,0.7-2.4,0
		c-0.5-0.5-0.6-1.2-0.4-1.8l-3.3-3.3c-2.2,2.1-4.6,4.1-7.1,5.8l2.6,3.9c0.6-0.1,1.3,0.2,1.6,0.7c0.5,0.8,0.3,1.9-0.5,2.4
		c-0.8,0.5-1.9,0.3-2.4-0.5c-0.4-0.6-0.4-1.3-0.1-1.8l-2.6-3.9c-2.6,1.7-5.3,3.1-8.1,4.4l1.8,4.3c0.6,0,1.2,0.4,1.5,1
		c0.4,0.9-0.1,1.9-0.9,2.2c-0.9,0.4-1.9-0.1-2.2-0.9c-0.3-0.6-0.1-1.3,0.3-1.8l-1.8-4.2c-2.8,1.1-5.8,2-8.8,2.7l0.9,4.5
		c0.6,0.2,1.1,0.7,1.2,1.3c0.2,0.9-0.4,1.8-1.4,2c-0.9,0.2-1.8-0.4-2-1.4c-0.1-0.7,0.1-1.3,0.6-1.7l-0.9-4.5c-3,0.6-6,0.9-9.2,0.9
		v4.6c0.6,0.3,0.9,0.9,0.9,1.5c0,0.9-0.8,1.7-1.7,1.7c-0.9,0-1.7-0.8-1.7-1.7c0-0.7,0.4-1.2,1-1.5v-4.6c-1.8,0-3.7-0.1-5.6-0.4
		c-1.2-0.1-2.4-0.3-3.6-0.5l-0.9,4.5c0.5,0.4,0.8,1,0.6,1.7c-0.2,0.9-1.1,1.5-2,1.3c-0.9-0.2-1.5-1.1-1.3-2c0.1-0.7,0.6-1.1,1.2-1.3
		l0.9-4.5c-3-0.6-6-1.5-8.8-2.7l-1.7,4.2c0.4,0.5,0.5,1.2,0.3,1.8c-0.4,0.9-1.4,1.3-2.2,0.9c-0.9-0.4-1.3-1.4-0.9-2.2
		c0.3-0.6,0.8-1,1.5-1.1l1.7-4.2c-2.8-1.2-5.6-2.7-8.1-4.3l-2.5,3.8c0.3,0.5,0.3,1.2-0.1,1.8c-0.5,0.8-1.6,1-2.4,0.5
		c-0.8-0.5-1-1.6-0.5-2.4c0.4-0.6,1-0.8,1.6-0.7l2.5-3.8c-2.5-1.8-4.9-3.7-7.1-5.9l-3.2,3.2c0.2,0.6,0.1,1.3-0.4,1.8
		c-0.7,0.7-1.8,0.7-2.4,0c-0.7-0.7-0.7-1.8,0-2.4c0.5-0.5,1.2-0.6,1.8-0.4l3.2-3.2c-2.1-2.2-4.1-4.6-5.8-7.1l-3.8,2.6
		c0.1,0.6-0.2,1.3-0.7,1.6c-0.8,0.5-1.9,0.3-2.4-0.5c-0.5-0.8-0.3-1.9,0.5-2.4c0.6-0.4,1.3-0.4,1.8-0.1l3.8-2.6
		c-1.7-2.6-3.1-5.3-4.3-8.1l-4.3,1.8c0,0.6-0.4,1.2-1.1,1.5c-0.9,0.4-1.9-0.1-2.2-0.9c-0.4-0.9,0.1-1.9,0.9-2.2
		c0.6-0.3,1.3-0.1,1.8,0.3l4.3-1.8c-1.1-2.8-2-5.8-2.6-8.8l-4.6,0.9c-0.2,0.6-0.7,1.1-1.3,1.2c-0.9,0.2-1.8-0.4-2-1.4
		c-0.2-0.9,0.4-1.8,1.3-2c0.7-0.1,1.3,0.1,1.7,0.6l4.6-0.9c-0.5-3-0.8-6-0.8-9.1h-4.7c-0.3,0.6-0.9,0.9-1.5,1c-1,0-1.7-0.8-1.7-1.7
		c0-0.9,0.8-1.7,1.7-1.7c0.7,0,1.2,0.4,1.5,1h4.7c0-1.7,0.1-3.5,0.4-5.3c0.2-1.3,0.4-2.6,0.6-3.8l-4.7-0.9c-0.4,0.5-1,0.8-1.7,0.6
		c-0.9-0.2-1.5-1.1-1.4-2c0.2-0.9,1.1-1.5,2-1.3c0.7,0.1,1.1,0.6,1.3,1.2l4.7,0.9c0.7-3,1.6-5.9,2.7-8.7l-4.5-1.8
		c-0.5,0.4-1.2,0.5-1.8,0.3c-0.9-0.4-1.3-1.4-0.9-2.2c0.4-0.9,1.4-1.3,2.2-0.9c0.6,0.3,1,0.8,1.1,1.5l4.4,1.8c1.2-2.8,2.7-5.5,4.4-8
		l-4.1-2.7c-0.5,0.3-1.2,0.3-1.8-0.1c-0.8-0.5-1-1.6-0.5-2.4c0.5-0.8,1.6-1,2.4-0.5c0.6,0.4,0.8,1,0.7,1.6l4.1,2.7
		c1.7-2.5,3.7-4.9,5.8-7l-3.5-3.5c-0.6,0.2-1.3,0.1-1.8-0.4c-0.7-0.7-0.7-1.8,0-2.4c0.7-0.7,1.8-0.7,2.4,0c0.5,0.5,0.6,1.2,0.4,1.8
		l3.5,3.5c2.2-2.1,4.5-4.1,7.1-5.8l-2.8-4.1c-0.6,0.1-1.3-0.2-1.6-0.7c-0.5-0.8-0.3-1.9,0.5-2.4c0.8-0.5,1.9-0.3,2.4,0.5
		c0.4,0.6,0.4,1.3,0.1,1.8l2.8,4.1c2.6-1.6,5.2-3.1,8-4.3l-1.9-4.6c-0.6,0-1.2-0.4-1.5-1.1c-0.4-0.9,0.1-1.9,0.9-2.2
		c0.9-0.4,1.9,0.1,2.2,0.9c0.3,0.6,0.1,1.3-0.3,1.8l1.9,4.6c0.8-0.3,1.7-0.7,2.5-0.9c7.2-2.4,16.5-3.5,23-2.6
		c6.5,0.9,10.1,1.1,11.1-1.1c0.7-1.4-1.2-2.3-4.1-3.4c-0.2-0.1-0.4-0.2-0.6-0.2c-4.8-1.8-7.6-3.2-9.1-4.1c-0.4-0.2-0.7-0.4-0.9-0.5
		c-0.6-0.4-0.8-0.6-0.8-0.6s0.3-0.3,0.9-0.5c0.3-0.1,0.7-0.3,1.1-0.4c0.4-0.1,1-0.2,1.5-0.4c0.6-0.1,1.2-0.1,1.8-0.2
		c0.6,0,1.3-0.1,2-0.1c1.4,0,2.9,0,4.3,0c2,0,4.5-0.1,7-0.8c1.4-0.4,2.7-0.9,3.9-1.8c1.4-0.9,2.1-2.5,2.3-3.8l-3.2-0.4
		c-0.2,0.5-0.8,0.9-1.4,0.8c-0.8-0.1-1.3-0.8-1.2-1.5c0.1-0.8,0.8-1.3,1.5-1.2c0.6,0.1,1.1,0.5,1.2,1.1l3.3,0.4
		c0.7-6.2-10.9-3.5-14.6-7.7c0,0,0,0,0,0c0.4-0.6,0.5-1.3,0.6-1.7c0.1-0.5,0.1-0.8,0.1-0.8s-0.1,0.3-0.4,0.6c-0.3,0.3-0.7,0.7-1.1,1
		c-2.6-3.1-6.5-5-10.7-5.2l0,0c-0.2,0-0.3,0-0.5,0c-0.5,0-0.9,0-1.4,0c-30.5,1.2-72.9,30.9-72.9,86.6c0,41.3,33.5,74.8,74.8,74.8
		c41.3,0,74.8-33.5,74.8-74.8C470.4,276.6,440.8,246.7,403.1,248.3z M391,236.4c0-0.1,0-0.1,0-0.2c0.4-3.4,3.5-5.8,6.9-5.5
		c1.5,0.2,2.9,0.9,3.8,2c0.1,0,0.3-0.1,0.4-0.2c0.5-0.2,0.9-0.7,1.2-1c0.3-0.3,0.4-0.6,0.4-0.6s0,0.3-0.1,0.8
		c-0.1,0.5-0.3,1.1-0.6,1.7c-0.1,0.2-0.2,0.3-0.4,0.5c0.6,1.1,0.9,2.3,0.7,3.7c-0.2,1.8-1.2,3.3-2.5,4.3c0.7-0.7,1.3-1.6,1.4-2.7
		c0.2-1.7-0.6-3.2-1.8-4.1c0,0,0,0,0,0l0,0c-0.6-0.4-1.3-0.7-2-0.8c-0.4,0-0.8,0-1.2,0c0.6,0.3,1,0.9,0.9,1.5
		c-0.1,0.8-0.9,1.4-1.7,1.3c-0.8-0.1-1.4-0.9-1.3-1.7c0-0.1,0.1-0.2,0.1-0.4c-0.9,0.7-1.6,1.8-1.7,3c0,0.3,0,0.6,0,0.9l-5.7-2.3l0,0
		L391,236.4z"/>
	<path d="M371.3,266.8c-2.2,1.2-4.3,2.6-6.3,4.1v47.2h6.3V266.8z"/>
	<path d="M387.6,301.4c0-2.7-1.7-3.6-1.7-3.6s1.7-0.9,1.7-3.6v-29.1c0-2-1.6-3.5-3.6-3.1c-0.9,0.2-1.8,0.4-2.7,0.7
		c-0.5,0.1-0.9,0.3-1.4,0.4c-2.2,0.7-4.3,1.5-6.3,2.5v52.4h6v-15.7v-2.6v0h1.9v0h-0.5c0.3,0,0.5,0.2,0.5,0.5v2.1v15.7h6V301.4z
		 M381.6,269.3v23.8v2.2c0,0.3-0.2,0.5-0.4,0.5h-1.5v0v-2.6v-23.8v-1.9c0.4-0.2,0.9-0.3,1.3-0.4c0.3-0.1,0.6-0.1,0.6,0.6V269.3z"/>
	<path d="M428.9,278.6v-5.5c-2-1.7-4.1-3.3-6.3-4.7v49.6h6.3V278.6z"/>
	<path d="M412.3,263.5c-2-0.7-4-1.3-6-1.7v52.4c0,2.1,1.7,3.8,3.8,3.8h0.1h2.3h1.4h2.3h0.1c2.1,0,3.8-1.7,3.8-3.8v-42.5v-4.7
		c-1.9-1.1-3.9-2-6-2.8v44.6v4.8c0,0.3-0.2,0.5-0.5,0.5h-1c-0.3,0-0.5-0.2-0.5-0.5v-5.8V263.5z"/>
	<path d="M352.6,318.1h2.5h1.4h2h0.5c2.1,0,3.8-1.7,3.8-3.8v-14.5h-6v10.5v3.3c0,0.3-0.2,0.5-0.5,0.5h-1c-0.3,0-0.5-0.2-0.5-0.5v0.5
		h0v-3.8v-18.7v-2.3l0,0c0-0.3,0.1-0.6,0.2-0.9c0.4-0.6,0.7-1.2,1.1-1.9c0.2-0.3,0.5-0.2,0.5,0.2v4.9v4.2h6v-17.6
		c0-3.4-2.4-3.1-3.8-1.9c-0.9,0.9-1.7,1.8-2.5,2.8v0c-0.5,0.6-1,1.2-1.4,1.8v0c-1.3,1.8-2.6,3.7-3.7,5.6c-2.1,3.9-2.6,5.4-2.6,9
		v18.7c0,2,1.6,3.7,3.6,3.8v0H352.6z"/>
	<path d="M402.9,361.5c1.5-0.2,3.1-0.5,4.6-0.9v-39.1h-4.6v11.1v4.4H401v-3.9v-11.6h-4.6V362c1.5,0,3.1-0.1,4.6-0.3v-16.2v-4.5h1.9
		v4V361.5z"/>
	<path d="M421.8,354.7c1.6-1,3.1-2,4.6-3.2v-10.5l1.9,9l0,0c1.6-1.4,3.1-2.8,4.6-4.4v-24.1h-4.6v16.9l-1.9-16.9h-4.6V354.7z"/>
	<path d="M378.8,359.2v-18.1l3.1-15.5v-4h-4.6v4l-0.9,11.5l-1-11.5v-4h-4.6v4l3.1,15.5v16.1C375.6,358,377.2,358.6,378.8,359.2z"/>
	<path d="M363,350.2v-9.1h1.4h2.4c1.3,0,2.4-1.1,2.4-2.4V324c0-1.3-1.1-2.4-2.4-2.4h-0.1h-2.3H363h-2.3h-0.5h-2v24.1
		C359.7,347.3,361.3,348.8,363,350.2z M362.8,325.6h1.4c0.3,0,0.5,0.2,0.5,0.5v10.6c0,0.3-0.2,0.5-0.5,0.5h-1.4V325.6z"/>
	<path d="M417.7,321.6h-2.3h-1.4h-2.3h-0.1c-1.3,0-2.4,1.1-2.4,2.4v33.6c0,1.8,1.1,2.3,2.2,2c0.2-0.1,4.2-1.5,6.8-2.8
		c1.7-0.9,2.1-1.2,2.1-3.2V324C420.2,322.6,419.1,321.6,417.7,321.6L417.7,321.6z M415.6,331.3v18.9v2.5c0,0.6-0.1,0.8-0.4,1
		c-0.3,0.1-0.6,0.3-0.9,0.4c-0.2,0.1-0.6,0.2-0.6-0.4v-3.5v-18.9V326c0-0.3,0.2-0.5,0.5-0.5h1c0.3,0,0.5,0.2,0.5,0.5V331.3z"/>
	<path d="M391.7,361.9v-36.3h3.1v-4h-3.1h-4.8h-3.2v4h3.2v35.7C388.4,361.6,390,361.8,391.7,361.9z"/>
	<path d="M397.7,318.1h2h0.4c2.1,0,3.8-1.6,3.8-3.7v-14.6h-6v8.3v5.5c0,0.3-0.2,0.5-0.5,0.5h-1c-0.3,0-0.5-0.2-0.5-0.5v-5.5v-39.2
		v-3.7c0-0.3,0.2-0.5,0.5-0.5c0.3,0,0.7,0,1,0c0.2,0,0.4,0.2,0.4,0.4v5.3v25.3h6v-31.2c-0.1-2.1-1.7-3.7-3.8-3.7h0
		c-1.5-0.1-3-0.2-4.6-0.2c-0.6,0-1.3,0-1.9,0c-2,0.1-3.7,1.9-3.7,4v49.5c0,2,1.6,3.7,3.6,3.8v0h0.2h2.4H397.7z"/>
	<path d="M432.3,276.4L432.3,276.4c-0.5-0.5-1-1.1-1.6-1.6c-0.1-0.1-0.2-0.2-0.3-0.2v5.8c0.6,0.7,1.3,1.4,1.9,2.2v0.3v35.3h6.3v-25
		c0.4,0.9,0.7,1.8,1.1,2.7h4.2c-0.6-1.8-1.3-3.6-2-5.3c-0.1-0.1-0.1-0.3-0.2-0.4c-0.2-0.5-0.5-1-0.7-1.4c-0.1-0.2-0.2-0.3-0.2-0.5
		c-0.2-0.5-0.5-1-0.8-1.4c0-0.1-0.1-0.1-0.1-0.2c-0.4-0.7-0.8-1.4-1.2-2v0C436.7,281.6,434.6,278.9,432.3,276.4z"/>
</g>
</svg>
