<?xml version="1.0" encoding="utf-8"?>
<!-- Generator: Adobe Illustrator 22.1.0, SVG Export Plug-In . SVG Version: 6.00 Build 0)  -->
<svg version="1.1" id="Layer_1" xmlns="http://www.w3.org/2000/svg" xmlns:xlink="http://www.w3.org/1999/xlink" x="0px" y="0px"
	 viewBox="0 0 510.2 566.9" style="enable-background:new 0 0 510.2 566.9;" xml:space="preserve">
<style type="text/css">
	.st0{fill:#662D91;}
	.st1{fill:#262262;}
	.st2{fill:#FFFFFF;}
	.st3{fill:#00AEEF;}
	.st4{fill:#EC008C;}
</style>
<g id="head">
	<path id="purple" class="st0" d="M438,226.5c-0.5-14.8-1.5-29.6-3.7-44.3c-1.5-9.5-3.8-19-6-28.3c-1.3-5.6-2.5-11.3-4.4-16.7
		c-3-8.7-7-17-11.9-24.8c-3.2-5.1-6.8-9.9-10.7-14.5l-6.5,9.6c-3.4-1.6-6.9-3.2-10.5-4.4l2.3-11.7c-4.1-1.4-8.3-2.5-12.4-3.4
		l-3.9,11.2c-3.7-0.7-7.6-1.1-11.5-1.4L358,86c-2.1-0.2-4.4-0.2-6.4-0.2c-2.1,0-4.4,0-6.4,0.2l-0.7,11.9c-3.9,0.2-7.6,0.7-11.5,1.4
		L329.1,88c-4.4,0.9-8.5,2.1-12.4,3.4l2.3,11.7c-3.7,1.4-7.1,2.8-10.5,4.4l-6.6-9.9c-3.9,1.8-7.6,4.1-11.2,6.4l5.3,10.8
		c-3.2,2.1-6.2,4.6-9.2,7.1l-8.9-7.8c-3.2,2.8-8.9,9.2-8.9,9.2c-2.8-3.2-6-6.2-9.2-9.2l-8.9,7.6c-3-2.5-6-4.8-9.2-7.1l5.3-10.8
		c-3.7-2.3-7.3-4.6-11.2-6.4l-6.6,9.9c-3.4-1.6-6.9-3.2-10.5-4.4l2.3-11.7c-4.1-1.4-8.3-2.5-12.4-3.4L204.7,99
		c-3.7-0.7-7.6-1.1-11.5-1.4l-0.7-11.9c-2.1-0.2-4.4-0.2-6.4-0.2c-2.1,0-4.4,0-6.4,0.2L179,97.6c-3.9,0.2-7.6,0.7-11.5,1.4
		l-3.9-11.2c-4.4,0.9-8.5,2.1-12.4,3.4l2.3,11.7c-3.7,1.4-7.1,2.8-10.5,4.4l-6.1-9c-0.8,1-1.6,1.9-2.4,2.9
		c-9.8,12.3-17.6,26.7-21.8,41.9c-2.3,8.2-4.3,16.6-6.2,24.9c-2.6,11.7-4.3,23.4-5.3,35.4c-2.6,29.6-2.5,60,1.7,89.5
		c1,7.3,2.4,14.5,4.3,21.6c1.4-4.3,2.7-8.6,3.8-12.9c5.7,6.6,11.4,13.2,17.1,19.8c6.7-7.8,13.5-15.6,20.2-23.4
		c6.7,7.8,13.5,15.6,20.2,23.4c6.7-7.8,13.5-15.6,20.2-23.4c6.7,7.8,13.5,15.6,20.2,23.4c6.7-7.8,13.5-15.6,20.2-23.4
		c6.7,7.8,13.5,15.6,20.2,23.4c6.7-7.8,13.5-15.6,20.2-23.4c6.7,7.8,13.5,15.6,20.2,23.4c6.7-7.8,13.5-15.6,20.2-23.4
		c6.7,7.8,13.5,15.6,20.2,23.4c6.7-7.8,13.5-15.6,20.2-23.4c6.7,7.8,13.5,15.6,20.2,23.4c6.7-7.8,13.5-15.6,20.2-23.4
		c6.7,7.8,13.5,15.6,20.2,23.4c5.6-6.5,11.2-12.9,16.7-19.4c1.1,4.2,2.3,8.4,3.7,12.5C438.2,286,438.9,255.7,438,226.5z
		 M251.2,235.7c-1.1,2.3-2.5,4.6-3.9,6.9l-6.6-3.2c-1.4,2.1-2.8,3.9-4.4,5.7l4.8,5.5c-1.8,2.1-3.7,3.9-5.7,5.7l-5.5-4.8
		c-1.8,1.6-3.7,3-5.7,4.4l3.2,6.6c-2.1,1.4-4.6,2.8-6.9,3.9l-4.1-6.2c-2.3,1.1-4.4,2.1-6.6,2.8l1.4,7.3c-2.5,0.9-5,1.6-7.8,2.1
		l-2.3-7.1c-2.3,0.5-4.8,0.7-7.1,0.9l-0.5,7.3c-1.1,0.2-2.5,0.2-3.9,0.2c-1.1,0-2.5-0.2-3.9-0.2l-0.5-7.3c-2.5-0.2-4.8-0.5-7.1-0.9
		l-2.3,7.1c-2.8-0.5-5.3-1.1-7.8-2.1l1.4-7.3c-2.3-0.9-4.6-1.6-6.6-2.8l-4.1,6.2c-2.3-1.1-4.6-2.5-6.9-3.9l3.2-6.6
		c-2.1-1.4-3.9-2.8-5.7-4.4l-5.5,4.8c-2.1-1.8-3.9-3.7-5.7-5.7l4.8-5.5c-1.6-1.8-3-3.7-4.4-5.7l-6.6,3.2c-1.4-2.1-2.8-4.6-3.9-6.9
		l6.2-4.1c-1.1-2.3-2.1-4.4-2.8-6.6l-7.3,1.4c-0.9-2.5-1.6-5.3-2.1-7.8l7.1-2.3c-0.5-2.3-0.7-4.8-0.9-7.1l-7.3-0.5
		c-0.2-1.1-0.2-2.5-0.2-3.9c0-1.1,0.2-2.5,0.2-3.9l7.3-0.5c0.2-2.5,0.5-4.8,0.9-7.1L122,191c0.5-2.8,1.1-5.3,2.1-7.8l7.3,1.4
		c0.9-2.3,1.6-4.6,2.8-6.6l-6.2-4.1c1.1-2.3,2.5-4.6,3.9-6.9l6.6,3.2c1.3-1.9,2.5-3.6,3.9-5.2c-1.6-1.3-3.2-2.7-4.6-4.2
		c-1.8-1.8-3.4-4.1-4.8-6.4c-1.4-2.5-2.5-5-2.8-7.6c0.9,2.3,2.8,4.1,4.4,6c1.7,1.5,3.6,2.8,5.6,3.9c-0.8-2.2-1.5-4.4-1.9-6.6
		c-0.7-3.4-0.7-7.1-0.5-10.5c0.5-3.2,1.1-6.6,2.1-9.9c0,3.4,0.5,6.6,1.1,9.9c0.7,3.2,1.6,6.2,3,8.9c1.4,2.8,3.2,5.3,5,7.1
		c0.5,0.5,1,1,1.5,1.5c1.4-1.2,2.8-2.2,4.4-3.3l-3.2-6.6c2.1-1.4,4.6-2.8,6.9-3.9l4.1,6.2c2.3-1.1,4.4-2.1,6.6-2.8l-1.4-7.3
		c2.5-0.9,5-1.6,7.8-2.1l2.3,7.1c2.3-0.5,4.8-0.7,7.1-0.9l0.5-7.3c1.1-0.2,2.5-0.2,3.9-0.2c1.1,0,2.5,0.2,3.9,0.2l0.5,7.3
		c2.5,0.2,4.8,0.5,7.1,0.9l2.3-7.1c2.8,0.5,5.3,1.1,7.8,2.1l-1.4,7.3c2.3,0.9,4.6,1.6,6.6,2.8l4.1-6.2c2.3,1.1,4.6,2.5,6.9,3.9
		l-3.2,6.6c2.1,1.4,3.9,2.8,5.7,4.4l5.5-4.8c2.1,1.8,3.9,3.7,5.7,5.7l-4.8,5.5c1.6,1.8,3,3.7,4.4,5.7l6.6-3.2
		c1.4,2.1,2.8,4.6,3.9,6.9l-6.2,4.1c1.1,2.3,2.1,4.4,2.8,6.6l7.3-1.4c0.9,2.5,1.6,5.3,2.1,7.8l-7.1,2.3c0.5,2.3,0.7,4.8,0.9,7.1
		l7.3,0.5c0.2,1.1,0.2,2.5,0.2,3.9c0,1.1-0.2,2.5-0.2,3.9l-7.3,0.5c-0.2,2.5-0.5,4.8-0.9,7.1l7.1,2.3c-0.5,2.8-1.1,5.3-2.1,7.8
		l-7.3-1.4c-0.9,2.3-1.8,4.6-2.8,6.6L251.2,235.7z M268.8,264.8c0,0-13.3-12.8-13.3-20.2c0-6.4,4.5-11.7,10.5-13
		c0-4.3,0.2-23,0.2-30.3c0-5.1,0.1-23.2-8-41.6c-2.3-4.8-5.2-9.4-8.4-13.6c-6-7.8-13.3-14.7-21.8-19.9c-1.5-1-3.1-1.9-4.6-2.8
		c-32-16.5-65.7-10.5-94.6,1.3c0,0-1.6,0.9-2.3-0.4s1.2-2,1.2-2s51.6-30.8,106.6,2.2c18.9,10.9,34.2,37.7,34.4,47.3
		c0.2-9.6,15.5-36.4,34.4-47.3c55-33,106.6-2.2,106.6-2.2s1.4,0.5,0.9,1.7s-1.9,0.7-1.9,0.7c-31.4-12.8-68.5-18.8-102.9,3.6
		c-6.9,5-13.1,10.8-18.2,17.4c-1.5,1.9-2.8,3.9-4.1,5.9c-12.4,20.9-12.2,43.8-12.2,49.7c0,7.4,0.2,26.4,0.2,30.4
		c6.1,1.3,10.5,6.6,10.5,13C282.1,252,268.8,264.8,268.8,264.8z M416.7,208.7l-7.3,0.5c-0.2,2.5-0.5,4.8-0.9,7.1l7.1,2.3
		c-0.5,2.8-1.1,5.3-2.1,7.8l-7.3-1.4c-0.9,2.3-1.6,4.6-2.8,6.6l6.2,4.1c-1.1,2.3-2.5,4.6-3.9,6.9l-6.6-3.2c-1.4,2.1-2.8,3.9-4.4,5.7
		l4.8,5.5c-1.8,2.1-3.7,3.9-5.7,5.7l-5.5-4.8c-1.8,1.6-3.7,3-5.7,4.4l3.2,6.6c-2.1,1.4-4.6,2.8-6.9,3.9l-4.1-6.2
		c-2.3,1.1-4.4,2.1-6.6,2.8l1.4,7.3c-2.5,0.9-5,1.6-7.8,2.1l-2.3-7.1c-2.3,0.5-4.8,0.7-7.1,0.9l-0.5,7.3c-1.1,0.2-2.5,0.2-3.9,0.2
		c-1.1,0-2.5-0.2-3.9-0.2l-0.5-7.3c-2.5-0.2-4.8-0.5-7.1-0.9l-2.3,7.1c-2.8-0.5-5.3-1.1-7.8-2.1l1.4-7.3c-2.3-0.9-4.6-1.6-6.6-2.8
		l-4.1,6.2c-2.3-1.1-4.6-2.5-6.9-3.9l3.2-6.6c-2.1-1.4-3.9-2.8-5.7-4.4l-5.5,4.8c-2.1-1.8-3.9-3.7-5.7-5.7l4.8-5.5
		c-1.6-1.8-3-3.7-4.4-5.7l-6.6,3.2c-1.4-2.1-2.8-4.6-3.9-6.9l6.2-4.1c-1.1-2.3-2.1-4.4-2.8-6.6l-7.3,1.4c-0.9-2.5-1.6-5.3-2.1-7.8
		l7.1-2.3c-0.5-2.3-0.7-4.8-0.9-7.1l-7.3-0.5c-0.2-1.1-0.2-2.5-0.2-3.9c0-1.1,0.2-2.5,0.2-3.9l7.3-0.5c0.2-2.5,0.5-4.8,0.9-7.1
		l-7.1-2.3c0.5-2.8,1.1-5.3,2.1-7.8l7.3,1.4c0.9-2.3,1.6-4.6,2.8-6.6l-6.2-4.1c1.1-2.3,2.5-4.6,3.9-6.9l6.6,3.2
		c1.4-2.1,2.8-3.9,4.4-5.7l-4.8-5.5c1.8-2.1,3.7-3.9,5.7-5.7l5.5,4.8c1.8-1.6,3.7-3,5.7-4.4l-3.2-6.6c2.1-1.4,4.6-2.8,6.9-3.9
		l4.1,6.2c2.3-1.1,4.4-2.1,6.6-2.8l-1.4-7.3c2.5-0.9,5-1.6,7.8-2.1l2.3,7.1c2.3-0.5,4.8-0.7,7.1-0.9l0.5-7.3
		c1.1-0.2,2.5-0.2,3.9-0.2c1.1,0,2.5,0.2,3.9,0.2l0.5,7.3c2.5,0.2,4.8,0.5,7.1,0.9l2.3-7.1c2.8,0.5,5.3,1.1,7.8,2.1l-1.4,7.3
		c2.3,0.9,4.6,1.6,6.6,2.8l4.1-6.2c2.3,1.1,4.6,2.5,6.9,3.9l-3.2,6.6c1.6,1.1,3,2.1,4.4,3.3c0.5-0.4,1.1-0.9,1.5-1.5
		c2.1-2.1,3.7-4.4,5-7.1c1.4-2.8,2.3-5.7,3-8.9c0.9-3.2,1.4-6.4,1.4-9.9c0.9,3.2,1.6,6.6,1.8,9.9c0.2,3.4,0.2,6.9-0.5,10.5
		c-0.3,2.2-0.9,4.4-1.8,6.5c2-1.1,3.9-2.4,5.7-3.9c1.6-1.4,3.4-3.4,4.4-5.7c-0.2,2.5-1.4,5-2.8,7.3s-3,4.4-4.8,6.4
		c-1.5,1.7-3.2,3.1-4.9,4.4c1.4,1.7,2.7,3.3,3.9,5.2l6.6-3.2c1.4,2.1,2.8,4.6,3.9,6.9l-6.2,4.1c1.1,2.3,2.1,4.4,2.8,6.6l7.3-1.4
		c0.9,2.5,1.6,5.3,2.1,7.8l-7.1,2.3c0.5,2.3,0.7,4.8,0.9,7.1l7.3,0.5c0.2,1.1,0.2,2.5,0.2,3.9C416.9,205.9,416.7,207.3,416.7,208.7z
		"/>
	<path id="dark" class="st1" d="M399.2,150c0.7-3.6,0.7-7.1,0.5-10.5c-0.2-3.3-0.9-6.7-1.8-9.9c0,3.5-0.5,6.7-1.4,9.9
		c-0.7,3.2-1.6,6.1-3,8.9c-1.3,2.7-2.9,5-5,7.1c-0.4,0.6-1,1.1-1.5,1.5c-1.4-1.2-2.8-2.2-4.4-3.3l3.2-6.6c-2.3-1.4-4.6-2.8-6.9-3.9
		l-4.1,6.2c-2-1.2-4.3-1.9-6.6-2.8l1.4-7.3c-2.5-1-5-1.6-7.8-2.1l-2.3,7.1c-2.3-0.4-4.6-0.7-7.1-0.9l-0.5-7.3
		c-1.4,0-2.8-0.2-3.9-0.2c-1.4,0-2.8,0-3.9,0.2l-0.5,7.3c-2.3,0.2-4.8,0.4-7.1,0.9l-2.3-7.1c-2.8,0.5-5.3,1.2-7.8,2.1l1.4,7.3
		c-2.2,0.7-4.3,1.7-6.6,2.8l-4.1-6.2c-2.3,1.1-4.8,2.5-6.9,3.9l3.2,6.6c-2,1.4-3.9,2.8-5.7,4.4l-5.5-4.8c-2,1.8-3.9,3.6-5.7,5.7
		l4.8,5.5c-1.6,1.8-3,3.6-4.4,5.7l-6.6-3.2c-1.4,2.3-2.8,4.6-3.9,6.9l6.2,4.1c-1.2,2-1.9,4.3-2.8,6.6l-7.3-1.4c-1,2.5-1.6,5-2.1,7.8
		l7.1,2.3c-0.4,2.3-0.7,4.6-0.9,7.1l-7.3,0.5c0,1.4-0.2,2.8-0.2,3.9c0,1.4,0,2.8,0.2,3.9l7.3,0.5c0.2,2.3,0.4,4.8,0.9,7.1l-7.1,2.3
		c0.5,2.5,1.2,5.3,2.1,7.8l7.3-1.4c0.7,2.2,1.7,4.3,2.8,6.6l-6.2,4.1c1.1,2.3,2.5,4.8,3.9,6.9l6.6-3.2c1.4,2,2.8,3.9,4.4,5.7
		l-4.8,5.5c1.8,2,3.6,3.9,5.7,5.7l5.5-4.8c1.8,1.6,3.6,3,5.7,4.4l-3.2,6.6c2.3,1.4,4.6,2.8,6.9,3.9l4.1-6.2c2,1.2,4.3,1.9,6.6,2.8
		l-1.4,7.3c2.5,1,5,1.6,7.8,2.1l2.3-7.1c2.3,0.4,4.6,0.7,7.1,0.9l0.5,7.3c1.4,0,2.8,0.2,3.9,0.2c1.4,0,2.8,0,3.9-0.2l0.5-7.3
		c2.3-0.2,4.8-0.4,7.1-0.9l2.3,7.1c2.8-0.5,5.3-1.2,7.8-2.1l-1.4-7.3c2.2-0.7,4.3-1.7,6.6-2.8l4.1,6.2c2.3-1.1,4.8-2.5,6.9-3.9
		l-3.2-6.6c2-1.4,3.9-2.8,5.7-4.4l5.5,4.8c2-1.8,3.9-3.6,5.7-5.7l-4.8-5.5c1.6-1.8,3-3.6,4.4-5.7l6.6,3.2c1.4-2.3,2.8-4.6,3.9-6.9
		l-6.2-4.1c1.2-2,1.9-4.3,2.8-6.6l7.3,1.4c1-2.5,1.6-5,2.1-7.8l-7.1-2.3c0.4-2.3,0.7-4.6,0.9-7.1l7.3-0.5c0-1.4,0.2-2.8,0-3.9
		c0-1.4,0-2.8-0.2-3.9l-7.3-0.5c-0.2-2.3-0.4-4.8-0.9-7.1l7.1-2.3c-0.5-2.5-1.2-5.3-2.1-7.8l-7.3,1.4c-0.7-2.2-1.7-4.3-2.8-6.6
		l6.2-4.1c-1.1-2.3-2.5-4.8-3.9-6.9l-6.6,3.2c-1.2-1.9-2.5-3.5-3.9-5.2c1.7-1.3,3.4-2.7,4.9-4.4c1.8-2,3.4-4.1,4.8-6.4
		c1.4-2.3,2.6-4.8,2.8-7.3c-1,2.3-2.8,4.3-4.4,5.7c-1.8,1.5-3.7,2.8-5.7,3.9C398.3,154.4,398.9,152.2,399.2,150z M404.1,204.5
		c0,31-25.2,56.2-56.2,56.2s-56.2-25.2-56.2-56.2s25.2-56.2,56.2-56.2S404.1,173.5,404.1,204.5z M379.6,211.3
		c0,21.3-17.3,38.6-38.6,38.6s-38.5-17.2-38.5-38.5c0-8.1,2.5-15.5,6.8-21.8c0.6,4.3,4.3,7.6,8.7,7.6c4.9,0,8.8-4,8.8-8.8
		c0-4.5-3.4-8.2-7.7-8.8c6.3-4.3,13.7-6.9,21.9-6.9C362.4,172.8,379.6,190,379.6,211.3z M128.2,209.2c0.2,2.3,0.4,4.8,0.9,7.1
		l-7.1,2.3c0.5,2.5,1.2,5.3,2.1,7.8l7.3-1.4c0.7,2.2,1.7,4.3,2.8,6.6l-6.2,4.1c1.1,2.3,2.5,4.8,3.9,6.9l6.6-3.2
		c1.4,2,2.8,3.9,4.4,5.7l-4.8,5.5c1.8,2,3.6,3.9,5.7,5.7l5.5-4.8c1.8,1.6,3.6,3,5.7,4.4l-3.2,6.6c2.3,1.4,4.6,2.8,6.9,3.9l4.1-6.2
		c2,1.2,4.3,1.9,6.6,2.8l-1.4,7.3c2.5,1,5,1.6,7.8,2.1l2.3-7.1c2.3,0.4,4.6,0.7,7.1,0.9l0.5,7.3c1.4,0,2.8,0.2,3.9,0.2
		c1.4,0,2.8,0,3.9-0.2l0.5-7.3c2.3-0.2,4.8-0.4,7.1-0.9l2.3,7.1c2.8-0.5,5.3-1.2,7.8-2.1l-1.4-7.3c2.2-0.7,4.3-1.7,6.6-2.8l4.1,6.2
		c2.3-1.1,4.8-2.5,6.9-3.9l-3.2-6.6c2-1.4,3.9-2.8,5.7-4.4l5.5,4.8c2-1.8,3.9-3.6,5.7-5.7l-4.8-5.5c1.6-1.8,3-3.6,4.4-5.7l6.6,3.2
		c1.4-2.3,2.8-4.6,3.9-6.9l-6.3-4c1-2,1.9-4.3,2.8-6.6l7.3,1.4c1-2.5,1.6-5,2.1-7.8l-7.1-2.3c0.4-2.3,0.7-4.6,0.9-7.1l7.3-0.5
		c0-1.4,0.2-2.8,0.2-3.9c0-1.4,0-2.8-0.2-3.9l-7.3-0.5c-0.2-2.3-0.4-4.8-0.9-7.1l7.1-2.3c-0.5-2.5-1.2-5.3-2.1-7.8l-7.3,1.4
		c-0.7-2.2-1.7-4.3-2.8-6.6l6.2-4.1c-1.1-2.3-2.5-4.8-3.9-6.9l-6.6,3.2c-1.4-2-2.8-3.9-4.4-5.7l4.8-5.5c-1.8-2-3.6-3.9-5.7-5.7
		l-5.5,4.8c-1.8-1.6-3.6-3-5.7-4.4l3.2-6.6c-2.3-1.4-4.6-2.8-6.9-3.9l-4.1,6.2c-2-1.2-4.3-1.9-6.6-2.8l1.4-7.3c-2.5-1-5-1.6-7.8-2.1
		l-2.3,7.1c-2.3-0.4-4.6-0.7-7.1-0.9l-0.5-7.3c-1.4,0-2.8-0.2-3.9-0.2c-1.4,0-2.8,0-3.9,0.2l-0.5,7.3c-2.3,0.2-4.8,0.4-7.1,0.9
		l-2.3-7.1c-2.8,0.5-5.3,1.2-7.8,2.1l1.4,7.3c-2.2,0.7-4.3,1.7-6.6,2.8l-4.1-6.2c-2.3,1.1-4.8,2.5-6.9,3.9l3.2,6.6
		c-1.6,1.1-3,2.1-4.4,3.3c-0.5-0.5-1-1-1.5-1.5c-1.8-1.8-3.6-4.3-5-7.1c-1.4-2.7-2.3-5.7-3-8.9c-0.6-3.3-1.1-6.5-1.1-9.9
		c-1,3.3-1.6,6.7-2.1,9.9c-0.2,3.4-0.2,7.1,0.5,10.5c0.4,2.2,1.1,4.4,1.9,6.6c-2-1.1-3.9-2.4-5.6-3.9c-1.6-1.9-3.5-3.7-4.4-6
		c0.3,2.6,1.4,5.1,2.8,7.6c1.4,2.3,3,4.6,4.8,6.4c1.4,1.5,3,2.9,4.6,4.2c-1.4,1.6-2.6,3.3-3.9,5.2l-6.6-3.2
		c-1.4,2.3-2.8,4.6-3.9,6.9l6.2,4.1c-1.2,2-1.9,4.3-2.8,6.6l-7.3-1.4c-1,2.5-1.6,5-2.1,7.8l7.1,2.3c-0.4,2.3-0.7,4.6-0.9,7.1
		l-7.3,0.5c0,1.4-0.2,2.8-0.2,3.9c0,1.4,0,2.8,0.2,3.9L128.2,209.2z M189.7,148.3c31,0,56.2,25.2,56.2,56.2s-25.2,56.2-56.2,56.2
		s-56.2-25.2-56.2-56.2S158.7,148.3,189.7,148.3z M136.9,98.3l-0.1-0.3c11.8-13.7,26.3-24.8,42.2-33.2
		c19.4-10.1,40.9-16.2,62.6-18.9c23.8-3,48.3-2.2,71.8,2.7c20.8,4.3,40.9,12.1,58.7,23.7c10.9,7.2,20.8,15.8,29.2,25.6l-6.5,9.6
		c-3.4-1.6-6.9-3.2-10.5-4.4l2.3-11.7c-4.1-1.4-8.3-2.5-12.4-3.4l-3.9,11.2c-3.7-0.7-7.6-1.1-11.5-1.4L358,86
		c-2.1-0.2-4.4-0.2-6.4-0.2c-2.1,0-4.4,0-6.4,0.2l-0.7,11.9c-3.9,0.2-7.6,0.7-11.5,1.4L329.1,88c-4.4,0.9-8.5,2.1-12.4,3.4l2.3,11.7
		c-3.7,1.4-7.1,2.8-10.5,4.4l-6.6-9.9c-3.9,1.8-7.6,4.1-11.2,6.4l5.3,10.8c-3.2,2.1-6.2,4.6-9.2,7.1l-8.9-7.8
		c-3.2,2.8-8.9,9.2-8.9,9.2c-2.8-3.2-6-6.2-9.2-9.2l-8.9,7.6c-3-2.5-6-4.8-9.2-7.1l5.3-10.8c-3.7-2.3-7.3-4.6-11.2-6.4l-6.6,9.9
		c-3.4-1.6-6.9-3.2-10.5-4.4l2.3-11.7c-4.1-1.4-8.3-2.5-12.4-3.4L204.7,99c-3.7-0.7-7.6-1.1-11.5-1.4l-0.7-11.9
		c-2.1-0.2-4.4-0.2-6.4-0.2c-2.1,0-4.4,0-6.4,0.2L179,97.6c-3.9,0.2-7.6,0.7-11.5,1.4l-3.9-11.2c-4.4,0.9-8.5,2.1-12.4,3.4l2.3,11.7
		c-3.7,1.4-7.1,2.8-10.5,4.4L136.9,98.3z M158.1,211.4c0-8.1,2.5-15.6,6.8-21.8c0.6,4.3,4.3,7.7,8.8,7.7c4.9,0,8.8-4,8.8-8.8
		c0-4.5-3.4-8.2-7.7-8.8c6.3-4.3,13.7-6.9,21.9-6.9c21.3,0,38.5,17.2,38.5,38.5s-17.3,38.6-38.6,38.6
		C175.3,249.9,158.1,232.7,158.1,211.4z M428.9,292.4l-18.1,20L389.8,290l-20,22.5L349.3,290l-19.5,22.5L309.3,290l-19.8,22.5
		L269,290l-20.2,22.5L228.1,290l-19.5,22.5l-20-22.6l-20.4,22.5L147.3,290l-19.8,22.5L108.9,292l4.2-3.8l14.4,15.8l19.8-22.5
		l20.9,22.5l20.5-22.5l20,22.4l19.5-22.5l20.9,22.5l20.2-22.5l20.5,22.5l19.7-22.5l20.5,22.5l19.5-22.5l20.5,22.5l20-22.5l21,22.5
		l14-15.5L428.9,292.4z"/>
	<path id="white" class="st2" d="M347.9,148.3c-31,0-56.2,25.2-56.2,56.2s25.2,56.2,56.2,56.2s56.2-25.2,56.2-56.2
		S378.9,148.3,347.9,148.3z M341,249.9c-21.3,0-38.5-17.2-38.5-38.5c0-8.1,2.5-15.5,6.8-21.8c0.6,4.3,4.3,7.6,8.7,7.6
		c4.9,0,8.8-4,8.8-8.8c0-4.5-3.4-8.2-7.7-8.8c6.3-4.3,13.7-6.9,21.9-6.9c21.3,0,38.5,17.2,38.5,38.5S362.3,249.9,341,249.9z
		 M189.7,148.3c-31,0-56.2,25.2-56.2,56.2s25.2,56.2,56.2,56.2s56.2-25.2,56.2-56.2S220.7,148.3,189.7,148.3z M196.6,249.9
		c-21.3,0-38.5-17.2-38.5-38.5c0-8.1,2.5-15.6,6.8-21.8c0.6,4.3,4.3,7.7,8.8,7.7c4.9,0,8.8-4,8.8-8.8c0-4.5-3.4-8.2-7.7-8.8
		c6.3-4.3,13.7-6.9,21.9-6.9c21.3,0,38.5,17.2,38.5,38.5S217.9,249.9,196.6,249.9z"/>
	<path id="light" class="st3" d="M379.6,211.3c0,21.3-17.3,38.6-38.6,38.6s-38.5-17.2-38.5-38.5c0-8.1,2.5-15.5,6.8-21.8
		c0.6,4.3,4.2,7.6,8.7,7.6c-2.6,4.1-4.1,9-4.1,14.1c0,15,12.2,27.1,27.1,27.1c15,0,27.1-12.2,27.1-27.1c0-15-12.2-27.1-27.1-27.1
		c-5.2,0-10.1,1.5-14.1,4.1c0-4.5-3.4-8.1-7.7-8.7c6.3-4.3,13.7-6.9,21.9-6.9C362.4,172.8,379.6,190,379.6,211.3z M196.7,172.8
		c-8.2,0-15.7,2.6-21.9,6.9c4.3,0.6,7.7,4.2,7.7,8.7c4.1-2.6,8.9-4,14.1-4c14.9,0,27.1,12.1,27.1,27.1
		c-0.1,14.9-12.2,27.1-27.1,27.1c-14.9,0-27.1-12.1-27.1-27.1c0-5.2,1.5-10,4.1-14.1c-4.4,0-8.1-3.4-8.7-7.7
		c-4.3,6.2-6.8,13.7-6.8,21.8c0,21.3,17.2,38.5,38.5,38.5c21.3,0,38.6-17.3,38.6-38.6S218,172.8,196.7,172.8z M410.6,124
		c-0.5,1.2-1.9,0.7-1.9,0.7c-31.4-12.8-68.5-18.8-102.9,3.6c-6.9,5-13.1,10.8-18.2,17.4c-1.5,1.9-2.8,3.9-4.1,5.9
		c-12.4,20.9-12.2,43.8-12.2,49.7c0,7.4,0.2,26.4,0.2,30.4c6.1,1.3,10.5,6.6,10.5,13c0.1,7.3-13.2,20.1-13.2,20.1
		s-13.3-12.8-13.3-20.2c0-6.4,4.5-11.7,10.5-13c0-4.3,0.2-23,0.2-30.3c0-5.1,0.1-23.2-8-41.6c-2.3-4.8-5.2-9.4-8.4-13.6
		c-6-7.8-13.3-14.7-21.8-19.9c-1.5-1-3.1-1.9-4.6-2.8c-32-16.5-65.7-10.5-94.6,1.3c0,0-1.6,0.9-2.3-0.4c-0.7-1.3,1.2-2,1.2-2
		s51.6-30.8,106.6,2.2c18.9,10.9,34.2,37.7,34.4,47.3c0.2-9.6,15.5-36.4,34.4-47.3c55-33,106.6-2.2,106.6-2.2S411.1,122.8,410.6,124
		z M269,251.5c-3.7-2.2-7.5-4-11.5-5.5c1.9,1.7,3.8,3.3,5.9,4.7c1.1,0.8,4.9,3.4,5.4,3.4c0.6,0,4.6-2.7,5.6-3.4
		c2.1-1.5,4.1-3.1,6.1-4.7C276.5,247.6,272.7,249.3,269,251.5z"/>
	<path id="pnik" class="st4" d="M236.9,32.8C224.1,19.9,223.4,0,223.4,0s20,0.7,32.7,13.3c10.4,10.3,12.8,25.3,13.4,30.7
		c0.3,0,0.6,0,0.9,0c0.5-4.1,2.4-12.9,8.7-19.2c8.5-8.4,21.6-8.9,21.6-8.9s-0.4,13.1-8.9,21.6c-3.5,3.5-7.7,5.6-11.5,6.9l0,0
		c-7.3-0.4-14.6-0.3-21.9,0C251.7,42.6,243.4,39.3,236.9,32.8z M402.1,96.7c-0.6-0.4-1.5-0.3-2,0.4l-5.8,8.6l-8.4-3.5l2.3-11.9
		l-14.9-4.1l-4,11.4l-9.2-1.1l-0.8-12h-15.5l-0.7,12.1l-9.2,1.1l-4-11.5l-15,4.1l2.3,11.9l-8.4,3.5l-6.7-10l-13.5,7.7l5.4,11
		l-7.4,5.7l-9-7.9l-8.8,9.1l-9.1-9.1l-9,7.7l-7.4-5.7l5.4-11l-13.5-7.7l-6.7,10l-8.4-3.5l2.3-11.9l-14.9-4.1l-4,11.4l-9.2-1.1
		l-0.7-12.1h-15.5l-0.7,12.1l-9.2,1.1l-4-11.4l-14.9,4.1l2.3,11.9l-8.4,3.5l-5.4-8c-0.4-0.6-1.3-0.8-2-0.4c-0.6,0.4-0.8,1.3-0.4,2
		l6.8,10l12.6-5.3l-2.3-11.5l9.9-2.7l3.8,11l13.8-1.7l0.7-11.7h10.1l0.7,11.7l13.8,1.7l3.8-11l9.9,2.7l-2.3,11.5l12.6,5.3l6.5-9.8
		l8.9,5.1l-5.2,10.6l11,8.5l8.8-7.5l9.3,9.3l9-9.3l8.8,7.7l11-8.5l-5.2-10.6l8.9-5.1l6.5,9.8l12.6-5.3l-2.3-11.5l9.8-2.7l3.8,11.1
		l13.8-1.7l0.7-11.7h10.1l0.8,11.6l13.8,1.7l3.8-11l9.9,2.7l-2.3,11.5l12.6,5.3l7.2-10.6C402.9,98,402.7,97.2,402.1,96.7z"/>
</g>
</svg>
