<?xml version="1.0" encoding="utf-8"?>
<!-- Generator: Adobe Illustrator 22.1.0, SVG Export Plug-In . SVG Version: 6.00 Build 0)  -->
<svg version="1.1" id="Layer_1" xmlns="http://www.w3.org/2000/svg" xmlns:xlink="http://www.w3.org/1999/xlink" x="0px" y="0px"
	 viewBox="0 0 432 360" style="enable-background:new 0 0 432 360;" xml:space="preserve">
<style type="text/css">
	.st0{fill:#231F20;}
	.st1{fill:#5CE4FF;}
</style>
<g id="Layer_3">
	<path d="M343.4,159.1c-6.4-7.4-17.7-16.2-35.7-16.8c-3.4-21.9-14.4-42-31.1-56.7c-17.4-15.4-39.9-23.8-63.3-23.8
		c-18.1,0-35.6,5.8-50.7,16.6c-13.4,9.7-24.7,23.2-32.6,39.1c-19.9-0.5-36.5,5-48.1,15.8c-11.2,10.4-17.4,25.4-18,43.3
		c-1.1,36.4,25.4,66.7,61.8,70.5h0.1c13.6,18.3,34.2,34.6,64.4,34.6c0.9,0,1.7,0,2.6,0h0.7c3.9-0.1,10.6-1.6,16.5-5.7
		c2.5-1.7,4.5-3.6,6.1-5.7c4.9,6.3,12.9,9.9,20.4,10.1c2.5,0.2,5,0.3,7.3,0.3c25.7,0,42.7-11.8,52.7-22.2c3.3-3.5,6.2-7.1,8.7-10.8
		c29.6-6.3,51.1-28.5,51.1-52.8C356.6,181.8,351.8,168.7,343.4,159.1z M212.5,214.9l-0.3,5.9l2-0.2l-0.4,7.8l6.8-12l-2.3,0.2
		l1.8-5.8l-2.3,0.2l1.3-4.9c6.5,1.5,11.4,7.3,11.4,14.3c-0.1,8.2-6.7,14.8-14.8,14.8s-14.7-6.6-14.7-14.7c0-6.4,4-11.7,9.7-13.8
		l-0.3,8.4L212.5,214.9z M309.3,241.5c4-7,6.2-13.3,6.7-16.9c0.2-1.4-0.7-2.6-2.1-2.9c-1.4-0.2-2.6,0.7-2.9,2.1
		c-0.8,4.9-6.2,18.9-17.9,31.1c-10.2,10.6-28.1,22.7-56,20.3c-0.1,0-0.1,0-0.2,0c-5.9-0.1-13.9-3.3-17.9-9.9
		c0.9-2.3,1.4-4.7,1.4-7.2c0-4.2-0.9-7.5-2.2-10.1c2.6-5,7.7-7,11.8-8.6c2.8-1.1,4.8-1.9,5.5-3.8c0.4-0.9,0.3-1.9-0.2-2.9
		c-1.7-3.4,0.4-5.7,1.1-6.3c1.6-1.5,4.3-2.2,6.6-0.8c0.5,0.3,1,0.6,1.4,0.9c6,3.9,12.2,7.9,25.3,7.1c15-0.9,17.8-10.2,18-10.6
		c0.4-1.3-0.4-2.7-1.7-3.1c-1.3-0.4-2.7,0.4-3.1,1.7c0,0.1-1.8,5.2-10.5,6.6c0.1-0.2,0.2-0.5,0.2-0.8v-37h15.3
		c3.3,0,5.9-2.7,5.9-5.9c0.1-3.2-2.6-5.9-5.9-5.9h-45.5c-3.3,0-5.9,2.7-5.9,5.9c0,3.3,2.7,5.9,5.9,5.9H258v37c0,0.1,0,0.1,0,0.1
		c-4.4-1.2-7.5-3.2-10.8-5.3c-0.5-0.3-1-0.6-1.5-0.9c-0.9-0.6-1.9-1-2.9-1.3c-1-14.2-12.8-25.3-27.2-25.3
		c-15.1,0-27.3,12.2-27.3,27.3c0,0.5-0.2,1.2-0.3,1.8c-0.4,0.2-0.8,0.4-1.2,0.6c-1.1,0.7-2.1,1.4-3.1,2.1c-3,2.1-5.9,4.2-10,5.3v-45
		c0-4.2-3.4-7.6-7.6-7.6s-7.6,3.4-7.6,7.6v44.8c-6.7-2.2-8.6-7-8.7-7.3c-0.4-1.3-1.9-2-3.2-1.6s-2,1.9-1.6,3.2
		c0.1,0.4,3.8,10.8,18.6,11.7c12,0.7,17.8-3.4,23-7.1c1-0.7,1.9-1.4,2.9-2c2.4-1.5,5-0.7,6.6,0.8c0.7,0.6,2.8,2.9,1.1,6.3
		c-0.5,0.9-0.5,2-0.2,2.9c0.7,1.8,2.7,2.5,5.4,3.5c5.5,1.9,12.9,4.6,12.9,15.8c0,12.7-15.4,18.2-21.9,18.4h-0.8
		c-38.7,1.2-61.1-26-73.1-49.1c-0.6-1.2-2.2-1.7-3.4-1.1c-1.2,0.6-1.7,2.1-1.1,3.4c2,3.8,4.3,7.8,6.8,11.7
		c-14.6-2.5-27.8-9.7-37.4-20.6c-10.6-12-16.1-27.7-15.6-44.2s6.2-30.2,16.4-39.8c10.9-10.2,26.9-15.2,46.1-14.4
		c1,0,1.9-0.5,2.4-1.4c7.6-15.8,18.5-29.2,31.7-38.7c14.2-10.3,30.7-15.7,47.7-15.7c22.2,0,43.5,8,60,22.6
		c16.3,14.4,26.9,34.2,29.7,55.8c0.2,1.2,1.2,2.2,2.5,2.2c17.3,0,28.1,8.2,34.1,15.1c7.6,8.8,11.9,20.6,11.9,32.5
		C351.6,215.5,334.1,234.4,309.3,241.5z"/>
	<path d="M180.9,141.7c3.4,0,6.5,1.9,9,4.9c3.3-4,5.4-10,5.4-16.8c0-11.9-6.5-21.6-14.5-21.6c-4,0-7.6,2.4-10.2,6.3
		c0.3-0.1,0.7-0.2,1.1-0.2c2.5,0,4.6,3.1,4.6,6.9s-2.1,6.9-4.6,6.9c-2.2,0-4-2.3-4.5-5.4c-0.5,2.3-0.9,4.7-0.9,7.2
		c0,6.8,2.1,12.8,5.4,16.8C174.4,143.6,177.5,141.7,180.9,141.7z"/>
	<path d="M247.4,141.7c3.4,0,6.5,1.9,9,4.9c3.3-4,5.4-10,5.4-16.8c0-11.9-6.5-21.6-14.5-21.6c-4,0-7.6,2.4-10.2,6.3
		c0.3-0.1,0.7-0.2,1.1-0.2c2.5,0,4.6,3.1,4.6,6.9s-2.1,6.9-4.6,6.9c-2.2,0-4-2.3-4.5-5.4c-0.5,2.3-0.9,4.7-0.9,7.2
		c0,6.8,2.1,12.8,5.4,16.8C240.8,143.6,243.9,141.7,247.4,141.7z"/>
	<path class="st0" d="M244.4,152c-1.1-0.8-2.6-0.6-3.4,0.5c-5.7,7.7-15.2,12.2-26.1,12.4c-11.3,0.2-21.6-4.3-27.4-11.6
		c-0.8-1-2.4-1.2-3.4-0.4c-1.1,0.8-1.2,2.4-0.4,3.4c6.6,8.3,18.2,13.4,30.5,13.4c0.3,0,0.5,0,0.8,0c12.4-0.2,23.3-5.5,29.9-14.4
		C245.8,154.3,245.5,152.8,244.4,152z"/>
	<path class="st1" d="M215.7,235.2c-8.1,0-14.7-6.6-14.7-14.7c0-6.4,4-11.7,9.7-13.8l-0.3,8.4l2.1-0.2l-0.3,5.9l2-0.2l-0.4,7.8
		l6.8-12l-2.3,0.2l1.8-5.8l-2.3,0.2l1.3-4.9c6.5,1.5,11.4,7.3,11.4,14.3C230.4,228.6,223.8,235.2,215.7,235.2z"/>
</g>
</svg>
