<?xml version="1.0" encoding="utf-8"?>
<!-- Generator: Adobe Illustrator 22.1.0, SVG Export Plug-In . SVG Version: 6.00 Build 0)  -->
<svg version="1.1" id="Layer_1" xmlns="http://www.w3.org/2000/svg" xmlns:xlink="http://www.w3.org/1999/xlink" x="0px" y="0px"
	 viewBox="0 0 288 288" style="enable-background:new 0 0 288 288;" xml:space="preserve">
<g>
	<path d="M155,178.2c-16.3,0-30-11.5-33.4-26.9v25.5H99.3v-44.2h22.3v4.3c3.3-15.3,17-26.9,33.4-26.9c18.9,0,34.1,15.3,34.1,34.1
		C189.1,162.9,173.8,178.2,155,178.2z M181.7,137c-1.2-0.3-8.9-2.8-8.9-2.8s-5.4-2.1-9.4,0.8c-0.5,0.4-1.1,0.8-1.7,1.3
		c0.5-0.6,0.9-1.2,1.3-1.7c2.9-4.1,0.8-9.5,0.8-9.5s-2.5-7.8-2.8-9c-0.5-1.5-0.8-2.2-2-2.3c-1.2-0.2-1.7,0.3-2.6,1.7
		c-0.8,1-5.4,7.7-5.4,7.7s-3.6,4.6-2.1,9.3c0.2,0.7,0.4,1.3,0.8,2c-0.4-0.7-0.8-1.3-1.2-1.8c-2.9-4-8.7-3.8-8.7-3.8s-8.2,0-9.3,0
		c-1.6,0-2.3,0.1-2.8,1.2c-0.5,1.1-0.3,1.8,0.8,3c0.8,1,5.5,7.6,5.5,7.6s3.2,4.9,8.1,4.9c0.7,0,1.3,0,2.1-0.1
		c-0.8,0.2-1.4,0.3-2,0.6c-4.7,1.6-6.2,7.2-6.2,7.2s-2.6,7.8-2.9,9c-0.5,1.5-0.6,2.3,0.3,3.1c0.8,0.8,1.5,0.8,3.1,0.3
		c1.2-0.4,8.8-3,8.8-3s5.6-1.6,7.1-6.3c0.2-0.7,0.4-1.3,0.6-2.1c-0.1,0.8-0.1,1.4-0.1,2.1c0,5,4.8,8.2,4.8,8.2s6.6,4.8,7.5,5.6
		c1.3,0.9,1.9,1.3,3,0.8s1.2-1.3,1.2-2.8c0-1.3-0.1-9.4-0.1-9.4s0.3-5.8-3.7-8.8c-0.5-0.4-1.2-0.8-1.8-1.2c0.7,0.3,1.3,0.5,2,0.8
		c4.7,1.5,9.2-2.2,9.2-2.2s6.6-4.8,7.6-5.5c1.3-0.9,1.8-1.5,1.6-2.7C183.8,137.8,183.2,137.5,181.7,137z M161.3,144.3
		c-2.2,0.3-4.1-0.1-4.3-1c-0.2-0.9,1.5-1.9,3.7-2.3c2.2-0.3,4.1,0.1,4.3,1C165.1,143,163.5,144,161.3,144.3z M154.7,141
		c-0.9-0.2-1.3-2.1-1-4.3c0.3-2.3,1.3-3.9,2.3-3.8c0.9,0.2,1.3,2.1,1,4.3C156.6,139.5,155.6,141.1,154.7,141z M155.6,146.3
		c0.8-0.4,2.3,0.8,3.3,2.8c1,2,1.2,3.9,0.4,4.3c-0.8,0.4-2.3-0.8-3.3-2.8C154.9,148.7,154.7,146.7,155.6,146.3z M146.6,151.5
		c-0.7-0.7,0.1-2.4,1.7-4c1.6-1.6,3.3-2.3,4-1.7c0.7,0.7-0.1,2.4-1.7,4C149,151.5,147.2,152.2,146.6,151.5z M147.5,142.1
		c-2-1-3.3-2.5-2.8-3.3c0.4-0.8,2.3-0.7,4.3,0.3c2,1,3.3,2.5,2.8,3.3C151.3,143.3,149.4,143.1,147.5,142.1z M99,110.8h22.5v16.3H99
		V110.8z"/>
</g>
</svg>
