<?xml version="1.0" encoding="utf-8"?>
<!-- Generator: Adobe Illustrator 22.1.0, SVG Export Plug-In . SVG Version: 6.00 Build 0)  -->
<svg version="1.1" id="Layer_1" xmlns="http://www.w3.org/2000/svg" xmlns:xlink="http://www.w3.org/1999/xlink" x="0px" y="0px"
	 viewBox="0 0 288 288" style="enable-background:new 0 0 288 288;" xml:space="preserve">
<path d="M193,188.7H95c-2.8,0-5-2.2-5-5v-79.5c0-2.8,2.2-5,5-5h98c2.8,0,5,2.2,5,5v79.5C198,186.5,195.8,188.7,193,188.7z
	 M186.6,152.6l-8-7.9c-1.5,1.1-2.9,2.1-3.4,2.5l9.8,9.8C185.7,155.6,186.2,154.1,186.6,152.6z M182.8,161.4l-12-12
	c-1.6,0.4-3.4,0.7-5.2,0.1c-0.4-0.1-0.7-0.2-1-0.4l0.8,0.8c0.7,0.5,1.1,1,1.6,1.6l13.3,13.3C181.3,163.8,182,162.6,182.8,161.4z
	 M156.8,137.3c0.4-2.2-0.1-4.1-1-4.3c-0.9-0.1-1.9,1.6-2.3,3.8c-0.4,2.2,0.1,4.1,1,4.3C155.4,141.2,156.5,139.5,156.8,137.3z
	 M155.8,150.8c1,2,2.5,3.3,3.3,2.9c0.8-0.4,0.7-2.4-0.4-4.4c-1-2-2.5-3.3-3.3-2.9C154.6,146.9,154.8,148.8,155.8,150.8z
	 M156.9,143.5c0.1,0.9,2,1.4,4.3,1c2.2-0.4,4-1.4,3.8-2.3s-2.1-1.3-4.3-1C158.5,141.5,156.8,142.6,156.9,143.5z M163.2,135.2
	c0.1-0.1,0.1-0.1,0.2-0.1c1.3-1,2.7-1.4,4.1-1.5l-2.9-2.9c-0.1,1.4-0.5,2.8-1.5,4.1c-0.1,0.1-0.1,0.1-0.1,0.2L163.2,135.2z
	 M177.2,168.3l-7.9-7.9c0,1.6,0,4.1,0.1,5.9l4.6,4.6C175,170.1,176.1,169.2,177.2,168.3z M169.8,173.4l-2.1-2.1
	c-0.8,0.3-1.5-0.1-2.6-0.9c-1-0.7-7.7-5.6-7.7-5.6s-4.9-3.2-4.9-8.2c0-0.2,0-0.4,0-0.6l-0.2-0.2c-0.1,0.2-0.2,0.5-0.2,0.8
	c-0.4,1.2-1.1,2.2-1.9,3.1l15.6,15.6C167.1,174.7,168.5,174.1,169.8,173.4z M148,147.7c-1.6,1.6-2.4,3.4-1.7,4.1
	c0.7,0.7,2.5-0.1,4.1-1.7c1.6-1.6,2.4-3.4,1.7-4.1C151.4,145.3,149.6,146,148,147.7z M148.6,139.3c-2-1-4-1.2-4.4-0.4
	c-0.4,0.8,0.8,2.3,2.9,3.3c2,1,4,1.2,4.4,0.4C151.9,141.8,150.6,140.3,148.6,139.3z M160.4,176.5l-14.2-14.2
	c-0.9,0.4-1.5,0.5-1.5,0.5s-1.3,0.4-2.9,1L155,177C156.8,177,158.6,176.8,160.4,176.5z M127,161.5l10.4,10.4
	c3.1,1.9,6.4,3.4,10.1,4.1l-10.7-10.7c-0.5,0.2-1,0.3-1.2,0.4c-1.6,0.5-2.3,0.6-3.1-0.2s-0.8-1.6-0.2-3.1c0.1-0.2,0.2-0.7,0.4-1.2
	l-9.8-9.8C123.6,155.1,125.1,158.5,127,161.5z M135.7,151.9l-18.9-18.9H111l23.2,23.2c0.5-1.6,1-2.8,1-2.8S135.3,152.8,135.7,151.9z
	 M101.2,173.4l2.3,2.3h5.9l-8.2-8.2C101.2,167.5,101.2,173.4,101.2,173.4z M101.2,160.8l14.8,14.8h5.9l-20.7-20.7V160.8z
	 M101.2,148.3l21.5,21.5v-5.9l-21.5-21.5C101.2,142.4,101.2,148.3,101.2,148.3z M101.2,135.8l21.5,21.5v-5.9l-18.3-18.3h-3.2
	C101.2,133.1,101.2,135.8,101.2,135.8z M101,123l4.7,4.7h5.9L101,117.1L101,123L101,123z M122.7,113.8l-1.6-1.6h-5.9l7.6,7.6
	L122.7,113.8L122.7,113.8z M122.7,126.4l-14.2-14.2h-5.9l15.7,15.7h4.4V126.4z M126.6,130.3l-1.1-1.1c-0.7,1.3-1.3,2.7-1.7,4.1
	l14.7,14.7c0.8-0.8,1.8-1.4,3-1.8c0.2-0.1,0.5-0.2,0.8-0.2l-0.2-0.2c-0.2,0-0.5,0-0.7,0c-5,0-8.3-4.9-8.3-4.9s-4.9-6.7-5.6-7.7
	C126.6,131.9,126.3,131.2,126.6,130.3z M128.1,125.1l3.8,3.8c1.9,0,4.4,0,5.9,0l-7.1-7.1C129.7,122.9,128.8,123.9,128.1,125.1z
	 M134.1,118.6l14.7,14.7c-0.1-0.3-0.2-0.6-0.3-0.8c-0.6-1.9-0.4-3.7,0.1-5.3l-11-11C136.3,116.9,135.2,117.7,134.1,118.6z
	 M141.9,113.9l8.9,8.9c0.4-0.5,1.4-2,2.5-3.4l-7-7C144.8,112.8,143.3,113.3,141.9,113.9z M166.4,113.3l19.3,19.3
	C182.3,123.7,175.2,116.6,166.4,113.3z M187.6,141.1l-29.8-29.8c-1-0.1-2-0.1-2.9-0.1c-1,0-2,0.1-2.9,0.1l4.1,4.1
	c0.1-0.1,0.1-0.1,0.1-0.2c1-1.3,1.5-1.8,2.6-1.6c1.2,0.2,1.6,0.8,2,2.3c0.2,0.7,1.3,4,2,6.4l12.5,12.5c2.4,0.8,5.8,1.9,6.5,2.1
	c1.6,0.5,2.2,0.8,2.4,2c0.1,1.2-0.4,1.7-1.7,2.6c-0.1,0.1-0.2,0.1-0.3,0.2l5.1,5.1c0.1-1,0.1-1.9,0.1-2.9
	C187.7,143.1,187.7,142.1,187.6,141.1z"/>
</svg>
