<?xml version="1.0" encoding="utf-8"?>
<!-- Generator: Adobe Illustrator 21.0.0, SVG Export Plug-In . SVG Version: 6.00 Build 0)  -->
<svg version="1.1" id="Adabot" xmlns="http://www.w3.org/2000/svg" xmlns:xlink="http://www.w3.org/1999/xlink" x="0px" y="0px"
	 viewBox="0 0 425.1 720" style="enable-background:new 0 0 425.1 720;" xml:space="preserve">
<style type="text/css">
	.st0{fill:#664828;}
	.st1{fill:#199BBA;}
	.st2{fill:#7ED2EE;}
	.st3{fill:#FFFFFF;}
</style>
<g id="leg_right">
	<path id="leg_bkg_2_" class="st0" d="M350,720c-2-24.7-10.4-46.3-23-61.5V435.8c0-17.7-14.3-31.7-31.7-31.7h-20.8
		c-17.7,0-31.7,14.3-31.7,31.7v222.7c-12.6,15.2-21.1,37.1-23,61.5H350z"/>
	<path id="leg_bkg_1_" class="st1" d="M350,720c-2-24.7-10.4-46.3-23-61.5V435.8c0-17.7-14.3-31.7-31.7-31.7h-20.8
		c-17.7,0-31.7,14.3-31.7,31.7v222.7c-12.6,15.2-21.1,37.1-23,61.5H350z"/>
	<path id="leg_top_1_" class="st2" d="M350,720c-2-24.7-10.4-46.3-23-61.5V435.8c0-17.7-14.3-31.7-31.7-31.7h-20.8
		c-17.7,0-31.7,14.3-31.7,31.7v222.7c-12.6,15.2-21.1,37.1-23,61.5H350z M246.9,453.2h76.4v22.2h-76.4V453.2z M246.9,478.8h76.4V501
		h-76.4V478.8z M246.9,504.3h76.4v22.2h-76.4V504.3z M246.9,529.6h76.4v22.2h-76.4V529.6z M246.9,555.2h76.4v22.2h-76.4V555.2z
		 M246.9,580.7h76.4v22.2h-76.4V580.7z M246.9,606h76.4v22.2h-76.4V606z M246.9,653.4v-21.9h76.4v22.7c-3.9-4.2-8.4-7.9-12.9-10.7
		c0,0-0.3,0-0.3-0.3c-1.4-0.8-3.1-1.7-4.5-2.5c0,0,0,0-0.3,0c-1.4-0.8-3.1-1.4-4.8-2c0,0,0,0-0.3,0c-1.4-0.6-3.1-0.8-4.8-1.4
		c-0.3,0-0.6,0-0.8-0.3c-1.4-0.3-3.1-0.6-4.5-0.8c-0.3,0-0.6,0-0.8,0c-1.7-0.3-3.4-0.3-4.8-0.3c-1.7,0-3.1,0-4.8,0.3
		c-0.3,0-0.6,0-0.8,0c-1.4,0.3-3.1,0.6-4.5,0.8c-0.3,0-0.6,0-0.8,0.3c-3.1,0.8-6.2,1.7-9,3.1c-0.3,0-0.3,0-0.6,0.3
		c-1.4,0.6-3.1,1.4-4.5,2.2c0,0-0.3,0-0.3,0.3c-3.1,1.7-5.9,3.9-8.7,6.2l0,0C249.5,650.9,248.1,652,246.9,653.4L246.9,653.4z"/>
</g>
<g id="leg_left">
	<path id="leg_chip" class="st0" d="M206.8,720c-2-24.7-10.4-46.3-23-61.5V435.8c0-17.7-14.3-31.7-31.7-31.7h-20.8
		c-17.7,0-31.7,14.3-31.7,31.7v222.7c-12.6,15.2-21.1,37.1-23,61.5H206.8z"/>
	<path id="leg_bkg" class="st1" d="M206.8,720c-2-24.7-10.4-46.3-23-61.5V435.8c0-17.7-14.3-31.7-31.7-31.7h-20.8
		c-17.7,0-31.7,14.3-31.7,31.7v222.7c-12.6,15.2-21.1,37.1-23,61.5H206.8z"/>
	<path id="leg_top" class="st2" d="M206.8,720c-2-24.7-10.4-46.3-23-61.5V435.8c0-17.7-14.3-31.7-31.7-31.7h-20.8
		c-17.7,0-31.7,14.3-31.7,31.7v222.7c-12.6,15.2-21.1,37.1-23,61.5H206.8z M103.4,453.2h76.4v22.2h-76.4V453.2z M103.4,478.8h76.4
		V501h-76.4V478.8z M103.4,504.3h76.4v22.2h-76.4V504.3z M103.4,529.6h76.4v22.2h-76.4V529.6z M103.4,555.2h76.4v22.2h-76.4V555.2z
		 M103.4,580.7h76.4v22.2h-76.4V580.7z M103.4,606h76.4v22.2h-76.4V606z M103.4,653.4v-21.9h76.4v22.7c-3.9-4.2-8.4-7.9-12.9-10.7
		c0,0-0.3,0-0.3-0.3c-1.4-0.8-3.1-1.7-4.5-2.5c0,0,0,0-0.3,0c-1.4-0.8-3.1-1.4-4.8-2c0,0,0,0-0.3,0c-1.4-0.6-3.1-0.8-4.8-1.4
		c-0.3,0-0.6,0-0.8-0.3c-1.4-0.3-3.1-0.6-4.5-0.8c-0.3,0-0.6,0-0.8,0c-1.7-0.3-3.4-0.3-4.8-0.3c-1.7,0-3.1,0-4.8,0.3
		c-0.3,0-0.6,0-0.8,0c-1.4,0.3-3.1,0.6-4.5,0.8c-0.3,0-0.6,0-0.8,0.3c-3.1,0.8-6.2,1.7-9,3.1c-0.3,0-0.3,0-0.6,0.3
		c-1.4,0.6-3.1,1.4-4.5,2.2c0,0-0.3,0-0.3,0.3c-3.1,1.7-5.9,3.9-8.7,6.2l0,0C106.3,650.9,104.9,652,103.4,653.4L103.4,653.4z"/>
</g>
<g id="right_arm_1_">
	<path id="arm_fill_left_3_" class="st0" d="M348,239.5c0.3,0.6,0.6,1.4,0.8,2c48.6,111.2,34.3,206.7,34.8,209.5
		c-0.3,1.7-0.3,3.4-0.6,5.1c-0.3,3.1,0,5.9,0.8,8.7l0,0c-9.5,3.4-17.4,11.2-19.9,21.6c-3.7,14.3,3.4,28.9,16.3,35.4l1.4-5.1
		c-7.3-4.8-11.2-13.8-9-22.5c2.8-11,14-17.7,25-14.9s17.7,14,14.9,25c-2.2,9-9.8,14.9-18.5,15.4l-1.4,5.1c14.3,0.6,27.5-9,31.2-23.3
		c2.8-10.4-0.6-21.1-7.3-28.6l0,0c3.1-3.4,5.1-7.6,5.6-12.6c0-0.8,0.3-1.7,0.3-2.5l0,0c14.6-123.6-34.8-226.9-39.9-236.4l0,0
		c-0.3-0.3-0.3-0.6-0.3-0.6l0,0c-5.6-9.3-16.8-12.6-25.6-8.1C346.9,217.3,343.3,229.4,348,239.5z"/>
	<path id="arm_fill_left_2_" class="st1" d="M348,239.5c0.3,0.6,0.6,1.4,0.8,2c48.6,111.2,34.3,206.7,34.8,209.5
		c-0.3,1.7-0.3,3.4-0.6,5.1c-0.3,3.1,0,5.9,0.8,8.7l0,0c-9.5,3.4-17.4,11.2-19.9,21.6c-3.7,14.3,3.4,28.9,16.3,35.4l1.4-5.1
		c-7.3-4.8-11.2-13.8-9-22.5c2.8-11,14-17.7,25-14.9s17.7,14,14.9,25c-2.2,9-9.8,14.9-18.5,15.4l-1.4,5.1c14.3,0.6,27.5-9,31.2-23.3
		c2.8-10.4-0.6-21.1-7.3-28.6l0,0c3.1-3.4,5.1-7.6,5.6-12.6c0-0.8,0.3-1.7,0.3-2.5l0,0c14.6-123.6-34.8-226.9-39.9-236.4l0,0
		c-0.3-0.3-0.3-0.6-0.3-0.6l0,0c-5.6-9.3-16.8-12.6-25.6-8.1C346.9,217.3,343.3,229.4,348,239.5z"/>
	<path id="arm_left_1_" class="st2" d="M348,239.5c0.3,0.6,0.6,1.4,0.8,2c48.6,111.2,34.3,206.7,34.8,209.5
		c-0.3,1.7-0.3,3.4-0.6,5.1c-0.3,3.1,0,5.9,0.8,8.7c5.3-2,11.5-2.2,17.4-0.8c5.9,1.4,11.2,4.8,15.2,9c3.1-3.4,5.1-7.6,5.6-12.6
		c0-0.8,0.3-1.7,0.3-2.5l0,0c14.6-123.6-34.8-226.9-39.9-236.4l0,0c-0.3-0.3-0.3-0.6-0.3-0.6l0,0c-5.6-9.3-16.8-12.6-25.6-8.1
		C346.9,217.3,343.3,229.4,348,239.5z M422.2,396.5c-11,0.3-21.6,0.8-32.6,1.1c0-0.8,0-2,0-3.1c11-0.6,21.6-0.8,32.6-1.4
		C422.2,394.5,422.2,395.7,422.2,396.5z M422.2,425.4c-11-0.3-21.6-0.6-32.6-0.8c0-0.8,0-2,0-3.1c11,0.3,21.6,0.6,32.6,0.8
		C422.5,423.2,422.2,424.3,422.2,425.4z M387.6,451.3c0-0.8,0.3-2,0.3-2.8c11,0.8,21.6,2,32.6,2.8c0,1.1-0.3,2.2-0.3,3.1
		C409.3,453.2,398.3,452.4,387.6,451.3z M387.3,368.1c11-1.1,21.6-2.2,32.6-3.4c0,1.1,0.3,2,0.3,3.1c-11,1.1-21.6,2.2-32.6,3.1
		C387.6,370.1,387.3,369.3,387.3,368.1z M383.4,341.7c10.7-2,21.6-3.7,32.3-5.6c0.3,1.1,0.3,2,0.6,3.1c-10.7,1.7-21.6,3.7-32.3,5.3
		C383.7,343.7,383.7,342.9,383.4,341.7z M378.1,315.6c10.7-2.5,21.3-5.1,32-7.6c0.3,1.1,0.6,2,0.8,3.1c-10.7,2.5-21.3,4.8-32,7.3
		C378.4,317.6,378.1,316.8,378.1,315.6z M370.8,290.1c10.7-3.1,21.1-6.5,31.7-9.5c0.3,1.1,0.6,2,0.8,3.1
		c-10.7,3.1-21.1,6.2-31.7,9.5C371.3,291.8,371.1,290.9,370.8,290.1z M362.4,264.8c10.4-3.9,20.8-7.9,31.2-11.8
		c0.3,1.1,0.8,2,1.1,3.1c-10.4,3.9-20.8,7.6-31.2,11.5C362.9,266.5,362.6,265.6,362.4,264.8z M352.2,239.8c10.1-4.5,20.2-9,30-13.5
		c0.3,0.8,0.8,1.7,1.4,2.8c-10.1,4.5-20.2,9-30.3,13.5C352.8,241.8,352.5,240.7,352.2,239.8z"/>
</g>
<g id="left_arm">
	<path id="chip_left" class="st0" d="M68.3,212.3c-8.7-4.8-19.9-1.1-25.6,8.1l0,0c0,0-0.3,0.3-0.3,0.6l0,0
		C37.2,230.5-12,333.9,2.6,457.4l0,0c0,0.8,0.3,1.7,0.3,2.5c0.6,5.1,2.5,9.5,5.6,12.6l0,0c-6.7,7.3-9.8,18-7.3,28.6
		C4.9,515.4,18,525,32.4,524.4l-1.4-5.1c-8.7-0.6-16.3-6.7-18.5-15.4c-2.8-11,3.9-22.2,14.9-25s22.2,3.9,25,14.9
		c2.2,9-1.7,18-9,22.5l1.4,5.1c12.9-6.2,19.9-20.8,16.3-35.4c-2.5-10.4-10.4-18.3-19.9-21.6l0,0c0.8-2.8,1.1-5.6,0.8-8.7
		c-0.3-1.7-0.3-3.4-0.6-5.1c0.6-2.8-13.5-98.3,34.8-209.5c0.3-0.6,0.6-1.4,0.8-2C81.8,229.4,78.2,217.3,68.3,212.3z"/>
	<path id="arm_fill_left_1_" class="st1" d="M68.3,212.3c-8.7-4.8-19.9-1.1-25.6,8.1l0,0c0,0-0.3,0.3-0.3,0.6l0,0
		C37.2,230.5-12,333.9,2.6,457.4l0,0c0,0.8,0.3,1.7,0.3,2.5c0.6,5.1,2.5,9.5,5.6,12.6l0,0c-6.7,7.3-9.8,18-7.3,28.6
		C4.9,515.4,18,525,32.4,524.4l-1.4-5.1c-8.7-0.6-16.3-6.7-18.5-15.4c-2.8-11,3.9-22.2,14.9-25s22.2,3.9,25,14.9
		c2.2,9-1.7,18-9,22.5l1.4,5.1c12.9-6.2,19.9-20.8,16.3-35.4c-2.5-10.4-10.4-18.3-19.9-21.6l0,0c0.8-2.8,1.1-5.6,0.8-8.7
		c-0.3-1.7-0.3-3.4-0.6-5.1c0.6-2.8-13.5-98.3,34.8-209.5c0.3-0.6,0.6-1.4,0.8-2C81.8,229.4,78.2,217.3,68.3,212.3z"/>
	<path id="arm_left" class="st2" d="M68.3,212.3c-8.7-4.8-19.9-1.1-25.6,8.1l0,0c0,0-0.3,0.3-0.3,0.6l0,0
		C37.2,230.5-12,333.9,2.6,457.4l0,0c0,0.8,0.3,1.7,0.3,2.5c0.6,5.1,2.5,9.5,5.6,12.6c3.9-4.2,9-7.6,15.2-9
		c5.9-1.4,12.1-1.1,17.4,0.8c0.8-2.8,1.1-5.6,0.8-8.7c-0.3-1.7-0.3-3.4-0.6-5.1c0.6-2.8-13.5-98.3,34.8-209.5c0.3-0.6,0.6-1.4,0.8-2
		C81.8,229.4,78.2,217.3,68.3,212.3z M2.9,393.4c11,0.6,21.6,0.8,32.6,1.4c0,1.1,0,2,0,3.1c-11-0.3-21.6-0.8-32.6-1.1
		C2.9,395.7,2.9,394.5,2.9,393.4z M2.6,422.3c11-0.3,21.6-0.6,32.6-0.8c0,1.1,0,2,0,3.1c-11,0.3-21.6,0.6-32.6,0.8
		C2.9,424.3,2.6,423.2,2.6,422.3z M4.9,454.4c0-1.1-0.3-2.2-0.3-3.1c11-0.8,21.6-2,32.6-2.8c0,1.1,0.3,2,0.3,2.8
		C26.5,452.4,15.8,453.2,4.9,454.4z M37.5,371c-11-1.1-21.6-2.2-32.6-3.1c0-1.1,0.3-2.2,0.3-3.1c11,1.1,21.6,2.2,32.6,3.4
		C37.7,369.3,37.5,370.1,37.5,371z M41.1,344.6c-10.7-1.7-21.6-3.7-32.3-5.3c0.3-1.1,0.3-2,0.6-3.1c10.7,2,21.6,3.7,32.3,5.6
		C41.4,342.9,41.1,343.7,41.1,344.6z M46.4,318.4c-10.7-2.5-21.3-4.8-32-7.3c0.3-1.1,0.6-2,0.8-3.1c10.7,2.5,21.3,5.1,32,7.6
		C46.7,316.8,46.7,317.6,46.4,318.4z M53.2,292.9c-10.7-3.1-21.1-6.2-31.7-9.5c0.3-1.1,0.6-2,0.8-3.1c10.7,3.1,21.1,6.5,31.7,9.5
		C54,290.9,53.5,291.8,53.2,292.9z M61.9,267.3c-10.4-3.9-20.8-7.6-31.2-11.5c0.3-1.1,0.8-2,1.1-3.1c10.4,3.9,20.8,7.9,31.2,11.8
		C62.5,265.6,62.2,266.5,61.9,267.3z M71.7,242.6c-10.1-4.5-20.2-9-30.3-13.5c0.6-1.1,0.8-2,1.4-2.8c10.1,4.5,20.2,9,30,13.5
		C72.6,240.7,72.3,241.8,71.7,242.6z"/>
</g>
<g id="face">
	<path id="chip" class="st0" d="M353.7,8.4c0-4.8-3.7-8.4-8.4-8.4c-4.8,0-8.4,3.7-8.4,8.4c0,3.7,2.2,6.7,5.6,7.9v63.6h-5.7
		c-3.2-2.4-6.8-4.3-10.8-5.5V25c0-2.5-2.2-4.8-4.8-4.8H104.3c-2.5,0-4.8,2.2-4.8,4.8v49.4c-4,1.1-7.8,3-11.1,5.5h-5.5V16.3
		c3.4-1.1,5.6-4.2,5.6-7.9c0-4.8-3.7-8.4-8.4-8.4c-4.8,0-8.4,3.7-8.4,8.4c0,3.7,2.2,6.7,5.6,7.9v66.3c-1.7,5.3-2.5,13.8-2.5,23.6
		c0,16,2.5,28.9,5.9,28.9c1.4,0,2.2-2.5,2.8-7c4.2,4.8,9.8,8.4,16,10.1V191c0,2.5,2.2,4.8,4.8,4.8h46.9v9.3H184l8.1,35.1
		c1.7,5.3,4.2,9.5,9.5,9.5h30c5.3,0,8.1-4.8,9.5-9.5l8.4-35.1h24.4v-9h46.9c2.5,0,4.8-2.2,4.8-4.8v-52.5c6.2-2,11.5-5.3,15.7-10.1
		c0.6,4.2,1.4,7,2.8,7c3.4,0,5.9-12.9,5.9-28.9c0-9.3-0.8-17.4-2.2-22.7V16.3C351.4,15.2,353.7,12.1,353.7,8.4z M287.1,170.7
		c-2.2,3.1-5.6,4.8-9.3,5.3c-21.3,2.8-43.2,4.2-64.9,4.2s-43.2-1.4-64.9-4.2c-3.9-0.6-7-2.5-9.3-5.3c-2-2.8-2.8-6.2-2.2-9.3
		c1.1-6.5,6.7-11.2,13.2-11.2c0.6,0,1.1,0,1.7,0c20.2,2.5,41,3.9,61.5,3.9s41.3-1.4,61.5-3.9c0.6,0,1.1,0,1.7,0
		c6.7,0,12.1,4.8,13.2,11.2C289.9,164.8,289.1,168.2,287.1,170.7z"/>
	<path id="white" class="st3" d="M353.7,8.4c0-4.8-3.7-8.4-8.4-8.4c-4.8,0-8.4,3.7-8.4,8.4c0,3.7,2.2,6.7,5.6,7.9v63.6h-5.7
		c-3.2-2.4-6.8-4.3-10.8-5.5V25c0-2.5-2.2-4.8-4.8-4.8H104.3c-2.5,0-4.8,2.2-4.8,4.8v49.4c-4,1.1-7.8,3-11.1,5.5h-5.5V16.3
		c3.4-1.1,5.6-4.2,5.6-7.9c0-4.8-3.7-8.4-8.4-8.4c-4.8,0-8.4,3.7-8.4,8.4c0,3.7,2.2,6.7,5.6,7.9v66.3c-1.7,5.3-2.5,13.8-2.5,23.6
		c0,16,2.5,28.9,5.9,28.9c1.4,0,2.2-2.5,2.8-7c4.2,4.8,9.8,8.4,16,10.1V191c0,2.5,2.2,4.8,4.8,4.8h46.9v9.3H184l8.1,35.1
		c1.7,5.3,4.2,9.5,9.5,9.5h30c5.3,0,8.1-4.8,9.5-9.5l8.4-35.1h24.4v-9h46.9c2.5,0,4.8-2.2,4.8-4.8v-52.5c6.2-2,11.5-5.3,15.7-10.1
		c0.6,4.2,1.4,7,2.8,7c3.4,0,5.9-12.9,5.9-28.9c0-9.3-0.8-17.4-2.2-22.7V16.3C351.4,15.2,353.7,12.1,353.7,8.4z"/>
	<path id="dark_blue" class="st1" d="M353.7,8.4c0-4.8-3.7-8.4-8.4-8.4c-4.8,0-8.4,3.7-8.4,8.4c0,3.7,2.2,6.7,5.6,7.9v63.6h-5.7
		c-3.2-2.4-6.8-4.3-10.8-5.5V25c0-2.5-2.2-4.8-4.8-4.8H104.3c-2.5,0-4.8,2.2-4.8,4.8v49.4c-4,1.1-7.8,3-11.1,5.5h-5.5V16.3
		c3.4-1.1,5.6-4.2,5.6-7.9c0-4.8-3.7-8.4-8.4-8.4c-4.8,0-8.4,3.7-8.4,8.4c0,3.7,2.2,6.7,5.6,7.9v66.3c-1.7,5.3-2.5,13.8-2.5,23.6
		c0,16,2.5,28.9,5.9,28.9c1.4,0,2.2-2.5,2.8-7c4.2,4.8,9.8,8.4,16,10.1V191c0,2.5,2.2,4.8,4.8,4.8h46.9v9.3H184l8.1,35.1
		c1.7,5.3,4.2,9.5,9.5,9.5h30c5.3,0,8.1-4.8,9.5-9.5l8.4-35.1h24.4v-9h46.9c2.5,0,4.8-2.2,4.8-4.8v-52.5c6.2-2,11.5-5.3,15.7-10.1
		c0.6,4.2,1.4,7,2.8,7c3.4,0,5.9-12.9,5.9-28.9c0-9.3-0.8-17.4-2.2-22.7V16.3C351.4,15.2,353.7,12.1,353.7,8.4z M121.4,105.9
		c0-16.6,13.5-30,29.8-30c16.6,0,30,13.5,30,30s-13.5,30-30,30C134.9,135.6,121.4,122.2,121.4,105.9z M287.1,170.7
		c-2.2,3.1-5.6,4.8-9.3,5.3c-21.3,2.8-43.2,4.2-64.9,4.2s-43.2-1.4-64.9-4.2c-3.9-0.6-7-2.5-9.3-5.3c-2-2.8-2.8-6.2-2.2-9.3
		c1.1-6.5,6.7-11.2,13.2-11.2c0.6,0,1.1,0,1.7,0c20.2,2.5,41,3.9,61.5,3.9s41.3-1.4,61.5-3.9c0.6,0,1.1,0,1.7,0
		c6.7,0,12.1,4.8,13.2,11.2C289.9,164.8,289.1,168.2,287.1,170.7z M273.9,135.6c-16.6,0-30-13.5-30-30s13.5-30,30-30
		c16.6,0,30,13.5,30,30C303.9,122.4,290.5,135.6,273.9,135.6z"/>
	<path id="top_face" class="st2" d="M321.1,20.2H104.3c-2.5,0-4.8,2.2-4.8,4.8v166.2c0,2.5,2.2,4.8,4.8,4.8h216.8
		c2.5,0,4.8-2.2,4.8-4.8V25C325.9,22.5,323.6,20.2,321.1,20.2z M118.6,105.9c0-18,14.6-32.6,32.6-32.6s32.6,14.6,32.6,32.6
		s-14.6,32.6-32.6,32.6C133.2,138.4,118.6,123.8,118.6,105.9z M289.3,172.7c-2.8,3.7-6.7,5.9-11.2,6.5c-21.6,2.8-43.5,4.2-65.1,4.2
		s-43.5-1.4-65.1-4.2c-4.5-0.6-8.7-2.8-11.2-6.5c-2.5-3.4-3.7-7.6-2.8-11.5c1.4-7.9,8.1-13.5,16-13.5c0.6,0,1.4,0,2,0
		c20.2,2.5,40.7,3.9,61.2,3.9s41-1.4,61.2-3.9c0.6,0,1.4,0,2,0c8.1,0,14.9,5.6,16,13.5C293,165.1,291.9,169,289.3,172.7z
		 M273.9,138.4c-18,0-32.6-14.6-32.6-32.6s14.6-32.6,32.6-32.6s32.6,14.6,32.6,32.6S291.9,138.4,273.9,138.4z"/>
</g>
<g id="body">
	<path id="body_chip" class="st0" d="M351.1,448.7c0,2.5-2.2,4.8-4.8,4.8H79c-2.5,0-4.8-2.2-4.8-4.8V205.6c0-2.5,2.2-4.8,4.8-4.8
		h267.1c2.5,0,4.8,2.2,4.8,4.8v243.2L351.1,448.7L351.1,448.7z"/>
	<path id="body_bg" class="st1" d="M351.1,448.7c0,2.5-2.2,4.8-4.8,4.8H79c-2.5,0-4.8-2.2-4.8-4.8V205.6c0-2.5,2.2-4.8,4.8-4.8
		h267.1c2.5,0,4.8,2.2,4.8,4.8v243.2L351.1,448.7L351.1,448.7z"/>
	<path id="body_mid" class="st3" d="M346.1,200.5h-85.4l-22.2,60.7h21.9l-21.9,53.1h21.9L184.9,423l10.4-74.1h-19.4l8.4-56.2h-20.2
		l11.5-92.1H79c-2.5,0-4.8,2.2-4.8,4.8v243.2c0,2.5,2.2,4.8,4.8,4.8h267.1c2.5,0,4.8-2.2,4.8-4.8v-243
		C351.1,202.7,348.9,200.5,346.1,200.5z"/>
	<path id="body_top" class="st2" d="M346.1,200.5h-85.4l-22.2,60.7h21.9l-21.9,53.1h21.9L184.9,423l10.4-74.1h-19.4l8.4-56.2h-20.2
		l11.5-92.1H79c-2.5,0-4.8,2.2-4.8,4.8v243.2c0,2.5,2.2,4.8,4.8,4.8h267.1c2.5,0,4.8-2.2,4.8-4.8v-243
		C351.1,202.7,348.9,200.5,346.1,200.5z"/>
</g>
<g id="facial_details">
	<path id="ear_right" class="st2" d="M340.7,106.7c0,16,0.3,28.9,3.7,28.9c3.4,0,5.9-12.9,5.9-28.9s-2.5-28.9-5.9-28.9
		C341,77.8,340.7,90.7,340.7,106.7z"/>
	<path id="ear_left" class="st2" d="M84.4,106.7c0,16-0.3,28.9-3.7,28.9s-5.9-12.9-5.9-28.9s2.5-28.9,5.9-28.9S84.4,90.7,84.4,106.7
		z"/>
	<path id="pupil_right" d="M273.9,98.3c-10.1,0-18.3,8.1-18.3,18.3s8.1,18.3,18.3,18.3s18.3-8.1,18.3-18.3S284,98.3,273.9,98.3z
		 M267.2,116.3c-3.7,0-6.7-3.1-6.7-6.7c0-3.7,3.1-6.7,6.7-6.7c3.7,0,6.7,3.1,6.7,6.7C273.9,113.2,271.1,116.3,267.2,116.3z"/>
	<path id="pupil_left" d="M151.2,98.3c-10.1,0-18.3,8.1-18.3,18.3s8.1,18.3,18.3,18.3c10.1,0,18.3-8.1,18.3-18.3
		S161.3,98.3,151.2,98.3z M144.7,116.3c-3.7,0-6.7-3.1-6.7-6.7c0-3.7,3.1-6.7,6.7-6.7c3.7,0,6.7,3.1,6.7,6.7
		C151.2,113.2,148.4,116.3,144.7,116.3z"/>
</g>
</svg>
