<?xml version="1.0" encoding="utf-8"?>
<!-- Generator: Adobe Illustrator 21.0.0, SVG Export Plug-In . SVG Version: 6.00 Build 0)  -->
<svg version="1.1" id="Layer_1" xmlns="http://www.w3.org/2000/svg" xmlns:xlink="http://www.w3.org/1999/xlink" x="0px" y="0px"
	 viewBox="0 0 612 792" style="enable-background:new 0 0 612 792;" xml:space="preserve">
<style type="text/css">
	.st0{fill:#695124;}
	.st1{fill:#02C902;}
	.st2{fill:#CCCCCC;}
	.st3{fill:#00FFFF;}
	.st4{fill:#662D91;}
	.st5{fill:#00FF00;}
	.st6{fill:#685123;}
	.st7{fill:#FFFFFF;}
</style>
<path id="chip_torso" class="st0" d="M419.6,619.9c-1.3,4.6-2.9,9.2-4.3,13.8c-1.7,5.8-3.3,11.7-4.2,17.7c-0.5,3.6-0.8,7.2-0.8,10.8
	c3.1,0,6.1,0,9.2,0c7.4,0,14.8,0,22.2,0c8.9,0,17.9,0,26.8,0c7.7,0,15.5,0,23.2,0c2.5,0,5.1,0,7.6,0c0.8,0,1.6,0,2.4,0
	c0.3,0,1,0.1,1.3,0c0,0,0.1,0,0.2,0c0-6.2-0.9-12.8-4.5-17.9c-3.9-5.5-10.3-7.9-16.8-8.3c-5.5-0.3-10.8,0.9-16.3,1.1
	c-5.2,0.2-10.6-0.2-15.4-2.1c-2.8-1.1-5.3-2.8-7.1-5.2c-2-2.8-2.7-6.4-2.5-9.8c-0.7,0-1.3,0-2,0c5.3-18.4,9.3-37.1,12.8-55.9
	c3.5-19,6.7-38.3,7.8-57.7c0.3-6,0.4-12-0.2-18c-0.4-3.4-1-7-2.7-10c-1-1.8-2.5-3.4-4.6-3.9c-2.1-0.5-4.6,0.1-6.6,0.8
	c-2.5,0.8-4.8,2.1-7,3.5c-6.2,4-11.7,9.2-16.9,14.6c-6.9,7.2-13.2,15-19.2,23c-1.6,2.2-3.2,4.4-4.8,6.7c-2.3-9.3-5.3-18.5-9-27.4
	c8.1,0.3,16.3-1.3,23.6-4.9c4.2-2,8-4.7,11.5-7.7c1.9-1.7,3.8-3.6,5.5-5.5c0.8-1,1.6-1.9,2.4-2.9c0.4-0.5,0.8-1.3,1.3-1.7
	c0.5-0.4,0.1-0.2,0.7-0.2c0.3,0,0.6,0.1,0.9,0.2c9,1.2,16.5-6.9,19.3-14.6c2.8-7.8,2-19.2-6.5-23.2c-9.4-4.5-18.9,4.2-22.4,12.4
	c0.6-2.6,2.1-5.2-0.1-7.5c-2-2.2-5.7-1.6-7.1,1c-0.7,1.3-1,2.8-1.3,4.2c-0.7,3-1,6.1-0.7,9.1c0.4,3.6,1.6,7.1,3.8,10
	c0.5,0.6,1,1.3,1.6,1.8c0.3,0.3,0.5,0.5,0.8,0.8c0,0,0.5,0.4,0.5,0.4c0,0.1-0.5,0.6-0.6,0.7c-1.2,1.5-2.4,2.9-3.7,4.2
	c-4.3,4.3-9.4,7.8-15.2,9.7c-4.5,1.5-9.2,2.2-13.9,2c-0.5,0-1-0.1-1.4-0.1c-0.2,0-0.6,0-0.7-0.1c-0.3-0.2-0.3-0.7-0.4-1.1
	c-0.3-1.8-0.7-3.6-1.2-5.4c-1-3.8-2.3-7.5-3.8-11.1c-5.9-13.9-15.7-26.1-28-34.9c-12.2-8.7-26.8-14-41.8-15
	c-15.3-1-30.6,2.1-44.2,9.3c-13.3,7.1-24.5,17.8-32.2,30.7c-4,6.7-7,13.9-8.9,21.4c-0.5,1.8-0.9,3.7-1.2,5.6
	c-0.1,0.6-0.1,0.5-0.6,0.6c-0.2,0.1-0.4,0-0.6,0.1c-0.5,0-1.1,0.1-1.6,0.1c-2.2,0.1-4.4,0-6.6-0.3c-5.3-0.7-10.4-2.6-14.9-5.5
	c-2.7-1.8-5.2-3.9-7.5-6.2c-1.3-1.3-2.4-2.7-3.6-4.1c-0.4-0.6-0.5-0.5,0-1c0.3-0.3,0.6-0.6,0.9-0.9c0.6-0.6,1.2-1.3,1.7-2
	c4-5.4,4.4-12.6,2.9-18.9c-0.3-1.4-0.7-3.1-1.4-4.3c-1.5-2.6-5.2-2.8-7.1-0.5c-1.9,2.3-0.5,4.8,0.1,7.3c-3.1-7.5-11-15.2-19.9-13.2
	c-9.1,2.1-11.6,12.7-9.9,20.7c1.8,8.4,8.4,17.4,17.6,18c0.9,0.1,1.7,0,2.6-0.1c0.3,0,1.1-0.4,1.4-0.3c0.2,0.1,0.5,0.7,0.6,0.9
	c0.3,0.4,0.6,0.8,0.9,1.1c1.6,2.1,3.4,4.2,5.3,6.1c3.4,3.4,7.2,6.3,11.3,8.7c8,4.5,17.2,6.7,26.4,6.3c-3.7,8.9-6.7,18-9,27.4
	c-6.1-8.7-12.5-17.1-19.6-24.9c-5.4-6-11.1-11.8-17.5-16.7c-4.1-3.1-8.7-6.1-13.8-6.9c-2.9-0.4-5.2,0-7.1,2.4
	c-1.9,2.3-2.7,5.5-3.2,8.4c-0.9,5.2-1,10.6-0.9,15.9c0.4,18.6,3.4,37.3,6.7,55.6c3.4,19.3,7.4,38.5,12.5,57.4c0.5,2,1.1,3.9,1.6,5.8
	c-0.7,0-1.4,0-2.1,0c0.2,3.2-0.4,6.4-2.1,9.1c-1.4,2.3-3.5,4-5.8,5.2c-4.7,2.4-10.2,3-15.4,3c-5,0-9.9-1.1-14.9-1.2
	c-6.8-0.1-14,1.4-18.6,6.7c-4.6,5.3-5.7,12.8-5.7,19.6c3.1,0,6.2,0,9.2,0c7.4,0,14.8,0,22.2,0c8.9,0,17.8,0,26.7,0
	c7.7,0,15.5,0,23.2,0c2.5,0,5.1,0,7.6,0c0.8,0,1.6,0,2.4,0c0.3,0,1,0.1,1.3,0c0,0,0.1,0,0.2,0c0-13.3-4.2-25.9-8.1-38.5
	c-0.2-0.7-0.4-1.4-0.6-2c-0.1-0.3-0.3-1.6-0.5-1.8c-0.3-0.3-1.7,0-2.2,0c0-14.7-0.9-29.5-2.1-44.2c0.8,1.4,1.6,2.7,2.4,4
	c0.4,0.7,0.8,1.3,1.2,2c0.2,0.3,0.4,0.7,0.6,1c0.2,0.3,0.8,0.9,0.8,1.3c0.1,0.5-0.4,1.4-0.5,1.9c-0.1,0.6-0.3,1.3-0.3,2
	c-0.2,1.5-0.3,3-0.2,4.5c0.2,5.6,2.2,11.1,5.5,15.7c2.6,3.6,6.2,6.7,10.5,8.3c1.9,0.7,3.9,1,6,1c0.5,0,1-0.1,1.4-0.1
	c0.2,0,0.5-0.2,0.7-0.1c0.4,0.1,0.4,0.2,0.7,0.6c1.1,1.3,2.1,2.6,3.2,3.9c6.8,8,14.1,15.8,22.6,21.9c1.6,1.1,3.2,2.2,4.9,3.1
	c2,1.1,4,2.3,6,3.4c4.8,2.6,9.7,4.8,14.9,6.5c10.8,3.7,22.3,5.5,33.7,5.8c11.5,0.4,23.2-0.7,34.4-3.5c5.3-1.3,10.6-3.1,15.6-5.3
	c4.5-2,8.8-4.5,13.1-6.9c8.2-4.5,15.1-11.3,21.4-18.1c2.1-2.2,4.1-4.5,6.1-6.9c1-1.2,2-2.4,3-3.6c0.1-0.2,0.5-0.9,0.8-0.9
	c0.1,0,0.6,0.1,0.7,0.1c0.5,0.1,1.1,0.1,1.7,0.2c4.2,0.2,8.3-1.6,11.6-4.1c3.9-3,6.7-7.2,8.5-11.8c1.1-2.9,1.8-6,1.9-9.1
	c0.1-1.4,0-2.8-0.2-4.2c-0.1-0.7-0.2-1.3-0.3-2c-0.1-0.3-0.1-0.6-0.2-1c-0.1-0.6-0.3-0.7-0.1-1.3c0.3-0.7,0.8-1.4,1.2-2
	c0.4-0.7,0.8-1.3,1.2-2c0.8-1.3,1.6-2.7,2.4-4.1c-1.1,13.2-1.9,26.5-2.1,39.8c0,0.8,0,1.7,0,2.5c0,0.3,0.2,1.7-0.1,1.9
	C421.5,620.2,420,619.9,419.6,619.9z"/>
<path id="torso_legs" class="st1" d="M419.6,619.9c-2.7,9.6-9.3,25.8-9.3,42.3h92.8c0-16.5-6.8-29.5-31.9-25.6
	c-4,0.6-31.7,3.8-30.7-16.7h-2c6.5-22.7,13.4-55.9,17.3-83.6c6.8-47.6,2.5-60.9-5-62c-0.8-0.1-1.6-0.1-2.4,0.1
	c-11.4,1.1-31.3,20.1-51.3,48.6c-2.5-10-5.8-19.8-9.8-29.1c-2.1-43.4-38-78-81.9-78c-43.9,0-79.8,34.6-81.9,78
	c-4,9.3-7.3,19.1-9.8,29.1c-20-28.5-39.9-47.5-51.3-48.6c-0.8-0.2-1.6-0.2-2.4-0.1c-7.5,1.1-11.8,14.4-4.9,62
	c4,27.7,10.8,60.8,17.4,83.6h-2.1c1,20.5-26.7,17.3-30.7,16.7c-25.1-3.8-31.9,9.2-31.9,25.6h92.8c0-16.6-6.6-32.7-9.3-42.3h-2.2
	c0-12.4-0.7-28-2.1-44.2c21.7,36.7,45.9,64.4,61.3,71.6c16,10,35.7,14.8,57,14.8c21.2,0,40.9-4.8,56.9-14.7
	c15.4-7.1,39.8-34.9,61.6-71.8c-1.3,16.1-2.1,31.7-2.1,44.2H419.6z"/>
<g id="legs">
	<g>
		<path class="st2" d="M471.2,636.6c-4,0.6-31.7,3.8-30.7-16.7h-2c2-6.9,4-14.8,6-23.1h-22c-0.4,8.4-0.7,16.2-0.7,23.1h-2.2
			c-2.7,9.6-9.3,25.8-9.3,42.3h92.8C503.2,645.8,496.3,632.8,471.2,636.6z"/>
		<path class="st3" d="M471.2,636.6c-4,0.6-31.7,3.8-30.7-16.7h-20.9c-2.7,9.6-9.3,25.8-9.3,42.3h92.8
			C503.2,645.8,496.3,632.8,471.2,636.6z"/>
		<path class="st4" d="M471.2,636.6c-3,0.5-19.8,2.4-27.2-5.7c-0.3,0.4-0.7,0.6-1.2,0.6h-5.6c-0.8,0-1.5-0.7-1.5-1.5
			c0-0.8,0.7-1.5,1.5-1.5h5.1c-0.4-0.8-0.8-1.6-1.1-2.5h-5c-0.8,0-1.5-0.7-1.5-1.5s0.7-1.5,1.5-1.5h4.4c-0.1-1-0.2-2.1-0.1-3.3
			h-20.9c-2.2,7.9-7,20.2-8.7,33.6h91.4C500,641.5,491.6,633.5,471.2,636.6z"/>
	</g>
	<g>
		<path class="st2" d="M191.4,619.9h-2.2c0-6.9-0.2-14.8-0.7-23.1h-22c2,8.4,4,16.2,6,23.1h-2.1c1,20.5-26.7,17.3-30.7,16.7
			c-25.1-3.8-31.9,9.2-31.9,25.6h92.8C200.6,645.7,194,629.5,191.4,619.9z"/>
		<path class="st3" d="M139.8,636.6c4,0.6,31.7,3.8,30.7-16.7h20.9c2.7,9.6,9.3,25.8,9.3,42.3h-92.8
			C107.8,645.8,114.7,632.8,139.8,636.6z"/>
		<path class="st4" d="M191.4,619.9h-20.9c0.1,1.2,0,2.2-0.1,3.3h4.4c0.8,0,1.5,0.7,1.5,1.5c0,0.8-0.7,1.5-1.5,1.5h-5
			c-0.3,0.9-0.7,1.7-1.1,2.5h5.1c0.8,0,1.5,0.7,1.5,1.5s-0.7,1.5-1.5,1.5h-5.6c-0.5,0-0.9-0.2-1.2-0.6c-7.4,8.1-24.2,6.2-27.2,5.7
			c-20.4-3.1-28.7,4.9-31.1,16.8H200C198.4,640.1,193.6,627.8,191.4,619.9z"/>
	</g>
</g>
<path id="bolt_wings" class="st3" d="M404,506.2c-5.8-13.2-12.9-24.8-20.5-33.7c-10.7-32.9-41.5-56.6-78-56.6
	c-36.4,0-67.2,23.7-77.9,56.5c-7.6,8.9-14.8,20.5-20.6,33.7c-15.5,35.7-15,70.4,1.3,77.4c11.6,5.1,28.1-5.4,42.2-24.8
	c14.5,13.1,33.8,21.2,55,21.2c21.1,0,40.4-8,55-21.2c14.1,19.4,30.6,29.9,42.2,24.8C418.9,576.6,419.5,541.9,404,506.2z"/>
<path id="torso_arms" class="st5" d="M446.1,434.7c-7.8-3.1-17.5,2.5-21.7,12.7c0.4-1.6,0.8-2.7,0.8-2.8c0.9-2.2-0.2-4.8-2.4-5.7
	c-2.2-0.9-4.8,0.2-5.8,2.4c-0.2,0.4-4.1,10.4-0.2,19.3c1.2,2.6,2.8,4.8,5,6.7c-11.9,15.5-26.1,17.4-35.7,16.4
	c-6.7-38.5-40.3-67.8-80.7-67.8c-40.4,0-74,29.3-80.7,67.8c-9.5,1-23.8-0.9-35.7-16.5c2.2-1.9,3.9-4.1,5-6.7
	c3.9-8.9,0-18.9-0.2-19.3c-0.9-2.2-3.5-3.3-5.7-2.4c-2.2,0.9-3.3,3.5-2.4,5.7c0,0,0.4,1.2,0.8,2.8c-4.2-10.1-13.8-15.8-21.7-12.7
	c-7.9,3.2-10.9,14.1-6.8,24.4c3.9,9.7,12.7,15.4,20.3,13.4c12.7,17.8,29,23.2,42.4,23.2c0.9,0,1.8,0,2.7-0.1c0,0.8-0.1,1.5-0.1,2.3
	c0,6.7,0.8,13.2,2.3,19.5c-13.9,9-28.5,27-25.2,56.4c-8.5,3.8-11.9,15.6-7.7,27.1c4.4,11.9,15.2,18.8,24.3,15.5
	c9.1-3.3,12.9-15.6,8.5-27.5c-0.3-0.9-0.7-1.8-1.2-2.7c2.2,2.9,3.3,5.7,3.3,5.8c0.7,1.8,2.3,2.9,4.1,2.9c0.5,0,1-0.1,1.5-0.3
	c2.3-0.8,3.5-3.3,2.7-5.6c-0.2-0.5-4.3-11.6-14.2-16.1c-3.1-1.4-6.4-1.9-9.9-1.7c-2-22.5,8.5-35.3,17.5-42
	C242,559,271.3,580,305.5,580c34.3,0,63.6-21,75.9-50.8c9,6.6,19.6,19.4,17.5,42.1c-3.5-0.2-6.7,0.3-9.9,1.7
	c-9.9,4.4-14,15.6-14.2,16.1c-0.8,2.3,0.4,4.8,2.7,5.6c0.5,0.2,1,0.3,1.5,0.3c1.8,0,3.5-1.1,4.1-2.9c0-0.1,1.1-2.8,3.3-5.8
	c-0.4,0.8-0.8,1.7-1.2,2.7c-4.4,11.9-0.5,24.2,8.5,27.5c9.1,3.3,20-3.6,24.3-15.5c4.2-11.5,0.7-23.4-7.7-27.1
	c3.2-29.4-11.4-47.4-25.2-56.4c1.5-6.2,2.3-12.8,2.3-19.5c0-0.8,0-1.5-0.1-2.3c0.9,0,1.8,0.1,2.7,0.1c13.5,0,29.7-5.4,42.4-23.2
	c7.6,2,16.4-3.7,20.3-13.4C457.1,448.8,454,437.9,446.1,434.7z M323.6,496.3l-8.3,20h8.3L295.1,557l3.9-27.9h-7.2l3.2-21.1h-7.6
	l4.3-34.6h31.8l-8.3,22.8H323.6z"/>
<path id="chip_head" class="st6" d="M457.2,324.1c0-34.3-26.9-62.5-60.7-64.5c-12.2-13.9-26.5-25.5-42.2-33.5l46.1-113.4
	c0.2,0,0.4,0,0.5,0c7.3,0,13.2-5.9,13.2-13.2c0-7.3-5.9-13.2-13.2-13.2c-7.3,0-13.2,5.9-13.2,13.2c0,3.9,1.7,7.5,4.5,9.9l-45.9,113
	c-12.8-5.4-26.5-8.4-40.7-8.4c-14.2,0-27.9,3-40.7,8.4l-45.9-113c2.7-2.4,4.4-5.9,4.4-9.9c0-7.3-5.9-13.2-13.2-13.2
	c-7.3,0-13.2,5.9-13.2,13.2c0,7.3,5.9,13.2,13.2,13.2c0.2,0,0.4,0,0.6,0l46.1,113.4c-15.8,8-30.1,19.6-42.2,33.5
	c-33.8,2-60.8,30.2-60.8,64.5c0,17.6,7.1,33.6,18.6,45.3c0.9,72.5,60.1,111,133.1,111s132.3-38.5,133.1-111
	C450.1,357.7,457.2,341.7,457.2,324.1z"/>
<path id="purple_head" class="st4" d="M457.2,324.1c0-34.3-26.9-62.5-60.7-64.5c-12.2-13.9-26.5-25.5-42.2-33.5l46.1-113.4
	c0.2,0,0.4,0,0.5,0c7.3,0,13.2-5.9,13.2-13.2c0-7.3-5.9-13.2-13.2-13.2c-7.3,0-13.2,5.9-13.2,13.2c0,3.9,1.7,7.5,4.5,9.9l-45.9,113
	c-12.8-5.4-26.5-8.4-40.7-8.4c-14.2,0-27.9,3-40.7,8.4l-45.9-113c2.7-2.4,4.4-5.9,4.4-9.9c0-7.3-5.9-13.2-13.2-13.2
	c-7.3,0-13.2,5.9-13.2,13.2c0,7.3,5.9,13.2,13.2,13.2c0.2,0,0.4,0,0.6,0l46.1,113.4c-15.8,8-30.1,19.6-42.2,33.5
	c-33.8,2-60.8,30.2-60.8,64.5c0,17.6,7.1,33.6,18.6,45.3c0.9,72.5,60.1,111,133.1,111s132.3-38.5,133.1-111
	C450.1,357.7,457.2,341.7,457.2,324.1z"/>
<path id="head" class="st5" d="M305.5,214c-73.5,0-133.1,80.2-133.1,153.7S232,480.3,305.5,480.3s133.1-39,133.1-112.6
	S379,214,305.5,214z M218.5,349.8c-14.2,0-25.7-11.5-25.7-25.8c0-4.4,1.1-8.6,3.1-12.2c0.8,4.1,4.4,7.2,8.7,7.2c4.9,0,8.9-4,8.9-8.9
	c0-4.3-3.1-7.9-7.2-8.7c3.6-2,7.8-3.1,12.2-3.1c14.2,0,25.8,11.5,25.7,25.7C244.2,338.3,232.7,349.8,218.5,349.8z M333.7,364.6
	c-2.8,13.2-14.7,22.8-28.2,22.8s-25.3-9.6-28.2-22.8c-0.5-2.4,1-4.7,3.4-5.2c2.4-0.5,4.7,1,5.2,3.4c2,9.2,10.2,15.8,19.6,15.8
	s17.6-6.6,19.6-15.8c0.5-2.4,2.8-3.9,5.2-3.4C332.7,359.9,334.2,362.2,333.7,364.6z M392.5,349.8c-14.2,0-25.7-11.5-25.7-25.8
	c0-4.4,1.1-8.6,3.1-12.2c0.8,4.1,4.4,7.2,8.7,7.2c4.9,0,8.9-4,8.9-8.9c0-4.3-3.1-7.9-7.2-8.7c3.6-2,7.8-3.1,12.2-3.1
	c14.2,0,25.7,11.5,25.8,25.7C418.3,338.3,406.8,349.8,392.5,349.8z"/>
<g id="eyes">
	<path class="st3" d="M392.5,259.4c-35.6,0-64.7,29-64.7,64.7s29,64.7,64.7,64.7s64.7-29,64.7-64.7S428.2,259.4,392.5,259.4z
		 M392.5,349.8c-14.2,0-25.7-11.5-25.7-25.8c0-4.4,1.1-8.6,3.1-12.2c0.8,4.1,4.4,7.2,8.7,7.2c4.9,0,8.9-4,8.9-8.9
		c0-4.3-3.1-7.9-7.2-8.7c3.6-2,7.8-3.1,12.2-3.1c14.2,0,25.7,11.5,25.8,25.7C418.3,338.3,406.8,349.8,392.5,349.8z"/>
	<path class="st7" d="M392.5,267.4c-31.3,0-56.7,25.4-56.7,56.7c0,31.3,25.4,56.7,56.7,56.7c31.3,0,56.7-25.4,56.7-56.7
		S423.8,267.4,392.5,267.4z M392.5,349.8c-14.2,0-25.7-11.5-25.7-25.8c0-4.4,1.1-8.6,3.1-12.2c0.8,4.1,4.4,7.2,8.7,7.2
		c4.9,0,8.9-4,8.9-8.9c0-4.3-3.1-7.9-7.2-8.7c3.6-2,7.8-3.1,12.2-3.1c14.2,0,25.7,11.5,25.8,25.7
		C418.3,338.3,406.8,349.8,392.5,349.8z"/>
	<path class="st3" d="M218.5,259.4c-35.6,0-64.7,29-64.7,64.7s29,64.7,64.7,64.7c35.7,0,64.7-29,64.7-64.7S254.1,259.4,218.5,259.4z
		 M218.5,349.8c-14.2,0-25.7-11.5-25.7-25.8c0-4.4,1.1-8.6,3.1-12.2c0.8,4.1,4.4,7.2,8.7,7.2c4.9,0,8.9-4,8.9-8.9
		c0-4.3-3.1-7.9-7.2-8.7c3.6-2,7.8-3.1,12.2-3.1c14.2,0,25.8,11.5,25.7,25.7C244.2,338.3,232.7,349.8,218.5,349.8z"/>
	<path class="st7" d="M218.5,267.4c-31.3,0-56.7,25.4-56.7,56.7c0,31.3,25.4,56.7,56.7,56.7s56.7-25.4,56.7-56.7
		S249.8,267.4,218.5,267.4z M218.5,349.8c-14.2,0-25.7-11.5-25.7-25.8c0-4.4,1.1-8.6,3.1-12.2c0.8,4.1,4.4,7.2,8.7,7.2
		c4.9,0,8.9-4,8.9-8.9c0-4.3-3.1-7.9-7.2-8.7c3.6-2,7.8-3.1,12.2-3.1c14.2,0,25.8,11.5,25.7,25.7
		C244.2,338.3,232.7,349.8,218.5,349.8z"/>
</g>
</svg>
