<?xml version="1.0" encoding="utf-8"?>
<!-- Generator: Adobe Illustrator 21.0.0, SVG Export Plug-In . SVG Version: 6.00 Build 0)  -->
<svg version="1.1" id="Layer_1" xmlns="http://www.w3.org/2000/svg" xmlns:xlink="http://www.w3.org/1999/xlink" x="0px" y="0px"
	 viewBox="0 0 510.2 566.9" style="enable-background:new 0 0 510.2 566.9;" xml:space="preserve">
<style type="text/css">
	.st0{fill:#5E5544;}
	.st1{fill:#00AEEF;}
	.st2{fill:#662D91;}
	.st3{fill:#262262;}
	.st4{fill:#EC008C;}
	.st5{fill:#FFFFFF;}
</style>
<g id="body">
	<path id="chip" class="st0" d="M405.5,314.9v-46.1c0-75.4-61.2-136.7-136.7-136.7c-75.4,0-136.7,61.2-136.7,136.7v46.1
		c-18.4,6.9-36.5,32.2-30.9,61.8c1.1,7.2,2.7,14.2,5.2,20.9c2.5,6.9,5.5,13.5,9.4,19.9s8.5,12.4,14.9,17.9c0.6-2.7,0.9-5.3,1.1-7.8
		c1.7,2.1,3.6,4.1,5.6,5.9c4.6,3.9,9.4,7.8,16.3,10.3c0.3-4.6-0.1-8.8-0.9-12.8c4.9,1.2,9.8,1.7,14.3,2c0,0.1-0.1,0.2-0.1,0.3
		l3.7,2.5c-0.7,1.4-1.1,2.5-1.6,3.9l-4.4-0.9c-0.5,1.6-0.9,3-1.1,4.6l4.1,1.4c-0.2,1.4-0.5,2.8-0.5,4.1l-4.4,0.2c0,0.7,0,1.6,0,2.3
		c0,0.9,0,1.6,0,2.3l4.4,0.2c0,1.4,0.2,2.8,0.5,4.1l-4.1,1.4c0.2,1.6,0.7,3.2,1.1,4.6l4.4-0.9c0.5,1.4,0.9,2.8,1.6,3.9l-3.7,2.5
		c0.7,1.4,1.6,2.8,2.3,4.1l3.9-2.1c0.9,1.1,1.6,2.3,2.5,3.4l-3,3.4c1.1,1.1,2.3,2.3,3.4,3.4l3.4-3c0.7,0.6,1.4,1.1,2.1,1.6l-11,41
		l-29.1,12.6c-5.2,2.3-7.6,8.3-5.4,13.6c1.7,3.9,5.5,6.2,9.5,6.2c1.4,0,2.8-0.3,4.1-0.8l14.1-6.1l-2.1,7.7
		c-1.4,5.2,1.7,10.5,6.9,11.9c0.8,0.2,1.7,0.3,2.5,0.3c4.3,0,8.2-2.9,9.4-7.2l2.6-9.5l10.2,10.4c2,2.1,4.7,3.1,7.4,3.1
		c2.6,0,5.2-1,7.2-2.9c4.1-4,4.2-10.5,0.2-14.6l-18.7-19l10.6-39.6c0.2,0,0.5,0,0.7,0l0.2,4.4c0.7,0,1.6,0,2.3,0c0.9,0,1.6,0,2.3,0
		l0.2-4.4c1.4,0,2.8-0.2,4.1-0.5l1.4,4.1c1.6-0.2,3.2-0.7,4.6-1.1l-0.9-4.4c1.4-0.5,2.8-0.9,3.9-1.6l2.5,3.7
		c1.4-0.7,2.8-1.6,4.1-2.3l-2.3-3.7c1.1-0.9,2.3-1.6,3.4-2.5l3.4,3c1.1-1.1,2.3-2.3,3.4-3.4l-3-3.4c0.9-1.1,1.8-2.3,2.5-3.4l3.9,2.1
		c0.8-1.3,1.5-2.5,2.1-3.8c9.6,2.1,19.5,3.3,29.8,3.3c10.8,0,21.3-1.3,31.3-3.7c0.7,1.3,1.5,2.6,2.2,3.9l3.9-2.1
		c0.9,1.1,1.6,2.3,2.5,3.4l-3,3.4c1.1,1.1,2.3,2.3,3.4,3.4l3.4-3c1.1,0.9,2.3,1.8,3.4,2.5l-2.1,3.9c1.4,0.9,2.8,1.6,4.1,2.3l2.5-3.7
		c1.4,0.7,2.5,1.1,3.9,1.6l-0.9,4.4c1.6,0.5,3,0.9,4.6,1.1l1.4-4.1c1.4,0.2,2.8,0.5,4.1,0.5l0.2,4.4c0.7,0,1.5,0,2.2,0l9.4,35.2
		l-18.7,19.2c-4,4.1-3.9,10.6,0.2,14.6c2,2,4.6,2.9,7.2,2.9c2.7,0,5.4-1,7.4-3.1l10.2-10.4l2.6,9.5c1.2,4.4,5.1,7.2,9.4,7.2
		c0.8,0,1.7-0.1,2.5-0.3c5.2-1.4,8.3-6.7,6.9-11.9l-2.1-7.7l14.1,6.1c1.3,0.6,2.7,0.8,4.1,0.8c4,0,7.8-2.3,9.5-6.2
		c2.3-5.2-0.1-11.3-5.4-13.6l-29.1-12.6l-9.2-34.3c1.1-0.6,2.3-1.3,3.4-1.9l-2.1-3.9c1.1-0.9,2.3-1.6,3.4-2.5l3.4,3
		c1.1-1.1,2.3-2.3,3.4-3.4l-3-3.4c0.9-1.1,1.8-2.3,2.5-3.4l3.9,2.1c0.9-1.4,1.6-2.8,2.3-4.1l-3.7-2.5c0.7-1.4,1.1-2.5,1.6-3.9
		l4.4,0.9c0.5-1.6,0.9-3,1.1-4.6l-4.1-1.4c0.2-1.4,0.5-2.8,0.5-4.1l4.4-0.2c0-0.7,0-1.6,0-2.3c0-0.9,0-1.6,0-2.3l-4.4-0.2
		c0-1.4-0.2-2.8-0.5-4.1l4.1-1.4c-0.2-1.6-0.7-3.2-1.1-4.6l-4.4,0.9c-0.5-1.4-0.9-2.8-1.6-3.9l3.7-2.5c-0.1-0.1-0.1-0.3-0.2-0.4
		c4-0.3,8.2-0.8,12.5-1.8c-0.8,3.8-1.1,7.9-0.8,12.5c6.9-2.5,11.7-6.2,16.3-10.3c1.9-1.8,3.7-3.8,5.4-5.8c0.2,2.6,0.5,5.2,1,7.8
		c6.4-5.5,11-11.5,14.9-17.9s6.9-13.1,9.4-19.9c2.1-5.6,3.6-11.4,4.7-17.4C443.4,349.1,424.6,322,405.5,314.9z"/>
	<path id="light_blue_1_" class="st1" d="M405.5,314.9v-46.1c0-75.4-61.2-136.7-136.7-136.7c-75.4,0-136.7,61.2-136.7,136.7v46.1
		c-18.4,6.9-36.5,32.2-30.9,61.8c1.1,7.2,2.7,14.2,5.2,20.9c2.5,6.9,5.5,13.5,9.4,19.9s8.5,12.4,14.9,17.9c0.6-2.7,0.9-5.3,1.1-7.8
		c1.7,2.1,3.6,4.1,5.6,5.9c4.6,3.9,9.4,7.8,16.3,10.3c0.3-4.6-0.1-8.8-0.9-12.8c4.9,1.2,9.8,1.7,14.3,2c0,0.1-0.1,0.2-0.1,0.3
		l3.7,2.5c-0.7,1.4-1.1,2.5-1.6,3.9l-4.4-0.9c-0.5,1.6-0.9,3-1.1,4.6l4.1,1.4c-0.2,1.4-0.5,2.8-0.5,4.1l-4.4,0.2c0,0.7,0,1.6,0,2.3
		c0,0.9,0,1.6,0,2.3l4.4,0.2c0,1.4,0.2,2.8,0.5,4.1l-4.1,1.4c0.2,1.6,0.7,3.2,1.1,4.6l4.4-0.9c0.5,1.4,0.9,2.8,1.6,3.9l-3.7,2.5
		c0.7,1.4,1.6,2.8,2.3,4.1l3.9-2.1c0.9,1.1,1.6,2.3,2.5,3.4l-3,3.4c1.1,1.1,2.3,2.3,3.4,3.4l3.4-3c0.7,0.6,1.4,1.1,2.1,1.6l-11,41
		l-29.1,12.6c-5.2,2.3-7.6,8.3-5.4,13.6c1.7,3.9,5.5,6.2,9.5,6.2c1.4,0,2.8-0.3,4.1-0.8l14.1-6.1l-2.1,7.7
		c-1.4,5.2,1.7,10.5,6.9,11.9c0.8,0.2,1.7,0.3,2.5,0.3c4.3,0,8.2-2.9,9.4-7.2l2.6-9.5l10.2,10.4c2,2.1,4.7,3.1,7.4,3.1
		c2.6,0,5.2-1,7.2-2.9c4.1-4,4.2-10.5,0.2-14.6l-18.7-19l10.6-39.6c0.2,0,0.5,0,0.7,0l0.2,4.4c0.7,0,1.6,0,2.3,0c0.9,0,1.6,0,2.3,0
		l0.2-4.4c1.4,0,2.8-0.2,4.1-0.5l1.4,4.1c1.6-0.2,3.2-0.7,4.6-1.1l-0.9-4.4c1.4-0.5,2.8-0.9,3.9-1.6l2.5,3.7
		c1.4-0.7,2.8-1.6,4.1-2.3l-2.3-3.7c1.1-0.9,2.3-1.6,3.4-2.5l3.4,3c1.1-1.1,2.3-2.3,3.4-3.4l-3-3.4c0.9-1.1,1.8-2.3,2.5-3.4l3.9,2.1
		c0.8-1.3,1.5-2.5,2.1-3.8c9.6,2.1,19.5,3.3,29.8,3.3c10.8,0,21.3-1.3,31.3-3.7c0.7,1.3,1.5,2.6,2.2,3.9l3.9-2.1
		c0.9,1.1,1.6,2.3,2.5,3.4l-3,3.4c1.1,1.1,2.3,2.3,3.4,3.4l3.4-3c1.1,0.9,2.3,1.8,3.4,2.5l-2.1,3.9c1.4,0.9,2.8,1.6,4.1,2.3l2.5-3.7
		c1.4,0.7,2.5,1.1,3.9,1.6l-0.9,4.4c1.6,0.5,3,0.9,4.6,1.1l1.4-4.1c1.4,0.2,2.8,0.5,4.1,0.5l0.2,4.4c0.7,0,1.5,0,2.2,0l9.4,35.2
		l-18.7,19.2c-4,4.1-3.9,10.6,0.2,14.6c2,2,4.6,2.9,7.2,2.9c2.7,0,5.4-1,7.4-3.1l10.2-10.4l2.6,9.5c1.2,4.4,5.1,7.2,9.4,7.2
		c0.8,0,1.7-0.1,2.5-0.3c5.2-1.4,8.3-6.7,6.9-11.9l-2.1-7.7l14.1,6.1c1.3,0.6,2.7,0.8,4.1,0.8c4,0,7.8-2.3,9.5-6.2
		c2.3-5.2-0.1-11.3-5.4-13.6l-29.1-12.6l-9.2-34.3c1.1-0.6,2.3-1.3,3.4-1.9l-2.1-3.9c1.1-0.9,2.3-1.6,3.4-2.5l3.4,3
		c1.1-1.1,2.3-2.3,3.4-3.4l-3-3.4c0.9-1.1,1.8-2.3,2.5-3.4l3.9,2.1c0.9-1.4,1.6-2.8,2.3-4.1l-3.7-2.5c0.7-1.4,1.1-2.5,1.6-3.9
		l4.4,0.9c0.5-1.6,0.9-3,1.1-4.6l-4.1-1.4c0.2-1.4,0.5-2.8,0.5-4.1l4.4-0.2c0-0.7,0-1.6,0-2.3c0-0.9,0-1.6,0-2.3l-4.4-0.2
		c0-1.4-0.2-2.8-0.5-4.1l4.1-1.4c-0.2-1.6-0.7-3.2-1.1-4.6l-4.4,0.9c-0.5-1.4-0.9-2.8-1.6-3.9l3.7-2.5c-0.1-0.1-0.1-0.3-0.2-0.4
		c4-0.3,8.2-0.8,12.5-1.8c-0.8,3.8-1.1,7.9-0.8,12.5c6.9-2.5,11.7-6.2,16.3-10.3c1.9-1.8,3.7-3.8,5.4-5.8c0.2,2.6,0.5,5.2,1,7.8
		c6.4-5.5,11-11.5,14.9-17.9s6.9-13.1,9.4-19.9c2.1-5.6,3.6-11.4,4.7-17.4C443.4,349.1,424.6,322,405.5,314.9z"/>
	<path id="body_purple" class="st2" d="M405.5,268.7c0-75.4-61.2-136.7-136.7-136.7c-75.4,0-136.7,61.2-136.7,136.7v68.1
		c0,36,14,68.7,36.7,93.1c-0.7,1.1-1.3,2.3-1.9,3.4l3.7,2.5c-0.7,1.4-1.1,2.5-1.6,3.9l-4.4-0.9c-0.5,1.6-0.9,3-1.1,4.6l4.1,1.4
		c-0.2,1.4-0.5,2.8-0.5,4.1l-4.4,0.2c0,0.7,0,1.6,0,2.3c0,0.9,0,1.6,0,2.3l4.4,0.2c0,1.4,0.2,2.8,0.5,4.1l-4.1,1.4
		c0.2,1.6,0.7,3.2,1.1,4.6l4.4-0.9c0.5,1.4,0.9,2.8,1.6,3.9l-3.7,2.5c0.7,1.4,1.6,2.8,2.3,4.1l3.9-2.1c0.9,1.1,1.6,2.3,2.5,3.4
		l-3,3.4c1.1,1.1,2.3,2.3,3.4,3.4l3.4-3c1.1,0.9,2.3,1.8,3.4,2.5l-2.1,3.9c1.4,0.9,2.8,1.6,4.1,2.3l2.5-3.7c1.4,0.7,2.5,1.1,3.9,1.6
		l-0.9,4.4c1.6,0.5,3,0.9,4.6,1.1l1.4-4.1c1.4,0.2,2.8,0.5,4.1,0.5l0.2,4.4c0.7,0,1.6,0,2.3,0c0.9,0,1.6,0,2.3,0l0.2-4.4
		c1.4,0,2.8-0.2,4.1-0.5l1.4,4.1c1.6-0.2,3.2-0.7,4.6-1.1l-0.9-4.4c1.4-0.5,2.8-0.9,3.9-1.6l2.5,3.7c1.4-0.7,2.8-1.6,4.1-2.3
		l-2.3-3.7c1.1-0.9,2.3-1.6,3.4-2.5l3.4,3c1.1-1.1,2.3-2.3,3.4-3.4l-3-3.4c0.9-1.1,1.8-2.3,2.5-3.4l3.9,2.1c0.8-1.3,1.5-2.5,2.1-3.8
		c9.6,2.1,19.5,3.3,29.8,3.3c10.8,0,21.3-1.3,31.3-3.7c0.7,1.3,1.5,2.6,2.2,3.9l3.9-2.1c0.9,1.1,1.6,2.3,2.5,3.4l-3,3.4
		c1.1,1.1,2.3,2.3,3.4,3.4l3.4-3c1.1,0.9,2.3,1.8,3.4,2.5l-2.1,3.9c1.4,0.9,2.8,1.6,4.1,2.3l2.5-3.7c1.4,0.7,2.5,1.1,3.9,1.6
		l-0.9,4.4c1.6,0.5,3,0.9,4.6,1.1l1.4-4.1c1.4,0.2,2.8,0.5,4.1,0.5l0.2,4.4c0.7,0,1.6,0,2.3,0c0.9,0,1.6,0,2.3,0l0.2-4.4
		c1.4,0,2.8-0.2,4.1-0.5l1.4,4.1c1.6-0.2,3.2-0.7,4.6-1.1l-0.9-4.4c1.4-0.5,2.8-0.9,3.9-1.6l2.5,3.7c1.4-0.7,2.8-1.6,4.1-2.3
		l-2.1-3.9c1.1-0.9,2.3-1.6,3.4-2.5l3.4,3c1.1-1.1,2.3-2.3,3.4-3.4l-3-3.4c0.9-1.1,1.8-2.3,2.5-3.4l3.9,2.1c0.9-1.4,1.6-2.8,2.3-4.1
		l-3.7-2.5c0.7-1.4,1.1-2.5,1.6-3.9l4.4,0.9c0.5-1.6,0.9-3,1.1-4.6l-4.1-1.4c0.2-1.4,0.5-2.8,0.5-4.1l4.4-0.2c0-0.7,0-1.6,0-2.3
		c0-0.9,0-1.6,0-2.3l-4.4-0.2c0-1.4-0.2-2.8-0.5-4.1l4.1-1.4c-0.2-1.6-0.7-3.2-1.1-4.6l-4.4,0.9c-0.5-1.4-0.9-2.8-1.6-3.9l3.7-2.5
		c-0.7-1.4-1.6-2.8-2.3-4.1l-1.4,0.8c22.8-24.4,36.7-57.2,36.7-93.2v-68H405.5z M249.8,418.5l7.1-51.4h-13.3l6-39h-14.2l8-64h58.9
		l-15.4,42h15.4L286.9,343h15.4L249.8,418.5z"/>
	<path id="body_dark" class="st3" d="M405.5,268.7c0-75.4-61.2-136.7-136.7-136.7c-75.4,0-136.7,61.2-136.7,136.7v68.1
		c0,36,14,68.7,36.7,93.1l0,0c-0.7,1.1-1.3,2.3-1.9,3.4l3.7,2.5c-0.7,1.4-1.1,2.5-1.6,3.9l-4.4-0.9c-0.5,1.6-0.9,3-1.1,4.6l4.1,1.4
		c-0.2,1.4-0.5,2.8-0.5,4.1l-4.4,0.2c0,0.7,0,1.6,0,2.3c0,0.9,0,1.6,0,2.3l4.4,0.2c0,1.4,0.2,2.8,0.5,4.1l-4.1,1.4
		c0.2,1.6,0.7,3.2,1.1,4.6l4.4-0.9c0.5,1.4,0.9,2.8,1.6,3.9l-3.7,2.5c0.7,1.4,1.6,2.8,2.3,4.1l3.9-2.1c0.9,1.1,1.6,2.3,2.5,3.4
		l-3,3.4c1.1,1.1,2.3,2.3,3.4,3.4l3.4-3c1.1,0.9,2.3,1.8,3.4,2.5l-2.1,3.9c1.4,0.9,2.8,1.6,4.1,2.3l2.5-3.7c1.4,0.7,2.5,1.1,3.9,1.6
		l-0.9,4.4c1.6,0.5,3,0.9,4.6,1.1l1.4-4.1c1.4,0.2,2.8,0.5,4.1,0.5l0.2,4.4c0.7,0,1.6,0,2.3,0c0.9,0,1.6,0,2.3,0l0.2-4.4
		c1.4,0,2.8-0.2,4.1-0.5l1.4,4.1c1.6-0.2,3.2-0.7,4.6-1.1l-0.9-4.4c1.4-0.5,2.8-0.9,3.9-1.6l2.5,3.7c1.4-0.7,2.8-1.6,4.1-2.3
		l-2.3-3.7c1.1-0.9,2.3-1.6,3.4-2.5l3.4,3c1.1-1.1,2.3-2.3,3.4-3.4l-3-3.4c0.9-1.1,1.8-2.3,2.5-3.4l3.9,2.1c0.8-1.3,1.5-2.5,2.1-3.8
		l0,0c9.6,2.1,19.5,3.3,29.8,3.3c10.8,0,21.3-1.3,31.3-3.7c0.7,1.3,1.5,2.6,2.2,3.9l3.9-2.1c0.9,1.1,1.6,2.3,2.5,3.4l-3,3.4
		c1.1,1.1,2.3,2.3,3.4,3.4l3.4-3c1.1,0.9,2.3,1.8,3.4,2.5l-2.1,3.9c1.4,0.9,2.8,1.6,4.1,2.3l2.5-3.7c1.4,0.7,2.5,1.1,3.9,1.6
		l-0.9,4.4c1.6,0.5,3,0.9,4.6,1.1l1.4-4.1c1.4,0.2,2.8,0.5,4.1,0.5l0.2,4.4c0.7,0,1.6,0,2.3,0c0.9,0,1.6,0,2.3,0l0.2-4.4
		c1.4,0,2.8-0.2,4.1-0.5l1.4,4.1c1.6-0.2,3.2-0.7,4.6-1.1l-0.9-4.4c1.4-0.5,2.8-0.9,3.9-1.6l2.5,3.7c1.4-0.7,2.8-1.6,4.1-2.3
		l-2.1-3.9c1.1-0.9,2.3-1.6,3.4-2.5l3.4,3c1.1-1.1,2.3-2.3,3.4-3.4l-3-3.4c0.9-1.1,1.8-2.3,2.5-3.4l3.9,2.1c0.9-1.4,1.6-2.8,2.3-4.1
		l-3.7-2.5c0.7-1.4,1.1-2.5,1.6-3.9l4.4,0.9c0.5-1.6,0.9-3,1.1-4.6l-4.1-1.4c0.2-1.4,0.5-2.8,0.5-4.1l4.4-0.2c0-0.7,0-1.6,0-2.3
		c0-0.9,0-1.6,0-2.3l-4.4-0.2c0-1.4-0.2-2.8-0.5-4.1l4.1-1.4c-0.2-1.6-0.7-3.2-1.1-4.6l-4.4,0.9c-0.5-1.4-0.9-2.8-1.6-3.9l3.7-2.5
		c-0.7-1.4-1.6-2.8-2.3-4.1l-1.4,0.8c22.8-24.4,36.7-57.2,36.7-93.2v-68H405.5z M243.4,264.1h58.9l-15.4,42h15.4L286.9,343h15.4
		l-52.5,75.4l7.1-51.4h-13.3l6-39h-14.2L243.4,264.1z M139,316.1l15.4,15.4l16.3-16.3l16.5,16.5l16.2-16.2l16.3,16.3l12.1-12.1
		l-0.5,3.7L219.7,335l-16.3-16.3L187.2,335l-16.5-16.5l-16.3,16.3L139,319.3V316.1z M139,336.8v-1.2l15.4,15.4l16.3-16.3l16.5,16.5
		l16.2-16.2l16.3,16.3L236,335l6.8,6.8l-0.4,2.8l-6.4-6.4l-16.3,16.3l-16.3-16.3l-16.2,16.2l-16.5-16.5l-16.3,16.3l-15.3-15.3
		C139.1,338.2,139,337.5,139,336.8z M140.5,356.6l13.9,13.9l16.3-16.3l16.5,16.5l16.2-16.2l16.3,16.3l16.3-16.3l4.2,4.2l-0.4,2.8
		l-3.8-3.8L219.7,374l-16.3-16.3L187.2,374l-16.5-16.5l-16.3,16.3l-13.1-13.1C141,359.2,140.7,357.9,140.5,356.6z M149.9,388.7
		c-0.8-1.8-1.5-3.6-2.2-5.5l6.8,6.8l16.3-16.3l16.5,16.5l16.2-16.2l16.3,16.3l16.3-16.3l13.4,13.4l-0.4,2.8l-13-13l-16.3,16.3
		l-16.3-16.3l-16.2,16.2l-16.5-16.5l-16.3,16.3L149.9,388.7z M158.6,405.2l12.1-12.1l16.5,16.5l16.2-16.2l16.3,16.3l16.3-16.3l11,11
		l-0.4,2.8L236,396.7L219.7,413l-16.3-16.3L187.2,413l-16.5-16.5l-10.8,10.8C159.4,406.6,159,405.9,158.6,405.2z M268.9,435.8
		l-16.3,16.3L236,435.7L219.7,452l-16.3-16.3l-8,8c-0.6-0.4-1.3-0.9-1.9-1.3l9.9-9.9l16.3,16.3l16.3-16.3l16.5,16.5l16.3-16.3
		l16.3,16.3l16.2-16.2l16.8,16.8l16.2-16.2l9.3,9.3c-0.6,0.4-1.3,0.9-1.9,1.3l-7.4-7.4l-16.2,16.2L301.3,436l-16.2,16.2L268.9,435.8
		z M369.1,419.1L367,417l-16.2,16.2L334.5,417l-16.2,16.2l-16.8-16.8l-16.2,16.2L269,416.3l-16.3,16.3L236,416.2l-16.3,16.3
		l-16.3-16.3l-16.2,16.2l-16.5-16.5l-2.6,2.6c-0.5-0.6-1-1.2-1.4-1.8l4-4l16.5,16.5l16.2-16.2l16.3,16.3L236,413l16.5,16.5
		l16.3-16.3l16.3,16.3l16.2-16.2l16.8,16.8l16.2-16.2l16.3,16.3l16.2-16.2l3.5,3.5C370.1,417.9,369.6,418.5,369.1,419.1z
		 M377.4,407.8L367,397.5l-16.2,16.2l-16.3-16.3l-16.2,16.2l-16.8-16.8L285.3,413l-15.4-15.4l1.3-1.9l14.1,14.1l16.2-16.2l16.8,16.8
		l16.2-16.2l16.3,16.3l16.2-16.2l11.6,11.6C378.2,406.5,377.8,407.2,377.4,407.8z M386.8,390.8l-3.5,3.5L367,378l-16.2,16.2
		L334.5,378l-16.2,16.2l-16.8-16.8l-16.2,16.2l-7.4-7.4l1.3-1.9l6.1,6.1l16.2-16.2l16.8,16.8l16.2-16.2l16.3,16.3l16.2-16.2
		l16.2,16.2l6-6C388.5,387,387.7,388.9,386.8,390.8z M396.1,361.9l-12.8,12.8L367,358.5l-16.2,16.2l-16.3-16.3l-16.2,16.2
		l-16.8-16.8l-13,13l7.4-10.7l5.5-5.5l16.8,16.8l16.2-16.2l16.3,16.3l16.2-16.2l16.2,16.2l13.5-13.5
		C396.6,359.3,396.4,360.6,396.1,361.9z M398.6,336.8c0,1.1-0.1,2.2-0.1,3.2l-15.2,15.2L367,339l-16.2,16.2L334.5,339l-16.2,16.2
		L307.1,344l1.3-1.9l9.8,9.8l16.2-16.2l16.3,16.3l16.2-16.2l16.2,16.2L398.6,336.8L398.6,336.8z M398.6,320.5l-15.3,15.3L367,319.5
		l-16.2,16.2l-16.3-16.3l-16.2,16.2l-16.5-16.5l1-2.3l15.6,15.6l16.2-16.2l16.3,16.3l16.2-16.2l16.2,16.3l15.3-15.3V320.5z"/>
</g>
<g id="head">
	<path id="chip_1_" class="st0" d="M438,226.5c-0.5-14.8-1.5-29.6-3.7-44.3c-1.5-9.5-3.8-19-6-28.3c-1.3-5.6-2.5-11.3-4.4-16.7
		c-3-8.7-7-17-11.9-24.8c-10.2-16.1-24-29.6-39.9-40.1c-17.8-11.6-37.9-19.4-58.7-23.7c-10.9-2.3-22-3.6-33.1-4.2
		c3.8-1.3,8-3.4,11.5-6.9c8.5-8.5,8.9-21.6,8.9-21.6s-13.1,0.5-21.6,8.9c-6.3,6.3-8.2,15.1-8.7,19.2c-0.3,0-0.6,0-0.9,0
		c-0.6-5.4-3-20.4-13.4-30.7C243.4,0.7,223.4,0,223.4,0s0.7,19.9,13.5,32.8c6.6,6.6,15,9.9,21.7,11.7c-5.7,0.3-11.4,0.7-17,1.4
		c-21.7,2.7-43.2,8.8-62.6,18.9c-17.1,9-32.6,21.2-44.8,36.3c-9.8,12.3-17.6,26.7-21.8,41.9c-2.3,8.2-4.3,16.6-6.2,24.9
		c-2.6,11.7-4.3,23.4-5.3,35.4c-2.6,29.6-2.5,60,1.7,89.5c1,7.3,2.4,14.5,4.3,21.6c1.4-4.3,2.7-8.6,3.8-12.9
		c5.7,6.6,11.4,13.2,17.1,19.8c6.7-7.8,13.5-15.6,20.2-23.4c6.7,7.8,13.5,15.6,20.2,23.4c6.7-7.8,13.5-15.6,20.2-23.4
		c6.7,7.8,13.5,15.6,20.2,23.4c6.7-7.8,13.5-15.6,20.2-23.4c6.7,7.8,13.5,15.6,20.2,23.4c6.7-7.8,13.5-15.6,20.2-23.4
		c6.7,7.8,13.5,15.6,20.2,23.4c6.7-7.8,13.5-15.6,20.2-23.4c6.7,7.8,13.5,15.6,20.2,23.4c6.7-7.8,13.5-15.6,20.2-23.4
		c6.7,7.8,13.5,15.6,20.2,23.4c6.7-7.8,13.5-15.6,20.2-23.4c6.7,7.8,13.5,15.6,20.2,23.4c5.6-6.5,11.2-12.9,16.7-19.4
		c1.1,4.2,2.3,8.4,3.7,12.5C438.2,286,438.9,255.7,438,226.5z"/>
	<path id="dark_blue" class="st3" d="M438,226.5c-0.5-14.8-1.5-29.6-3.7-44.3c-1.5-9.5-3.8-19-6-28.3c-1.3-5.6-2.5-11.3-4.4-16.7
		c-3-8.7-7-17-11.9-24.8c-10.2-16.1-24-29.6-39.9-40.1c-17.8-11.6-37.9-19.4-58.7-23.7c-23.5-4.9-48-5.7-71.8-2.7
		c-21.7,2.7-43.2,8.8-62.6,18.9c-17.1,9-32.6,21.2-44.8,36.3c-9.8,12.3-17.6,26.7-21.8,41.9c-2.3,8.2-4.3,16.6-6.2,24.9
		c-2.6,11.7-4.3,23.4-5.3,35.4c-2.6,29.6-2.5,60,1.7,89.5c1,7.3,2.4,14.5,4.3,21.6c1.4-4.3,2.7-8.6,3.8-12.9
		c5.7,6.6,11.4,13.2,17.1,19.8c6.7-7.8,13.5-15.6,20.2-23.4c6.7,7.8,13.5,15.6,20.2,23.4c6.7-7.8,13.5-15.6,20.2-23.4
		c6.7,7.8,13.5,15.6,20.2,23.4c6.7-7.8,13.5-15.6,20.2-23.4c6.7,7.8,13.5,15.6,20.2,23.4c6.7-7.8,13.5-15.6,20.2-23.4
		c6.7,7.8,13.5,15.6,20.2,23.4c6.7-7.8,13.5-15.6,20.2-23.4c6.7,7.8,13.5,15.6,20.2,23.4c6.7-7.8,13.5-15.6,20.2-23.4
		c6.7,7.8,13.5,15.6,20.2,23.4c6.7-7.8,13.5-15.6,20.2-23.4c6.7,7.8,13.5,15.6,20.2,23.4c5.6-6.5,11.2-12.9,16.7-19.4
		c1.1,4.2,2.3,8.4,3.7,12.5C438.2,286,438.9,255.7,438,226.5z"/>
	<path id="pink" class="st4" d="M438,226.5c-0.5-14.8-1.5-29.6-3.7-44.3c-1.5-9.5-3.8-19-6-28.3c-1.3-5.6-2.5-11.3-4.4-16.7
		c-3-8.7-7-17-11.9-24.8c-10.2-16.1-24-29.6-39.9-40.1c-17.8-11.6-37.9-19.4-58.7-23.7c-10.9-2.3-22-3.6-33.1-4.2
		c3.8-1.3,8-3.4,11.5-6.9c8.5-8.5,8.9-21.6,8.9-21.6s-13.1,0.5-21.6,8.9c-6.3,6.3-8.2,15.1-8.7,19.2c-0.3,0-0.6,0-0.9,0
		c-0.6-5.4-3-20.4-13.4-30.7C243.4,0.7,223.4,0,223.4,0s0.7,19.9,13.5,32.8c6.6,6.6,15,9.9,21.7,11.7c-5.7,0.3-11.4,0.7-17,1.4
		c-21.7,2.7-43.2,8.8-62.6,18.9c-17.1,9-32.6,21.2-44.8,36.3c-9.8,12.3-17.6,26.7-21.8,41.9c-2.3,8.2-4.3,16.6-6.2,24.9
		c-2.6,11.7-4.3,23.4-5.3,35.4c-2.6,29.6-2.5,60,1.7,89.5c1,7.3,2.4,14.5,4.3,21.6c1.4-4.3,2.7-8.6,3.8-12.9
		c5.7,6.6,11.4,13.2,17.1,19.8c6.7-7.8,13.5-15.6,20.2-23.4c6.7,7.8,13.5,15.6,20.2,23.4c6.7-7.8,13.5-15.6,20.2-23.4
		c6.7,7.8,13.5,15.6,20.2,23.4c6.7-7.8,13.5-15.6,20.2-23.4c6.7,7.8,13.5,15.6,20.2,23.4c6.7-7.8,13.5-15.6,20.2-23.4
		c6.7,7.8,13.5,15.6,20.2,23.4c6.7-7.8,13.5-15.6,20.2-23.4c6.7,7.8,13.5,15.6,20.2,23.4c6.7-7.8,13.5-15.6,20.2-23.4
		c6.7,7.8,13.5,15.6,20.2,23.4c6.7-7.8,13.5-15.6,20.2-23.4c6.7,7.8,13.5,15.6,20.2,23.4c5.6-6.5,11.2-12.9,16.7-19.4
		c1.1,4.2,2.3,8.4,3.7,12.5C438.2,286,438.9,255.7,438,226.5z M196.6,238.5c-14.9,0-27.1-12.1-27.1-27.1c0-5.2,1.5-10.1,4.1-14.2
		c0,0,0,0,0.1,0c4.8,0,8.7-3.9,8.7-8.7c0,0,0,0,0-0.1c4.1-2.6,9-4.1,14.2-4.1c14.9,0,27.1,12.1,27.1,27.1
		C223.6,226.3,211.5,238.5,196.6,238.5z M274.4,250.7c-1,0.7-5,3.4-5.6,3.4c-0.5,0-4.3-2.6-5.4-3.4c-2.1-1.4-4-3-5.9-4.7
		c4,1.5,7.8,3.3,11.5,5.5c3.7-2.2,7.5-3.9,11.5-5.5C278.5,247.6,276.5,249.2,274.4,250.7z M341,238.5c-14.9,0-27.1-12.1-27.1-27.1
		c0-5.2,1.5-10.1,4.1-14.2c0,0,0,0,0.1,0c4.8,0,8.7-3.9,8.7-8.7c0,0,0,0,0-0.1c4.1-2.6,9-4.1,14.2-4.1c14.9,0,27.1,12.1,27.1,27.1
		C368.1,226.3,356,238.5,341,238.5z"/>
	<path id="light_blue" class="st1" d="M438,226.5c-0.5-14.8-1.5-29.6-3.7-44.3c-1.5-9.5-3.8-19-6-28.3c-1.3-5.6-2.5-11.3-4.4-16.7
		c-3-8.7-7-17-11.9-24.8c-10.2-16.1-24-29.6-39.9-40.1c-17.8-11.6-37.9-19.4-58.7-23.7c-23.5-4.9-48-5.7-71.8-2.7
		c-21.7,2.7-43.2,8.8-62.6,18.9c-17.1,9-32.6,21.2-44.8,36.3c-9.8,12.3-17.6,26.7-21.8,41.9c-2.3,8.2-4.3,16.6-6.2,24.9
		c-2.6,11.7-4.3,23.4-5.3,35.4c-2.6,29.6-2.5,60,1.7,89.5c1,7.3,2.4,14.5,4.3,21.6c1.4-4.3,2.7-8.6,3.8-12.9
		c5.7,6.6,11.4,13.2,17.1,19.8c6.7-7.8,13.5-15.6,20.2-23.4c6.7,7.8,13.5,15.6,20.2,23.4c6.7-7.8,13.5-15.6,20.2-23.4
		c6.7,7.8,13.5,15.6,20.2,23.4c6.7-7.8,13.5-15.6,20.2-23.4c6.7,7.8,13.5,15.6,20.2,23.4c6.7-7.8,13.5-15.6,20.2-23.4
		c6.7,7.8,13.5,15.6,20.2,23.4c6.7-7.8,13.5-15.6,20.2-23.4c6.7,7.8,13.5,15.6,20.2,23.4c6.7-7.8,13.5-15.6,20.2-23.4
		c6.7,7.8,13.5,15.6,20.2,23.4c6.7-7.8,13.5-15.6,20.2-23.4c6.7,7.8,13.5,15.6,20.2,23.4c5.6-6.5,11.2-12.9,16.7-19.4
		c1.1,4.2,2.3,8.4,3.7,12.5C438.2,286,438.9,255.7,438,226.5z M196.6,238.5c-14.9,0-27.1-12.1-27.1-27.1c0-5.2,1.5-10.1,4.1-14.2
		c0,0,0,0,0.1,0c4.8,0,8.7-3.9,8.7-8.7c0,0,0,0,0-0.1c4.1-2.6,9-4.1,14.2-4.1c14.9,0,27.1,12.1,27.1,27.1
		C223.6,226.3,211.5,238.5,196.6,238.5z M274.4,250.7c-1,0.7-5,3.4-5.6,3.4c-0.5,0-4.3-2.6-5.4-3.4c-2.1-1.4-4-3-5.9-4.7
		c4,1.5,7.8,3.3,11.5,5.5c3.7-2.2,7.5-3.9,11.5-5.5C278.5,247.6,276.5,249.2,274.4,250.7z M341,238.5c-14.9,0-27.1-12.1-27.1-27.1
		c0-5.2,1.5-10.1,4.1-14.2c0,0,0,0,0.1,0c4.8,0,8.7-3.9,8.7-8.7c0,0,0,0,0-0.1c4.1-2.6,9-4.1,14.2-4.1c14.9,0,27.1,12.1,27.1,27.1
		C368.1,226.3,356,238.5,341,238.5z"/>
	<path id="white" class="st5" d="M434.3,182.2c-1.5-9.5-3.8-19-6-28.3c-0.8-3.3-1.5-6.6-2.3-9.9c-11.7-6.3-32.3-15.9-53.7-18.9
		c-15.2-2.1-44,0.4-65,17c-21,16.7-34.2,47.6-34.2,54.3c0,4.1,0,18,0,35.6c5.2,1.8,8.9,6.7,8.9,12.5c0,7.3-13.3,20.2-13.3,20.2
		s-13.3-12.8-13.3-20.2c0-5.9,3.8-10.8,9-12.6c0-17.5,0-31.5,0-35.5c0-6.8-13.2-37.7-34.2-54.3c-21-16.7-49.8-19.2-65-17
		c-20.8,2.9-41,12.2-52.8,18.5c-2.2,8-4.2,16.2-6,24.3c-2.6,11.7-4.3,23.4-5.3,35.4c-2.6,29.6-2.5,60,1.7,89.5
		c1,7.3,2.4,14.5,4.3,21.6c1.4-4.3,2.7-8.6,3.8-12.9c5.7,6.6,11.4,13.2,17.1,19.8c6.7-7.8,13.5-15.6,20.2-23.4
		c6.7,7.8,13.5,15.6,20.2,23.4c6.7-7.8,13.5-15.6,20.2-23.4c6.7,7.8,13.5,15.6,20.2,23.4c6.7-7.8,13.5-15.6,20.2-23.4
		c6.7,7.8,13.5,15.6,20.2,23.4c6.7-7.8,13.5-15.6,20.2-23.4c6.7,7.8,13.5,15.6,20.2,23.4c6.7-7.8,13.5-15.6,20.2-23.4
		c6.7,7.8,13.5,15.6,20.2,23.4c6.7-7.8,13.5-15.6,20.2-23.4c6.7,7.8,13.5,15.6,20.2,23.4c6.7-7.8,13.5-15.6,20.2-23.4
		c6.7,7.8,13.5,15.6,20.2,23.4c5.6-6.5,11.2-12.9,16.7-19.4c1.1,4.2,2.3,8.4,3.7,12.5c7.2-28.4,7.9-58.7,7-87.9
		C437.5,211.7,436.5,196.9,434.3,182.2z M196.6,249.9c-21.3,0-38.5-17.2-38.5-38.5c0-8.2,2.6-15.8,7-22.1c0.4,4.4,4.1,7.8,8.6,7.8
		c4.8,0,8.7-3.9,8.7-8.7c0-4.5-3.4-8.2-7.8-8.6c6.3-4.4,13.8-7,22.1-7c21.3,0,38.5,17.2,38.5,38.5S217.9,249.9,196.6,249.9z
		 M341,249.9c-21.3,0-38.5-17.2-38.5-38.5c0-8.2,2.6-15.8,7-22.1c0.4,4.4,4.1,7.8,8.6,7.8c4.8,0,8.7-3.9,8.7-8.7
		c0-4.5-3.4-8.2-7.8-8.6c6.3-4.4,13.8-7,22.1-7c21.3,0,38.5,17.2,38.5,38.5S362.3,249.9,341,249.9z"/>
	<path class="st3" d="M438,226.5c-0.5-14.8-1.5-29.6-3.7-44.3c-1.5-9.5-3.8-19-6-28.3c-1.3-5.6-2.5-11.3-4.4-16.7
		c-3-8.7-7-17-11.9-24.8c-10.2-16.1-24-29.6-39.9-40.1c-17.8-11.6-37.9-19.4-58.7-23.7c-23.5-4.9-48-5.7-71.8-2.7
		c-21.7,2.7-43.2,8.8-62.6,18.9c-17.1,9-32.6,21.2-44.8,36.3c-9.8,12.3-17.6,26.7-21.8,41.9c-2.3,8.2-4.3,16.6-6.2,24.9
		c-2.6,11.7-4.3,23.4-5.3,35.4c-2.6,29.6-2.5,60,1.7,89.5c1,7.3,2.4,14.5,4.3,21.6c1.4-4.3,2.7-8.6,3.8-12.9
		c5.7,6.6,11.4,13.2,17.1,19.8c6.7-7.8,13.5-15.6,20.2-23.4c6.7,7.8,13.5,15.6,20.2,23.4c6.7-7.8,13.5-15.6,20.2-23.4
		c6.7,7.8,13.5,15.6,20.2,23.4c6.7-7.8,13.5-15.6,20.2-23.4c6.7,7.8,13.5,15.6,20.2,23.4c6.7-7.8,13.5-15.6,20.2-23.4
		c6.7,7.8,13.5,15.6,20.2,23.4c6.7-7.8,13.5-15.6,20.2-23.4c6.7,7.8,13.5,15.6,20.2,23.4c6.7-7.8,13.5-15.6,20.2-23.4
		c6.7,7.8,13.5,15.6,20.2,23.4c6.7-7.8,13.5-15.6,20.2-23.4c6.7,7.8,13.5,15.6,20.2,23.4c5.6-6.5,11.2-12.9,16.7-19.4
		c1.1,4.2,2.3,8.4,3.7,12.5C438.2,286,438.9,255.7,438,226.5z M189.7,260.7c-31,0-56.2-25.2-56.2-56.2s25.2-56.2,56.2-56.2
		s56.2,25.2,56.2,56.2S220.7,260.7,189.7,260.7z M347.9,260.7c-31,0-56.2-25.2-56.2-56.2s25.2-56.2,56.2-56.2s56.2,25.2,56.2,56.2
		S378.9,260.7,347.9,260.7z M410.4,124c-0.5,1.2-1.9,0.7-1.9,0.7C377.2,112,340.3,105.9,306,128c-7,5-13.3,10.9-18.5,17.6
		c-2.7,3.5-5,7.3-7.1,11.2c-9.5,19.4-9.4,39.1-9.4,44.5c0,7.3,0.2,26,0.2,30.3c6.2,1.2,10.7,6.6,10.7,13c0,7.3-13.3,20.2-13.3,20.2
		s-13.3-12.8-13.3-20.2c0-6.5,4.6-11.8,10.7-13c0-4.3,0.2-23,0.2-30.3c0-4.7,0.1-20.2-6.1-36.9c-2.7-6.5-6.2-12.7-10.5-18.3
		c-6-7.8-13.3-14.7-21.8-19.9c-2.1-1.4-4.3-2.6-6.5-3.8c-31.4-15.2-64.3-9.2-92.6,2.3c0,0-1.6,0.9-2.3-0.4s1.2-2,1.2-2
		s51.6-30.8,106.6,2.2c18.9,10.9,34.2,37.7,34.4,47.3c0.2-9.6,15.5-36.4,34.4-47.3c55-33,106.6-2.2,106.6-2.2S410.9,122.8,410.4,124
		z"/>
	<path class="st2" d="M438,226.5c-0.5-14.8-1.5-29.6-3.7-44.3c-1.5-9.5-3.8-19-6-28.3c-1.3-5.6-2.5-11.3-4.4-16.7
		c-3-8.7-7-17-11.9-24.8c-3.2-5.1-6.8-9.9-10.7-14.5l-6.5,9.6c-3.4-1.6-6.9-3.2-10.5-4.4l2.3-11.7c-4.1-1.4-8.3-2.5-12.4-3.4
		l-3.9,11.2c-3.7-0.7-7.6-1.1-11.5-1.4L358,86c-2.1-0.2-4.4-0.2-6.4-0.2c-2.1,0-4.4,0-6.4,0.2l-0.7,11.9c-3.9,0.2-7.6,0.7-11.5,1.4
		L329.1,88c-4.4,0.9-8.5,2.1-12.4,3.4l2.3,11.7c-3.7,1.4-7.1,2.8-10.5,4.4l-6.6-9.9c-3.9,1.8-7.6,4.1-11.2,6.4l5.3,10.8
		c-3.2,2.1-6.2,4.6-9.2,7.1l-8.9-7.8c-3.2,2.8-8.9,9.2-8.9,9.2c-2.8-3.2-6-6.2-9.2-9.2l-8.9,7.6c-3-2.5-6-4.8-9.2-7.1l5.3-10.8
		c-3.7-2.3-7.3-4.6-11.2-6.4l-6.6,9.9c-3.4-1.6-6.9-3.2-10.5-4.4l2.3-11.7c-4.1-1.4-8.3-2.5-12.4-3.4L204.7,99
		c-3.7-0.7-7.6-1.1-11.5-1.4l-0.7-11.9c-2.1-0.2-4.4-0.2-6.4-0.2c-2.1,0-4.4,0-6.4,0.2L179,97.6c-3.9,0.2-7.6,0.7-11.5,1.4
		l-3.9-11.2c-4.4,0.9-8.5,2.1-12.4,3.4l2.3,11.7c-3.7,1.4-7.1,2.8-10.5,4.4l-6.1-9c-0.8,1-1.6,1.9-2.4,2.9
		c-9.8,12.3-17.6,26.7-21.8,41.9c-2.3,8.2-4.3,16.6-6.2,24.9c-2.6,11.7-4.3,23.4-5.3,35.4c-2.6,29.6-2.5,60,1.7,89.5
		c1,7.3,2.4,14.5,4.3,21.6c1.4-4.3,2.7-8.6,3.8-12.9c5.7,6.6,11.4,13.2,17.1,19.8c6.7-7.8,13.5-15.6,20.2-23.4
		c6.7,7.8,13.5,15.6,20.2,23.4c6.7-7.8,13.5-15.6,20.2-23.4c6.7,7.8,13.5,15.6,20.2,23.4c6.7-7.8,13.5-15.6,20.2-23.4
		c6.7,7.8,13.5,15.6,20.2,23.4c6.7-7.8,13.5-15.6,20.2-23.4c6.7,7.8,13.5,15.6,20.2,23.4c6.7-7.8,13.5-15.6,20.2-23.4
		c6.7,7.8,13.5,15.6,20.2,23.4c6.7-7.8,13.5-15.6,20.2-23.4c6.7,7.8,13.5,15.6,20.2,23.4c6.7-7.8,13.5-15.6,20.2-23.4
		c6.7,7.8,13.5,15.6,20.2,23.4c5.6-6.5,11.2-12.9,16.7-19.4c1.1,4.2,2.3,8.4,3.7,12.5C438.2,286,438.9,255.7,438,226.5z
		 M251.2,235.7c-1.1,2.3-2.5,4.6-3.9,6.9l-6.6-3.2c-1.4,2.1-2.8,3.9-4.4,5.7l4.8,5.5c-1.8,2.1-3.7,3.9-5.7,5.7l-5.5-4.8
		c-1.8,1.6-3.7,3-5.7,4.4l3.2,6.6c-2.1,1.4-4.6,2.8-6.9,3.9l-4.1-6.2c-2.3,1.1-4.4,2.1-6.6,2.8l1.4,7.3c-2.5,0.9-5,1.6-7.8,2.1
		l-2.3-7.1c-2.3,0.5-4.8,0.7-7.1,0.9l-0.5,7.3c-1.1,0.2-2.5,0.2-3.9,0.2c-1.1,0-2.5-0.2-3.9-0.2l-0.5-7.3c-2.5-0.2-4.8-0.5-7.1-0.9
		l-2.3,7.1c-2.8-0.5-5.3-1.1-7.8-2.1l1.4-7.3c-2.3-0.9-4.6-1.6-6.6-2.8l-4.1,6.2c-2.3-1.1-4.6-2.5-6.9-3.9l3.2-6.6
		c-2.1-1.4-3.9-2.8-5.7-4.4l-5.5,4.8c-2.1-1.8-3.9-3.7-5.7-5.7l4.8-5.5c-1.6-1.8-3-3.7-4.4-5.7l-6.6,3.2c-1.4-2.1-2.8-4.6-3.9-6.9
		l6.2-4.1c-1.1-2.3-2.1-4.4-2.8-6.6l-7.3,1.4c-0.9-2.5-1.6-5.3-2.1-7.8l7.1-2.3c-0.5-2.3-0.7-4.8-0.9-7.1l-7.3-0.5
		c-0.2-1.1-0.2-2.5-0.2-3.9c0-1.1,0.2-2.5,0.2-3.9l7.3-0.5c0.2-2.5,0.5-4.8,0.9-7.1L122,191c0.5-2.8,1.1-5.3,2.1-7.8l7.3,1.4
		c0.9-2.3,1.6-4.6,2.8-6.6l-6.2-4.1c1.1-2.3,2.5-4.6,3.9-6.9l6.6,3.2c1.3-1.9,2.5-3.6,3.9-5.2c-1.6-1.3-3.2-2.7-4.6-4.2
		c-1.8-1.8-3.4-4.1-4.8-6.4c-1.4-2.5-2.5-5-2.8-7.6c0.9,2.3,2.8,4.1,4.4,6c1.7,1.5,3.6,2.8,5.6,3.9c-0.8-2.2-1.5-4.4-1.9-6.6
		c-0.7-3.4-0.7-7.1-0.5-10.5c0.5-3.2,1.1-6.6,2.1-9.9c0,3.4,0.5,6.6,1.1,9.9c0.7,3.2,1.6,6.2,3,8.9c1.4,2.8,3.2,5.3,5,7.1
		c0.5,0.5,1,1,1.5,1.5c1.4-1.2,2.8-2.2,4.4-3.3l-3.2-6.6c2.1-1.4,4.6-2.8,6.9-3.9l4.1,6.2c2.3-1.1,4.4-2.1,6.6-2.8l-1.4-7.3
		c2.5-0.9,5-1.6,7.8-2.1l2.3,7.1c2.3-0.5,4.8-0.7,7.1-0.9l0.5-7.3c1.1-0.2,2.5-0.2,3.9-0.2c1.1,0,2.5,0.2,3.9,0.2l0.5,7.3
		c2.5,0.2,4.8,0.5,7.1,0.9l2.3-7.1c2.8,0.5,5.3,1.1,7.8,2.1l-1.4,7.3c2.3,0.9,4.6,1.6,6.6,2.8l4.1-6.2c2.3,1.1,4.6,2.5,6.9,3.9
		l-3.2,6.6c2.1,1.4,3.9,2.8,5.7,4.4l5.5-4.8c2.1,1.8,3.9,3.7,5.7,5.7l-4.8,5.5c1.6,1.8,3,3.7,4.4,5.7l6.6-3.2
		c1.4,2.1,2.8,4.6,3.9,6.9l-6.2,4.1c1.1,2.3,2.1,4.4,2.8,6.6l7.3-1.4c0.9,2.5,1.6,5.3,2.1,7.8l-7.1,2.3c0.5,2.3,0.7,4.8,0.9,7.1
		l7.3,0.5c0.2,1.1,0.2,2.5,0.2,3.9c0,1.1-0.2,2.5-0.2,3.9l-7.3,0.5c-0.2,2.5-0.5,4.8-0.9,7.1l7.1,2.3c-0.5,2.8-1.1,5.3-2.1,7.8
		l-7.3-1.4c-0.9,2.3-1.8,4.6-2.8,6.6L251.2,235.7z M268.8,264.8c0,0-13.3-12.8-13.3-20.2c0-6.4,4.5-11.7,10.5-13
		c0-4.3,0.2-23,0.2-30.3c0-5.1,0.1-23.2-8-41.6c-2.3-4.8-5.2-9.4-8.4-13.6c-6-7.8-13.3-14.7-21.8-19.9c-1.5-1-3.1-1.9-4.6-2.8
		c-32-16.5-65.7-10.5-94.6,1.3c0,0-1.6,0.9-2.3-0.4s1.2-2,1.2-2s51.6-30.8,106.6,2.2c18.9,10.9,34.2,37.7,34.4,47.3
		c0.2-9.6,15.5-36.4,34.4-47.3c55-33,106.6-2.2,106.6-2.2s1.4,0.5,0.9,1.7s-1.9,0.7-1.9,0.7c-31.4-12.8-68.5-18.8-102.9,3.6
		c-6.9,5-13.1,10.8-18.2,17.4c-1.5,1.9-2.8,3.9-4.1,5.9c-12.4,20.9-12.2,43.8-12.2,49.7c0,7.4,0.2,26.4,0.2,30.4
		c6.1,1.3,10.5,6.6,10.5,13C282.1,252,268.8,264.8,268.8,264.8z M416.7,208.7l-7.3,0.5c-0.2,2.5-0.5,4.8-0.9,7.1l7.1,2.3
		c-0.5,2.8-1.1,5.3-2.1,7.8l-7.3-1.4c-0.9,2.3-1.6,4.6-2.8,6.6l6.2,4.1c-1.1,2.3-2.5,4.6-3.9,6.9l-6.6-3.2c-1.4,2.1-2.8,3.9-4.4,5.7
		l4.8,5.5c-1.8,2.1-3.7,3.9-5.7,5.7l-5.5-4.8c-1.8,1.6-3.7,3-5.7,4.4l3.2,6.6c-2.1,1.4-4.6,2.8-6.9,3.9l-4.1-6.2
		c-2.3,1.1-4.4,2.1-6.6,2.8l1.4,7.3c-2.5,0.9-5,1.6-7.8,2.1l-2.3-7.1c-2.3,0.5-4.8,0.7-7.1,0.9l-0.5,7.3c-1.1,0.2-2.5,0.2-3.9,0.2
		c-1.1,0-2.5-0.2-3.9-0.2l-0.5-7.3c-2.5-0.2-4.8-0.5-7.1-0.9l-2.3,7.1c-2.8-0.5-5.3-1.1-7.8-2.1l1.4-7.3c-2.3-0.9-4.6-1.6-6.6-2.8
		l-4.1,6.2c-2.3-1.1-4.6-2.5-6.9-3.9l3.2-6.6c-2.1-1.4-3.9-2.8-5.7-4.4l-5.5,4.8c-2.1-1.8-3.9-3.7-5.7-5.7l4.8-5.5
		c-1.6-1.8-3-3.7-4.4-5.7l-6.6,3.2c-1.4-2.1-2.8-4.6-3.9-6.9l6.2-4.1c-1.1-2.3-2.1-4.4-2.8-6.6l-7.3,1.4c-0.9-2.5-1.6-5.3-2.1-7.8
		l7.1-2.3c-0.5-2.3-0.7-4.8-0.9-7.1l-7.3-0.5c-0.2-1.1-0.2-2.5-0.2-3.9c0-1.1,0.2-2.5,0.2-3.9l7.3-0.5c0.2-2.5,0.5-4.8,0.9-7.1
		l-7.1-2.3c0.5-2.8,1.1-5.3,2.1-7.8l7.3,1.4c0.9-2.3,1.6-4.6,2.8-6.6l-6.2-4.1c1.1-2.3,2.5-4.6,3.9-6.9l6.6,3.2
		c1.4-2.1,2.8-3.9,4.4-5.7l-4.8-5.5c1.8-2.1,3.7-3.9,5.7-5.7l5.5,4.8c1.8-1.6,3.7-3,5.7-4.4l-3.2-6.6c2.1-1.4,4.6-2.8,6.9-3.9
		l4.1,6.2c2.3-1.1,4.4-2.1,6.6-2.8l-1.4-7.3c2.5-0.9,5-1.6,7.8-2.1l2.3,7.1c2.3-0.5,4.8-0.7,7.1-0.9l0.5-7.3
		c1.1-0.2,2.5-0.2,3.9-0.2c1.1,0,2.5,0.2,3.9,0.2l0.5,7.3c2.5,0.2,4.8,0.5,7.1,0.9l2.3-7.1c2.8,0.5,5.3,1.1,7.8,2.1l-1.4,7.3
		c2.3,0.9,4.6,1.6,6.6,2.8l4.1-6.2c2.3,1.1,4.6,2.5,6.9,3.9l-3.2,6.6c1.6,1.1,3,2.1,4.4,3.3c0.5-0.4,1.1-0.9,1.5-1.5
		c2.1-2.1,3.7-4.4,5-7.1c1.4-2.8,2.3-5.7,3-8.9c0.9-3.2,1.4-6.4,1.4-9.9c0.9,3.2,1.6,6.6,1.8,9.9c0.2,3.4,0.2,6.9-0.5,10.5
		c-0.3,2.2-0.9,4.4-1.8,6.5c2-1.1,3.9-2.4,5.7-3.9c1.6-1.4,3.4-3.4,4.4-5.7c-0.2,2.5-1.4,5-2.8,7.3c-1.4,2.3-3,4.4-4.8,6.4
		c-1.5,1.7-3.2,3.1-4.9,4.4c1.4,1.7,2.7,3.3,3.9,5.2l6.6-3.2c1.4,2.1,2.8,4.6,3.9,6.9l-6.2,4.1c1.1,2.3,2.1,4.4,2.8,6.6l7.3-1.4
		c0.9,2.5,1.6,5.3,2.1,7.8l-7.1,2.3c0.5,2.3,0.7,4.8,0.9,7.1l7.3,0.5c0.2,1.1,0.2,2.5,0.2,3.9C416.9,205.9,416.7,207.3,416.7,208.7z
		"/>
</g>
</svg>
