<?xml version="1.0" encoding="utf-8"?>
<!-- Generator: Adobe Illustrator 22.1.0, SVG Export Plug-In . SVG Version: 6.00 Build 0)  -->
<svg version="1.1" id="Layer_1" xmlns="http://www.w3.org/2000/svg" xmlns:xlink="http://www.w3.org/1999/xlink" x="0px" y="0px"
	 viewBox="0 0 576 792" style="enable-background:new 0 0 576 792;" xml:space="preserve">
<style type="text/css">
	.st0{fill:#614B26;}
	.st1{fill:#FFFFFF;}
	.st2{fill:#1B75BC;}
	.st3{fill:#00AEEF;}
</style>
<g id="head">
	<path id="chipboard" class="st0" d="M352.2,316.7c-34.3,6.7-28.3,46.1-36.6,46.1c-12,0-10.5-37.3-23.8-70.9
		c-13.2-33.6-54.9-39.8-54.9-39.8C286,328.6,190,358.5,190,442.6c0,53.9,43.9,97.5,98,97.5s98-43.7,98-97.5
		C386.1,380.1,338.9,386.7,352.2,316.7z"/>
	<path id="black" d="M352.2,316.7c-34.3,6.7-28.3,46.1-36.6,46.1c-12,0-10.5-37.3-23.8-70.9c-13.2-33.6-54.9-39.8-54.9-39.8
		C286,328.6,190,358.5,190,442.6c0,53.9,43.9,97.5,98,97.5s98-43.7,98-97.5C386.1,380.1,338.9,386.7,352.2,316.7z"/>
	<path id="white" class="st1" d="M344.1,330.2c-19.4,7.5-13.4,41.9-29.3,42.2c-15.9,0.3-14.4-34.1-26.7-65.3
		c-12.3-31.3-35-37.7-35-37.7c35.4,60.6-55.7,99.1-55.7,177.3c0,50.1,40.6,90.7,90.7,90.7s90.7-40.6,90.7-90.7
		C378.8,388.5,333.7,388.5,344.1,330.2z"/>
	<path id="dark_blue" class="st2" d="M378.8,446.7c0,50.1-40.6,90.7-90.7,90.7s-90.7-40.6-90.7-90.7c0-78.1,91.2-116.6,55.7-177.3
		c0,0,22.7,6.4,35,37.7s10.8,65.6,26.7,65.3c15.9-0.3,9.9-34.7,29.3-42.2C333.7,388.5,378.8,388.5,378.8,446.7z M240.6,420.4
		c-1.4,4.2-2.3,8.9-2.3,14c0,16.3,8.5,29.6,18.9,29.6c10,0,18.1-12.1,18.9-27.5c2.4-0.9,4.8-2.5,6.9-5c-0.5,0.5-2.8,2-11.6,1.6
		c-10.3-0.5-41-30-48.5-30.8c-6.9-0.7-9.5,2.5-9.5,2.5C219.4,401.8,229.5,411,240.6,420.4z M356.7,486.8l-23.7-19l-3.9,28.8
		l-16.1-19.5l-8.5,29.4l-17.8-26.8l-10.5,20.6l-10.5-24.2l-18.5,25l-9.6-31.3l-18,20.8l14.8-5.4l10,32.6l19.6-26.6l11.7,26.9
		l11.9-23.4l19.7,29.6l9.1-31.3l18,21.9l4.4-32.8L356.7,486.8z M362.7,404.9c0,0-2.5-3.2-9.5-2.5c-7.6,0.8-38.2,30.3-48.5,30.8
		c-8.8,0.4-11.1-1.2-11.6-1.6c2.2,2.5,4.5,4.1,6.9,5c0.7,15.3,8.9,27.5,18.9,27.5c10.4,0,18.9-13.3,18.9-29.6c0-5.1-0.8-9.8-2.2-14
		C346.6,411,356.7,401.8,362.7,404.9z"/>
	<path id="blue" class="st3" d="M344.1,330.2c-19.4,7.5-13.4,41.9-29.3,42.2c-15.9,0.3-14.4-34.1-26.7-65.3
		c-12.3-31.3-35-37.7-35-37.7c35.4,60.6-55.7,99.1-55.7,177.3c0,50.1,40.6,90.7,90.7,90.7s90.7-40.6,90.7-90.7
		C378.8,388.5,333.7,388.5,344.1,330.2z M346.7,463c0.3,5.1-0.2,10.1-1.3,14.9l11.2,9l-12.8-3.3c-1.7,5-4.1,9.7-7.1,13.9l-2.4,17.5
		l-6.3-7.7c-5.6,5.1-12.1,9.2-19.3,12l-1.5,5.1l-2.5-3.7c-5.9,1.9-12.1,2.9-18.6,2.9c-14.1,0-26.6-4.8-36.5-12.9l-5.3,7.2l-5.8-18.9
		c-2.8-3.9-5.3-8.1-7.2-12.7l-11.8,4.3l9.3-10.8c-1.7-5.4-2.9-11.1-3.3-16.9c-1.1-15.4,2.4-32.5,8.3-48.4
		c-8.3-6.9-15.6-12.1-20.3-9.7c0,0,2.5-3.2,9.5-2.5c2.4,0.2,7.1,3.3,12.7,7.5c14.7-36.1,40.9-63.5,50.3-42.8
		c10.6,23.7,32,29.3,46.5,48.9c9-6.9,17.3-13.3,20.8-13.6c6.9-0.7,9.5,2.5,9.5,2.5c-6-3.1-16,6.1-27.2,15.5c0.1,0.2,0.1,0.3,0.2,0.5
		C341.5,430.7,345.8,443.8,346.7,463z"/>
	<path id="eyes" class="st3" d="M248.3,443.8c0-5.9,1.7-11.1,4.2-14.1c4.3,3,8.6,5.4,12.8,6.7c0.6,2.2,0.9,4.7,0.9,7.4
		c0,9.2-4,16.6-8.9,16.6C252.4,460.4,248.3,453,248.3,443.8z M310.8,436.4c-0.6,2.2-0.9,4.7-0.9,7.4c0,9.2,4,16.6,8.9,16.6
		s8.9-7.4,8.9-16.6c0-5.9-1.7-11.1-4.2-14.1C319.2,432.7,314.9,435.1,310.8,436.4z"/>
</g>
</svg>
